G04 #@! TF.GenerationSoftware,KiCad,Pcbnew,(7.0.0)*
G04 #@! TF.CreationDate,2023-06-02T20:53:43-06:00*
G04 #@! TF.ProjectId,WatchDogV4-CAP,57617463-6844-46f6-9756-342d4341502e,rev?*
G04 #@! TF.SameCoordinates,Original*
G04 #@! TF.FileFunction,Soldermask,Top*
G04 #@! TF.FilePolarity,Negative*
%FSLAX46Y46*%
G04 Gerber Fmt 4.6, Leading zero omitted, Abs format (unit mm)*
G04 Created by KiCad (PCBNEW (7.0.0)) date 2023-06-02 20:53:43*
%MOMM*%
%LPD*%
G01*
G04 APERTURE LIST*
G04 Aperture macros list*
%AMRoundRect*
0 Rectangle with rounded corners*
0 $1 Rounding radius*
0 $2 $3 $4 $5 $6 $7 $8 $9 X,Y pos of 4 corners*
0 Add a 4 corners polygon primitive as box body*
4,1,4,$2,$3,$4,$5,$6,$7,$8,$9,$2,$3,0*
0 Add four circle primitives for the rounded corners*
1,1,$1+$1,$2,$3*
1,1,$1+$1,$4,$5*
1,1,$1+$1,$6,$7*
1,1,$1+$1,$8,$9*
0 Add four rect primitives between the rounded corners*
20,1,$1+$1,$2,$3,$4,$5,0*
20,1,$1+$1,$4,$5,$6,$7,0*
20,1,$1+$1,$6,$7,$8,$9,0*
20,1,$1+$1,$8,$9,$2,$3,0*%
G04 Aperture macros list end*
%ADD10R,1.700000X1.700000*%
%ADD11O,1.700000X1.700000*%
%ADD12R,1.400000X0.400000*%
%ADD13R,1.900000X2.300000*%
%ADD14R,1.900000X1.800000*%
%ADD15C,2.100000*%
%ADD16R,1.500000X1.500000*%
%ADD17C,1.500000*%
%ADD18C,1.600000*%
%ADD19O,1.600000X1.600000*%
%ADD20R,1.600000X1.600000*%
%ADD21R,1.800000X1.800000*%
%ADD22C,1.800000*%
%ADD23O,1.800000X1.800000*%
%ADD24R,1.500000X1.600000*%
%ADD25C,3.000000*%
%ADD26R,1.600000X2.400000*%
%ADD27O,1.600000X2.400000*%
%ADD28RoundRect,0.250000X0.350000X0.625000X-0.350000X0.625000X-0.350000X-0.625000X0.350000X-0.625000X0*%
%ADD29O,1.200000X1.750000*%
G04 APERTURE END LIST*
D10*
X87629999Y-44322999D03*
D11*
X90169999Y-44322999D03*
X92709999Y-44322999D03*
X95249999Y-44322999D03*
D12*
X123824999Y-54624999D03*
X123824999Y-53974999D03*
X123824999Y-53324999D03*
X123824999Y-52674999D03*
X123824999Y-52024999D03*
D13*
X126674999Y-57074999D03*
D14*
X126674999Y-54474999D03*
X126674999Y-52174999D03*
D13*
X126674999Y-49574999D03*
D15*
X125349000Y-64135000D03*
D16*
X104012999Y-42036999D03*
D17*
X101473000Y-42037000D03*
X98933000Y-42037000D03*
D18*
X86360000Y-61087000D03*
D19*
X76199999Y-61086999D03*
D10*
X120380999Y-64769999D03*
D11*
X117840999Y-64769999D03*
X115300999Y-64769999D03*
D20*
X119379999Y-58419999D03*
D18*
X119380000Y-55920000D03*
D15*
X66929000Y-42545000D03*
X125349000Y-42545000D03*
D18*
X116713000Y-42037000D03*
D19*
X106552999Y-42036999D03*
D18*
X101854000Y-64897000D03*
D19*
X112013999Y-64896999D03*
D21*
X121543999Y-42798999D03*
D22*
X119004000Y-42799000D03*
D15*
X66929000Y-64135000D03*
D21*
X98932999Y-57657999D03*
D23*
X98932999Y-47497999D03*
D18*
X101473000Y-61087000D03*
D19*
X111632999Y-61086999D03*
D18*
X88900000Y-61087000D03*
D19*
X99059999Y-61086999D03*
D24*
X71399999Y-49839999D03*
D18*
X71400000Y-52340000D03*
X71400000Y-54340000D03*
X71400000Y-56840000D03*
D25*
X68690000Y-46770000D03*
X68690000Y-59910000D03*
D26*
X95376999Y-49529999D03*
D27*
X92836999Y-49529999D03*
X90296999Y-49529999D03*
X87756999Y-49529999D03*
X85216999Y-49529999D03*
X82676999Y-49529999D03*
X80136999Y-49529999D03*
X77596999Y-49529999D03*
X77596999Y-57149999D03*
X80136999Y-57149999D03*
X82676999Y-57149999D03*
X85216999Y-57149999D03*
X87756999Y-57149999D03*
X90296999Y-57149999D03*
X92836999Y-57149999D03*
X95376999Y-57149999D03*
D18*
X106045000Y-45720000D03*
D19*
X116204999Y-45719999D03*
D18*
X102870000Y-57658000D03*
D19*
X102869999Y-47497999D03*
D28*
X75168000Y-44233000D03*
D29*
X73167999Y-44232999D03*
D10*
X98678999Y-64896999D03*
D11*
X96138999Y-64896999D03*
X93598999Y-64896999D03*
X91058999Y-64896999D03*
D26*
X106689999Y-57164999D03*
D27*
X109229999Y-57164999D03*
X111769999Y-57164999D03*
X114309999Y-57164999D03*
X114309999Y-49544999D03*
X111769999Y-49544999D03*
X109229999Y-49544999D03*
X106689999Y-49544999D03*
D28*
X82804000Y-44233000D03*
D29*
X80803999Y-44232999D03*
M02*
