G04 #@! TF.GenerationSoftware,KiCad,Pcbnew,(7.0.0)*
G04 #@! TF.CreationDate,2023-06-02T20:53:42-06:00*
G04 #@! TF.ProjectId,WatchDogV4-CAP,57617463-6844-46f6-9756-342d4341502e,rev?*
G04 #@! TF.SameCoordinates,Original*
G04 #@! TF.FileFunction,Copper,L1,Top*
G04 #@! TF.FilePolarity,Positive*
%FSLAX46Y46*%
G04 Gerber Fmt 4.6, Leading zero omitted, Abs format (unit mm)*
G04 Created by KiCad (PCBNEW (7.0.0)) date 2023-06-02 20:53:42*
%MOMM*%
%LPD*%
G01*
G04 APERTURE LIST*
G04 Aperture macros list*
%AMRoundRect*
0 Rectangle with rounded corners*
0 $1 Rounding radius*
0 $2 $3 $4 $5 $6 $7 $8 $9 X,Y pos of 4 corners*
0 Add a 4 corners polygon primitive as box body*
4,1,4,$2,$3,$4,$5,$6,$7,$8,$9,$2,$3,0*
0 Add four circle primitives for the rounded corners*
1,1,$1+$1,$2,$3*
1,1,$1+$1,$4,$5*
1,1,$1+$1,$6,$7*
1,1,$1+$1,$8,$9*
0 Add four rect primitives between the rounded corners*
20,1,$1+$1,$2,$3,$4,$5,0*
20,1,$1+$1,$4,$5,$6,$7,0*
20,1,$1+$1,$6,$7,$8,$9,0*
20,1,$1+$1,$8,$9,$2,$3,0*%
G04 Aperture macros list end*
G04 #@! TA.AperFunction,ComponentPad*
%ADD10R,1.700000X1.700000*%
G04 #@! TD*
G04 #@! TA.AperFunction,ComponentPad*
%ADD11O,1.700000X1.700000*%
G04 #@! TD*
G04 #@! TA.AperFunction,SMDPad,CuDef*
%ADD12R,1.400000X0.400000*%
G04 #@! TD*
G04 #@! TA.AperFunction,SMDPad,CuDef*
%ADD13R,1.900000X2.300000*%
G04 #@! TD*
G04 #@! TA.AperFunction,SMDPad,CuDef*
%ADD14R,1.900000X1.800000*%
G04 #@! TD*
G04 #@! TA.AperFunction,ComponentPad*
%ADD15R,1.500000X1.500000*%
G04 #@! TD*
G04 #@! TA.AperFunction,ComponentPad*
%ADD16C,1.500000*%
G04 #@! TD*
G04 #@! TA.AperFunction,ComponentPad*
%ADD17C,1.600000*%
G04 #@! TD*
G04 #@! TA.AperFunction,ComponentPad*
%ADD18O,1.600000X1.600000*%
G04 #@! TD*
G04 #@! TA.AperFunction,ComponentPad*
%ADD19R,1.600000X1.600000*%
G04 #@! TD*
G04 #@! TA.AperFunction,ComponentPad*
%ADD20R,1.800000X1.800000*%
G04 #@! TD*
G04 #@! TA.AperFunction,ComponentPad*
%ADD21C,1.800000*%
G04 #@! TD*
G04 #@! TA.AperFunction,ComponentPad*
%ADD22O,1.800000X1.800000*%
G04 #@! TD*
G04 #@! TA.AperFunction,ComponentPad*
%ADD23R,1.500000X1.600000*%
G04 #@! TD*
G04 #@! TA.AperFunction,ComponentPad*
%ADD24C,3.000000*%
G04 #@! TD*
G04 #@! TA.AperFunction,ComponentPad*
%ADD25R,1.600000X2.400000*%
G04 #@! TD*
G04 #@! TA.AperFunction,ComponentPad*
%ADD26O,1.600000X2.400000*%
G04 #@! TD*
G04 #@! TA.AperFunction,ComponentPad*
%ADD27RoundRect,0.250000X0.350000X0.625000X-0.350000X0.625000X-0.350000X-0.625000X0.350000X-0.625000X0*%
G04 #@! TD*
G04 #@! TA.AperFunction,ComponentPad*
%ADD28O,1.200000X1.750000*%
G04 #@! TD*
G04 #@! TA.AperFunction,ViaPad*
%ADD29C,0.800000*%
G04 #@! TD*
G04 #@! TA.AperFunction,Conductor*
%ADD30C,1.000000*%
G04 #@! TD*
G04 #@! TA.AperFunction,Conductor*
%ADD31C,0.200000*%
G04 #@! TD*
G04 #@! TA.AperFunction,Conductor*
%ADD32C,0.750000*%
G04 #@! TD*
G04 #@! TA.AperFunction,Conductor*
%ADD33C,0.500000*%
G04 #@! TD*
G04 #@! TA.AperFunction,Conductor*
%ADD34C,0.250000*%
G04 #@! TD*
G04 #@! TA.AperFunction,Conductor*
%ADD35C,0.400000*%
G04 #@! TD*
G04 #@! TA.AperFunction,Conductor*
%ADD36C,0.000000*%
G04 #@! TD*
G04 APERTURE END LIST*
D10*
X87629999Y-44322999D03*
D11*
X90169999Y-44322999D03*
X92709999Y-44322999D03*
X95249999Y-44322999D03*
D12*
X123824999Y-54624999D03*
X123824999Y-53974999D03*
X123824999Y-53324999D03*
X123824999Y-52674999D03*
X123824999Y-52024999D03*
D13*
X126674999Y-57074999D03*
D14*
X126674999Y-54474999D03*
X126674999Y-52174999D03*
D13*
X126674999Y-49574999D03*
D15*
X104012999Y-42036999D03*
D16*
X101473000Y-42037000D03*
X98933000Y-42037000D03*
D17*
X86360000Y-61087000D03*
D18*
X76199999Y-61086999D03*
D10*
X120380999Y-64769999D03*
D11*
X117840999Y-64769999D03*
X115300999Y-64769999D03*
D19*
X119379999Y-58419999D03*
D17*
X119380000Y-55920000D03*
X116713000Y-42037000D03*
D18*
X106552999Y-42036999D03*
D17*
X101854000Y-64897000D03*
D18*
X112013999Y-64896999D03*
D20*
X121543999Y-42798999D03*
D21*
X119004000Y-42799000D03*
D20*
X98932999Y-57657999D03*
D22*
X98932999Y-47497999D03*
D17*
X101473000Y-61087000D03*
D18*
X111632999Y-61086999D03*
D17*
X88900000Y-61087000D03*
D18*
X99059999Y-61086999D03*
D23*
X71399999Y-49839999D03*
D17*
X71400000Y-52340000D03*
X71400000Y-54340000D03*
X71400000Y-56840000D03*
D24*
X68690000Y-46770000D03*
X68690000Y-59910000D03*
D25*
X95376999Y-49529999D03*
D26*
X92836999Y-49529999D03*
X90296999Y-49529999D03*
X87756999Y-49529999D03*
X85216999Y-49529999D03*
X82676999Y-49529999D03*
X80136999Y-49529999D03*
X77596999Y-49529999D03*
X77596999Y-57149999D03*
X80136999Y-57149999D03*
X82676999Y-57149999D03*
X85216999Y-57149999D03*
X87756999Y-57149999D03*
X90296999Y-57149999D03*
X92836999Y-57149999D03*
X95376999Y-57149999D03*
D17*
X106045000Y-45720000D03*
D18*
X116204999Y-45719999D03*
D17*
X102870000Y-57658000D03*
D18*
X102869999Y-47497999D03*
D27*
X75168000Y-44233000D03*
D28*
X73167999Y-44232999D03*
D10*
X98678999Y-64896999D03*
D11*
X96138999Y-64896999D03*
X93598999Y-64896999D03*
X91058999Y-64896999D03*
D25*
X106689999Y-57164999D03*
D26*
X109229999Y-57164999D03*
X111769999Y-57164999D03*
X114309999Y-57164999D03*
X114309999Y-49544999D03*
X111769999Y-49544999D03*
X109229999Y-49544999D03*
X106689999Y-49544999D03*
D27*
X82804000Y-44233000D03*
D28*
X80803999Y-44232999D03*
D29*
X97409000Y-54356000D03*
X116458999Y-52577999D03*
X118935500Y-53530500D03*
X98552000Y-55753000D03*
X115697000Y-61468000D03*
X111887000Y-53467000D03*
X115189000Y-53594000D03*
X116840000Y-60579000D03*
D30*
X77634000Y-44233000D02*
X75168000Y-44233000D01*
D31*
X108966000Y-49281000D02*
X109230000Y-49545000D01*
D30*
X87645000Y-55768000D02*
X87645000Y-56911000D01*
X86487000Y-54610000D02*
X87645000Y-55768000D01*
D32*
X102870000Y-57658000D02*
X105029000Y-59817000D01*
D30*
X73279000Y-44122000D02*
X73168000Y-44233000D01*
X82565000Y-49545000D02*
X82565000Y-49164000D01*
D33*
X117475000Y-42799000D02*
X116713000Y-42037000D01*
D34*
X80264000Y-44323000D02*
X80280000Y-44307000D01*
D31*
X111770000Y-57394000D02*
X111770000Y-57165000D01*
X87645000Y-56911000D02*
X87645000Y-57165000D01*
X71400000Y-49840000D02*
X71430000Y-49840000D01*
D30*
X76962000Y-54610000D02*
X86487000Y-54610000D01*
D33*
X104648000Y-54356000D02*
X97409000Y-54356000D01*
D30*
X78989000Y-42418000D02*
X74168000Y-42418000D01*
D32*
X105029000Y-59817000D02*
X109982000Y-59817000D01*
D30*
X82565000Y-49545000D02*
X82290000Y-49545000D01*
X71430000Y-49840000D02*
X72192000Y-49840000D01*
D34*
X80280000Y-44307000D02*
X80280000Y-44233000D01*
D30*
X72192000Y-49840000D02*
X76962000Y-54610000D01*
D33*
X109347000Y-49657000D02*
X104648000Y-54356000D01*
D31*
X87645000Y-56657000D02*
X87645000Y-57165000D01*
D30*
X80804000Y-44233000D02*
X78989000Y-42418000D01*
X73279000Y-43307000D02*
X73279000Y-44122000D01*
X109347000Y-49657000D02*
X109347000Y-49428000D01*
D32*
X111770000Y-58029000D02*
X111770000Y-57394000D01*
X109982000Y-59817000D02*
X111770000Y-58029000D01*
D33*
X119004000Y-42799000D02*
X117475000Y-42799000D01*
D30*
X74168000Y-42418000D02*
X73279000Y-43307000D01*
D31*
X109347000Y-49428000D02*
X109230000Y-49545000D01*
D30*
X82565000Y-49164000D02*
X77634000Y-44233000D01*
D33*
X120370000Y-49840000D02*
X120370000Y-43973000D01*
D31*
X106985000Y-49840000D02*
X106690000Y-49545000D01*
D30*
X104013000Y-43687998D02*
X106045002Y-45720000D01*
X71400000Y-61621000D02*
X71400000Y-56840000D01*
D33*
X120370000Y-43973000D02*
X121544000Y-42799000D01*
D30*
X104013000Y-41783000D02*
X104013000Y-43687998D01*
X106690000Y-49545000D02*
X106690000Y-47254000D01*
X83185000Y-64770000D02*
X74549000Y-64770000D01*
X86360000Y-61595000D02*
X83185000Y-64770000D01*
X74549000Y-64770000D02*
X71400000Y-61621000D01*
X86360000Y-61087000D02*
X86360000Y-61595000D01*
D35*
X122555000Y-52025000D02*
X120370000Y-49840000D01*
D30*
X88900000Y-61087000D02*
X86360000Y-61087000D01*
D35*
X123825000Y-52025000D02*
X122555000Y-52025000D01*
D30*
X106690000Y-47254000D02*
X106045000Y-46609000D01*
X105405000Y-55880000D02*
X106690000Y-57165000D01*
X82565000Y-57165000D02*
X82565000Y-58181000D01*
D31*
X88138000Y-44323000D02*
X87757000Y-44704000D01*
D35*
X91567000Y-48260000D02*
X91567000Y-53594000D01*
D30*
X98440000Y-57165000D02*
X98933000Y-57658000D01*
X106792000Y-56022000D02*
X107696000Y-55118000D01*
D33*
X123825000Y-54625000D02*
X123048000Y-54625000D01*
D30*
X91313000Y-59436000D02*
X92075000Y-59436000D01*
D35*
X87630000Y-44323000D02*
X91567000Y-48260000D01*
D30*
X95265000Y-57165000D02*
X98440000Y-57165000D01*
D33*
X119380000Y-58293000D02*
X119380000Y-58420000D01*
D30*
X100711000Y-55880000D02*
X105405000Y-55880000D01*
X118998997Y-58420000D02*
X119380000Y-58420000D01*
X95265000Y-58024000D02*
X95265000Y-57897000D01*
X115696997Y-55118000D02*
X118998997Y-58420000D01*
X82565000Y-58181000D02*
X83820000Y-59436000D01*
X93853000Y-59436000D02*
X95265000Y-58024000D01*
X91059000Y-59436000D02*
X91059000Y-64897000D01*
D31*
X95265000Y-57897000D02*
X95265000Y-57165000D01*
D30*
X92075000Y-59436000D02*
X93853000Y-59436000D01*
X106792000Y-57165000D02*
X106792000Y-56022000D01*
X83820000Y-59436000D02*
X91313000Y-59436000D01*
D33*
X123048000Y-54625000D02*
X119380000Y-58293000D01*
D35*
X91567000Y-53594000D02*
X95138000Y-57165000D01*
D31*
X95265000Y-56530000D02*
X95265000Y-57165000D01*
D30*
X107696000Y-55118000D02*
X115696997Y-55118000D01*
X98933000Y-57658000D02*
X100711000Y-55880000D01*
D31*
X106690000Y-57165000D02*
X106792000Y-57165000D01*
X95138000Y-57165000D02*
X95265000Y-57165000D01*
D33*
X116696998Y-52340000D02*
X116458999Y-52577999D01*
D35*
X123825000Y-53325000D02*
X121355000Y-53325000D01*
X121355000Y-53325000D02*
X120370000Y-52340000D01*
D33*
X120370000Y-52340000D02*
X116696998Y-52340000D01*
D35*
X119380000Y-53975000D02*
X118935500Y-53530500D01*
X123825000Y-53975000D02*
X119380000Y-53975000D01*
D30*
X114310000Y-49545000D02*
X114310000Y-47107000D01*
D36*
X87630000Y-49530000D02*
X87645000Y-49545000D01*
D34*
X115810000Y-46115000D02*
X116205000Y-45720000D01*
D36*
X87645000Y-49545000D02*
X87645000Y-49074000D01*
D30*
X114310000Y-47107000D02*
X115697000Y-45720000D01*
X87645000Y-49074000D02*
X82804000Y-44233000D01*
D36*
X87757000Y-49433000D02*
X87757000Y-49403000D01*
X82804000Y-44233000D02*
X82804000Y-44704000D01*
X87645000Y-49545000D02*
X87757000Y-49433000D01*
X87757000Y-49403000D02*
X87884000Y-49530000D01*
X82804000Y-44704000D02*
X82931000Y-44831000D01*
D30*
X114310000Y-62600998D02*
X112013998Y-64897000D01*
D35*
X94107000Y-45466000D02*
X95250000Y-44323000D01*
X97028000Y-55753000D02*
X94107000Y-52832000D01*
X98552000Y-55753000D02*
X97028000Y-55753000D01*
D30*
X114310000Y-57165000D02*
X114310000Y-62600998D01*
D35*
X94107000Y-52832000D02*
X94107000Y-45466000D01*
D36*
X103124000Y-47244000D02*
X103505000Y-47244000D01*
X101473000Y-42037000D02*
X101472999Y-42036999D01*
D32*
X101472999Y-46100999D02*
X101472999Y-42036999D01*
D36*
X102489000Y-47244000D02*
X102743000Y-47498000D01*
X102870000Y-47498000D02*
X103124000Y-47244000D01*
D32*
X102870000Y-47498000D02*
X101472999Y-46100999D01*
D36*
X102743000Y-47498000D02*
X102870000Y-47498000D01*
D32*
X98932999Y-47244001D02*
X98932999Y-47498001D01*
D30*
X98933000Y-47498000D02*
X98932999Y-47498001D01*
D31*
X98933000Y-47244000D02*
X98933000Y-47498000D01*
D32*
X98933000Y-47244000D02*
X98932999Y-47244001D01*
D30*
X76200000Y-60960000D02*
X76200000Y-58450000D01*
X76200000Y-58450000D02*
X77485000Y-57165000D01*
X95280000Y-49530000D02*
X95265000Y-49545000D01*
X98933000Y-47498000D02*
X96901000Y-49530000D01*
X98933000Y-42037000D02*
X98933000Y-47498000D01*
X96901000Y-49530000D02*
X95280000Y-49530000D01*
X96139000Y-64337000D02*
X99389000Y-61087000D01*
X96139000Y-64897000D02*
X96139000Y-64337000D01*
X99389000Y-61087000D02*
X101473000Y-61087000D01*
D33*
X111770000Y-49545000D02*
X111770000Y-53350000D01*
D36*
X111770000Y-49545000D02*
X111872000Y-49545000D01*
D33*
X115697000Y-62626000D02*
X115697000Y-61468000D01*
D36*
X111770000Y-53350000D02*
X111887000Y-53467000D01*
D33*
X117841000Y-64770000D02*
X115697000Y-62626000D01*
D36*
X111872000Y-49545000D02*
X111887000Y-49530000D01*
D33*
X114554000Y-42037000D02*
X118237000Y-45720000D01*
X106553000Y-42037000D02*
X114554000Y-42037000D01*
X116840000Y-60579000D02*
X120381000Y-64120000D01*
X118237000Y-45720000D02*
X118237000Y-48514000D01*
D31*
X120381000Y-64120000D02*
X120381000Y-64770000D01*
D33*
X115189000Y-51562000D02*
X115189000Y-53594000D01*
X118237000Y-48514000D02*
X115189000Y-51562000D01*
G04 #@! TA.AperFunction,Conductor*
G36*
X118017246Y-53104015D02*
G01*
X118061269Y-53141614D01*
X118083424Y-53195102D01*
X118078882Y-53252818D01*
X118051833Y-53336064D01*
X118051831Y-53336073D01*
X118049826Y-53342244D01*
X118049148Y-53348694D01*
X118049146Y-53348704D01*
X118033928Y-53493503D01*
X118030040Y-53530500D01*
X118030719Y-53536960D01*
X118049146Y-53712295D01*
X118049147Y-53712303D01*
X118049826Y-53718756D01*
X118051831Y-53724928D01*
X118051833Y-53724935D01*
X118091478Y-53846947D01*
X118108321Y-53898784D01*
X118111568Y-53904408D01*
X118111569Y-53904410D01*
X118174204Y-54012898D01*
X118202967Y-54062716D01*
X118207311Y-54067541D01*
X118207313Y-54067543D01*
X118297535Y-54167744D01*
X118329629Y-54203388D01*
X118334887Y-54207208D01*
X118334888Y-54207209D01*
X118340661Y-54211403D01*
X118482770Y-54314651D01*
X118655697Y-54391644D01*
X118809859Y-54424411D01*
X118846509Y-54438564D01*
X118876891Y-54463473D01*
X118912071Y-54503183D01*
X118918244Y-54507443D01*
X118919866Y-54508881D01*
X118954090Y-54559090D01*
X118960350Y-54619530D01*
X118937144Y-54675688D01*
X118890044Y-54714078D01*
X118732425Y-54787577D01*
X118723081Y-54792971D01*
X118665651Y-54833183D01*
X118658217Y-54841296D01*
X118664128Y-54850574D01*
X119368457Y-55554903D01*
X119379999Y-55561567D01*
X119391542Y-55554903D01*
X120095870Y-54850574D01*
X120102256Y-54840550D01*
X120101070Y-54836789D01*
X120096987Y-54779302D01*
X120119331Y-54726178D01*
X120163277Y-54688893D01*
X120219331Y-54675500D01*
X121636770Y-54675500D01*
X121693065Y-54689015D01*
X121737088Y-54726615D01*
X121759243Y-54780102D01*
X121754701Y-54837818D01*
X121724451Y-54887181D01*
X120870494Y-55741135D01*
X120814906Y-55773229D01*
X120750719Y-55773229D01*
X120695132Y-55741135D01*
X120663038Y-55685547D01*
X120607668Y-55478904D01*
X120603979Y-55468768D01*
X120512423Y-55272427D01*
X120507025Y-55263077D01*
X120466814Y-55205650D01*
X120458703Y-55198217D01*
X120449424Y-55204128D01*
X119467680Y-56185872D01*
X119412093Y-56217966D01*
X119347905Y-56217966D01*
X119292318Y-56185872D01*
X118310574Y-55204128D01*
X118301296Y-55198217D01*
X118293183Y-55205651D01*
X118252971Y-55263081D01*
X118247577Y-55272425D01*
X118156020Y-55468768D01*
X118152332Y-55478902D01*
X118096260Y-55688162D01*
X118094386Y-55698793D01*
X118085248Y-55803248D01*
X118060096Y-55867927D01*
X118004130Y-55908962D01*
X117934881Y-55913501D01*
X117874039Y-55880121D01*
X116414564Y-54420647D01*
X116412371Y-54418398D01*
X116356387Y-54359503D01*
X116356386Y-54359502D01*
X116352056Y-54354947D01*
X116346894Y-54351354D01*
X116303639Y-54321247D01*
X116296116Y-54315575D01*
X116255277Y-54282275D01*
X116255274Y-54282273D01*
X116250404Y-54278302D01*
X116223434Y-54264213D01*
X116210021Y-54256087D01*
X116185046Y-54238705D01*
X116130814Y-54215432D01*
X116122348Y-54211411D01*
X116070046Y-54184091D01*
X116063995Y-54182359D01*
X116058163Y-54180030D01*
X116058683Y-54178727D01*
X116017757Y-54156062D01*
X115985740Y-54110360D01*
X115977002Y-54055248D01*
X115993313Y-54001887D01*
X116016179Y-53962284D01*
X116074674Y-53782256D01*
X116094460Y-53594000D01*
X116093716Y-53586924D01*
X116093781Y-53586433D01*
X116093781Y-53581039D01*
X116094491Y-53581039D01*
X116101269Y-53529525D01*
X116134060Y-53481809D01*
X116184940Y-53454182D01*
X116242817Y-53452666D01*
X116253800Y-53455000D01*
X116364353Y-53478499D01*
X116547142Y-53478499D01*
X116553645Y-53478499D01*
X116738802Y-53439143D01*
X116911729Y-53362150D01*
X117064870Y-53250887D01*
X117172340Y-53131528D01*
X117214057Y-53101220D01*
X117264492Y-53090500D01*
X117960951Y-53090500D01*
X118017246Y-53104015D01*
G37*
G04 #@! TD.AperFunction*
G04 #@! TA.AperFunction,Conductor*
G36*
X127689500Y-40159113D02*
G01*
X127734887Y-40204500D01*
X127751500Y-40266500D01*
X127751500Y-47801000D01*
X127734887Y-47863000D01*
X127689500Y-47908387D01*
X127627500Y-47925000D01*
X126941326Y-47925000D01*
X126928450Y-47928450D01*
X126925000Y-47941326D01*
X126925000Y-58708674D01*
X126928450Y-58721549D01*
X126941326Y-58725000D01*
X127627500Y-58725000D01*
X127689500Y-58741613D01*
X127734887Y-58787000D01*
X127751500Y-58849000D01*
X127751500Y-66413500D01*
X127734887Y-66475500D01*
X127689500Y-66520887D01*
X127627500Y-66537500D01*
X64650500Y-66537500D01*
X64588500Y-66520887D01*
X64543113Y-66475500D01*
X64526500Y-66413500D01*
X64526500Y-64135000D01*
X65623532Y-64135000D01*
X65624004Y-64140395D01*
X65633091Y-64244266D01*
X65643365Y-64361692D01*
X65644762Y-64366907D01*
X65644764Y-64366916D01*
X65700858Y-64576263D01*
X65700861Y-64576271D01*
X65702261Y-64581496D01*
X65704549Y-64586403D01*
X65704550Y-64586405D01*
X65741275Y-64665162D01*
X65798432Y-64787734D01*
X65928953Y-64974139D01*
X66089861Y-65135047D01*
X66276266Y-65265568D01*
X66482504Y-65361739D01*
X66702308Y-65420635D01*
X66872216Y-65435500D01*
X66983075Y-65435500D01*
X66985784Y-65435500D01*
X67155692Y-65420635D01*
X67375496Y-65361739D01*
X67581734Y-65265568D01*
X67768139Y-65135047D01*
X67929047Y-64974139D01*
X68059568Y-64787734D01*
X68155739Y-64581496D01*
X68214635Y-64361692D01*
X68234468Y-64135000D01*
X68214635Y-63908308D01*
X68212618Y-63900782D01*
X68157141Y-63693736D01*
X68157140Y-63693734D01*
X68155739Y-63688504D01*
X68059568Y-63482266D01*
X67929047Y-63295861D01*
X67768139Y-63134953D01*
X67581734Y-63004432D01*
X67375496Y-62908261D01*
X67370271Y-62906861D01*
X67370263Y-62906858D01*
X67160916Y-62850764D01*
X67160907Y-62850762D01*
X67155692Y-62849365D01*
X67150304Y-62848893D01*
X67150301Y-62848893D01*
X66988484Y-62834736D01*
X66988479Y-62834735D01*
X66985784Y-62834500D01*
X66872216Y-62834500D01*
X66869521Y-62834735D01*
X66869515Y-62834736D01*
X66707698Y-62848893D01*
X66707693Y-62848893D01*
X66702308Y-62849365D01*
X66697094Y-62850762D01*
X66697083Y-62850764D01*
X66487736Y-62906858D01*
X66487724Y-62906862D01*
X66482504Y-62908261D01*
X66477599Y-62910547D01*
X66477594Y-62910550D01*
X66281176Y-63002142D01*
X66281172Y-63002144D01*
X66276266Y-63004432D01*
X66271833Y-63007535D01*
X66271826Y-63007540D01*
X66094296Y-63131847D01*
X66094291Y-63131850D01*
X66089861Y-63134953D01*
X66086037Y-63138776D01*
X66086031Y-63138782D01*
X65932782Y-63292031D01*
X65932776Y-63292037D01*
X65928953Y-63295861D01*
X65925850Y-63300291D01*
X65925847Y-63300296D01*
X65801540Y-63477826D01*
X65801535Y-63477833D01*
X65798432Y-63482266D01*
X65796144Y-63487172D01*
X65796142Y-63487176D01*
X65704550Y-63683594D01*
X65704547Y-63683599D01*
X65702261Y-63688504D01*
X65700862Y-63693724D01*
X65700858Y-63693736D01*
X65644764Y-63903083D01*
X65644762Y-63903094D01*
X65643365Y-63908308D01*
X65642893Y-63913693D01*
X65642893Y-63913698D01*
X65636769Y-63983695D01*
X65623532Y-64135000D01*
X64526500Y-64135000D01*
X64526500Y-61489689D01*
X67469392Y-61489689D01*
X67477710Y-61500800D01*
X67602406Y-61594147D01*
X67609849Y-61598931D01*
X67853158Y-61731787D01*
X67861196Y-61735458D01*
X68120952Y-61832342D01*
X68129421Y-61834828D01*
X68400309Y-61893757D01*
X68409065Y-61895016D01*
X68685582Y-61914793D01*
X68694418Y-61914793D01*
X68970934Y-61895016D01*
X68979690Y-61893757D01*
X69250578Y-61834828D01*
X69259047Y-61832342D01*
X69518803Y-61735458D01*
X69526841Y-61731787D01*
X69770150Y-61598931D01*
X69777593Y-61594147D01*
X69902288Y-61500800D01*
X69910606Y-61489689D01*
X69903954Y-61477508D01*
X68701542Y-60275095D01*
X68690000Y-60268431D01*
X68678457Y-60275095D01*
X67476044Y-61477508D01*
X67469392Y-61489689D01*
X64526500Y-61489689D01*
X64526500Y-59914418D01*
X66685207Y-59914418D01*
X66704983Y-60190934D01*
X66706242Y-60199690D01*
X66765171Y-60470578D01*
X66767657Y-60479047D01*
X66864541Y-60738803D01*
X66868212Y-60746841D01*
X67001068Y-60990150D01*
X67005852Y-60997593D01*
X67099198Y-61122288D01*
X67110309Y-61130606D01*
X67122490Y-61123954D01*
X68324903Y-59921542D01*
X68331567Y-59910000D01*
X69048431Y-59910000D01*
X69055095Y-59921542D01*
X70257508Y-61123954D01*
X70269689Y-61130606D01*
X70280800Y-61122288D01*
X70374147Y-60997593D01*
X70378931Y-60990150D01*
X70511787Y-60746841D01*
X70515458Y-60738803D01*
X70612342Y-60479047D01*
X70614828Y-60470578D01*
X70673757Y-60199690D01*
X70675016Y-60190934D01*
X70694793Y-59914418D01*
X70694793Y-59905582D01*
X70675016Y-59629065D01*
X70673757Y-59620309D01*
X70614828Y-59349421D01*
X70612342Y-59340952D01*
X70515458Y-59081196D01*
X70511787Y-59073158D01*
X70378931Y-58829849D01*
X70374147Y-58822406D01*
X70280800Y-58697710D01*
X70269689Y-58689392D01*
X70257508Y-58696044D01*
X69055095Y-59898457D01*
X69048431Y-59910000D01*
X68331567Y-59910000D01*
X68324903Y-59898457D01*
X67119308Y-58692862D01*
X67110135Y-58686967D01*
X67101894Y-58694108D01*
X67005855Y-58822402D01*
X67001068Y-58829850D01*
X66868212Y-59073158D01*
X66864541Y-59081196D01*
X66767657Y-59340952D01*
X66765171Y-59349421D01*
X66706242Y-59620309D01*
X66704983Y-59629065D01*
X66685207Y-59905582D01*
X66685207Y-59914418D01*
X64526500Y-59914418D01*
X64526500Y-58330135D01*
X67466967Y-58330135D01*
X67472862Y-58339308D01*
X68678457Y-59544903D01*
X68689999Y-59551567D01*
X68701542Y-59544903D01*
X69903954Y-58342490D01*
X69910606Y-58330309D01*
X69902288Y-58319198D01*
X69777593Y-58225852D01*
X69770150Y-58221068D01*
X69526841Y-58088212D01*
X69518803Y-58084541D01*
X69259047Y-57987657D01*
X69250578Y-57985171D01*
X68979690Y-57926242D01*
X68970934Y-57924983D01*
X68883125Y-57918703D01*
X70678217Y-57918703D01*
X70685650Y-57926814D01*
X70743077Y-57967025D01*
X70752427Y-57972423D01*
X70948768Y-58063979D01*
X70958902Y-58067667D01*
X71168162Y-58123739D01*
X71178793Y-58125613D01*
X71394605Y-58144494D01*
X71405395Y-58144494D01*
X71621206Y-58125613D01*
X71631837Y-58123739D01*
X71841097Y-58067667D01*
X71851231Y-58063979D01*
X72047575Y-57972422D01*
X72056920Y-57967026D01*
X72114348Y-57926814D01*
X72121780Y-57918703D01*
X72115867Y-57909421D01*
X71411542Y-57205095D01*
X71399999Y-57198431D01*
X71388457Y-57205095D01*
X70684128Y-57909424D01*
X70678217Y-57918703D01*
X68883125Y-57918703D01*
X68694418Y-57905207D01*
X68685582Y-57905207D01*
X68409065Y-57924983D01*
X68400309Y-57926242D01*
X68129421Y-57985171D01*
X68120952Y-57987657D01*
X67861196Y-58084541D01*
X67853158Y-58088212D01*
X67609850Y-58221068D01*
X67602402Y-58225855D01*
X67474108Y-58321894D01*
X67466967Y-58330135D01*
X64526500Y-58330135D01*
X64526500Y-56845395D01*
X70095506Y-56845395D01*
X70114386Y-57061206D01*
X70116260Y-57071837D01*
X70172332Y-57281097D01*
X70176020Y-57291231D01*
X70267576Y-57487572D01*
X70272974Y-57496922D01*
X70313184Y-57554348D01*
X70321295Y-57561781D01*
X70330574Y-57555870D01*
X71034903Y-56851542D01*
X71041567Y-56839999D01*
X71758431Y-56839999D01*
X71765095Y-56851542D01*
X72469421Y-57555867D01*
X72478703Y-57561780D01*
X72486814Y-57554348D01*
X72527026Y-57496920D01*
X72532422Y-57487575D01*
X72623979Y-57291231D01*
X72627667Y-57281097D01*
X72683739Y-57071837D01*
X72685613Y-57061206D01*
X72704494Y-56845395D01*
X72704494Y-56834605D01*
X72685613Y-56618793D01*
X72683739Y-56608162D01*
X72627667Y-56398902D01*
X72623979Y-56388768D01*
X72532423Y-56192427D01*
X72527025Y-56183077D01*
X72486814Y-56125650D01*
X72478703Y-56118217D01*
X72469424Y-56124128D01*
X71765095Y-56828457D01*
X71758431Y-56839999D01*
X71041567Y-56839999D01*
X71034903Y-56828457D01*
X70330574Y-56124128D01*
X70321296Y-56118217D01*
X70313183Y-56125651D01*
X70272971Y-56183081D01*
X70267577Y-56192425D01*
X70176020Y-56388768D01*
X70172332Y-56398902D01*
X70116260Y-56608162D01*
X70114386Y-56618793D01*
X70095506Y-56834605D01*
X70095506Y-56845395D01*
X64526500Y-56845395D01*
X64526500Y-54340000D01*
X70094532Y-54340000D01*
X70095004Y-54345395D01*
X70108808Y-54503183D01*
X70114365Y-54566692D01*
X70115762Y-54571907D01*
X70115764Y-54571916D01*
X70171858Y-54781263D01*
X70171861Y-54781271D01*
X70173261Y-54786496D01*
X70175549Y-54791403D01*
X70175550Y-54791405D01*
X70220211Y-54887181D01*
X70269432Y-54992734D01*
X70272539Y-54997171D01*
X70272540Y-54997173D01*
X70335742Y-55087436D01*
X70399953Y-55179139D01*
X70560861Y-55340047D01*
X70747266Y-55470568D01*
X70762973Y-55477892D01*
X70815149Y-55523648D01*
X70834570Y-55590272D01*
X70815153Y-55656896D01*
X70762980Y-55702655D01*
X70752424Y-55707577D01*
X70743081Y-55712971D01*
X70685651Y-55753183D01*
X70678217Y-55761296D01*
X70684128Y-55770574D01*
X71388457Y-56474903D01*
X71400000Y-56481567D01*
X71411542Y-56474903D01*
X72115870Y-55770574D01*
X72121781Y-55761295D01*
X72114348Y-55753184D01*
X72056922Y-55712974D01*
X72047570Y-55707575D01*
X72037022Y-55702656D01*
X71984847Y-55656898D01*
X71965429Y-55590272D01*
X71984851Y-55523647D01*
X72037025Y-55477892D01*
X72052734Y-55470568D01*
X72239139Y-55340047D01*
X72400047Y-55179139D01*
X72530568Y-54992734D01*
X72626739Y-54786496D01*
X72685635Y-54566692D01*
X72705468Y-54340000D01*
X72685635Y-54113308D01*
X72670214Y-54055757D01*
X72628141Y-53898736D01*
X72628140Y-53898734D01*
X72626739Y-53893504D01*
X72530568Y-53687266D01*
X72400047Y-53500861D01*
X72326867Y-53427680D01*
X72294773Y-53372094D01*
X72294773Y-53307906D01*
X72326867Y-53252319D01*
X72359097Y-53220089D01*
X72400047Y-53179139D01*
X72530568Y-52992734D01*
X72626739Y-52786496D01*
X72685635Y-52566692D01*
X72705468Y-52340000D01*
X72685635Y-52113308D01*
X72671901Y-52062052D01*
X72671901Y-51997865D01*
X72703995Y-51942278D01*
X72759582Y-51910184D01*
X72823770Y-51910184D01*
X72879357Y-51942278D01*
X76244450Y-55307371D01*
X76246643Y-55309620D01*
X76302603Y-55368490D01*
X76302605Y-55368492D01*
X76306941Y-55373053D01*
X76312105Y-55376647D01*
X76312107Y-55376649D01*
X76355348Y-55406746D01*
X76362869Y-55412417D01*
X76403715Y-55445722D01*
X76403724Y-55445727D01*
X76408593Y-55449698D01*
X76435556Y-55463782D01*
X76448980Y-55471915D01*
X76473951Y-55489295D01*
X76493148Y-55497533D01*
X76528163Y-55512559D01*
X76536673Y-55516601D01*
X76588951Y-55543909D01*
X76618199Y-55552277D01*
X76632975Y-55557538D01*
X76660942Y-55569540D01*
X76667106Y-55570806D01*
X76673105Y-55572689D01*
X76672652Y-55574132D01*
X76724226Y-55600453D01*
X76759291Y-55656315D01*
X76760753Y-55722254D01*
X76728199Y-55779614D01*
X76596953Y-55910861D01*
X76593850Y-55915291D01*
X76593847Y-55915296D01*
X76469540Y-56092826D01*
X76469535Y-56092833D01*
X76466432Y-56097266D01*
X76464144Y-56102172D01*
X76464142Y-56102176D01*
X76372550Y-56298594D01*
X76372547Y-56298599D01*
X76370261Y-56303504D01*
X76368862Y-56308724D01*
X76368858Y-56308736D01*
X76312764Y-56518083D01*
X76312762Y-56518094D01*
X76311365Y-56523308D01*
X76310893Y-56528693D01*
X76310893Y-56528698D01*
X76296826Y-56689491D01*
X76296500Y-56693216D01*
X76296500Y-56695925D01*
X76296500Y-56887217D01*
X76287061Y-56934670D01*
X76260181Y-56974898D01*
X75502645Y-57732433D01*
X75500397Y-57734625D01*
X75436947Y-57794941D01*
X75433359Y-57800095D01*
X75433352Y-57800104D01*
X75403244Y-57843361D01*
X75397574Y-57850881D01*
X75364274Y-57891721D01*
X75364271Y-57891724D01*
X75360302Y-57896593D01*
X75357396Y-57902155D01*
X75357388Y-57902168D01*
X75346210Y-57923566D01*
X75338082Y-57936982D01*
X75324300Y-57956784D01*
X75324295Y-57956792D01*
X75320705Y-57961951D01*
X75318228Y-57967721D01*
X75318225Y-57967728D01*
X75297439Y-58016165D01*
X75293399Y-58024671D01*
X75269529Y-58070370D01*
X75266091Y-58076951D01*
X75264363Y-58082989D01*
X75264360Y-58082997D01*
X75257720Y-58106201D01*
X75252459Y-58120978D01*
X75242942Y-58143157D01*
X75240460Y-58148942D01*
X75239194Y-58155097D01*
X75239192Y-58155107D01*
X75228587Y-58206712D01*
X75226342Y-58215859D01*
X75211842Y-58266534D01*
X75211839Y-58266547D01*
X75210113Y-58272582D01*
X75209636Y-58278842D01*
X75209635Y-58278849D01*
X75207801Y-58302929D01*
X75205622Y-58318463D01*
X75204331Y-58324748D01*
X75199500Y-58348259D01*
X75199500Y-58354550D01*
X75199500Y-58407241D01*
X75199142Y-58416656D01*
X75195140Y-58469205D01*
X75195140Y-58469210D01*
X75194663Y-58475476D01*
X75195456Y-58481709D01*
X75195457Y-58481715D01*
X75198506Y-58505651D01*
X75199500Y-58521317D01*
X75199500Y-60209412D01*
X75193761Y-60246699D01*
X75177075Y-60280533D01*
X75155250Y-60311704D01*
X75072540Y-60429826D01*
X75072535Y-60429833D01*
X75069432Y-60434266D01*
X75067144Y-60439172D01*
X75067142Y-60439176D01*
X74975550Y-60635594D01*
X74975547Y-60635599D01*
X74973261Y-60640504D01*
X74971862Y-60645724D01*
X74971858Y-60645736D01*
X74915764Y-60855083D01*
X74915762Y-60855094D01*
X74914365Y-60860308D01*
X74894532Y-61087000D01*
X74895004Y-61092395D01*
X74912194Y-61288884D01*
X74914365Y-61313692D01*
X74915762Y-61318907D01*
X74915764Y-61318916D01*
X74971858Y-61528263D01*
X74971861Y-61528271D01*
X74973261Y-61533496D01*
X74975549Y-61538403D01*
X74975550Y-61538405D01*
X75001543Y-61594147D01*
X75069432Y-61739734D01*
X75072539Y-61744171D01*
X75072540Y-61744173D01*
X75132710Y-61830105D01*
X75199953Y-61926139D01*
X75360861Y-62087047D01*
X75547266Y-62217568D01*
X75753504Y-62313739D01*
X75973308Y-62372635D01*
X76200000Y-62392468D01*
X76426692Y-62372635D01*
X76646496Y-62313739D01*
X76852734Y-62217568D01*
X76926806Y-62165703D01*
X85638217Y-62165703D01*
X85645650Y-62173814D01*
X85703077Y-62214025D01*
X85712427Y-62219423D01*
X85908768Y-62310979D01*
X85918902Y-62314667D01*
X86128162Y-62370739D01*
X86138793Y-62372613D01*
X86354605Y-62391494D01*
X86365395Y-62391494D01*
X86581206Y-62372613D01*
X86591837Y-62370739D01*
X86801097Y-62314667D01*
X86811231Y-62310979D01*
X87007575Y-62219422D01*
X87016920Y-62214026D01*
X87074348Y-62173814D01*
X87081780Y-62165703D01*
X88178217Y-62165703D01*
X88185650Y-62173814D01*
X88243077Y-62214025D01*
X88252427Y-62219423D01*
X88448768Y-62310979D01*
X88458902Y-62314667D01*
X88668162Y-62370739D01*
X88678793Y-62372613D01*
X88894605Y-62391494D01*
X88905395Y-62391494D01*
X89121206Y-62372613D01*
X89131837Y-62370739D01*
X89341097Y-62314667D01*
X89351231Y-62310979D01*
X89547575Y-62219422D01*
X89556920Y-62214026D01*
X89614348Y-62173814D01*
X89621780Y-62165703D01*
X89615867Y-62156421D01*
X88911542Y-61452095D01*
X88899999Y-61445431D01*
X88888457Y-61452095D01*
X88184128Y-62156424D01*
X88178217Y-62165703D01*
X87081780Y-62165703D01*
X87075867Y-62156421D01*
X86371542Y-61452095D01*
X86359999Y-61445431D01*
X86348457Y-61452095D01*
X85644128Y-62156424D01*
X85638217Y-62165703D01*
X76926806Y-62165703D01*
X77039139Y-62087047D01*
X77200047Y-61926139D01*
X77330568Y-61739734D01*
X77426739Y-61533496D01*
X77485635Y-61313692D01*
X77505468Y-61087000D01*
X77485635Y-60860308D01*
X77426739Y-60640504D01*
X77330568Y-60434266D01*
X77222924Y-60280533D01*
X77206239Y-60246699D01*
X77200500Y-60209412D01*
X77200500Y-58951735D01*
X77213288Y-58896891D01*
X77249015Y-58853358D01*
X77300311Y-58830117D01*
X77356596Y-58831961D01*
X77365072Y-58834232D01*
X77370308Y-58835635D01*
X77597000Y-58855468D01*
X77823692Y-58835635D01*
X78043496Y-58776739D01*
X78249734Y-58680568D01*
X78436139Y-58550047D01*
X78597047Y-58389139D01*
X78727568Y-58202734D01*
X78754618Y-58144724D01*
X78800375Y-58092549D01*
X78867000Y-58073130D01*
X78933625Y-58092549D01*
X78979381Y-58144724D01*
X79006432Y-58202734D01*
X79136953Y-58389139D01*
X79297861Y-58550047D01*
X79484266Y-58680568D01*
X79690504Y-58776739D01*
X79695734Y-58778140D01*
X79695736Y-58778141D01*
X79860936Y-58822406D01*
X79910308Y-58835635D01*
X80137000Y-58855468D01*
X80363692Y-58835635D01*
X80583496Y-58776739D01*
X80789734Y-58680568D01*
X80976139Y-58550047D01*
X81137047Y-58389139D01*
X81267568Y-58202734D01*
X81294618Y-58144724D01*
X81340375Y-58092549D01*
X81407000Y-58073130D01*
X81473625Y-58092549D01*
X81519381Y-58144724D01*
X81546432Y-58202734D01*
X81546921Y-58203433D01*
X81562345Y-58253323D01*
X81562243Y-58257363D01*
X81563351Y-58263547D01*
X81563352Y-58263556D01*
X81572648Y-58315420D01*
X81573957Y-58324748D01*
X81579289Y-58377180D01*
X81579290Y-58377185D01*
X81579926Y-58383438D01*
X81581807Y-58389435D01*
X81581810Y-58389447D01*
X81589032Y-58412466D01*
X81592772Y-58427702D01*
X81597031Y-58451464D01*
X81597035Y-58451478D01*
X81598142Y-58457653D01*
X81604066Y-58472483D01*
X81620020Y-58512425D01*
X81623179Y-58521298D01*
X81640841Y-58577588D01*
X81643891Y-58583083D01*
X81655603Y-58604184D01*
X81662337Y-58618363D01*
X81671290Y-58640778D01*
X81671292Y-58640783D01*
X81673623Y-58646617D01*
X81677082Y-58651866D01*
X81677085Y-58651871D01*
X81706080Y-58695867D01*
X81710961Y-58703923D01*
X81736536Y-58749999D01*
X81736538Y-58750002D01*
X81739591Y-58755502D01*
X81743689Y-58760275D01*
X81759404Y-58778581D01*
X81768855Y-58791116D01*
X81782133Y-58811263D01*
X81782138Y-58811269D01*
X81785598Y-58816519D01*
X81790044Y-58820965D01*
X81790045Y-58820966D01*
X81827300Y-58858221D01*
X81833705Y-58865131D01*
X81868041Y-58905128D01*
X81868044Y-58905131D01*
X81872134Y-58909895D01*
X81877103Y-58913742D01*
X81877106Y-58913744D01*
X81896192Y-58928518D01*
X81907972Y-58938893D01*
X83102432Y-60133352D01*
X83104625Y-60135601D01*
X83164941Y-60199053D01*
X83170100Y-60202644D01*
X83170104Y-60202647D01*
X83213362Y-60232755D01*
X83220871Y-60238416D01*
X83266593Y-60275698D01*
X83272171Y-60278611D01*
X83272170Y-60278611D01*
X83293556Y-60289782D01*
X83306980Y-60297915D01*
X83331951Y-60315295D01*
X83386163Y-60338559D01*
X83394675Y-60342602D01*
X83431886Y-60362040D01*
X83446951Y-60369909D01*
X83476199Y-60378277D01*
X83490975Y-60383538D01*
X83518942Y-60395540D01*
X83576718Y-60407413D01*
X83585866Y-60409658D01*
X83642582Y-60425887D01*
X83672916Y-60428196D01*
X83688463Y-60430377D01*
X83712095Y-60435234D01*
X83712102Y-60435234D01*
X83718259Y-60436500D01*
X83777241Y-60436500D01*
X83786656Y-60436858D01*
X83845476Y-60441337D01*
X83875651Y-60437493D01*
X83891317Y-60436500D01*
X85034301Y-60436500D01*
X85093944Y-60451786D01*
X85138882Y-60493875D01*
X85158036Y-60552390D01*
X85146683Y-60612905D01*
X85136017Y-60635776D01*
X85132333Y-60645896D01*
X85076260Y-60855162D01*
X85074386Y-60865793D01*
X85055506Y-61081605D01*
X85055506Y-61092395D01*
X85074386Y-61308206D01*
X85076260Y-61318837D01*
X85132332Y-61528097D01*
X85136020Y-61538231D01*
X85227576Y-61734572D01*
X85232974Y-61743922D01*
X85273184Y-61801348D01*
X85281295Y-61808781D01*
X85290574Y-61802870D01*
X86272318Y-60821127D01*
X86327905Y-60789033D01*
X86392093Y-60789033D01*
X86447680Y-60821127D01*
X87429421Y-61802867D01*
X87438703Y-61808780D01*
X87446814Y-61801348D01*
X87487026Y-61743920D01*
X87492424Y-61734571D01*
X87517618Y-61680544D01*
X87563375Y-61628368D01*
X87630000Y-61608948D01*
X87696625Y-61628368D01*
X87742382Y-61680544D01*
X87767573Y-61734568D01*
X87772974Y-61743922D01*
X87813184Y-61801348D01*
X87821295Y-61808781D01*
X87830574Y-61802870D01*
X88812318Y-60821127D01*
X88867905Y-60789033D01*
X88932093Y-60789033D01*
X88987680Y-60821127D01*
X89969424Y-61802870D01*
X90001127Y-61823068D01*
X90043215Y-61868005D01*
X90058500Y-61927647D01*
X90058500Y-63936242D01*
X90049061Y-63983695D01*
X90026901Y-64016858D01*
X90027813Y-64017624D01*
X90024335Y-64021769D01*
X90020505Y-64025599D01*
X90017402Y-64030029D01*
X90017399Y-64030034D01*
X89888073Y-64214731D01*
X89888068Y-64214738D01*
X89884965Y-64219171D01*
X89882677Y-64224077D01*
X89882675Y-64224081D01*
X89787386Y-64428427D01*
X89787383Y-64428432D01*
X89785097Y-64433337D01*
X89783698Y-64438557D01*
X89783694Y-64438569D01*
X89725337Y-64656365D01*
X89725335Y-64656371D01*
X89723937Y-64661592D01*
X89723465Y-64666977D01*
X89723465Y-64666982D01*
X89714452Y-64770000D01*
X89703341Y-64897000D01*
X89703813Y-64902395D01*
X89722702Y-65118301D01*
X89723937Y-65132408D01*
X89725336Y-65137630D01*
X89725337Y-65137634D01*
X89783694Y-65355430D01*
X89783697Y-65355438D01*
X89785097Y-65360663D01*
X89787385Y-65365570D01*
X89787386Y-65365572D01*
X89882678Y-65569927D01*
X89882681Y-65569933D01*
X89884965Y-65574830D01*
X89888064Y-65579257D01*
X89888066Y-65579259D01*
X90017399Y-65763966D01*
X90017402Y-65763970D01*
X90020505Y-65768401D01*
X90187599Y-65935495D01*
X90192031Y-65938598D01*
X90192033Y-65938600D01*
X90321742Y-66029423D01*
X90381170Y-66071035D01*
X90595337Y-66170903D01*
X90823592Y-66232063D01*
X91059000Y-66252659D01*
X91294408Y-66232063D01*
X91522663Y-66170903D01*
X91736830Y-66071035D01*
X91930401Y-65935495D01*
X92097495Y-65768401D01*
X92154795Y-65686569D01*
X92227425Y-65582842D01*
X92271743Y-65543976D01*
X92329000Y-65529965D01*
X92386257Y-65543976D01*
X92430575Y-65582842D01*
X92557395Y-65763961D01*
X92557401Y-65763968D01*
X92560505Y-65768401D01*
X92727599Y-65935495D01*
X92732031Y-65938598D01*
X92732033Y-65938600D01*
X92861742Y-66029423D01*
X92921170Y-66071035D01*
X93135337Y-66170903D01*
X93363592Y-66232063D01*
X93599000Y-66252659D01*
X93834408Y-66232063D01*
X94062663Y-66170903D01*
X94276830Y-66071035D01*
X94470401Y-65935495D01*
X94637495Y-65768401D01*
X94694795Y-65686569D01*
X94767425Y-65582842D01*
X94811743Y-65543976D01*
X94869000Y-65529965D01*
X94926257Y-65543976D01*
X94970575Y-65582842D01*
X95097395Y-65763961D01*
X95097401Y-65763968D01*
X95100505Y-65768401D01*
X95267599Y-65935495D01*
X95272031Y-65938598D01*
X95272033Y-65938600D01*
X95401742Y-66029423D01*
X95461170Y-66071035D01*
X95675337Y-66170903D01*
X95903592Y-66232063D01*
X96139000Y-66252659D01*
X96374408Y-66232063D01*
X96602663Y-66170903D01*
X96816830Y-66071035D01*
X97010401Y-65935495D01*
X97132717Y-65813178D01*
X97185460Y-65781885D01*
X97246753Y-65779696D01*
X97301597Y-65807149D01*
X97336577Y-65857528D01*
X97382548Y-65980779D01*
X97390962Y-65996189D01*
X97466498Y-66097092D01*
X97478907Y-66109501D01*
X97579810Y-66185037D01*
X97595222Y-66193452D01*
X97714358Y-66237888D01*
X97729332Y-66241426D01*
X97777885Y-66246646D01*
X97784482Y-66247000D01*
X98412674Y-66247000D01*
X98425549Y-66243549D01*
X98429000Y-66230674D01*
X98929000Y-66230674D01*
X98932450Y-66243549D01*
X98945326Y-66247000D01*
X99573518Y-66247000D01*
X99580114Y-66246646D01*
X99628667Y-66241426D01*
X99643641Y-66237888D01*
X99762777Y-66193452D01*
X99778189Y-66185037D01*
X99879092Y-66109501D01*
X99891501Y-66097092D01*
X99967037Y-65996189D01*
X99975452Y-65980777D01*
X99977345Y-65975703D01*
X101132217Y-65975703D01*
X101139650Y-65983814D01*
X101197077Y-66024025D01*
X101206427Y-66029423D01*
X101402768Y-66120979D01*
X101412902Y-66124667D01*
X101622162Y-66180739D01*
X101632793Y-66182613D01*
X101848605Y-66201494D01*
X101859395Y-66201494D01*
X102075206Y-66182613D01*
X102085837Y-66180739D01*
X102295097Y-66124667D01*
X102305231Y-66120979D01*
X102501575Y-66029422D01*
X102510920Y-66024026D01*
X102568348Y-65983814D01*
X102575780Y-65975703D01*
X102569867Y-65966421D01*
X101865542Y-65262095D01*
X101854000Y-65255431D01*
X101842457Y-65262095D01*
X101138128Y-65966424D01*
X101132217Y-65975703D01*
X99977345Y-65975703D01*
X100019888Y-65861641D01*
X100023426Y-65846667D01*
X100028646Y-65798114D01*
X100029000Y-65791518D01*
X100029000Y-65163326D01*
X100025549Y-65150450D01*
X100012674Y-65147000D01*
X98945326Y-65147000D01*
X98932450Y-65150450D01*
X98929000Y-65163326D01*
X98929000Y-66230674D01*
X98429000Y-66230674D01*
X98429000Y-64902395D01*
X100549506Y-64902395D01*
X100568386Y-65118206D01*
X100570260Y-65128837D01*
X100626332Y-65338097D01*
X100630020Y-65348231D01*
X100721576Y-65544572D01*
X100726974Y-65553922D01*
X100767184Y-65611348D01*
X100775295Y-65618781D01*
X100784574Y-65612870D01*
X101488903Y-64908541D01*
X101495566Y-64896999D01*
X102212431Y-64896999D01*
X102219095Y-64908542D01*
X102923421Y-65612867D01*
X102932703Y-65618780D01*
X102940814Y-65611348D01*
X102981026Y-65553920D01*
X102986422Y-65544575D01*
X103077979Y-65348231D01*
X103081667Y-65338097D01*
X103137739Y-65128837D01*
X103139613Y-65118206D01*
X103158494Y-64902395D01*
X103158494Y-64891605D01*
X103139613Y-64675793D01*
X103137739Y-64665162D01*
X103081667Y-64455902D01*
X103077979Y-64445768D01*
X102986423Y-64249427D01*
X102981025Y-64240077D01*
X102940814Y-64182650D01*
X102932703Y-64175217D01*
X102923424Y-64181128D01*
X102219095Y-64885457D01*
X102212431Y-64896999D01*
X101495566Y-64896999D01*
X101495567Y-64896998D01*
X101488903Y-64885456D01*
X100784574Y-64181128D01*
X100775296Y-64175217D01*
X100767183Y-64182651D01*
X100726971Y-64240081D01*
X100721577Y-64249425D01*
X100630020Y-64445768D01*
X100626332Y-64455902D01*
X100570260Y-64665162D01*
X100568386Y-64675793D01*
X100549506Y-64891605D01*
X100549506Y-64902395D01*
X98429000Y-64902395D01*
X98429000Y-64630674D01*
X98929000Y-64630674D01*
X98932450Y-64643549D01*
X98945326Y-64647000D01*
X100012674Y-64647000D01*
X100025549Y-64643549D01*
X100029000Y-64630674D01*
X100029000Y-64002482D01*
X100028646Y-63995885D01*
X100023426Y-63947332D01*
X100019888Y-63932358D01*
X99977345Y-63818296D01*
X101132217Y-63818296D01*
X101138128Y-63827574D01*
X101842457Y-64531903D01*
X101854000Y-64538567D01*
X101865542Y-64531903D01*
X102569870Y-63827574D01*
X102575781Y-63818295D01*
X102568348Y-63810184D01*
X102510922Y-63769974D01*
X102501572Y-63764576D01*
X102305231Y-63673020D01*
X102295097Y-63669332D01*
X102085837Y-63613260D01*
X102075206Y-63611386D01*
X101859395Y-63592506D01*
X101848605Y-63592506D01*
X101632793Y-63611386D01*
X101622162Y-63613260D01*
X101412902Y-63669332D01*
X101402768Y-63673020D01*
X101206425Y-63764577D01*
X101197081Y-63769971D01*
X101139651Y-63810183D01*
X101132217Y-63818296D01*
X99977345Y-63818296D01*
X99975452Y-63813222D01*
X99967037Y-63797810D01*
X99891501Y-63696907D01*
X99879092Y-63684498D01*
X99778189Y-63608962D01*
X99762777Y-63600547D01*
X99643641Y-63556111D01*
X99628667Y-63552573D01*
X99580114Y-63547353D01*
X99573518Y-63547000D01*
X98945326Y-63547000D01*
X98932450Y-63550450D01*
X98929000Y-63563326D01*
X98929000Y-64630674D01*
X98429000Y-64630674D01*
X98429000Y-63563324D01*
X98426100Y-63552502D01*
X98426099Y-63488314D01*
X98458192Y-63432727D01*
X99623482Y-62267436D01*
X99658758Y-62242737D01*
X99670651Y-62237190D01*
X99712734Y-62217568D01*
X99866466Y-62109924D01*
X99900301Y-62093239D01*
X99937588Y-62087500D01*
X100595412Y-62087500D01*
X100632699Y-62093239D01*
X100666533Y-62109924D01*
X100820266Y-62217568D01*
X101026504Y-62313739D01*
X101246308Y-62372635D01*
X101473000Y-62392468D01*
X101699692Y-62372635D01*
X101919496Y-62313739D01*
X102125734Y-62217568D01*
X102312139Y-62087047D01*
X102473047Y-61926139D01*
X102603568Y-61739734D01*
X102699739Y-61533496D01*
X102758635Y-61313692D01*
X102778468Y-61087000D01*
X102758635Y-60860308D01*
X102699739Y-60640504D01*
X102603568Y-60434266D01*
X102473047Y-60247861D01*
X102312139Y-60086953D01*
X102125734Y-59956432D01*
X101919496Y-59860261D01*
X101914271Y-59858861D01*
X101914263Y-59858858D01*
X101704916Y-59802764D01*
X101704907Y-59802762D01*
X101699692Y-59801365D01*
X101694304Y-59800893D01*
X101694301Y-59800893D01*
X101478395Y-59782004D01*
X101473000Y-59781532D01*
X101467605Y-59782004D01*
X101251698Y-59800893D01*
X101251693Y-59800893D01*
X101246308Y-59801365D01*
X101241094Y-59802762D01*
X101241083Y-59802764D01*
X101031736Y-59858858D01*
X101031724Y-59858862D01*
X101026504Y-59860261D01*
X101021599Y-59862547D01*
X101021594Y-59862550D01*
X100825176Y-59954142D01*
X100825172Y-59954144D01*
X100820266Y-59956432D01*
X100815833Y-59959535D01*
X100815826Y-59959540D01*
X100666535Y-60064075D01*
X100632699Y-60080761D01*
X100595412Y-60086500D01*
X99937588Y-60086500D01*
X99900301Y-60080761D01*
X99866465Y-60064075D01*
X99717173Y-59959540D01*
X99717171Y-59959539D01*
X99712734Y-59956432D01*
X99506496Y-59860261D01*
X99501271Y-59858861D01*
X99501263Y-59858858D01*
X99291916Y-59802764D01*
X99291907Y-59802762D01*
X99286692Y-59801365D01*
X99281304Y-59800893D01*
X99281301Y-59800893D01*
X99065395Y-59782004D01*
X99060000Y-59781532D01*
X99054605Y-59782004D01*
X98838698Y-59800893D01*
X98838693Y-59800893D01*
X98833308Y-59801365D01*
X98828094Y-59802762D01*
X98828083Y-59802764D01*
X98618736Y-59858858D01*
X98618724Y-59858862D01*
X98613504Y-59860261D01*
X98608599Y-59862547D01*
X98608594Y-59862550D01*
X98412176Y-59954142D01*
X98412172Y-59954144D01*
X98407266Y-59956432D01*
X98402833Y-59959535D01*
X98402826Y-59959540D01*
X98225296Y-60083847D01*
X98225291Y-60083850D01*
X98220861Y-60086953D01*
X98217037Y-60090776D01*
X98217031Y-60090782D01*
X98063782Y-60244031D01*
X98063776Y-60244037D01*
X98059953Y-60247861D01*
X98056850Y-60252291D01*
X98056847Y-60252296D01*
X97932540Y-60429826D01*
X97932535Y-60429833D01*
X97929432Y-60434266D01*
X97927144Y-60439172D01*
X97927142Y-60439176D01*
X97835550Y-60635594D01*
X97835547Y-60635599D01*
X97833261Y-60640504D01*
X97831862Y-60645724D01*
X97831858Y-60645736D01*
X97775764Y-60855083D01*
X97775762Y-60855094D01*
X97774365Y-60860308D01*
X97754532Y-61087000D01*
X97755004Y-61092395D01*
X97755004Y-61092396D01*
X97767154Y-61231283D01*
X97760148Y-61284500D01*
X97731307Y-61329770D01*
X95441646Y-63619432D01*
X95439398Y-63621624D01*
X95375947Y-63681941D01*
X95372359Y-63687095D01*
X95372352Y-63687104D01*
X95342244Y-63730361D01*
X95336574Y-63737881D01*
X95303274Y-63778721D01*
X95303271Y-63778724D01*
X95299302Y-63783593D01*
X95296396Y-63789155D01*
X95296388Y-63789168D01*
X95285210Y-63810566D01*
X95277082Y-63823982D01*
X95263300Y-63843784D01*
X95263295Y-63843792D01*
X95259705Y-63848951D01*
X95257225Y-63854728D01*
X95257223Y-63854733D01*
X95255989Y-63857609D01*
X95229726Y-63896376D01*
X95104332Y-64021771D01*
X95104326Y-64021777D01*
X95100505Y-64025599D01*
X95097403Y-64030028D01*
X95097398Y-64030035D01*
X94970575Y-64211159D01*
X94926257Y-64250025D01*
X94869000Y-64264036D01*
X94811743Y-64250025D01*
X94767425Y-64211159D01*
X94756327Y-64195310D01*
X94637495Y-64025599D01*
X94470401Y-63858505D01*
X94465970Y-63855402D01*
X94465966Y-63855399D01*
X94281259Y-63726066D01*
X94281257Y-63726064D01*
X94276830Y-63722965D01*
X94271933Y-63720681D01*
X94271927Y-63720678D01*
X94067572Y-63625386D01*
X94067570Y-63625385D01*
X94062663Y-63623097D01*
X94057438Y-63621697D01*
X94057430Y-63621694D01*
X93839634Y-63563337D01*
X93839630Y-63563336D01*
X93834408Y-63561937D01*
X93829020Y-63561465D01*
X93829017Y-63561465D01*
X93604395Y-63541813D01*
X93599000Y-63541341D01*
X93593605Y-63541813D01*
X93368982Y-63561465D01*
X93368977Y-63561465D01*
X93363592Y-63561937D01*
X93358371Y-63563335D01*
X93358365Y-63563337D01*
X93140569Y-63621694D01*
X93140557Y-63621698D01*
X93135337Y-63623097D01*
X93130432Y-63625383D01*
X93130427Y-63625386D01*
X92926081Y-63720675D01*
X92926077Y-63720677D01*
X92921171Y-63722965D01*
X92916738Y-63726068D01*
X92916731Y-63726073D01*
X92732034Y-63855399D01*
X92732029Y-63855402D01*
X92727599Y-63858505D01*
X92723775Y-63862328D01*
X92723769Y-63862334D01*
X92564334Y-64021769D01*
X92564328Y-64021775D01*
X92560505Y-64025599D01*
X92557402Y-64030029D01*
X92557399Y-64030034D01*
X92430575Y-64211159D01*
X92386257Y-64250025D01*
X92329000Y-64264036D01*
X92271743Y-64250025D01*
X92227425Y-64211159D01*
X92216327Y-64195310D01*
X92097495Y-64025599D01*
X92093664Y-64021768D01*
X92090187Y-64017624D01*
X92091098Y-64016858D01*
X92068939Y-63983695D01*
X92059500Y-63936242D01*
X92059500Y-60560500D01*
X92076113Y-60498500D01*
X92121500Y-60453113D01*
X92183500Y-60436500D01*
X93838722Y-60436500D01*
X93841862Y-60436539D01*
X93929363Y-60438757D01*
X93987458Y-60428344D01*
X93996739Y-60427042D01*
X94055438Y-60421074D01*
X94084464Y-60411966D01*
X94099713Y-60408224D01*
X94129653Y-60402858D01*
X94184423Y-60380980D01*
X94193303Y-60377818D01*
X94249588Y-60360159D01*
X94276194Y-60345390D01*
X94290362Y-60338662D01*
X94318617Y-60327377D01*
X94367891Y-60294902D01*
X94375910Y-60290043D01*
X94427502Y-60261409D01*
X94447744Y-60244031D01*
X94450583Y-60241594D01*
X94463125Y-60232137D01*
X94488519Y-60215402D01*
X94530238Y-60173681D01*
X94537122Y-60167301D01*
X94581895Y-60128866D01*
X94600520Y-60104802D01*
X94610879Y-60093040D01*
X95962411Y-58741508D01*
X95964579Y-58739394D01*
X96012196Y-58694131D01*
X96029944Y-58680869D01*
X96029734Y-58680568D01*
X96040895Y-58672753D01*
X96216139Y-58550047D01*
X96377047Y-58389139D01*
X96496614Y-58218377D01*
X96540933Y-58179511D01*
X96598190Y-58165500D01*
X97408501Y-58165500D01*
X97470501Y-58182113D01*
X97515888Y-58227500D01*
X97532501Y-58289500D01*
X97532501Y-58605872D01*
X97532853Y-58609150D01*
X97532854Y-58609161D01*
X97538079Y-58657768D01*
X97538080Y-58657773D01*
X97538909Y-58665483D01*
X97541619Y-58672749D01*
X97541620Y-58672753D01*
X97569745Y-58748160D01*
X97589204Y-58800331D01*
X97594518Y-58807430D01*
X97594519Y-58807431D01*
X97650677Y-58882449D01*
X97675454Y-58915546D01*
X97790669Y-59001796D01*
X97925517Y-59052091D01*
X97985127Y-59058500D01*
X99880872Y-59058499D01*
X99940483Y-59052091D01*
X100075331Y-59001796D01*
X100190546Y-58915546D01*
X100276796Y-58800331D01*
X100327091Y-58665483D01*
X100333500Y-58605873D01*
X100333499Y-57723781D01*
X100342938Y-57676329D01*
X100369815Y-57636104D01*
X101089101Y-56916819D01*
X101129330Y-56889939D01*
X101176783Y-56880500D01*
X101602970Y-56880500D01*
X101662613Y-56895786D01*
X101707551Y-56937875D01*
X101726705Y-56996390D01*
X101715352Y-57056905D01*
X101645550Y-57206594D01*
X101645547Y-57206599D01*
X101643261Y-57211504D01*
X101641862Y-57216724D01*
X101641858Y-57216736D01*
X101585764Y-57426083D01*
X101585762Y-57426094D01*
X101584365Y-57431308D01*
X101583893Y-57436693D01*
X101583893Y-57436698D01*
X101573600Y-57554348D01*
X101564532Y-57658000D01*
X101565004Y-57663395D01*
X101581333Y-57850042D01*
X101584365Y-57884692D01*
X101585762Y-57889907D01*
X101585764Y-57889916D01*
X101641858Y-58099263D01*
X101641861Y-58099271D01*
X101643261Y-58104496D01*
X101739432Y-58310734D01*
X101742539Y-58315171D01*
X101742540Y-58315173D01*
X101790339Y-58383438D01*
X101869953Y-58497139D01*
X102030861Y-58658047D01*
X102217266Y-58788568D01*
X102423504Y-58884739D01*
X102428734Y-58886140D01*
X102428736Y-58886141D01*
X102635340Y-58941500D01*
X102643308Y-58943635D01*
X102870000Y-58963468D01*
X102875394Y-58962996D01*
X102880809Y-58962996D01*
X102880809Y-58963949D01*
X102927517Y-58970095D01*
X102972794Y-58998938D01*
X104381200Y-60407344D01*
X104388027Y-60414749D01*
X104423369Y-60456357D01*
X104428718Y-60460423D01*
X104428720Y-60460425D01*
X104488391Y-60505785D01*
X104491038Y-60507854D01*
X104546442Y-60552390D01*
X104554703Y-60559030D01*
X104560724Y-60562016D01*
X104565146Y-60564842D01*
X104569619Y-60567533D01*
X104574971Y-60571602D01*
X104581073Y-60574425D01*
X104649116Y-60605905D01*
X104652144Y-60607356D01*
X104725307Y-60643641D01*
X104731836Y-60645264D01*
X104736789Y-60647084D01*
X104741703Y-60648739D01*
X104747803Y-60651562D01*
X104827578Y-60669121D01*
X104830838Y-60669886D01*
X104903582Y-60687977D01*
X104903588Y-60687977D01*
X104910111Y-60689600D01*
X104916829Y-60689781D01*
X104922042Y-60690492D01*
X104927220Y-60691055D01*
X104933784Y-60692500D01*
X105015463Y-60692500D01*
X105018821Y-60692545D01*
X105100473Y-60694757D01*
X105107082Y-60693488D01*
X105113774Y-60692944D01*
X105113817Y-60693472D01*
X105124023Y-60692500D01*
X109941379Y-60692500D01*
X109951442Y-60692908D01*
X110005848Y-60697339D01*
X110086797Y-60686308D01*
X110090133Y-60685901D01*
X110171316Y-60677073D01*
X110177693Y-60674924D01*
X110182773Y-60673806D01*
X110187864Y-60672539D01*
X110194537Y-60671631D01*
X110200853Y-60669310D01*
X110207374Y-60667689D01*
X110208009Y-60670246D01*
X110262299Y-60665901D01*
X110322063Y-60696000D01*
X110357485Y-60752771D01*
X110358250Y-60819681D01*
X110348764Y-60855083D01*
X110348762Y-60855094D01*
X110347365Y-60860308D01*
X110327532Y-61087000D01*
X110328004Y-61092395D01*
X110345194Y-61288884D01*
X110347365Y-61313692D01*
X110348762Y-61318907D01*
X110348764Y-61318916D01*
X110404858Y-61528263D01*
X110404861Y-61528271D01*
X110406261Y-61533496D01*
X110408549Y-61538403D01*
X110408550Y-61538405D01*
X110434543Y-61594147D01*
X110502432Y-61739734D01*
X110505539Y-61744171D01*
X110505540Y-61744173D01*
X110565710Y-61830105D01*
X110632953Y-61926139D01*
X110793861Y-62087047D01*
X110980266Y-62217568D01*
X111186504Y-62313739D01*
X111406308Y-62372635D01*
X111633000Y-62392468D01*
X111859692Y-62372635D01*
X112079496Y-62313739D01*
X112285734Y-62217568D01*
X112472139Y-62087047D01*
X112633047Y-61926139D01*
X112763568Y-61739734D01*
X112859739Y-61533496D01*
X112918635Y-61313692D01*
X112938468Y-61087000D01*
X112918635Y-60860308D01*
X112859739Y-60640504D01*
X112763568Y-60434266D01*
X112633047Y-60247861D01*
X112472139Y-60086953D01*
X112285734Y-59956432D01*
X112079496Y-59860261D01*
X112074271Y-59858861D01*
X112074263Y-59858858D01*
X111864916Y-59802764D01*
X111864907Y-59802762D01*
X111859692Y-59801365D01*
X111854304Y-59800893D01*
X111854301Y-59800893D01*
X111638395Y-59782004D01*
X111633000Y-59781532D01*
X111627605Y-59782004D01*
X111558817Y-59788022D01*
X111499559Y-59778637D01*
X111451644Y-59742530D01*
X111426288Y-59688154D01*
X111429428Y-59628240D01*
X111460327Y-59576815D01*
X112255206Y-58781936D01*
X112290472Y-58757242D01*
X112422734Y-58695568D01*
X112609139Y-58565047D01*
X112770047Y-58404139D01*
X112900568Y-58217734D01*
X112927618Y-58159724D01*
X112973375Y-58107549D01*
X113040000Y-58088130D01*
X113106625Y-58107549D01*
X113152381Y-58159724D01*
X113179432Y-58217734D01*
X113266786Y-58342490D01*
X113287075Y-58371465D01*
X113303761Y-58405301D01*
X113309500Y-58442588D01*
X113309500Y-62135215D01*
X113300061Y-62182668D01*
X113273181Y-62222896D01*
X111925964Y-63570112D01*
X111890688Y-63594813D01*
X111849092Y-63605959D01*
X111792698Y-63610893D01*
X111792693Y-63610893D01*
X111787308Y-63611365D01*
X111782087Y-63612763D01*
X111782081Y-63612765D01*
X111572736Y-63668858D01*
X111572724Y-63668862D01*
X111567504Y-63670261D01*
X111562599Y-63672547D01*
X111562594Y-63672550D01*
X111366176Y-63764142D01*
X111366172Y-63764144D01*
X111361266Y-63766432D01*
X111356833Y-63769535D01*
X111356826Y-63769540D01*
X111179296Y-63893847D01*
X111179291Y-63893850D01*
X111174861Y-63896953D01*
X111171037Y-63900776D01*
X111171031Y-63900782D01*
X111017782Y-64054031D01*
X111017776Y-64054037D01*
X111013953Y-64057861D01*
X111010850Y-64062291D01*
X111010847Y-64062296D01*
X110886540Y-64239826D01*
X110886535Y-64239833D01*
X110883432Y-64244266D01*
X110881144Y-64249172D01*
X110881142Y-64249176D01*
X110789550Y-64445594D01*
X110789547Y-64445599D01*
X110787261Y-64450504D01*
X110785862Y-64455724D01*
X110785858Y-64455736D01*
X110729764Y-64665083D01*
X110729762Y-64665094D01*
X110728365Y-64670308D01*
X110727893Y-64675693D01*
X110727893Y-64675698D01*
X110717703Y-64792173D01*
X110708532Y-64897000D01*
X110709004Y-64902395D01*
X110720498Y-65033780D01*
X110728365Y-65123692D01*
X110729762Y-65128907D01*
X110729764Y-65128916D01*
X110785858Y-65338263D01*
X110785861Y-65338271D01*
X110787261Y-65343496D01*
X110883432Y-65549734D01*
X111013953Y-65736139D01*
X111174861Y-65897047D01*
X111361266Y-66027568D01*
X111567504Y-66123739D01*
X111572734Y-66125140D01*
X111572736Y-66125141D01*
X111734977Y-66168613D01*
X111787308Y-66182635D01*
X112014000Y-66202468D01*
X112240692Y-66182635D01*
X112460496Y-66123739D01*
X112666734Y-66027568D01*
X112853139Y-65897047D01*
X113014047Y-65736139D01*
X113144568Y-65549734D01*
X113240739Y-65343496D01*
X113299635Y-65123692D01*
X113305040Y-65061902D01*
X113315584Y-65022551D01*
X113973688Y-65022551D01*
X113974056Y-65033780D01*
X114026168Y-65228263D01*
X114029856Y-65238397D01*
X114125113Y-65442676D01*
X114130501Y-65452008D01*
X114259784Y-65636643D01*
X114266721Y-65644909D01*
X114426090Y-65804278D01*
X114434356Y-65811215D01*
X114618991Y-65940498D01*
X114628323Y-65945886D01*
X114832602Y-66041143D01*
X114842736Y-66044831D01*
X115037219Y-66096943D01*
X115048448Y-66097311D01*
X115051000Y-66086369D01*
X115051000Y-65036326D01*
X115047549Y-65023450D01*
X115034674Y-65020000D01*
X113984631Y-65020000D01*
X113973688Y-65022551D01*
X113315584Y-65022551D01*
X113316185Y-65020307D01*
X113340884Y-64985033D01*
X113802878Y-64523039D01*
X113854560Y-64492062D01*
X113914748Y-64489106D01*
X113969221Y-64514871D01*
X113971835Y-64517016D01*
X113984631Y-64520000D01*
X115427000Y-64520000D01*
X115489000Y-64536613D01*
X115534387Y-64582000D01*
X115551000Y-64644000D01*
X115551000Y-66086369D01*
X115553551Y-66097311D01*
X115564780Y-66096943D01*
X115759263Y-66044831D01*
X115769397Y-66041143D01*
X115973676Y-65945886D01*
X115983008Y-65940498D01*
X116167643Y-65811215D01*
X116175909Y-65804278D01*
X116335278Y-65644909D01*
X116342219Y-65636638D01*
X116469119Y-65455406D01*
X116513437Y-65416540D01*
X116570694Y-65402529D01*
X116627951Y-65416540D01*
X116672269Y-65455405D01*
X116799399Y-65636966D01*
X116799402Y-65636970D01*
X116802505Y-65641401D01*
X116969599Y-65808495D01*
X116974031Y-65811598D01*
X116974033Y-65811600D01*
X117090594Y-65893217D01*
X117163170Y-65944035D01*
X117377337Y-66043903D01*
X117605592Y-66105063D01*
X117841000Y-66125659D01*
X118076408Y-66105063D01*
X118304663Y-66043903D01*
X118518830Y-65944035D01*
X118712401Y-65808495D01*
X118834329Y-65686566D01*
X118887072Y-65655273D01*
X118948365Y-65653084D01*
X119003210Y-65680537D01*
X119038189Y-65730916D01*
X119050514Y-65763961D01*
X119087204Y-65862331D01*
X119092518Y-65869430D01*
X119092519Y-65869431D01*
X119148367Y-65944035D01*
X119173454Y-65977546D01*
X119288669Y-66063796D01*
X119423517Y-66114091D01*
X119483127Y-66120500D01*
X121278872Y-66120499D01*
X121338483Y-66114091D01*
X121473331Y-66063796D01*
X121588546Y-65977546D01*
X121674796Y-65862331D01*
X121725091Y-65727483D01*
X121731500Y-65667873D01*
X121731499Y-64135000D01*
X124043532Y-64135000D01*
X124044004Y-64140395D01*
X124053091Y-64244266D01*
X124063365Y-64361692D01*
X124064762Y-64366907D01*
X124064764Y-64366916D01*
X124120858Y-64576263D01*
X124120861Y-64576271D01*
X124122261Y-64581496D01*
X124124549Y-64586403D01*
X124124550Y-64586405D01*
X124161275Y-64665162D01*
X124218432Y-64787734D01*
X124348953Y-64974139D01*
X124509861Y-65135047D01*
X124696266Y-65265568D01*
X124902504Y-65361739D01*
X125122308Y-65420635D01*
X125292216Y-65435500D01*
X125403075Y-65435500D01*
X125405784Y-65435500D01*
X125575692Y-65420635D01*
X125795496Y-65361739D01*
X126001734Y-65265568D01*
X126188139Y-65135047D01*
X126349047Y-64974139D01*
X126479568Y-64787734D01*
X126575739Y-64581496D01*
X126634635Y-64361692D01*
X126654468Y-64135000D01*
X126634635Y-63908308D01*
X126632618Y-63900782D01*
X126577141Y-63693736D01*
X126577140Y-63693734D01*
X126575739Y-63688504D01*
X126479568Y-63482266D01*
X126349047Y-63295861D01*
X126188139Y-63134953D01*
X126001734Y-63004432D01*
X125795496Y-62908261D01*
X125790271Y-62906861D01*
X125790263Y-62906858D01*
X125580916Y-62850764D01*
X125580907Y-62850762D01*
X125575692Y-62849365D01*
X125570304Y-62848893D01*
X125570301Y-62848893D01*
X125408484Y-62834736D01*
X125408479Y-62834735D01*
X125405784Y-62834500D01*
X125292216Y-62834500D01*
X125289521Y-62834735D01*
X125289515Y-62834736D01*
X125127698Y-62848893D01*
X125127693Y-62848893D01*
X125122308Y-62849365D01*
X125117094Y-62850762D01*
X125117083Y-62850764D01*
X124907736Y-62906858D01*
X124907724Y-62906862D01*
X124902504Y-62908261D01*
X124897599Y-62910547D01*
X124897594Y-62910550D01*
X124701176Y-63002142D01*
X124701172Y-63002144D01*
X124696266Y-63004432D01*
X124691833Y-63007535D01*
X124691826Y-63007540D01*
X124514296Y-63131847D01*
X124514291Y-63131850D01*
X124509861Y-63134953D01*
X124506037Y-63138776D01*
X124506031Y-63138782D01*
X124352782Y-63292031D01*
X124352776Y-63292037D01*
X124348953Y-63295861D01*
X124345850Y-63300291D01*
X124345847Y-63300296D01*
X124221540Y-63477826D01*
X124221535Y-63477833D01*
X124218432Y-63482266D01*
X124216144Y-63487172D01*
X124216142Y-63487176D01*
X124124550Y-63683594D01*
X124124547Y-63683599D01*
X124122261Y-63688504D01*
X124120862Y-63693724D01*
X124120858Y-63693736D01*
X124064764Y-63903083D01*
X124064762Y-63903094D01*
X124063365Y-63908308D01*
X124062893Y-63913693D01*
X124062893Y-63913698D01*
X124056769Y-63983695D01*
X124043532Y-64135000D01*
X121731499Y-64135000D01*
X121731499Y-63872128D01*
X121725091Y-63812517D01*
X121674796Y-63677669D01*
X121588546Y-63562454D01*
X121573619Y-63551280D01*
X121480431Y-63481519D01*
X121480430Y-63481518D01*
X121473331Y-63476204D01*
X121402965Y-63449959D01*
X121345752Y-63428620D01*
X121345750Y-63428619D01*
X121338483Y-63425909D01*
X121330770Y-63425079D01*
X121330767Y-63425079D01*
X121282180Y-63419855D01*
X121282169Y-63419854D01*
X121278873Y-63419500D01*
X121275551Y-63419500D01*
X120793230Y-63419500D01*
X120745777Y-63410061D01*
X120705549Y-63383181D01*
X117752770Y-60430402D01*
X117722521Y-60381041D01*
X117667179Y-60210716D01*
X117572533Y-60046784D01*
X117491179Y-59956432D01*
X117450220Y-59910942D01*
X117450219Y-59910941D01*
X117445871Y-59906112D01*
X117440613Y-59902292D01*
X117440611Y-59902290D01*
X117297988Y-59798669D01*
X117297987Y-59798668D01*
X117292730Y-59794849D01*
X117286792Y-59792205D01*
X117125745Y-59720501D01*
X117125740Y-59720499D01*
X117119803Y-59717856D01*
X117113444Y-59716504D01*
X117113440Y-59716503D01*
X116941008Y-59679852D01*
X116941005Y-59679851D01*
X116934646Y-59678500D01*
X116745354Y-59678500D01*
X116738995Y-59679851D01*
X116738991Y-59679852D01*
X116566559Y-59716503D01*
X116566552Y-59716505D01*
X116560197Y-59717856D01*
X116554262Y-59720498D01*
X116554254Y-59720501D01*
X116393207Y-59792205D01*
X116393202Y-59792207D01*
X116387270Y-59794849D01*
X116382016Y-59798665D01*
X116382011Y-59798669D01*
X116239388Y-59902290D01*
X116239381Y-59902295D01*
X116234129Y-59906112D01*
X116229784Y-59910937D01*
X116229779Y-59910942D01*
X116111813Y-60041956D01*
X116111808Y-60041962D01*
X116107467Y-60046784D01*
X116104222Y-60052404D01*
X116104218Y-60052410D01*
X116016069Y-60205089D01*
X116016066Y-60205094D01*
X116012821Y-60210716D01*
X116010815Y-60216888D01*
X116010813Y-60216894D01*
X115956333Y-60384564D01*
X115956331Y-60384573D01*
X115954326Y-60390744D01*
X115953647Y-60397201D01*
X115953647Y-60397203D01*
X115946994Y-60460500D01*
X115921388Y-60523876D01*
X115866091Y-60564056D01*
X115804586Y-60568362D01*
X115804464Y-60569531D01*
X115798008Y-60568852D01*
X115791646Y-60567500D01*
X115602354Y-60567500D01*
X115595996Y-60568851D01*
X115595990Y-60568852D01*
X115460281Y-60597698D01*
X115405552Y-60596982D01*
X115356464Y-60572774D01*
X115322579Y-60529791D01*
X115310500Y-60476408D01*
X115310500Y-58442588D01*
X115316239Y-58405301D01*
X115332925Y-58371465D01*
X115349174Y-58348259D01*
X115440568Y-58217734D01*
X115536739Y-58011496D01*
X115595635Y-57791692D01*
X115610500Y-57621784D01*
X115610500Y-56745786D01*
X115624015Y-56689491D01*
X115661615Y-56645468D01*
X115715102Y-56623313D01*
X115772818Y-56627855D01*
X115822181Y-56658105D01*
X118043181Y-58879104D01*
X118070061Y-58919332D01*
X118079500Y-58966785D01*
X118079500Y-59264560D01*
X118079500Y-59264578D01*
X118079501Y-59267872D01*
X118079853Y-59271150D01*
X118079854Y-59271161D01*
X118085079Y-59319768D01*
X118085080Y-59319773D01*
X118085909Y-59327483D01*
X118088619Y-59334749D01*
X118088620Y-59334753D01*
X118094091Y-59349421D01*
X118136204Y-59462331D01*
X118222454Y-59577546D01*
X118337669Y-59663796D01*
X118472517Y-59714091D01*
X118532127Y-59720500D01*
X120227872Y-59720499D01*
X120287483Y-59714091D01*
X120422331Y-59663796D01*
X120537546Y-59577546D01*
X120623796Y-59462331D01*
X120674091Y-59327483D01*
X120680500Y-59267873D01*
X120680499Y-58269518D01*
X125225000Y-58269518D01*
X125225353Y-58276114D01*
X125230573Y-58324667D01*
X125234111Y-58339641D01*
X125278547Y-58458777D01*
X125286962Y-58474189D01*
X125362498Y-58575092D01*
X125374907Y-58587501D01*
X125475810Y-58663037D01*
X125491222Y-58671452D01*
X125610358Y-58715888D01*
X125625332Y-58719426D01*
X125673885Y-58724646D01*
X125680482Y-58725000D01*
X126408674Y-58725000D01*
X126421549Y-58721549D01*
X126425000Y-58708674D01*
X126425000Y-57341326D01*
X126421549Y-57328450D01*
X126408674Y-57325000D01*
X125241326Y-57325000D01*
X125228450Y-57328450D01*
X125225000Y-57341326D01*
X125225000Y-58269518D01*
X120680499Y-58269518D01*
X120680499Y-58105228D01*
X120689938Y-58057776D01*
X120716815Y-58017551D01*
X123322547Y-55411819D01*
X123362776Y-55384939D01*
X123410229Y-55375500D01*
X123865111Y-55375500D01*
X123868709Y-55375500D01*
X123999255Y-55360241D01*
X124074163Y-55332976D01*
X124116572Y-55325499D01*
X124569561Y-55325499D01*
X124572872Y-55325499D01*
X124632483Y-55319091D01*
X124767331Y-55268796D01*
X124882546Y-55182546D01*
X124968796Y-55067331D01*
X124984817Y-55024374D01*
X125025279Y-54969511D01*
X125088625Y-54944326D01*
X125155711Y-54956430D01*
X125206262Y-55002164D01*
X125225000Y-55067707D01*
X125225000Y-55419518D01*
X125225353Y-55426114D01*
X125230573Y-55474667D01*
X125234112Y-55489641D01*
X125277759Y-55606666D01*
X125285577Y-55649999D01*
X125277759Y-55693331D01*
X125234112Y-55810354D01*
X125230573Y-55825332D01*
X125225353Y-55873885D01*
X125225000Y-55880482D01*
X125225000Y-56808674D01*
X125228450Y-56821549D01*
X125241326Y-56825000D01*
X126408674Y-56825000D01*
X126421549Y-56821549D01*
X126425000Y-56808674D01*
X126425000Y-49841326D01*
X126421549Y-49828450D01*
X126408674Y-49825000D01*
X125241326Y-49825000D01*
X125228450Y-49828450D01*
X125225000Y-49841326D01*
X125225000Y-50769518D01*
X125225353Y-50776114D01*
X125230573Y-50824667D01*
X125234112Y-50839642D01*
X125277759Y-50956667D01*
X125285577Y-51000000D01*
X125277759Y-51043333D01*
X125234112Y-51160357D01*
X125230573Y-51175332D01*
X125225353Y-51223885D01*
X125225000Y-51230482D01*
X125225000Y-51583723D01*
X125206262Y-51649266D01*
X125155711Y-51695001D01*
X125088625Y-51707104D01*
X125025279Y-51681919D01*
X124984818Y-51627056D01*
X124971452Y-51591222D01*
X124963037Y-51575810D01*
X124887501Y-51474907D01*
X124875092Y-51462498D01*
X124774189Y-51386962D01*
X124758777Y-51378547D01*
X124639641Y-51334111D01*
X124624667Y-51330573D01*
X124576114Y-51325353D01*
X124569518Y-51325000D01*
X124041326Y-51325000D01*
X124028450Y-51328450D01*
X124025000Y-51341326D01*
X124025000Y-51850500D01*
X124008387Y-51912500D01*
X123963000Y-51957887D01*
X123901000Y-51974500D01*
X123742167Y-51974500D01*
X123687323Y-51961712D01*
X123643791Y-51925986D01*
X123620549Y-51874690D01*
X123622393Y-51818405D01*
X123625000Y-51808676D01*
X123625000Y-51341326D01*
X123621549Y-51328450D01*
X123608674Y-51325000D01*
X123080482Y-51325000D01*
X123073885Y-51325353D01*
X123025332Y-51330573D01*
X123010358Y-51334111D01*
X122891222Y-51378547D01*
X122875810Y-51386962D01*
X122774907Y-51462498D01*
X122762498Y-51474907D01*
X122686962Y-51575810D01*
X122678547Y-51591222D01*
X122634111Y-51710358D01*
X122630573Y-51725332D01*
X122625353Y-51773885D01*
X122625000Y-51780482D01*
X122625000Y-51808674D01*
X122628450Y-51821549D01*
X122641326Y-51825000D01*
X122785565Y-51825000D01*
X122844992Y-51840168D01*
X122889880Y-51881960D01*
X122909249Y-51940154D01*
X122898360Y-52000511D01*
X122859876Y-52048267D01*
X122774550Y-52112141D01*
X122774546Y-52112144D01*
X122767454Y-52117454D01*
X122762144Y-52124546D01*
X122762138Y-52124553D01*
X122724108Y-52175354D01*
X122694346Y-52203732D01*
X122656939Y-52220815D01*
X122628450Y-52228449D01*
X122625000Y-52241326D01*
X122625000Y-52269518D01*
X122625353Y-52276114D01*
X122631402Y-52332376D01*
X122629565Y-52332573D01*
X122629565Y-52367372D01*
X122630909Y-52367517D01*
X122624855Y-52423819D01*
X122624854Y-52423831D01*
X122624500Y-52427127D01*
X122624500Y-52430449D01*
X122624500Y-52500500D01*
X122607887Y-52562500D01*
X122562500Y-52607887D01*
X122500500Y-52624500D01*
X121696519Y-52624500D01*
X121649066Y-52615061D01*
X121608838Y-52588181D01*
X121072654Y-52051997D01*
X121046476Y-52013428D01*
X121027240Y-51968833D01*
X121027239Y-51968832D01*
X121024377Y-51962196D01*
X120919610Y-51821470D01*
X120785214Y-51708698D01*
X120752316Y-51692176D01*
X120634883Y-51633199D01*
X120634880Y-51633198D01*
X120628433Y-51629960D01*
X120621407Y-51628294D01*
X120621405Y-51628294D01*
X120464749Y-51591165D01*
X120464743Y-51591164D01*
X120457721Y-51589500D01*
X120450500Y-51589500D01*
X116760705Y-51589500D01*
X116742734Y-51588191D01*
X116726124Y-51585758D01*
X116726122Y-51585757D01*
X116718975Y-51584711D01*
X116711783Y-51585340D01*
X116711776Y-51585340D01*
X116669632Y-51589028D01*
X116658825Y-51589500D01*
X116653289Y-51589500D01*
X116649728Y-51589916D01*
X116649713Y-51589917D01*
X116622482Y-51593100D01*
X116618898Y-51593466D01*
X116551393Y-51599372D01*
X116551387Y-51599373D01*
X116544200Y-51600002D01*
X116537349Y-51602271D01*
X116533947Y-51602974D01*
X116533411Y-51603060D01*
X116531834Y-51603410D01*
X116530570Y-51603671D01*
X116529875Y-51603634D01*
X116523500Y-51604669D01*
X116522961Y-51604733D01*
X116522786Y-51603263D01*
X116467864Y-51600385D01*
X116414807Y-51566801D01*
X116385006Y-51511531D01*
X116386102Y-51448748D01*
X116417812Y-51394554D01*
X118503692Y-49308674D01*
X125225000Y-49308674D01*
X125228450Y-49321549D01*
X125241326Y-49325000D01*
X126408674Y-49325000D01*
X126421549Y-49321549D01*
X126425000Y-49308674D01*
X126425000Y-47941326D01*
X126421549Y-47928450D01*
X126408674Y-47925000D01*
X125680482Y-47925000D01*
X125673885Y-47925353D01*
X125625332Y-47930573D01*
X125610358Y-47934111D01*
X125491222Y-47978547D01*
X125475810Y-47986962D01*
X125374907Y-48062498D01*
X125362498Y-48074907D01*
X125286962Y-48175810D01*
X125278547Y-48191222D01*
X125234111Y-48310358D01*
X125230573Y-48325332D01*
X125225353Y-48373885D01*
X125225000Y-48380482D01*
X125225000Y-49308674D01*
X118503692Y-49308674D01*
X118722642Y-49089724D01*
X118736266Y-49077950D01*
X118755530Y-49063610D01*
X118787366Y-49025667D01*
X118794680Y-49017688D01*
X118795264Y-49017103D01*
X118798591Y-49013777D01*
X118817833Y-48989439D01*
X118820090Y-48986670D01*
X118863654Y-48934753D01*
X118863653Y-48934753D01*
X118868302Y-48929214D01*
X118871548Y-48922748D01*
X118873436Y-48919879D01*
X118873645Y-48919589D01*
X118873819Y-48919278D01*
X118875624Y-48916350D01*
X118880111Y-48910677D01*
X118911834Y-48842645D01*
X118913349Y-48839514D01*
X118947040Y-48772433D01*
X118948708Y-48765391D01*
X118949878Y-48762178D01*
X118950022Y-48761830D01*
X118950118Y-48761492D01*
X118951199Y-48758227D01*
X118954257Y-48751673D01*
X118969450Y-48678088D01*
X118970186Y-48674771D01*
X118987500Y-48601721D01*
X118987500Y-48594489D01*
X118987900Y-48591067D01*
X118987957Y-48590714D01*
X118987972Y-48590374D01*
X118988273Y-48586931D01*
X118989734Y-48579856D01*
X118987552Y-48504870D01*
X118987500Y-48501263D01*
X118987500Y-45783707D01*
X118988809Y-45765736D01*
X118989639Y-45760068D01*
X118992289Y-45741977D01*
X118987972Y-45692631D01*
X118987500Y-45681824D01*
X118987500Y-45679901D01*
X118987500Y-45676291D01*
X118983903Y-45645520D01*
X118983536Y-45641929D01*
X118981437Y-45617938D01*
X118976999Y-45567203D01*
X118974726Y-45560345D01*
X118974027Y-45556957D01*
X118973972Y-45556619D01*
X118973878Y-45556286D01*
X118973079Y-45552915D01*
X118972241Y-45545745D01*
X118968642Y-45535858D01*
X118946592Y-45475274D01*
X118945408Y-45471868D01*
X118939653Y-45454502D01*
X118921814Y-45400666D01*
X118918019Y-45394513D01*
X118916564Y-45391393D01*
X118916430Y-45391069D01*
X118916259Y-45390763D01*
X118914710Y-45387680D01*
X118912237Y-45380883D01*
X118871001Y-45318188D01*
X118869086Y-45315181D01*
X118833504Y-45257492D01*
X118833501Y-45257489D01*
X118829712Y-45251345D01*
X118824605Y-45246238D01*
X118822463Y-45243529D01*
X118822257Y-45243244D01*
X118822027Y-45242993D01*
X118819796Y-45240334D01*
X118815830Y-45234304D01*
X118810581Y-45229352D01*
X118810578Y-45229348D01*
X118761272Y-45182831D01*
X118758685Y-45180318D01*
X117341259Y-43762891D01*
X117311234Y-43714213D01*
X117306249Y-43657238D01*
X117327366Y-43604086D01*
X117370091Y-43566064D01*
X117425331Y-43551262D01*
X117480498Y-43549657D01*
X117484133Y-43549552D01*
X117487738Y-43549500D01*
X117754315Y-43549500D01*
X117813332Y-43564445D01*
X117858124Y-43605678D01*
X117892219Y-43657865D01*
X117892222Y-43657869D01*
X117895021Y-43662153D01*
X118052216Y-43832913D01*
X118056262Y-43836062D01*
X118056263Y-43836063D01*
X118092888Y-43864569D01*
X118235374Y-43975470D01*
X118439497Y-44085936D01*
X118659019Y-44161298D01*
X118887951Y-44199500D01*
X119114916Y-44199500D01*
X119120049Y-44199500D01*
X119348981Y-44161298D01*
X119568503Y-44085936D01*
X119772626Y-43975470D01*
X119955784Y-43832913D01*
X119964510Y-43823433D01*
X120017132Y-43789578D01*
X120079587Y-43785728D01*
X120135970Y-43812866D01*
X120171924Y-43864080D01*
X120197548Y-43932779D01*
X120205962Y-43948189D01*
X120281498Y-44049092D01*
X120293907Y-44061501D01*
X120394810Y-44137037D01*
X120410222Y-44145452D01*
X120529358Y-44189888D01*
X120544332Y-44193426D01*
X120592885Y-44198646D01*
X120599482Y-44199000D01*
X121277674Y-44199000D01*
X121290549Y-44195549D01*
X121294000Y-44182674D01*
X121794000Y-44182674D01*
X121797450Y-44195549D01*
X121810326Y-44199000D01*
X122488518Y-44199000D01*
X122495114Y-44198646D01*
X122543667Y-44193426D01*
X122558641Y-44189888D01*
X122677777Y-44145452D01*
X122693189Y-44137037D01*
X122794092Y-44061501D01*
X122806501Y-44049092D01*
X122882037Y-43948189D01*
X122890452Y-43932777D01*
X122934888Y-43813641D01*
X122938426Y-43798667D01*
X122943646Y-43750114D01*
X122944000Y-43743518D01*
X122944000Y-43065326D01*
X122940549Y-43052450D01*
X122927674Y-43049000D01*
X121810326Y-43049000D01*
X121797450Y-43052450D01*
X121794000Y-43065326D01*
X121794000Y-44182674D01*
X121294000Y-44182674D01*
X121294000Y-42532674D01*
X121794000Y-42532674D01*
X121797450Y-42545549D01*
X121810326Y-42549000D01*
X122927674Y-42549000D01*
X122940549Y-42545549D01*
X122940696Y-42545000D01*
X124043532Y-42545000D01*
X124044004Y-42550395D01*
X124062017Y-42756293D01*
X124063365Y-42771692D01*
X124064762Y-42776907D01*
X124064764Y-42776916D01*
X124120858Y-42986263D01*
X124120861Y-42986271D01*
X124122261Y-42991496D01*
X124124549Y-42996403D01*
X124124550Y-42996405D01*
X124154833Y-43061347D01*
X124218432Y-43197734D01*
X124221539Y-43202171D01*
X124221540Y-43202173D01*
X124278520Y-43283549D01*
X124348953Y-43384139D01*
X124509861Y-43545047D01*
X124696266Y-43675568D01*
X124902504Y-43771739D01*
X125122308Y-43830635D01*
X125292216Y-43845500D01*
X125403075Y-43845500D01*
X125405784Y-43845500D01*
X125575692Y-43830635D01*
X125795496Y-43771739D01*
X126001734Y-43675568D01*
X126188139Y-43545047D01*
X126349047Y-43384139D01*
X126479568Y-43197734D01*
X126575739Y-42991496D01*
X126634635Y-42771692D01*
X126654468Y-42545000D01*
X126634635Y-42318308D01*
X126575739Y-42098504D01*
X126479568Y-41892266D01*
X126349047Y-41705861D01*
X126188139Y-41544953D01*
X126086177Y-41473559D01*
X126006173Y-41417540D01*
X126006171Y-41417539D01*
X126001734Y-41414432D01*
X125921410Y-41376976D01*
X125800405Y-41320550D01*
X125800403Y-41320549D01*
X125795496Y-41318261D01*
X125790271Y-41316861D01*
X125790263Y-41316858D01*
X125580916Y-41260764D01*
X125580907Y-41260762D01*
X125575692Y-41259365D01*
X125570304Y-41258893D01*
X125570301Y-41258893D01*
X125408484Y-41244736D01*
X125408479Y-41244735D01*
X125405784Y-41244500D01*
X125292216Y-41244500D01*
X125289521Y-41244735D01*
X125289515Y-41244736D01*
X125127698Y-41258893D01*
X125127693Y-41258893D01*
X125122308Y-41259365D01*
X125117094Y-41260762D01*
X125117083Y-41260764D01*
X124907736Y-41316858D01*
X124907724Y-41316862D01*
X124902504Y-41318261D01*
X124897599Y-41320547D01*
X124897594Y-41320550D01*
X124701176Y-41412142D01*
X124701172Y-41412144D01*
X124696266Y-41414432D01*
X124691833Y-41417535D01*
X124691826Y-41417540D01*
X124514296Y-41541847D01*
X124514291Y-41541850D01*
X124509861Y-41544953D01*
X124506037Y-41548776D01*
X124506031Y-41548782D01*
X124352782Y-41702031D01*
X124352776Y-41702037D01*
X124348953Y-41705861D01*
X124345850Y-41710291D01*
X124345847Y-41710296D01*
X124221540Y-41887826D01*
X124221535Y-41887833D01*
X124218432Y-41892266D01*
X124216144Y-41897172D01*
X124216142Y-41897176D01*
X124124550Y-42093594D01*
X124124547Y-42093599D01*
X124122261Y-42098504D01*
X124120862Y-42103724D01*
X124120858Y-42103736D01*
X124064764Y-42313083D01*
X124064762Y-42313094D01*
X124063365Y-42318308D01*
X124062893Y-42323693D01*
X124062893Y-42323698D01*
X124048913Y-42483496D01*
X124043532Y-42545000D01*
X122940696Y-42545000D01*
X122944000Y-42532674D01*
X122944000Y-41854482D01*
X122943646Y-41847885D01*
X122938426Y-41799332D01*
X122934888Y-41784358D01*
X122890452Y-41665222D01*
X122882037Y-41649810D01*
X122806501Y-41548907D01*
X122794092Y-41536498D01*
X122693189Y-41460962D01*
X122677777Y-41452547D01*
X122558641Y-41408111D01*
X122543667Y-41404573D01*
X122495114Y-41399353D01*
X122488518Y-41399000D01*
X121810326Y-41399000D01*
X121797450Y-41402450D01*
X121794000Y-41415326D01*
X121794000Y-42532674D01*
X121294000Y-42532674D01*
X121294000Y-41415326D01*
X121290549Y-41402450D01*
X121277674Y-41399000D01*
X120599482Y-41399000D01*
X120592885Y-41399353D01*
X120544332Y-41404573D01*
X120529358Y-41408111D01*
X120410222Y-41452547D01*
X120394810Y-41460962D01*
X120293907Y-41536498D01*
X120281498Y-41548907D01*
X120205962Y-41649810D01*
X120197545Y-41665224D01*
X120171923Y-41733920D01*
X120135971Y-41785133D01*
X120079590Y-41812270D01*
X120017136Y-41808422D01*
X119964513Y-41774569D01*
X119959258Y-41768861D01*
X119955784Y-41765087D01*
X119950494Y-41760970D01*
X119776672Y-41625679D01*
X119776671Y-41625678D01*
X119772626Y-41622530D01*
X119685521Y-41575391D01*
X119573007Y-41514501D01*
X119573002Y-41514499D01*
X119568503Y-41512064D01*
X119563657Y-41510400D01*
X119563654Y-41510399D01*
X119353834Y-41438368D01*
X119353833Y-41438367D01*
X119348981Y-41436702D01*
X119343931Y-41435859D01*
X119343922Y-41435857D01*
X119125111Y-41399344D01*
X119125102Y-41399343D01*
X119120049Y-41398500D01*
X118887951Y-41398500D01*
X118882898Y-41399343D01*
X118882888Y-41399344D01*
X118664077Y-41435857D01*
X118664065Y-41435859D01*
X118659019Y-41436702D01*
X118654169Y-41438366D01*
X118654165Y-41438368D01*
X118444345Y-41510399D01*
X118444337Y-41510402D01*
X118439497Y-41512064D01*
X118435001Y-41514496D01*
X118434992Y-41514501D01*
X118239882Y-41620090D01*
X118239878Y-41620092D01*
X118235374Y-41622530D01*
X118231338Y-41625670D01*
X118231320Y-41625683D01*
X118145399Y-41692558D01*
X118090067Y-41716942D01*
X118029783Y-41712259D01*
X117978880Y-41679624D01*
X117949463Y-41626795D01*
X117948139Y-41621854D01*
X117939739Y-41590504D01*
X117843568Y-41384266D01*
X117713047Y-41197861D01*
X117552139Y-41036953D01*
X117432239Y-40952999D01*
X117370173Y-40909540D01*
X117370171Y-40909539D01*
X117365734Y-40906432D01*
X117159496Y-40810261D01*
X117154271Y-40808861D01*
X117154263Y-40808858D01*
X116944916Y-40752764D01*
X116944907Y-40752762D01*
X116939692Y-40751365D01*
X116934304Y-40750893D01*
X116934301Y-40750893D01*
X116718395Y-40732004D01*
X116713000Y-40731532D01*
X116707605Y-40732004D01*
X116491698Y-40750893D01*
X116491693Y-40750893D01*
X116486308Y-40751365D01*
X116481094Y-40752762D01*
X116481083Y-40752764D01*
X116271736Y-40808858D01*
X116271724Y-40808862D01*
X116266504Y-40810261D01*
X116261599Y-40812547D01*
X116261594Y-40812550D01*
X116065176Y-40904142D01*
X116065172Y-40904144D01*
X116060266Y-40906432D01*
X116055833Y-40909535D01*
X116055826Y-40909540D01*
X115878296Y-41033847D01*
X115878291Y-41033850D01*
X115873861Y-41036953D01*
X115870037Y-41040776D01*
X115870031Y-41040782D01*
X115716782Y-41194031D01*
X115716776Y-41194037D01*
X115712953Y-41197861D01*
X115709850Y-41202291D01*
X115709847Y-41202296D01*
X115585540Y-41379826D01*
X115585535Y-41379833D01*
X115582432Y-41384266D01*
X115580144Y-41389172D01*
X115580142Y-41389176D01*
X115488550Y-41585594D01*
X115488547Y-41585599D01*
X115486261Y-41590504D01*
X115484861Y-41595726D01*
X115484856Y-41595742D01*
X115474775Y-41633366D01*
X115442681Y-41688953D01*
X115387094Y-41721046D01*
X115322907Y-41721046D01*
X115267320Y-41688952D01*
X115129729Y-41551361D01*
X115117947Y-41537727D01*
X115107925Y-41524265D01*
X115107921Y-41524261D01*
X115103610Y-41518470D01*
X115074258Y-41493841D01*
X115065666Y-41486631D01*
X115057691Y-41479323D01*
X115056329Y-41477961D01*
X115056328Y-41477960D01*
X115053777Y-41475409D01*
X115050953Y-41473176D01*
X115050944Y-41473168D01*
X115029445Y-41456170D01*
X115026674Y-41453913D01*
X114969214Y-41405698D01*
X114962760Y-41402456D01*
X114959859Y-41400548D01*
X114959588Y-41400352D01*
X114959292Y-41400187D01*
X114956339Y-41398366D01*
X114950677Y-41393889D01*
X114944134Y-41390838D01*
X114944131Y-41390836D01*
X114882692Y-41362186D01*
X114879446Y-41360615D01*
X114818884Y-41330200D01*
X114818885Y-41330200D01*
X114812433Y-41326960D01*
X114805409Y-41325295D01*
X114802151Y-41324109D01*
X114801832Y-41323977D01*
X114801504Y-41323884D01*
X114798218Y-41322795D01*
X114791673Y-41319743D01*
X114784604Y-41318283D01*
X114784600Y-41318282D01*
X114718212Y-41304574D01*
X114714691Y-41303794D01*
X114648741Y-41288163D01*
X114648734Y-41288162D01*
X114641721Y-41286500D01*
X114634510Y-41286500D01*
X114631061Y-41286097D01*
X114630727Y-41286043D01*
X114630374Y-41286028D01*
X114626929Y-41285726D01*
X114619856Y-41284266D01*
X114612638Y-41284476D01*
X114544870Y-41286448D01*
X114541263Y-41286500D01*
X107679663Y-41286500D01*
X107622406Y-41272489D01*
X107578088Y-41233624D01*
X107556152Y-41202296D01*
X107553047Y-41197861D01*
X107392139Y-41036953D01*
X107272239Y-40952999D01*
X107210173Y-40909540D01*
X107210171Y-40909539D01*
X107205734Y-40906432D01*
X106999496Y-40810261D01*
X106994271Y-40808861D01*
X106994263Y-40808858D01*
X106784916Y-40752764D01*
X106784907Y-40752762D01*
X106779692Y-40751365D01*
X106774304Y-40750893D01*
X106774301Y-40750893D01*
X106558395Y-40732004D01*
X106553000Y-40731532D01*
X106547605Y-40732004D01*
X106331698Y-40750893D01*
X106331693Y-40750893D01*
X106326308Y-40751365D01*
X106321094Y-40752762D01*
X106321083Y-40752764D01*
X106111736Y-40808858D01*
X106111724Y-40808862D01*
X106106504Y-40810261D01*
X106101599Y-40812547D01*
X106101594Y-40812550D01*
X105905176Y-40904142D01*
X105905172Y-40904144D01*
X105900266Y-40906432D01*
X105895833Y-40909535D01*
X105895826Y-40909540D01*
X105718296Y-41033847D01*
X105718291Y-41033850D01*
X105713861Y-41036953D01*
X105710037Y-41040776D01*
X105710031Y-41040782D01*
X105556782Y-41194031D01*
X105556776Y-41194037D01*
X105552953Y-41197861D01*
X105549850Y-41202291D01*
X105549847Y-41202296D01*
X105487285Y-41291645D01*
X105442443Y-41330783D01*
X105384530Y-41344516D01*
X105326888Y-41329683D01*
X105282799Y-41289699D01*
X105262420Y-41233777D01*
X105257426Y-41187332D01*
X105253888Y-41172358D01*
X105209452Y-41053222D01*
X105201037Y-41037810D01*
X105125501Y-40936907D01*
X105113092Y-40924498D01*
X105012189Y-40848962D01*
X104996777Y-40840547D01*
X104877641Y-40796111D01*
X104862667Y-40792573D01*
X104814114Y-40787353D01*
X104807518Y-40787000D01*
X104279326Y-40787000D01*
X104266450Y-40790450D01*
X104263000Y-40803326D01*
X104263000Y-43270674D01*
X104266450Y-43283549D01*
X104279326Y-43287000D01*
X104807518Y-43287000D01*
X104814114Y-43286646D01*
X104862667Y-43281426D01*
X104877641Y-43277888D01*
X104996777Y-43233452D01*
X105012189Y-43225037D01*
X105113092Y-43149501D01*
X105125501Y-43137092D01*
X105201037Y-43036189D01*
X105209452Y-43020777D01*
X105253888Y-42901641D01*
X105257426Y-42886667D01*
X105262420Y-42840222D01*
X105282799Y-42784300D01*
X105326889Y-42744316D01*
X105384530Y-42729483D01*
X105442443Y-42743217D01*
X105487284Y-42782353D01*
X105552953Y-42876139D01*
X105713861Y-43037047D01*
X105900266Y-43167568D01*
X106106504Y-43263739D01*
X106111734Y-43265140D01*
X106111736Y-43265141D01*
X106285102Y-43311594D01*
X106326308Y-43322635D01*
X106553000Y-43342468D01*
X106779692Y-43322635D01*
X106999496Y-43263739D01*
X107205734Y-43167568D01*
X107392139Y-43037047D01*
X107553047Y-42876139D01*
X107578088Y-42840375D01*
X107622406Y-42801511D01*
X107679663Y-42787500D01*
X114191770Y-42787500D01*
X114239223Y-42796939D01*
X114279451Y-42823819D01*
X115763124Y-44307492D01*
X115793704Y-44357885D01*
X115797559Y-44416705D01*
X115773819Y-44470659D01*
X115727849Y-44507555D01*
X115557172Y-44587144D01*
X115557169Y-44587145D01*
X115552266Y-44589432D01*
X115547833Y-44592535D01*
X115547826Y-44592540D01*
X115370297Y-44716846D01*
X115370290Y-44716851D01*
X115365861Y-44719953D01*
X115362038Y-44723775D01*
X115362026Y-44723786D01*
X115292373Y-44793438D01*
X115250696Y-44820907D01*
X115237227Y-44826287D01*
X115237214Y-44826293D01*
X115231383Y-44828623D01*
X115226137Y-44832079D01*
X115226128Y-44832085D01*
X115066738Y-44937132D01*
X115066729Y-44937138D01*
X115061481Y-44940598D01*
X115057034Y-44945044D01*
X115057029Y-44945049D01*
X113612645Y-46389433D01*
X113610397Y-46391625D01*
X113546947Y-46451941D01*
X113543359Y-46457095D01*
X113543352Y-46457104D01*
X113513244Y-46500361D01*
X113507574Y-46507881D01*
X113474274Y-46548721D01*
X113474271Y-46548724D01*
X113470302Y-46553593D01*
X113467396Y-46559155D01*
X113467388Y-46559168D01*
X113456210Y-46580566D01*
X113448082Y-46593982D01*
X113434300Y-46613784D01*
X113434295Y-46613792D01*
X113430705Y-46618951D01*
X113428228Y-46624721D01*
X113428225Y-46624728D01*
X113407439Y-46673165D01*
X113403399Y-46681671D01*
X113381732Y-46723152D01*
X113376091Y-46733951D01*
X113374363Y-46739989D01*
X113374360Y-46739997D01*
X113367720Y-46763201D01*
X113362459Y-46777978D01*
X113357549Y-46789421D01*
X113350460Y-46805942D01*
X113349194Y-46812097D01*
X113349192Y-46812107D01*
X113338587Y-46863712D01*
X113336342Y-46872859D01*
X113321842Y-46923534D01*
X113321839Y-46923547D01*
X113320113Y-46929582D01*
X113319636Y-46935842D01*
X113319635Y-46935849D01*
X113317801Y-46959929D01*
X113315622Y-46975463D01*
X113310766Y-46999097D01*
X113309500Y-47005259D01*
X113309500Y-47011550D01*
X113309500Y-47064241D01*
X113309142Y-47073656D01*
X113305140Y-47126205D01*
X113305140Y-47126210D01*
X113304663Y-47132476D01*
X113305456Y-47138709D01*
X113305457Y-47138715D01*
X113308506Y-47162651D01*
X113309500Y-47178317D01*
X113309500Y-48267412D01*
X113303761Y-48304699D01*
X113287075Y-48338533D01*
X113262323Y-48373885D01*
X113182540Y-48487826D01*
X113182535Y-48487833D01*
X113179432Y-48492266D01*
X113177148Y-48497163D01*
X113177141Y-48497176D01*
X113152382Y-48550274D01*
X113106625Y-48602450D01*
X113040000Y-48621869D01*
X112973375Y-48602450D01*
X112927618Y-48550274D01*
X112902858Y-48497176D01*
X112902855Y-48497172D01*
X112900568Y-48492266D01*
X112770047Y-48305861D01*
X112609139Y-48144953D01*
X112422734Y-48014432D01*
X112345779Y-47978547D01*
X112221405Y-47920550D01*
X112221403Y-47920549D01*
X112216496Y-47918261D01*
X112211271Y-47916861D01*
X112211263Y-47916858D01*
X112001916Y-47860764D01*
X112001907Y-47860762D01*
X111996692Y-47859365D01*
X111991304Y-47858893D01*
X111991301Y-47858893D01*
X111775395Y-47840004D01*
X111770000Y-47839532D01*
X111764605Y-47840004D01*
X111548698Y-47858893D01*
X111548693Y-47858893D01*
X111543308Y-47859365D01*
X111538094Y-47860762D01*
X111538083Y-47860764D01*
X111328736Y-47916858D01*
X111328724Y-47916862D01*
X111323504Y-47918261D01*
X111318599Y-47920547D01*
X111318594Y-47920550D01*
X111122176Y-48012142D01*
X111122172Y-48012144D01*
X111117266Y-48014432D01*
X111112833Y-48017535D01*
X111112826Y-48017540D01*
X110935296Y-48141847D01*
X110935291Y-48141850D01*
X110930861Y-48144953D01*
X110927037Y-48148776D01*
X110927031Y-48148782D01*
X110773782Y-48302031D01*
X110773776Y-48302037D01*
X110769953Y-48305861D01*
X110766850Y-48310291D01*
X110766847Y-48310296D01*
X110642540Y-48487826D01*
X110642535Y-48487833D01*
X110639432Y-48492266D01*
X110637148Y-48497163D01*
X110637141Y-48497176D01*
X110612382Y-48550274D01*
X110566625Y-48602450D01*
X110500000Y-48621869D01*
X110433375Y-48602450D01*
X110387618Y-48550274D01*
X110362858Y-48497176D01*
X110362855Y-48497172D01*
X110360568Y-48492266D01*
X110230047Y-48305861D01*
X110069139Y-48144953D01*
X109882734Y-48014432D01*
X109805779Y-47978547D01*
X109681405Y-47920550D01*
X109681403Y-47920549D01*
X109676496Y-47918261D01*
X109671271Y-47916861D01*
X109671263Y-47916858D01*
X109461916Y-47860764D01*
X109461907Y-47860762D01*
X109456692Y-47859365D01*
X109451304Y-47858893D01*
X109451301Y-47858893D01*
X109235395Y-47840004D01*
X109230000Y-47839532D01*
X109224605Y-47840004D01*
X109008698Y-47858893D01*
X109008693Y-47858893D01*
X109003308Y-47859365D01*
X108998094Y-47860762D01*
X108998083Y-47860764D01*
X108788736Y-47916858D01*
X108788724Y-47916862D01*
X108783504Y-47918261D01*
X108778599Y-47920547D01*
X108778594Y-47920550D01*
X108582176Y-48012142D01*
X108582172Y-48012144D01*
X108577266Y-48014432D01*
X108572833Y-48017535D01*
X108572826Y-48017540D01*
X108395296Y-48141847D01*
X108395291Y-48141850D01*
X108390861Y-48144953D01*
X108387037Y-48148776D01*
X108387031Y-48148782D01*
X108233782Y-48302031D01*
X108233776Y-48302037D01*
X108229953Y-48305861D01*
X108226850Y-48310291D01*
X108226847Y-48310296D01*
X108102540Y-48487826D01*
X108102535Y-48487833D01*
X108099432Y-48492266D01*
X108095237Y-48501263D01*
X108072106Y-48550866D01*
X108026348Y-48603041D01*
X107959723Y-48622460D01*
X107893098Y-48603040D01*
X107847342Y-48550864D01*
X107822422Y-48497423D01*
X107817032Y-48488087D01*
X107692767Y-48310618D01*
X107685830Y-48302352D01*
X107532647Y-48149169D01*
X107524381Y-48142232D01*
X107346912Y-48017967D01*
X107337580Y-48012579D01*
X107141234Y-47921022D01*
X107131092Y-47917330D01*
X106953780Y-47869820D01*
X106942551Y-47869452D01*
X106940000Y-47880395D01*
X106940000Y-49671000D01*
X106923387Y-49733000D01*
X106878000Y-49778387D01*
X106816000Y-49795000D01*
X105406326Y-49795000D01*
X105393450Y-49798450D01*
X105390000Y-49811326D01*
X105390000Y-49999054D01*
X105390236Y-50004463D01*
X105404386Y-50166206D01*
X105406260Y-50176837D01*
X105462332Y-50386097D01*
X105466020Y-50396231D01*
X105557579Y-50592580D01*
X105562967Y-50601912D01*
X105687232Y-50779381D01*
X105694169Y-50787647D01*
X105847352Y-50940830D01*
X105855618Y-50947767D01*
X106033087Y-51072032D01*
X106042419Y-51077420D01*
X106238768Y-51168979D01*
X106248902Y-51172667D01*
X106452394Y-51227193D01*
X106507981Y-51259287D01*
X106540075Y-51314874D01*
X106540075Y-51379062D01*
X106507981Y-51434649D01*
X104373451Y-53569181D01*
X104333223Y-53596061D01*
X104285770Y-53605500D01*
X97948336Y-53605500D01*
X97910018Y-53599431D01*
X97875454Y-53581820D01*
X97861730Y-53571849D01*
X97855509Y-53569079D01*
X97694745Y-53497501D01*
X97694740Y-53497499D01*
X97688803Y-53494856D01*
X97682444Y-53493504D01*
X97682440Y-53493503D01*
X97510008Y-53456852D01*
X97510005Y-53456851D01*
X97503646Y-53455500D01*
X97314354Y-53455500D01*
X97307995Y-53456851D01*
X97307991Y-53456852D01*
X97135559Y-53493503D01*
X97135552Y-53493505D01*
X97129197Y-53494856D01*
X97123262Y-53497498D01*
X97123254Y-53497501D01*
X96962207Y-53569205D01*
X96962202Y-53569207D01*
X96956270Y-53571849D01*
X96951016Y-53575665D01*
X96951011Y-53575669D01*
X96808388Y-53679290D01*
X96808381Y-53679295D01*
X96803129Y-53683112D01*
X96798784Y-53687937D01*
X96798779Y-53687942D01*
X96680813Y-53818956D01*
X96680808Y-53818962D01*
X96676467Y-53823784D01*
X96673222Y-53829404D01*
X96673218Y-53829410D01*
X96585069Y-53982089D01*
X96585066Y-53982094D01*
X96581821Y-53987716D01*
X96579815Y-53993886D01*
X96579811Y-53993898D01*
X96563801Y-54043172D01*
X96530041Y-54095909D01*
X96474817Y-54125426D01*
X96412212Y-54124196D01*
X96358190Y-54092533D01*
X94843819Y-52578162D01*
X94816939Y-52537934D01*
X94807500Y-52490481D01*
X94807500Y-51354500D01*
X94824113Y-51292500D01*
X94869500Y-51247113D01*
X94931500Y-51230500D01*
X96187999Y-51230499D01*
X96224872Y-51230499D01*
X96284483Y-51224091D01*
X96419331Y-51173796D01*
X96534546Y-51087546D01*
X96620796Y-50972331D01*
X96671091Y-50837483D01*
X96677500Y-50777873D01*
X96677500Y-50654500D01*
X96694113Y-50592500D01*
X96739500Y-50547113D01*
X96801500Y-50530500D01*
X96886722Y-50530500D01*
X96889862Y-50530539D01*
X96977363Y-50532757D01*
X97035458Y-50522344D01*
X97044739Y-50521042D01*
X97103438Y-50515074D01*
X97132464Y-50505966D01*
X97147713Y-50502224D01*
X97177653Y-50496858D01*
X97232423Y-50474980D01*
X97241303Y-50471818D01*
X97297588Y-50454159D01*
X97324194Y-50439390D01*
X97338362Y-50432662D01*
X97366617Y-50421377D01*
X97415891Y-50388902D01*
X97423910Y-50384043D01*
X97475502Y-50355409D01*
X97486961Y-50345570D01*
X97498583Y-50335594D01*
X97511125Y-50326137D01*
X97536519Y-50309402D01*
X97578238Y-50267681D01*
X97585122Y-50261301D01*
X97629895Y-50222866D01*
X97648524Y-50198798D01*
X97658884Y-50187035D01*
X98567245Y-49278674D01*
X105390000Y-49278674D01*
X105393450Y-49291549D01*
X105406326Y-49295000D01*
X106423674Y-49295000D01*
X106436549Y-49291549D01*
X106440000Y-49278674D01*
X106440000Y-47880395D01*
X106437448Y-47869452D01*
X106426219Y-47869820D01*
X106248907Y-47917330D01*
X106238765Y-47921022D01*
X106042419Y-48012579D01*
X106033087Y-48017967D01*
X105855618Y-48142232D01*
X105847352Y-48149169D01*
X105694169Y-48302352D01*
X105687232Y-48310618D01*
X105562967Y-48488087D01*
X105557579Y-48497419D01*
X105466020Y-48693768D01*
X105462332Y-48703902D01*
X105406260Y-48913162D01*
X105404386Y-48923793D01*
X105390236Y-49085536D01*
X105390000Y-49090946D01*
X105390000Y-49278674D01*
X98567245Y-49278674D01*
X98911101Y-48934818D01*
X98951329Y-48907939D01*
X98998782Y-48898500D01*
X99043916Y-48898500D01*
X99049049Y-48898500D01*
X99277981Y-48860298D01*
X99497503Y-48784936D01*
X99701626Y-48674470D01*
X99884784Y-48531913D01*
X100041979Y-48361153D01*
X100168924Y-48166849D01*
X100262157Y-47954300D01*
X100319134Y-47729305D01*
X100338300Y-47498000D01*
X100319134Y-47266695D01*
X100262157Y-47041700D01*
X100168924Y-46829151D01*
X100041979Y-46634847D01*
X100038511Y-46631080D01*
X100038509Y-46631077D01*
X99966270Y-46552605D01*
X99941983Y-46513697D01*
X99933500Y-46468622D01*
X99933500Y-42827417D01*
X99939239Y-42790129D01*
X99955925Y-42756293D01*
X99965081Y-42743217D01*
X100020102Y-42664639D01*
X100090617Y-42513417D01*
X100136375Y-42461241D01*
X100203000Y-42441821D01*
X100269625Y-42461241D01*
X100315382Y-42513417D01*
X100383609Y-42659732D01*
X100383613Y-42659739D01*
X100385898Y-42664639D01*
X100388997Y-42669066D01*
X100388999Y-42669068D01*
X100508296Y-42839442D01*
X100508299Y-42839446D01*
X100511402Y-42843877D01*
X100515233Y-42847708D01*
X100561180Y-42893655D01*
X100588060Y-42933883D01*
X100597499Y-42981336D01*
X100597499Y-46060378D01*
X100597090Y-46070442D01*
X100593205Y-46118142D01*
X100593205Y-46118150D01*
X100592660Y-46124847D01*
X100593567Y-46131510D01*
X100593568Y-46131513D01*
X100603687Y-46205789D01*
X100604095Y-46209120D01*
X100610701Y-46269858D01*
X100612926Y-46290315D01*
X100615070Y-46296680D01*
X100616197Y-46301800D01*
X100617460Y-46306881D01*
X100618368Y-46313536D01*
X100620684Y-46319840D01*
X100620686Y-46319848D01*
X100646539Y-46390219D01*
X100647654Y-46393384D01*
X100669124Y-46457104D01*
X100673732Y-46470779D01*
X100677196Y-46476537D01*
X100679405Y-46481311D01*
X100681720Y-46485979D01*
X100684038Y-46492287D01*
X100687656Y-46497948D01*
X100687659Y-46497953D01*
X100728045Y-46561138D01*
X100729814Y-46563990D01*
X100768443Y-46628192D01*
X100768446Y-46628196D01*
X100771910Y-46633953D01*
X100776530Y-46638830D01*
X100779695Y-46642994D01*
X100782976Y-46647076D01*
X100786599Y-46652743D01*
X100791356Y-46657500D01*
X100844358Y-46710502D01*
X100846700Y-46712908D01*
X100898244Y-46767323D01*
X100898246Y-46767325D01*
X100902870Y-46772206D01*
X100908436Y-46775979D01*
X100913559Y-46780331D01*
X100913215Y-46780734D01*
X100921120Y-46787264D01*
X101529061Y-47395205D01*
X101557898Y-47440465D01*
X101564056Y-47487193D01*
X101565004Y-47487193D01*
X101565004Y-47492605D01*
X101564532Y-47498000D01*
X101584365Y-47724692D01*
X101585762Y-47729907D01*
X101585764Y-47729916D01*
X101641858Y-47939263D01*
X101641861Y-47939271D01*
X101643261Y-47944496D01*
X101645549Y-47949403D01*
X101645550Y-47949405D01*
X101674805Y-48012142D01*
X101739432Y-48150734D01*
X101742539Y-48155171D01*
X101742540Y-48155173D01*
X101801552Y-48239452D01*
X101869953Y-48337139D01*
X102030861Y-48498047D01*
X102217266Y-48628568D01*
X102423504Y-48724739D01*
X102428734Y-48726140D01*
X102428736Y-48726141D01*
X102638083Y-48782235D01*
X102643308Y-48783635D01*
X102870000Y-48803468D01*
X103096692Y-48783635D01*
X103316496Y-48724739D01*
X103522734Y-48628568D01*
X103709139Y-48498047D01*
X103870047Y-48337139D01*
X104000568Y-48150734D01*
X104096739Y-47944496D01*
X104155635Y-47724692D01*
X104175468Y-47498000D01*
X104155635Y-47271308D01*
X104100152Y-47064241D01*
X104098141Y-47056736D01*
X104098140Y-47056734D01*
X104096739Y-47051504D01*
X104000568Y-46845266D01*
X103967965Y-46798703D01*
X105323217Y-46798703D01*
X105330650Y-46806814D01*
X105388077Y-46847025D01*
X105397427Y-46852423D01*
X105593768Y-46943979D01*
X105603902Y-46947667D01*
X105813162Y-47003739D01*
X105823793Y-47005613D01*
X106039605Y-47024494D01*
X106050395Y-47024494D01*
X106266206Y-47005613D01*
X106276837Y-47003739D01*
X106486097Y-46947667D01*
X106496231Y-46943979D01*
X106692575Y-46852422D01*
X106701920Y-46847026D01*
X106759348Y-46806814D01*
X106766780Y-46798703D01*
X106760867Y-46789421D01*
X106056542Y-46085095D01*
X106045000Y-46078431D01*
X106033457Y-46085095D01*
X105329128Y-46789424D01*
X105323217Y-46798703D01*
X103967965Y-46798703D01*
X103870047Y-46658861D01*
X103709139Y-46497953D01*
X103628915Y-46441780D01*
X103527173Y-46370540D01*
X103527171Y-46370539D01*
X103522734Y-46367432D01*
X103458145Y-46337313D01*
X103321405Y-46273550D01*
X103321403Y-46273549D01*
X103316496Y-46271261D01*
X103311271Y-46269861D01*
X103311263Y-46269858D01*
X103101916Y-46213764D01*
X103101907Y-46213762D01*
X103096692Y-46212365D01*
X103091304Y-46211893D01*
X103091301Y-46211893D01*
X102875395Y-46193004D01*
X102870000Y-46192532D01*
X102864605Y-46193004D01*
X102859193Y-46193004D01*
X102859193Y-46192056D01*
X102812465Y-46185898D01*
X102767205Y-46157061D01*
X102384818Y-45774674D01*
X102357938Y-45734446D01*
X102356138Y-45725395D01*
X104740506Y-45725395D01*
X104759386Y-45941206D01*
X104761260Y-45951837D01*
X104817332Y-46161097D01*
X104821020Y-46171231D01*
X104912576Y-46367572D01*
X104917974Y-46376922D01*
X104958184Y-46434348D01*
X104966295Y-46441781D01*
X104975574Y-46435870D01*
X105679903Y-45731542D01*
X105686567Y-45720000D01*
X106403431Y-45720000D01*
X106410095Y-45731542D01*
X107114421Y-46435867D01*
X107123703Y-46441780D01*
X107131814Y-46434348D01*
X107172026Y-46376920D01*
X107177422Y-46367575D01*
X107268979Y-46171231D01*
X107272667Y-46161097D01*
X107328739Y-45951837D01*
X107330613Y-45941206D01*
X107349494Y-45725395D01*
X107349494Y-45714605D01*
X107330613Y-45498793D01*
X107328739Y-45488162D01*
X107272667Y-45278902D01*
X107268979Y-45268768D01*
X107177423Y-45072427D01*
X107172025Y-45063077D01*
X107131814Y-45005650D01*
X107123703Y-44998217D01*
X107114424Y-45004128D01*
X106410095Y-45708457D01*
X106403431Y-45720000D01*
X105686567Y-45720000D01*
X105679903Y-45708457D01*
X104975574Y-45004128D01*
X104966296Y-44998217D01*
X104958183Y-45005651D01*
X104917971Y-45063081D01*
X104912577Y-45072425D01*
X104821020Y-45268768D01*
X104817332Y-45278902D01*
X104761260Y-45488162D01*
X104759386Y-45498793D01*
X104740506Y-45714605D01*
X104740506Y-45725395D01*
X102356138Y-45725395D01*
X102348499Y-45686993D01*
X102348499Y-44641296D01*
X105323217Y-44641296D01*
X105329128Y-44650574D01*
X106033457Y-45354903D01*
X106044999Y-45361567D01*
X106056542Y-45354903D01*
X106760870Y-44650574D01*
X106766781Y-44641295D01*
X106759348Y-44633184D01*
X106701922Y-44592974D01*
X106692572Y-44587576D01*
X106496231Y-44496020D01*
X106486097Y-44492332D01*
X106276837Y-44436260D01*
X106266206Y-44434386D01*
X106050395Y-44415506D01*
X106039605Y-44415506D01*
X105823793Y-44434386D01*
X105813162Y-44436260D01*
X105603902Y-44492332D01*
X105593768Y-44496020D01*
X105397425Y-44587577D01*
X105388081Y-44592971D01*
X105330651Y-44633183D01*
X105323217Y-44641296D01*
X102348499Y-44641296D01*
X102348499Y-42981338D01*
X102357938Y-42933885D01*
X102384818Y-42893657D01*
X102406772Y-42871703D01*
X102434598Y-42843877D01*
X102537425Y-42697024D01*
X102584642Y-42656699D01*
X102645490Y-42644319D01*
X102704710Y-42662991D01*
X102747453Y-42708033D01*
X102763000Y-42768149D01*
X102763000Y-42831518D01*
X102763353Y-42838114D01*
X102768573Y-42886667D01*
X102772111Y-42901641D01*
X102816547Y-43020777D01*
X102824962Y-43036189D01*
X102900498Y-43137092D01*
X102912907Y-43149501D01*
X103013810Y-43225037D01*
X103029222Y-43233452D01*
X103148358Y-43277888D01*
X103163332Y-43281426D01*
X103211885Y-43286646D01*
X103218482Y-43287000D01*
X103746674Y-43287000D01*
X103759549Y-43283549D01*
X103763000Y-43270674D01*
X103763000Y-40803326D01*
X103759549Y-40790450D01*
X103746674Y-40787000D01*
X103218482Y-40787000D01*
X103211885Y-40787353D01*
X103163332Y-40792573D01*
X103148358Y-40796111D01*
X103029222Y-40840547D01*
X103013810Y-40848962D01*
X102912907Y-40924498D01*
X102900498Y-40936907D01*
X102824962Y-41037810D01*
X102816547Y-41053222D01*
X102772111Y-41172358D01*
X102768573Y-41187332D01*
X102763353Y-41235885D01*
X102763000Y-41242482D01*
X102763000Y-41305853D01*
X102747453Y-41365969D01*
X102704710Y-41411011D01*
X102645489Y-41429683D01*
X102584642Y-41417303D01*
X102537425Y-41376976D01*
X102527069Y-41362186D01*
X102434598Y-41230123D01*
X102279877Y-41075402D01*
X102275446Y-41072299D01*
X102275442Y-41072296D01*
X102105068Y-40952999D01*
X102105066Y-40952997D01*
X102100639Y-40949898D01*
X102095742Y-40947614D01*
X102095736Y-40947611D01*
X101907236Y-40859712D01*
X101907229Y-40859709D01*
X101902330Y-40857425D01*
X101897103Y-40856024D01*
X101897102Y-40856024D01*
X101696209Y-40802194D01*
X101696199Y-40802192D01*
X101690977Y-40800793D01*
X101685585Y-40800321D01*
X101685578Y-40800320D01*
X101478395Y-40782195D01*
X101473000Y-40781723D01*
X101467605Y-40782195D01*
X101260421Y-40800320D01*
X101260412Y-40800321D01*
X101255023Y-40800793D01*
X101249802Y-40802191D01*
X101249790Y-40802194D01*
X101048897Y-40856024D01*
X101048892Y-40856025D01*
X101043670Y-40857425D01*
X101038774Y-40859707D01*
X101038763Y-40859712D01*
X100850272Y-40947608D01*
X100850268Y-40947610D01*
X100845362Y-40949898D01*
X100840929Y-40953001D01*
X100840922Y-40953006D01*
X100670558Y-41072296D01*
X100670553Y-41072299D01*
X100666123Y-41075402D01*
X100662299Y-41079225D01*
X100662293Y-41079231D01*
X100515231Y-41226293D01*
X100515225Y-41226299D01*
X100511402Y-41230123D01*
X100508299Y-41234553D01*
X100508296Y-41234558D01*
X100389006Y-41404922D01*
X100389001Y-41404929D01*
X100385898Y-41409362D01*
X100383610Y-41414268D01*
X100383608Y-41414272D01*
X100315382Y-41560583D01*
X100269625Y-41612759D01*
X100203000Y-41632178D01*
X100136375Y-41612759D01*
X100090618Y-41560583D01*
X100070980Y-41518470D01*
X100020102Y-41409362D01*
X99894598Y-41230123D01*
X99739877Y-41075402D01*
X99735446Y-41072299D01*
X99735442Y-41072296D01*
X99565068Y-40952999D01*
X99565066Y-40952997D01*
X99560639Y-40949898D01*
X99555742Y-40947614D01*
X99555736Y-40947611D01*
X99367236Y-40859712D01*
X99367229Y-40859709D01*
X99362330Y-40857425D01*
X99357103Y-40856024D01*
X99357102Y-40856024D01*
X99156209Y-40802194D01*
X99156199Y-40802192D01*
X99150977Y-40800793D01*
X99145585Y-40800321D01*
X99145578Y-40800320D01*
X98938395Y-40782195D01*
X98933000Y-40781723D01*
X98927605Y-40782195D01*
X98720421Y-40800320D01*
X98720412Y-40800321D01*
X98715023Y-40800793D01*
X98709802Y-40802191D01*
X98709790Y-40802194D01*
X98508897Y-40856024D01*
X98508892Y-40856025D01*
X98503670Y-40857425D01*
X98498774Y-40859707D01*
X98498763Y-40859712D01*
X98310272Y-40947608D01*
X98310268Y-40947610D01*
X98305362Y-40949898D01*
X98300929Y-40953001D01*
X98300922Y-40953006D01*
X98130558Y-41072296D01*
X98130553Y-41072299D01*
X98126123Y-41075402D01*
X98122299Y-41079225D01*
X98122293Y-41079231D01*
X97975231Y-41226293D01*
X97975225Y-41226299D01*
X97971402Y-41230123D01*
X97968299Y-41234553D01*
X97968296Y-41234558D01*
X97849006Y-41404922D01*
X97849001Y-41404929D01*
X97845898Y-41409362D01*
X97843610Y-41414268D01*
X97843608Y-41414272D01*
X97755712Y-41602763D01*
X97755707Y-41602774D01*
X97753425Y-41607670D01*
X97752025Y-41612892D01*
X97752024Y-41612897D01*
X97698194Y-41813790D01*
X97698191Y-41813802D01*
X97696793Y-41819023D01*
X97696321Y-41824412D01*
X97696320Y-41824421D01*
X97678467Y-42028487D01*
X97677723Y-42037000D01*
X97678195Y-42042395D01*
X97696320Y-42249578D01*
X97696321Y-42249585D01*
X97696793Y-42254977D01*
X97698192Y-42260199D01*
X97698194Y-42260209D01*
X97720298Y-42342700D01*
X97753425Y-42466330D01*
X97755709Y-42471229D01*
X97755712Y-42471236D01*
X97843611Y-42659736D01*
X97843614Y-42659742D01*
X97845898Y-42664639D01*
X97848997Y-42669066D01*
X97848999Y-42669068D01*
X97910075Y-42756293D01*
X97926761Y-42790129D01*
X97932500Y-42827417D01*
X97932500Y-46468622D01*
X97924017Y-46513697D01*
X97899730Y-46552605D01*
X97827490Y-46631077D01*
X97827481Y-46631087D01*
X97824021Y-46634847D01*
X97821226Y-46639124D01*
X97821219Y-46639134D01*
X97712239Y-46805942D01*
X97697076Y-46829151D01*
X97695021Y-46833835D01*
X97695016Y-46833845D01*
X97611390Y-47024494D01*
X97603843Y-47041700D01*
X97602585Y-47046665D01*
X97602584Y-47046670D01*
X97548125Y-47261720D01*
X97548123Y-47261729D01*
X97546866Y-47266695D01*
X97546442Y-47271804D01*
X97546441Y-47271814D01*
X97532322Y-47442210D01*
X97521248Y-47484117D01*
X97496427Y-47519651D01*
X96840796Y-48175282D01*
X96788050Y-48206578D01*
X96726757Y-48208767D01*
X96671912Y-48181314D01*
X96636933Y-48130935D01*
X96635408Y-48126847D01*
X96620796Y-48087669D01*
X96534546Y-47972454D01*
X96518736Y-47960619D01*
X96426431Y-47891519D01*
X96426430Y-47891518D01*
X96419331Y-47886204D01*
X96315842Y-47847605D01*
X96291752Y-47838620D01*
X96291750Y-47838619D01*
X96284483Y-47835909D01*
X96276770Y-47835079D01*
X96276767Y-47835079D01*
X96228180Y-47829855D01*
X96228169Y-47829854D01*
X96224873Y-47829500D01*
X96221550Y-47829500D01*
X96187881Y-47829500D01*
X94931499Y-47829500D01*
X94869500Y-47812888D01*
X94824113Y-47767501D01*
X94807500Y-47705501D01*
X94807500Y-45807520D01*
X94816939Y-45760068D01*
X94843817Y-45719840D01*
X94858097Y-45705559D01*
X94878003Y-45685652D01*
X94933591Y-45653558D01*
X94997779Y-45653558D01*
X95014592Y-45658063D01*
X95250000Y-45678659D01*
X95485408Y-45658063D01*
X95713663Y-45596903D01*
X95927830Y-45497035D01*
X96121401Y-45361495D01*
X96288495Y-45194401D01*
X96424035Y-45000830D01*
X96523903Y-44786663D01*
X96585063Y-44558408D01*
X96605659Y-44323000D01*
X96585063Y-44087592D01*
X96536572Y-43906619D01*
X96525305Y-43864569D01*
X96525304Y-43864567D01*
X96523903Y-43859337D01*
X96424035Y-43645171D01*
X96288495Y-43451599D01*
X96121401Y-43284505D01*
X96116970Y-43281402D01*
X96116966Y-43281399D01*
X95932259Y-43152066D01*
X95932257Y-43152064D01*
X95927830Y-43148965D01*
X95922933Y-43146681D01*
X95922927Y-43146678D01*
X95718572Y-43051386D01*
X95718570Y-43051385D01*
X95713663Y-43049097D01*
X95708438Y-43047697D01*
X95708430Y-43047694D01*
X95490634Y-42989337D01*
X95490630Y-42989336D01*
X95485408Y-42987937D01*
X95480020Y-42987465D01*
X95480017Y-42987465D01*
X95255395Y-42967813D01*
X95250000Y-42967341D01*
X95244605Y-42967813D01*
X95019982Y-42987465D01*
X95019977Y-42987465D01*
X95014592Y-42987937D01*
X95009371Y-42989335D01*
X95009365Y-42989337D01*
X94791569Y-43047694D01*
X94791557Y-43047698D01*
X94786337Y-43049097D01*
X94781432Y-43051383D01*
X94781427Y-43051386D01*
X94577081Y-43146675D01*
X94577077Y-43146677D01*
X94572171Y-43148965D01*
X94567738Y-43152068D01*
X94567731Y-43152073D01*
X94383034Y-43281399D01*
X94383029Y-43281402D01*
X94378599Y-43284505D01*
X94374775Y-43288328D01*
X94374769Y-43288334D01*
X94215334Y-43447769D01*
X94215328Y-43447775D01*
X94211505Y-43451599D01*
X94208402Y-43456029D01*
X94208399Y-43456034D01*
X94081575Y-43637159D01*
X94037257Y-43676025D01*
X93980000Y-43690036D01*
X93922743Y-43676025D01*
X93878425Y-43637159D01*
X93755734Y-43461938D01*
X93748495Y-43451599D01*
X93581401Y-43284505D01*
X93576970Y-43281402D01*
X93576966Y-43281399D01*
X93392259Y-43152066D01*
X93392257Y-43152064D01*
X93387830Y-43148965D01*
X93382933Y-43146681D01*
X93382927Y-43146678D01*
X93178572Y-43051386D01*
X93178570Y-43051385D01*
X93173663Y-43049097D01*
X93168438Y-43047697D01*
X93168430Y-43047694D01*
X92950634Y-42989337D01*
X92950630Y-42989336D01*
X92945408Y-42987937D01*
X92940020Y-42987465D01*
X92940017Y-42987465D01*
X92715395Y-42967813D01*
X92710000Y-42967341D01*
X92704605Y-42967813D01*
X92479982Y-42987465D01*
X92479977Y-42987465D01*
X92474592Y-42987937D01*
X92469371Y-42989335D01*
X92469365Y-42989337D01*
X92251569Y-43047694D01*
X92251557Y-43047698D01*
X92246337Y-43049097D01*
X92241432Y-43051383D01*
X92241427Y-43051386D01*
X92037081Y-43146675D01*
X92037077Y-43146677D01*
X92032171Y-43148965D01*
X92027738Y-43152068D01*
X92027731Y-43152073D01*
X91843034Y-43281399D01*
X91843029Y-43281402D01*
X91838599Y-43284505D01*
X91834775Y-43288328D01*
X91834769Y-43288334D01*
X91675334Y-43447769D01*
X91675328Y-43447775D01*
X91671505Y-43451599D01*
X91668402Y-43456029D01*
X91668399Y-43456034D01*
X91541575Y-43637159D01*
X91497257Y-43676025D01*
X91440000Y-43690036D01*
X91382743Y-43676025D01*
X91338425Y-43637159D01*
X91215734Y-43461938D01*
X91208495Y-43451599D01*
X91041401Y-43284505D01*
X91036970Y-43281402D01*
X91036966Y-43281399D01*
X90852259Y-43152066D01*
X90852257Y-43152064D01*
X90847830Y-43148965D01*
X90842933Y-43146681D01*
X90842927Y-43146678D01*
X90638572Y-43051386D01*
X90638570Y-43051385D01*
X90633663Y-43049097D01*
X90628438Y-43047697D01*
X90628430Y-43047694D01*
X90410634Y-42989337D01*
X90410630Y-42989336D01*
X90405408Y-42987937D01*
X90400020Y-42987465D01*
X90400017Y-42987465D01*
X90175395Y-42967813D01*
X90170000Y-42967341D01*
X90164605Y-42967813D01*
X89939982Y-42987465D01*
X89939977Y-42987465D01*
X89934592Y-42987937D01*
X89929371Y-42989335D01*
X89929365Y-42989337D01*
X89711569Y-43047694D01*
X89711557Y-43047698D01*
X89706337Y-43049097D01*
X89701432Y-43051383D01*
X89701427Y-43051386D01*
X89497081Y-43146675D01*
X89497077Y-43146677D01*
X89492171Y-43148965D01*
X89487738Y-43152068D01*
X89487731Y-43152073D01*
X89303034Y-43281399D01*
X89303029Y-43281402D01*
X89298599Y-43284505D01*
X89294774Y-43288329D01*
X89294775Y-43288329D01*
X89176673Y-43406431D01*
X89123926Y-43437726D01*
X89062633Y-43439915D01*
X89007789Y-43412462D01*
X88972810Y-43362082D01*
X88945304Y-43288336D01*
X88923796Y-43230669D01*
X88837546Y-43115454D01*
X88780646Y-43072859D01*
X88729431Y-43034519D01*
X88729430Y-43034518D01*
X88722331Y-43029204D01*
X88615442Y-42989337D01*
X88594752Y-42981620D01*
X88594750Y-42981619D01*
X88587483Y-42978909D01*
X88579770Y-42978079D01*
X88579767Y-42978079D01*
X88531180Y-42972855D01*
X88531169Y-42972854D01*
X88527873Y-42972500D01*
X88524550Y-42972500D01*
X86735439Y-42972500D01*
X86735420Y-42972500D01*
X86732128Y-42972501D01*
X86728850Y-42972853D01*
X86728838Y-42972854D01*
X86680231Y-42978079D01*
X86680225Y-42978080D01*
X86672517Y-42978909D01*
X86665252Y-42981618D01*
X86665246Y-42981620D01*
X86545980Y-43026104D01*
X86545978Y-43026104D01*
X86537669Y-43029204D01*
X86530572Y-43034516D01*
X86530568Y-43034519D01*
X86429550Y-43110141D01*
X86429546Y-43110144D01*
X86422454Y-43115454D01*
X86417144Y-43122546D01*
X86417141Y-43122550D01*
X86341519Y-43223568D01*
X86341516Y-43223572D01*
X86336204Y-43230669D01*
X86333104Y-43238978D01*
X86333104Y-43238980D01*
X86288620Y-43358247D01*
X86288619Y-43358250D01*
X86285909Y-43365517D01*
X86285079Y-43373227D01*
X86285079Y-43373232D01*
X86279855Y-43421819D01*
X86279854Y-43421831D01*
X86279500Y-43425127D01*
X86279500Y-43428448D01*
X86279500Y-43428449D01*
X86279500Y-45217560D01*
X86279500Y-45217578D01*
X86279501Y-45220872D01*
X86279853Y-45224150D01*
X86279854Y-45224161D01*
X86285079Y-45272768D01*
X86285080Y-45272773D01*
X86285909Y-45280483D01*
X86288619Y-45287749D01*
X86288620Y-45287753D01*
X86310687Y-45346916D01*
X86336204Y-45415331D01*
X86341518Y-45422430D01*
X86341519Y-45422431D01*
X86407557Y-45510647D01*
X86422454Y-45530546D01*
X86537669Y-45616796D01*
X86672517Y-45667091D01*
X86732127Y-45673500D01*
X87938480Y-45673499D01*
X87985933Y-45682938D01*
X88026161Y-45709818D01*
X89989735Y-47673392D01*
X90021829Y-47728979D01*
X90021829Y-47793166D01*
X89989736Y-47848754D01*
X89934149Y-47880847D01*
X89855742Y-47901856D01*
X89855726Y-47901861D01*
X89850504Y-47903261D01*
X89845599Y-47905547D01*
X89845594Y-47905550D01*
X89649176Y-47997142D01*
X89649172Y-47997144D01*
X89644266Y-47999432D01*
X89639833Y-48002535D01*
X89639826Y-48002540D01*
X89462296Y-48126847D01*
X89462291Y-48126850D01*
X89457861Y-48129953D01*
X89454037Y-48133776D01*
X89454031Y-48133782D01*
X89300782Y-48287031D01*
X89300776Y-48287037D01*
X89296953Y-48290861D01*
X89293850Y-48295291D01*
X89293847Y-48295296D01*
X89169540Y-48472826D01*
X89169535Y-48472833D01*
X89166432Y-48477266D01*
X89164148Y-48482163D01*
X89164141Y-48482176D01*
X89139382Y-48535274D01*
X89093625Y-48587450D01*
X89027000Y-48606869D01*
X88960375Y-48587450D01*
X88914618Y-48535274D01*
X88889858Y-48482176D01*
X88889855Y-48482172D01*
X88887568Y-48477266D01*
X88757047Y-48290861D01*
X88596139Y-48129953D01*
X88435595Y-48017540D01*
X88414173Y-48002540D01*
X88414171Y-48002539D01*
X88409734Y-47999432D01*
X88312949Y-47954300D01*
X88208405Y-47905550D01*
X88208403Y-47905549D01*
X88203496Y-47903261D01*
X88198271Y-47901861D01*
X88198263Y-47901858D01*
X87988918Y-47845765D01*
X87988914Y-47845764D01*
X87983692Y-47844365D01*
X87978302Y-47843893D01*
X87978300Y-47843893D01*
X87860535Y-47833589D01*
X87818938Y-47822443D01*
X87783662Y-47797742D01*
X83940818Y-43954898D01*
X83913938Y-43914670D01*
X83904499Y-43867217D01*
X83904499Y-43561141D01*
X83904499Y-43557992D01*
X83893999Y-43455203D01*
X83838814Y-43288666D01*
X83768990Y-43175463D01*
X83750502Y-43145488D01*
X83750500Y-43145485D01*
X83746712Y-43139344D01*
X83622656Y-43015288D01*
X83616515Y-43011500D01*
X83616511Y-43011497D01*
X83479480Y-42926977D01*
X83473334Y-42923186D01*
X83306797Y-42868001D01*
X83300064Y-42867313D01*
X83300059Y-42867312D01*
X83207140Y-42857819D01*
X83207123Y-42857818D01*
X83204009Y-42857500D01*
X83200860Y-42857500D01*
X82407141Y-42857500D01*
X82407121Y-42857500D01*
X82403992Y-42857501D01*
X82400860Y-42857820D01*
X82400858Y-42857821D01*
X82307938Y-42867312D01*
X82307928Y-42867313D01*
X82301203Y-42868001D01*
X82294781Y-42870128D01*
X82294776Y-42870130D01*
X82141521Y-42920914D01*
X82141517Y-42920915D01*
X82134666Y-42923186D01*
X82128522Y-42926975D01*
X82128519Y-42926977D01*
X81991488Y-43011497D01*
X81991480Y-43011503D01*
X81985344Y-43015288D01*
X81980242Y-43020389D01*
X81980238Y-43020393D01*
X81866393Y-43134238D01*
X81866389Y-43134242D01*
X81861288Y-43139344D01*
X81857502Y-43145481D01*
X81857498Y-43145487D01*
X81822184Y-43202741D01*
X81780130Y-43244159D01*
X81723692Y-43261443D01*
X81665657Y-43250674D01*
X81619175Y-43214294D01*
X81604092Y-43195114D01*
X81445256Y-43057481D01*
X81263244Y-42952396D01*
X81257660Y-42950463D01*
X81257655Y-42950461D01*
X81070214Y-42885587D01*
X81070208Y-42885585D01*
X81064633Y-42883656D01*
X81058794Y-42882816D01*
X81058788Y-42882815D01*
X80877672Y-42856775D01*
X80839814Y-42844921D01*
X80807638Y-42821718D01*
X79706567Y-41720647D01*
X79704374Y-41718398D01*
X79648390Y-41659503D01*
X79648389Y-41659502D01*
X79644059Y-41654947D01*
X79638897Y-41651354D01*
X79595642Y-41621247D01*
X79588119Y-41615575D01*
X79547280Y-41582275D01*
X79547277Y-41582273D01*
X79542407Y-41578302D01*
X79515437Y-41564213D01*
X79502024Y-41556087D01*
X79477049Y-41538705D01*
X79422817Y-41515432D01*
X79414351Y-41511411D01*
X79362049Y-41484091D01*
X79332802Y-41475722D01*
X79318021Y-41470459D01*
X79295841Y-41460941D01*
X79295835Y-41460939D01*
X79290058Y-41458460D01*
X79283905Y-41457195D01*
X79283891Y-41457191D01*
X79232273Y-41446583D01*
X79223126Y-41444338D01*
X79172465Y-41429842D01*
X79172453Y-41429839D01*
X79166418Y-41428113D01*
X79160154Y-41427635D01*
X79160149Y-41427635D01*
X79136075Y-41425802D01*
X79120533Y-41423622D01*
X79096902Y-41418766D01*
X79096901Y-41418765D01*
X79090741Y-41417500D01*
X79084452Y-41417500D01*
X79031759Y-41417500D01*
X79022344Y-41417142D01*
X78969794Y-41413140D01*
X78969789Y-41413140D01*
X78963524Y-41412663D01*
X78957290Y-41413456D01*
X78957284Y-41413457D01*
X78933349Y-41416506D01*
X78917683Y-41417500D01*
X74182278Y-41417500D01*
X74179137Y-41417460D01*
X74097924Y-41415402D01*
X74097921Y-41415402D01*
X74091637Y-41415243D01*
X74071980Y-41418766D01*
X74033578Y-41425648D01*
X74024254Y-41426955D01*
X73971821Y-41432288D01*
X73971807Y-41432290D01*
X73965562Y-41432926D01*
X73959568Y-41434806D01*
X73959565Y-41434807D01*
X73936526Y-41442035D01*
X73921292Y-41445774D01*
X73897539Y-41450032D01*
X73891347Y-41451142D01*
X73885514Y-41453471D01*
X73885496Y-41453477D01*
X73836567Y-41473021D01*
X73827697Y-41476179D01*
X73777411Y-41491957D01*
X73777396Y-41491963D01*
X73771412Y-41493841D01*
X73765922Y-41496887D01*
X73765915Y-41496891D01*
X73744809Y-41508605D01*
X73730640Y-41515334D01*
X73708225Y-41524288D01*
X73708213Y-41524293D01*
X73702383Y-41526623D01*
X73697136Y-41530080D01*
X73697134Y-41530082D01*
X73653133Y-41559080D01*
X73645081Y-41563958D01*
X73598999Y-41589537D01*
X73598994Y-41589539D01*
X73593498Y-41592591D01*
X73588733Y-41596681D01*
X73588725Y-41596687D01*
X73570406Y-41612413D01*
X73557884Y-41621854D01*
X73537739Y-41635132D01*
X73537731Y-41635137D01*
X73532482Y-41638598D01*
X73528034Y-41643045D01*
X73528030Y-41643049D01*
X73490781Y-41680297D01*
X73483875Y-41686698D01*
X73443875Y-41721038D01*
X73443869Y-41721043D01*
X73439105Y-41725134D01*
X73435260Y-41730100D01*
X73435260Y-41730101D01*
X73420480Y-41749195D01*
X73410108Y-41760970D01*
X72581646Y-42589432D01*
X72579398Y-42591624D01*
X72515947Y-42651941D01*
X72512359Y-42657095D01*
X72512352Y-42657104D01*
X72482244Y-42700361D01*
X72476574Y-42707881D01*
X72443274Y-42748721D01*
X72443271Y-42748724D01*
X72439302Y-42753593D01*
X72436396Y-42759155D01*
X72436388Y-42759168D01*
X72425210Y-42780566D01*
X72417082Y-42793982D01*
X72403300Y-42813784D01*
X72403295Y-42813792D01*
X72399705Y-42818951D01*
X72397228Y-42824721D01*
X72397225Y-42824728D01*
X72376439Y-42873165D01*
X72372399Y-42881671D01*
X72348734Y-42926977D01*
X72345091Y-42933951D01*
X72343363Y-42939989D01*
X72343360Y-42939997D01*
X72336720Y-42963201D01*
X72331459Y-42977978D01*
X72321942Y-43000157D01*
X72319460Y-43005942D01*
X72318194Y-43012097D01*
X72318192Y-43012107D01*
X72307587Y-43063712D01*
X72305342Y-43072859D01*
X72290842Y-43123534D01*
X72290839Y-43123547D01*
X72289113Y-43129582D01*
X72288636Y-43135842D01*
X72288635Y-43135849D01*
X72286801Y-43159929D01*
X72284622Y-43175463D01*
X72280046Y-43197734D01*
X72278500Y-43205259D01*
X72278500Y-43211550D01*
X72278500Y-43264241D01*
X72278142Y-43273659D01*
X72277633Y-43280341D01*
X72258307Y-43337962D01*
X72202290Y-43425127D01*
X72185387Y-43451428D01*
X72183195Y-43456903D01*
X72183190Y-43456913D01*
X72109469Y-43641060D01*
X72109466Y-43641069D01*
X72107275Y-43646543D01*
X72106158Y-43652334D01*
X72106156Y-43652344D01*
X72068929Y-43845500D01*
X72067500Y-43852915D01*
X72067500Y-44560425D01*
X72067779Y-44563354D01*
X72067780Y-44563360D01*
X72074447Y-44633184D01*
X72082472Y-44717218D01*
X72141684Y-44918875D01*
X72237989Y-45105682D01*
X72241642Y-45110327D01*
X72357374Y-45257492D01*
X72367908Y-45270886D01*
X72526744Y-45408519D01*
X72708756Y-45513604D01*
X72907367Y-45582344D01*
X73115398Y-45612254D01*
X73325330Y-45602254D01*
X73529576Y-45552704D01*
X73720753Y-45465396D01*
X73891952Y-45343486D01*
X73989751Y-45240916D01*
X74036697Y-45210106D01*
X74092422Y-45203163D01*
X74145495Y-45221512D01*
X74185031Y-45261389D01*
X74225288Y-45326656D01*
X74349344Y-45450712D01*
X74355485Y-45454500D01*
X74355488Y-45454502D01*
X74403462Y-45484092D01*
X74498666Y-45542814D01*
X74665203Y-45597999D01*
X74767991Y-45608500D01*
X75568008Y-45608499D01*
X75670797Y-45597999D01*
X75837334Y-45542814D01*
X75986656Y-45450712D01*
X76110712Y-45326656D01*
X76131838Y-45292404D01*
X76176946Y-45249223D01*
X76237378Y-45233500D01*
X77168217Y-45233500D01*
X77215670Y-45242939D01*
X77255898Y-45269819D01*
X79700885Y-47714806D01*
X79731465Y-47765199D01*
X79735320Y-47824019D01*
X79711580Y-47877973D01*
X79665609Y-47914869D01*
X79489176Y-47997141D01*
X79489163Y-47997148D01*
X79484266Y-47999432D01*
X79479833Y-48002535D01*
X79479826Y-48002540D01*
X79302296Y-48126847D01*
X79302291Y-48126850D01*
X79297861Y-48129953D01*
X79294037Y-48133776D01*
X79294031Y-48133782D01*
X79140782Y-48287031D01*
X79140776Y-48287037D01*
X79136953Y-48290861D01*
X79133850Y-48295291D01*
X79133847Y-48295296D01*
X79009540Y-48472826D01*
X79009535Y-48472833D01*
X79006432Y-48477266D01*
X79004148Y-48482163D01*
X79004141Y-48482176D01*
X78979382Y-48535274D01*
X78933625Y-48587450D01*
X78867000Y-48606869D01*
X78800375Y-48587450D01*
X78754618Y-48535274D01*
X78729858Y-48482176D01*
X78729855Y-48482172D01*
X78727568Y-48477266D01*
X78597047Y-48290861D01*
X78436139Y-48129953D01*
X78275595Y-48017540D01*
X78254173Y-48002540D01*
X78254171Y-48002539D01*
X78249734Y-47999432D01*
X78152949Y-47954300D01*
X78048405Y-47905550D01*
X78048403Y-47905549D01*
X78043496Y-47903261D01*
X78038271Y-47901861D01*
X78038263Y-47901858D01*
X77828916Y-47845764D01*
X77828907Y-47845762D01*
X77823692Y-47844365D01*
X77818304Y-47843893D01*
X77818301Y-47843893D01*
X77602395Y-47825004D01*
X77597000Y-47824532D01*
X77591605Y-47825004D01*
X77375698Y-47843893D01*
X77375693Y-47843893D01*
X77370308Y-47844365D01*
X77365094Y-47845762D01*
X77365083Y-47845764D01*
X77155736Y-47901858D01*
X77155724Y-47901862D01*
X77150504Y-47903261D01*
X77145599Y-47905547D01*
X77145594Y-47905550D01*
X76949176Y-47997142D01*
X76949172Y-47997144D01*
X76944266Y-47999432D01*
X76939833Y-48002535D01*
X76939826Y-48002540D01*
X76762296Y-48126847D01*
X76762291Y-48126850D01*
X76757861Y-48129953D01*
X76754037Y-48133776D01*
X76754031Y-48133782D01*
X76600782Y-48287031D01*
X76600776Y-48287037D01*
X76596953Y-48290861D01*
X76593850Y-48295291D01*
X76593847Y-48295296D01*
X76469540Y-48472826D01*
X76469535Y-48472833D01*
X76466432Y-48477266D01*
X76464144Y-48482172D01*
X76464142Y-48482176D01*
X76372550Y-48678594D01*
X76372547Y-48678599D01*
X76370261Y-48683504D01*
X76368862Y-48688724D01*
X76368858Y-48688736D01*
X76312764Y-48898083D01*
X76312762Y-48898094D01*
X76311365Y-48903308D01*
X76310893Y-48908693D01*
X76310893Y-48908698D01*
X76297340Y-49063610D01*
X76296500Y-49073216D01*
X76296500Y-49986784D01*
X76296735Y-49989479D01*
X76296736Y-49989484D01*
X76298046Y-50004463D01*
X76311365Y-50156692D01*
X76312762Y-50161907D01*
X76312764Y-50161916D01*
X76368858Y-50371263D01*
X76368861Y-50371271D01*
X76370261Y-50376496D01*
X76372549Y-50381403D01*
X76372550Y-50381405D01*
X76377256Y-50391496D01*
X76466432Y-50582734D01*
X76596953Y-50769139D01*
X76757861Y-50930047D01*
X76944266Y-51060568D01*
X77150504Y-51156739D01*
X77155734Y-51158140D01*
X77155736Y-51158141D01*
X77365083Y-51214235D01*
X77370308Y-51215635D01*
X77597000Y-51235468D01*
X77823692Y-51215635D01*
X78043496Y-51156739D01*
X78249734Y-51060568D01*
X78436139Y-50930047D01*
X78597047Y-50769139D01*
X78727568Y-50582734D01*
X78754618Y-50524724D01*
X78800375Y-50472549D01*
X78867000Y-50453130D01*
X78933625Y-50472549D01*
X78979381Y-50524724D01*
X79006432Y-50582734D01*
X79136953Y-50769139D01*
X79297861Y-50930047D01*
X79484266Y-51060568D01*
X79690504Y-51156739D01*
X79695734Y-51158140D01*
X79695736Y-51158141D01*
X79905083Y-51214235D01*
X79910308Y-51215635D01*
X80137000Y-51235468D01*
X80363692Y-51215635D01*
X80583496Y-51156739D01*
X80789734Y-51060568D01*
X80976139Y-50930047D01*
X81137047Y-50769139D01*
X81267568Y-50582734D01*
X81294618Y-50524724D01*
X81340375Y-50472549D01*
X81407000Y-50453130D01*
X81473625Y-50472549D01*
X81519381Y-50524724D01*
X81546432Y-50582734D01*
X81676953Y-50769139D01*
X81837861Y-50930047D01*
X82024266Y-51060568D01*
X82230504Y-51156739D01*
X82235734Y-51158140D01*
X82235736Y-51158141D01*
X82445083Y-51214235D01*
X82450308Y-51215635D01*
X82677000Y-51235468D01*
X82903692Y-51215635D01*
X83123496Y-51156739D01*
X83329734Y-51060568D01*
X83516139Y-50930047D01*
X83677047Y-50769139D01*
X83807568Y-50582734D01*
X83834618Y-50524724D01*
X83880375Y-50472549D01*
X83947000Y-50453130D01*
X84013625Y-50472549D01*
X84059381Y-50524724D01*
X84086432Y-50582734D01*
X84216953Y-50769139D01*
X84377861Y-50930047D01*
X84564266Y-51060568D01*
X84770504Y-51156739D01*
X84775734Y-51158140D01*
X84775736Y-51158141D01*
X84985083Y-51214235D01*
X84990308Y-51215635D01*
X85217000Y-51235468D01*
X85443692Y-51215635D01*
X85663496Y-51156739D01*
X85869734Y-51060568D01*
X86056139Y-50930047D01*
X86217047Y-50769139D01*
X86347568Y-50582734D01*
X86374618Y-50524724D01*
X86420375Y-50472549D01*
X86487000Y-50453130D01*
X86553625Y-50472549D01*
X86599381Y-50524724D01*
X86626432Y-50582734D01*
X86756953Y-50769139D01*
X86917861Y-50930047D01*
X87104266Y-51060568D01*
X87310504Y-51156739D01*
X87315734Y-51158140D01*
X87315736Y-51158141D01*
X87525083Y-51214235D01*
X87530308Y-51215635D01*
X87757000Y-51235468D01*
X87983692Y-51215635D01*
X88203496Y-51156739D01*
X88409734Y-51060568D01*
X88596139Y-50930047D01*
X88757047Y-50769139D01*
X88887568Y-50582734D01*
X88914618Y-50524724D01*
X88960375Y-50472549D01*
X89027000Y-50453130D01*
X89093625Y-50472549D01*
X89139381Y-50524724D01*
X89166432Y-50582734D01*
X89296953Y-50769139D01*
X89457861Y-50930047D01*
X89644266Y-51060568D01*
X89850504Y-51156739D01*
X89855734Y-51158140D01*
X89855736Y-51158141D01*
X90065083Y-51214235D01*
X90070308Y-51215635D01*
X90297000Y-51235468D01*
X90523692Y-51215635D01*
X90710407Y-51165604D01*
X90766691Y-51163763D01*
X90817986Y-51187004D01*
X90853712Y-51230536D01*
X90866500Y-51285380D01*
X90866500Y-53569079D01*
X90866274Y-53576567D01*
X90863094Y-53629118D01*
X90863094Y-53629126D01*
X90862642Y-53636606D01*
X90863993Y-53643982D01*
X90863994Y-53643987D01*
X90873483Y-53695771D01*
X90874610Y-53703171D01*
X90880955Y-53755425D01*
X90880956Y-53755430D01*
X90881860Y-53762872D01*
X90884519Y-53769885D01*
X90884521Y-53769891D01*
X90885450Y-53772340D01*
X90891475Y-53793952D01*
X90891951Y-53796551D01*
X90891954Y-53796560D01*
X90893305Y-53803932D01*
X90896382Y-53810769D01*
X90896383Y-53810772D01*
X90917991Y-53858784D01*
X90920857Y-53865702D01*
X90942182Y-53921930D01*
X90946442Y-53928102D01*
X90946445Y-53928107D01*
X90947937Y-53930268D01*
X90958959Y-53949810D01*
X90960039Y-53952210D01*
X90960044Y-53952219D01*
X90963122Y-53959057D01*
X90967745Y-53964958D01*
X90967747Y-53964961D01*
X91000216Y-54006404D01*
X91004636Y-54012410D01*
X91038817Y-54061929D01*
X91083847Y-54101822D01*
X91089282Y-54106939D01*
X92343778Y-55361435D01*
X92374358Y-55411828D01*
X92378213Y-55470648D01*
X92354473Y-55524602D01*
X92308503Y-55561498D01*
X92246799Y-55590272D01*
X92184266Y-55619432D01*
X92179833Y-55622535D01*
X92179826Y-55622540D01*
X92002296Y-55746847D01*
X92002291Y-55746850D01*
X91997861Y-55749953D01*
X91994037Y-55753776D01*
X91994031Y-55753782D01*
X91840782Y-55907031D01*
X91840776Y-55907037D01*
X91836953Y-55910861D01*
X91833850Y-55915291D01*
X91833847Y-55915296D01*
X91709540Y-56092826D01*
X91709535Y-56092833D01*
X91706432Y-56097266D01*
X91704148Y-56102163D01*
X91704141Y-56102176D01*
X91679382Y-56155274D01*
X91633625Y-56207450D01*
X91567000Y-56226869D01*
X91500375Y-56207450D01*
X91454618Y-56155274D01*
X91429858Y-56102176D01*
X91429855Y-56102172D01*
X91427568Y-56097266D01*
X91297047Y-55910861D01*
X91136139Y-55749953D01*
X91009978Y-55661615D01*
X90954173Y-55622540D01*
X90954171Y-55622539D01*
X90949734Y-55619432D01*
X90870238Y-55582362D01*
X90748405Y-55525550D01*
X90748403Y-55525549D01*
X90743496Y-55523261D01*
X90738271Y-55521861D01*
X90738263Y-55521858D01*
X90528916Y-55465764D01*
X90528907Y-55465762D01*
X90523692Y-55464365D01*
X90518304Y-55463893D01*
X90518301Y-55463893D01*
X90302395Y-55445004D01*
X90297000Y-55444532D01*
X90291605Y-55445004D01*
X90075698Y-55463893D01*
X90075693Y-55463893D01*
X90070308Y-55464365D01*
X90065094Y-55465762D01*
X90065083Y-55465764D01*
X89855736Y-55521858D01*
X89855724Y-55521862D01*
X89850504Y-55523261D01*
X89845599Y-55525547D01*
X89845594Y-55525550D01*
X89649176Y-55617142D01*
X89649172Y-55617144D01*
X89644266Y-55619432D01*
X89639833Y-55622535D01*
X89639826Y-55622540D01*
X89462296Y-55746847D01*
X89462291Y-55746850D01*
X89457861Y-55749953D01*
X89454037Y-55753776D01*
X89454031Y-55753782D01*
X89300782Y-55907031D01*
X89300776Y-55907037D01*
X89296953Y-55910861D01*
X89293850Y-55915291D01*
X89293847Y-55915296D01*
X89169540Y-56092826D01*
X89169535Y-56092833D01*
X89166432Y-56097266D01*
X89164148Y-56102163D01*
X89164141Y-56102176D01*
X89139382Y-56155274D01*
X89093625Y-56207450D01*
X89027000Y-56226869D01*
X88960375Y-56207450D01*
X88914618Y-56155274D01*
X88889858Y-56102176D01*
X88889855Y-56102172D01*
X88887568Y-56097266D01*
X88757047Y-55910861D01*
X88682666Y-55836480D01*
X88655194Y-55794797D01*
X88646387Y-55745658D01*
X88647215Y-55712971D01*
X88647756Y-55691636D01*
X88637345Y-55633554D01*
X88636042Y-55624260D01*
X88630074Y-55565562D01*
X88620966Y-55536536D01*
X88617223Y-55521284D01*
X88612967Y-55497533D01*
X88612965Y-55497529D01*
X88611858Y-55491347D01*
X88606887Y-55478902D01*
X88589976Y-55436565D01*
X88586816Y-55427689D01*
X88575271Y-55390894D01*
X88569159Y-55371412D01*
X88563621Y-55361435D01*
X88554396Y-55344814D01*
X88547660Y-55330631D01*
X88543382Y-55319920D01*
X88536377Y-55302383D01*
X88503917Y-55253131D01*
X88499036Y-55245073D01*
X88473463Y-55199000D01*
X88473462Y-55198999D01*
X88470409Y-55193498D01*
X88450591Y-55170413D01*
X88441140Y-55157879D01*
X88440966Y-55157615D01*
X88424402Y-55132481D01*
X88382691Y-55090770D01*
X88376287Y-55083860D01*
X88370891Y-55077575D01*
X88337866Y-55039105D01*
X88332896Y-55035258D01*
X88332891Y-55035253D01*
X88313805Y-55020479D01*
X88302026Y-55010105D01*
X87204566Y-53912646D01*
X87202373Y-53910397D01*
X87146390Y-53851503D01*
X87146389Y-53851502D01*
X87142059Y-53846947D01*
X87136897Y-53843354D01*
X87093642Y-53813247D01*
X87086119Y-53807575D01*
X87045280Y-53774275D01*
X87045277Y-53774273D01*
X87040407Y-53770302D01*
X87013437Y-53756213D01*
X87000024Y-53748087D01*
X86975049Y-53730705D01*
X86920817Y-53707432D01*
X86912351Y-53703411D01*
X86860049Y-53676091D01*
X86830802Y-53667722D01*
X86816021Y-53662459D01*
X86793841Y-53652941D01*
X86793835Y-53652939D01*
X86788058Y-53650460D01*
X86781905Y-53649195D01*
X86781891Y-53649191D01*
X86730273Y-53638583D01*
X86721126Y-53636338D01*
X86670465Y-53621842D01*
X86670453Y-53621839D01*
X86664418Y-53620113D01*
X86658154Y-53619635D01*
X86658149Y-53619635D01*
X86634075Y-53617802D01*
X86618533Y-53615622D01*
X86594902Y-53610766D01*
X86594901Y-53610765D01*
X86588741Y-53609500D01*
X86582452Y-53609500D01*
X86529759Y-53609500D01*
X86520344Y-53609142D01*
X86467794Y-53605140D01*
X86467789Y-53605140D01*
X86461524Y-53604663D01*
X86455290Y-53605456D01*
X86455284Y-53605457D01*
X86431349Y-53608506D01*
X86415683Y-53609500D01*
X77427782Y-53609500D01*
X77380329Y-53600061D01*
X77340101Y-53573181D01*
X72909567Y-49142647D01*
X72907374Y-49140398D01*
X72851390Y-49081503D01*
X72851389Y-49081502D01*
X72847059Y-49076947D01*
X72834094Y-49067923D01*
X72798642Y-49043247D01*
X72791119Y-49037575D01*
X72750280Y-49004275D01*
X72750277Y-49004273D01*
X72745407Y-49000302D01*
X72718437Y-48986213D01*
X72705024Y-48978087D01*
X72680049Y-48960705D01*
X72680677Y-48959802D01*
X72654495Y-48938475D01*
X72632311Y-48900934D01*
X72610593Y-48842706D01*
X72593796Y-48797669D01*
X72507546Y-48682454D01*
X72499504Y-48676434D01*
X72399431Y-48601519D01*
X72399430Y-48601518D01*
X72392331Y-48596204D01*
X72321965Y-48569959D01*
X72264752Y-48548620D01*
X72264750Y-48548619D01*
X72257483Y-48545909D01*
X72249770Y-48545079D01*
X72249767Y-48545079D01*
X72201180Y-48539855D01*
X72201169Y-48539854D01*
X72197873Y-48539500D01*
X72194550Y-48539500D01*
X70605439Y-48539500D01*
X70605420Y-48539500D01*
X70602128Y-48539501D01*
X70598850Y-48539853D01*
X70598838Y-48539854D01*
X70550231Y-48545079D01*
X70550225Y-48545080D01*
X70542517Y-48545909D01*
X70535252Y-48548618D01*
X70535246Y-48548620D01*
X70415980Y-48593104D01*
X70415978Y-48593104D01*
X70407669Y-48596204D01*
X70400572Y-48601516D01*
X70400568Y-48601519D01*
X70299550Y-48677141D01*
X70299546Y-48677144D01*
X70292454Y-48682454D01*
X70287144Y-48689546D01*
X70287141Y-48689550D01*
X70211519Y-48790568D01*
X70211516Y-48790572D01*
X70206204Y-48797669D01*
X70203104Y-48805978D01*
X70203104Y-48805980D01*
X70158620Y-48925247D01*
X70158619Y-48925250D01*
X70155909Y-48932517D01*
X70155079Y-48940227D01*
X70155079Y-48940232D01*
X70149855Y-48988819D01*
X70149854Y-48988831D01*
X70149500Y-48992127D01*
X70149500Y-48995448D01*
X70149500Y-48995449D01*
X70149500Y-50684560D01*
X70149500Y-50684578D01*
X70149501Y-50687872D01*
X70149853Y-50691150D01*
X70149854Y-50691161D01*
X70155079Y-50739768D01*
X70155080Y-50739773D01*
X70155909Y-50747483D01*
X70158619Y-50754749D01*
X70158620Y-50754753D01*
X70170889Y-50787647D01*
X70206204Y-50882331D01*
X70211518Y-50889430D01*
X70211519Y-50889431D01*
X70255477Y-50948152D01*
X70292454Y-50997546D01*
X70407669Y-51083796D01*
X70526164Y-51127991D01*
X70578291Y-51165032D01*
X70605031Y-51223121D01*
X70599270Y-51286810D01*
X70563068Y-51338407D01*
X70560861Y-51339953D01*
X70557038Y-51343775D01*
X70557032Y-51343781D01*
X70403782Y-51497031D01*
X70403776Y-51497037D01*
X70399953Y-51500861D01*
X70396850Y-51505291D01*
X70396847Y-51505296D01*
X70272540Y-51682826D01*
X70272535Y-51682833D01*
X70269432Y-51687266D01*
X70267144Y-51692172D01*
X70267142Y-51692176D01*
X70175550Y-51888594D01*
X70175547Y-51888599D01*
X70173261Y-51893504D01*
X70171862Y-51898724D01*
X70171858Y-51898736D01*
X70115764Y-52108083D01*
X70115762Y-52108094D01*
X70114365Y-52113308D01*
X70113893Y-52118693D01*
X70113893Y-52118698D01*
X70106454Y-52203732D01*
X70094532Y-52340000D01*
X70095004Y-52345395D01*
X70102154Y-52427127D01*
X70114365Y-52566692D01*
X70115762Y-52571907D01*
X70115764Y-52571916D01*
X70171858Y-52781263D01*
X70171861Y-52781271D01*
X70173261Y-52786496D01*
X70269432Y-52992734D01*
X70272539Y-52997171D01*
X70272540Y-52997173D01*
X70275130Y-53000872D01*
X70399953Y-53179139D01*
X70403782Y-53182968D01*
X70473133Y-53252319D01*
X70505227Y-53307906D01*
X70505227Y-53372094D01*
X70473133Y-53427681D01*
X70403782Y-53497031D01*
X70403776Y-53497037D01*
X70399953Y-53500861D01*
X70396850Y-53505291D01*
X70396847Y-53505296D01*
X70272540Y-53682826D01*
X70272535Y-53682833D01*
X70269432Y-53687266D01*
X70267144Y-53692172D01*
X70267142Y-53692176D01*
X70175550Y-53888594D01*
X70175547Y-53888599D01*
X70173261Y-53893504D01*
X70171862Y-53898724D01*
X70171858Y-53898736D01*
X70115764Y-54108083D01*
X70115762Y-54108094D01*
X70114365Y-54113308D01*
X70113893Y-54118693D01*
X70113893Y-54118698D01*
X70096499Y-54317517D01*
X70094532Y-54340000D01*
X64526500Y-54340000D01*
X64526500Y-48349689D01*
X67469392Y-48349689D01*
X67477710Y-48360800D01*
X67602406Y-48454147D01*
X67609849Y-48458931D01*
X67853158Y-48591787D01*
X67861196Y-48595458D01*
X68120952Y-48692342D01*
X68129421Y-48694828D01*
X68400309Y-48753757D01*
X68409065Y-48755016D01*
X68685582Y-48774793D01*
X68694418Y-48774793D01*
X68970934Y-48755016D01*
X68979690Y-48753757D01*
X69250578Y-48694828D01*
X69259047Y-48692342D01*
X69518803Y-48595458D01*
X69526841Y-48591787D01*
X69770150Y-48458931D01*
X69777593Y-48454147D01*
X69902288Y-48360800D01*
X69910606Y-48349689D01*
X69903954Y-48337508D01*
X68701542Y-47135095D01*
X68689999Y-47128431D01*
X68678457Y-47135095D01*
X67476044Y-48337508D01*
X67469392Y-48349689D01*
X64526500Y-48349689D01*
X64526500Y-46774418D01*
X66685207Y-46774418D01*
X66704983Y-47050934D01*
X66706242Y-47059690D01*
X66765171Y-47330578D01*
X66767657Y-47339047D01*
X66864541Y-47598803D01*
X66868212Y-47606841D01*
X67001068Y-47850150D01*
X67005852Y-47857593D01*
X67099198Y-47982288D01*
X67110309Y-47990606D01*
X67122490Y-47983954D01*
X68324903Y-46781542D01*
X68331567Y-46769999D01*
X69048431Y-46769999D01*
X69055095Y-46781542D01*
X70257508Y-47983954D01*
X70269689Y-47990606D01*
X70280800Y-47982288D01*
X70374147Y-47857593D01*
X70378931Y-47850150D01*
X70511787Y-47606841D01*
X70515458Y-47598803D01*
X70612342Y-47339047D01*
X70614828Y-47330578D01*
X70673757Y-47059690D01*
X70675016Y-47050934D01*
X70694793Y-46774418D01*
X70694793Y-46765582D01*
X70675016Y-46489065D01*
X70673757Y-46480309D01*
X70614828Y-46209421D01*
X70612342Y-46200952D01*
X70515458Y-45941196D01*
X70511787Y-45933158D01*
X70378931Y-45689849D01*
X70374147Y-45682406D01*
X70280800Y-45557710D01*
X70269689Y-45549392D01*
X70257508Y-45556044D01*
X69055095Y-46758457D01*
X69048431Y-46769999D01*
X68331567Y-46769999D01*
X68324903Y-46758457D01*
X67119308Y-45552862D01*
X67110135Y-45546967D01*
X67101894Y-45554108D01*
X67005855Y-45682402D01*
X67001068Y-45689850D01*
X66868212Y-45933158D01*
X66864541Y-45941196D01*
X66767657Y-46200952D01*
X66765171Y-46209421D01*
X66706242Y-46480309D01*
X66704983Y-46489065D01*
X66685207Y-46765582D01*
X66685207Y-46774418D01*
X64526500Y-46774418D01*
X64526500Y-45190135D01*
X67466967Y-45190135D01*
X67472862Y-45199308D01*
X68678457Y-46404903D01*
X68690000Y-46411567D01*
X68701542Y-46404903D01*
X69903954Y-45202490D01*
X69910606Y-45190309D01*
X69902288Y-45179198D01*
X69777593Y-45085852D01*
X69770150Y-45081068D01*
X69526841Y-44948212D01*
X69518803Y-44944541D01*
X69259047Y-44847657D01*
X69250578Y-44845171D01*
X68979690Y-44786242D01*
X68970934Y-44784983D01*
X68694418Y-44765207D01*
X68685582Y-44765207D01*
X68409065Y-44784983D01*
X68400309Y-44786242D01*
X68129421Y-44845171D01*
X68120952Y-44847657D01*
X67861196Y-44944541D01*
X67853158Y-44948212D01*
X67609850Y-45081068D01*
X67602402Y-45085855D01*
X67474108Y-45181894D01*
X67466967Y-45190135D01*
X64526500Y-45190135D01*
X64526500Y-42545000D01*
X65623532Y-42545000D01*
X65624004Y-42550395D01*
X65642017Y-42756293D01*
X65643365Y-42771692D01*
X65644762Y-42776907D01*
X65644764Y-42776916D01*
X65700858Y-42986263D01*
X65700861Y-42986271D01*
X65702261Y-42991496D01*
X65704549Y-42996403D01*
X65704550Y-42996405D01*
X65734833Y-43061347D01*
X65798432Y-43197734D01*
X65801539Y-43202171D01*
X65801540Y-43202173D01*
X65858520Y-43283549D01*
X65928953Y-43384139D01*
X66089861Y-43545047D01*
X66276266Y-43675568D01*
X66482504Y-43771739D01*
X66702308Y-43830635D01*
X66872216Y-43845500D01*
X66983075Y-43845500D01*
X66985784Y-43845500D01*
X67155692Y-43830635D01*
X67375496Y-43771739D01*
X67581734Y-43675568D01*
X67768139Y-43545047D01*
X67929047Y-43384139D01*
X68059568Y-43197734D01*
X68155739Y-42991496D01*
X68214635Y-42771692D01*
X68234468Y-42545000D01*
X68214635Y-42318308D01*
X68155739Y-42098504D01*
X68059568Y-41892266D01*
X67929047Y-41705861D01*
X67768139Y-41544953D01*
X67666177Y-41473559D01*
X67586173Y-41417540D01*
X67586171Y-41417539D01*
X67581734Y-41414432D01*
X67501410Y-41376976D01*
X67380405Y-41320550D01*
X67380403Y-41320549D01*
X67375496Y-41318261D01*
X67370271Y-41316861D01*
X67370263Y-41316858D01*
X67160916Y-41260764D01*
X67160907Y-41260762D01*
X67155692Y-41259365D01*
X67150304Y-41258893D01*
X67150301Y-41258893D01*
X66988484Y-41244736D01*
X66988479Y-41244735D01*
X66985784Y-41244500D01*
X66872216Y-41244500D01*
X66869521Y-41244735D01*
X66869515Y-41244736D01*
X66707698Y-41258893D01*
X66707693Y-41258893D01*
X66702308Y-41259365D01*
X66697094Y-41260762D01*
X66697083Y-41260764D01*
X66487736Y-41316858D01*
X66487724Y-41316862D01*
X66482504Y-41318261D01*
X66477599Y-41320547D01*
X66477594Y-41320550D01*
X66281176Y-41412142D01*
X66281172Y-41412144D01*
X66276266Y-41414432D01*
X66271833Y-41417535D01*
X66271826Y-41417540D01*
X66094296Y-41541847D01*
X66094291Y-41541850D01*
X66089861Y-41544953D01*
X66086037Y-41548776D01*
X66086031Y-41548782D01*
X65932782Y-41702031D01*
X65932776Y-41702037D01*
X65928953Y-41705861D01*
X65925850Y-41710291D01*
X65925847Y-41710296D01*
X65801540Y-41887826D01*
X65801535Y-41887833D01*
X65798432Y-41892266D01*
X65796144Y-41897172D01*
X65796142Y-41897176D01*
X65704550Y-42093594D01*
X65704547Y-42093599D01*
X65702261Y-42098504D01*
X65700862Y-42103724D01*
X65700858Y-42103736D01*
X65644764Y-42313083D01*
X65644762Y-42313094D01*
X65643365Y-42318308D01*
X65642893Y-42323693D01*
X65642893Y-42323698D01*
X65628913Y-42483496D01*
X65623532Y-42545000D01*
X64526500Y-42545000D01*
X64526500Y-40266500D01*
X64543113Y-40204500D01*
X64588500Y-40159113D01*
X64650500Y-40142500D01*
X127627500Y-40142500D01*
X127689500Y-40159113D01*
G37*
G04 #@! TD.AperFunction*
M02*
