G04 #@! TF.GenerationSoftware,KiCad,Pcbnew,(7.0.0)*
G04 #@! TF.CreationDate,2023-06-02T20:53:42-06:00*
G04 #@! TF.ProjectId,WatchDogV4-CAP,57617463-6844-46f6-9756-342d4341502e,rev?*
G04 #@! TF.SameCoordinates,Original*
G04 #@! TF.FileFunction,Copper,L2,Bot*
G04 #@! TF.FilePolarity,Positive*
%FSLAX46Y46*%
G04 Gerber Fmt 4.6, Leading zero omitted, Abs format (unit mm)*
G04 Created by KiCad (PCBNEW (7.0.0)) date 2023-06-02 20:53:42*
%MOMM*%
%LPD*%
G01*
G04 APERTURE LIST*
G04 Aperture macros list*
%AMRoundRect*
0 Rectangle with rounded corners*
0 $1 Rounding radius*
0 $2 $3 $4 $5 $6 $7 $8 $9 X,Y pos of 4 corners*
0 Add a 4 corners polygon primitive as box body*
4,1,4,$2,$3,$4,$5,$6,$7,$8,$9,$2,$3,0*
0 Add four circle primitives for the rounded corners*
1,1,$1+$1,$2,$3*
1,1,$1+$1,$4,$5*
1,1,$1+$1,$6,$7*
1,1,$1+$1,$8,$9*
0 Add four rect primitives between the rounded corners*
20,1,$1+$1,$2,$3,$4,$5,0*
20,1,$1+$1,$4,$5,$6,$7,0*
20,1,$1+$1,$6,$7,$8,$9,0*
20,1,$1+$1,$8,$9,$2,$3,0*%
G04 Aperture macros list end*
G04 #@! TA.AperFunction,ComponentPad*
%ADD10R,1.700000X1.700000*%
G04 #@! TD*
G04 #@! TA.AperFunction,ComponentPad*
%ADD11O,1.700000X1.700000*%
G04 #@! TD*
G04 #@! TA.AperFunction,ComponentPad*
%ADD12R,1.500000X1.500000*%
G04 #@! TD*
G04 #@! TA.AperFunction,ComponentPad*
%ADD13C,1.500000*%
G04 #@! TD*
G04 #@! TA.AperFunction,ComponentPad*
%ADD14C,1.600000*%
G04 #@! TD*
G04 #@! TA.AperFunction,ComponentPad*
%ADD15O,1.600000X1.600000*%
G04 #@! TD*
G04 #@! TA.AperFunction,ComponentPad*
%ADD16R,1.600000X1.600000*%
G04 #@! TD*
G04 #@! TA.AperFunction,ComponentPad*
%ADD17R,1.800000X1.800000*%
G04 #@! TD*
G04 #@! TA.AperFunction,ComponentPad*
%ADD18C,1.800000*%
G04 #@! TD*
G04 #@! TA.AperFunction,ComponentPad*
%ADD19O,1.800000X1.800000*%
G04 #@! TD*
G04 #@! TA.AperFunction,ComponentPad*
%ADD20R,1.500000X1.600000*%
G04 #@! TD*
G04 #@! TA.AperFunction,ComponentPad*
%ADD21C,3.000000*%
G04 #@! TD*
G04 #@! TA.AperFunction,ComponentPad*
%ADD22R,1.600000X2.400000*%
G04 #@! TD*
G04 #@! TA.AperFunction,ComponentPad*
%ADD23O,1.600000X2.400000*%
G04 #@! TD*
G04 #@! TA.AperFunction,ComponentPad*
%ADD24RoundRect,0.250000X0.350000X0.625000X-0.350000X0.625000X-0.350000X-0.625000X0.350000X-0.625000X0*%
G04 #@! TD*
G04 #@! TA.AperFunction,ComponentPad*
%ADD25O,1.200000X1.750000*%
G04 #@! TD*
G04 #@! TA.AperFunction,ViaPad*
%ADD26C,0.800000*%
G04 #@! TD*
G04 #@! TA.AperFunction,Conductor*
%ADD27C,0.750000*%
G04 #@! TD*
G04 #@! TA.AperFunction,Conductor*
%ADD28C,0.500000*%
G04 #@! TD*
G04 #@! TA.AperFunction,Conductor*
%ADD29C,1.000000*%
G04 #@! TD*
G04 #@! TA.AperFunction,Conductor*
%ADD30C,0.200000*%
G04 #@! TD*
G04 #@! TA.AperFunction,Conductor*
%ADD31C,0.000000*%
G04 #@! TD*
G04 APERTURE END LIST*
D10*
X87629999Y-44322999D03*
D11*
X90169999Y-44322999D03*
X92709999Y-44322999D03*
X95249999Y-44322999D03*
D12*
X104012999Y-42036999D03*
D13*
X101473000Y-42037000D03*
X98933000Y-42037000D03*
D14*
X86360000Y-61087000D03*
D15*
X76199999Y-61086999D03*
D10*
X120380999Y-64769999D03*
D11*
X117840999Y-64769999D03*
X115300999Y-64769999D03*
D16*
X119379999Y-58419999D03*
D14*
X119380000Y-55920000D03*
X116713000Y-42037000D03*
D15*
X106552999Y-42036999D03*
D14*
X101854000Y-64897000D03*
D15*
X112013999Y-64896999D03*
D17*
X121543999Y-42798999D03*
D18*
X119004000Y-42799000D03*
D17*
X98932999Y-57657999D03*
D19*
X98932999Y-47497999D03*
D14*
X101473000Y-61087000D03*
D15*
X111632999Y-61086999D03*
D14*
X88900000Y-61087000D03*
D15*
X99059999Y-61086999D03*
D20*
X71399999Y-49839999D03*
D14*
X71400000Y-52340000D03*
X71400000Y-54340000D03*
X71400000Y-56840000D03*
D21*
X68690000Y-46770000D03*
X68690000Y-59910000D03*
D22*
X95376999Y-49529999D03*
D23*
X92836999Y-49529999D03*
X90296999Y-49529999D03*
X87756999Y-49529999D03*
X85216999Y-49529999D03*
X82676999Y-49529999D03*
X80136999Y-49529999D03*
X77596999Y-49529999D03*
X77596999Y-57149999D03*
X80136999Y-57149999D03*
X82676999Y-57149999D03*
X85216999Y-57149999D03*
X87756999Y-57149999D03*
X90296999Y-57149999D03*
X92836999Y-57149999D03*
X95376999Y-57149999D03*
D14*
X106045000Y-45720000D03*
D15*
X116204999Y-45719999D03*
D14*
X102870000Y-57658000D03*
D15*
X102869999Y-47497999D03*
D24*
X75168000Y-44233000D03*
D25*
X73167999Y-44232999D03*
D10*
X98678999Y-64896999D03*
D11*
X96138999Y-64896999D03*
X93598999Y-64896999D03*
X91058999Y-64896999D03*
D22*
X106689999Y-57164999D03*
D23*
X109229999Y-57164999D03*
X111769999Y-57164999D03*
X114309999Y-57164999D03*
X114309999Y-49544999D03*
X111769999Y-49544999D03*
X109229999Y-49544999D03*
X106689999Y-49544999D03*
D24*
X82804000Y-44233000D03*
D25*
X80803999Y-44232999D03*
D26*
X97409000Y-54356000D03*
X116458999Y-52577999D03*
X118935500Y-53530500D03*
X98552000Y-55753000D03*
X115697000Y-61468000D03*
X111887000Y-53467000D03*
X115189000Y-53594000D03*
X116840000Y-60579000D03*
D27*
X109230000Y-58684000D02*
X111633000Y-61087000D01*
X109230000Y-57165000D02*
X109230000Y-58684000D01*
D28*
X93599000Y-62103000D02*
X97409000Y-58293000D01*
X93599000Y-64897000D02*
X93599000Y-62103000D01*
X97409000Y-58293000D02*
X97409000Y-54356000D01*
D29*
X115301000Y-64770000D02*
X115301000Y-63007000D01*
X101854000Y-64897000D02*
X98679000Y-64897000D01*
X122555000Y-58928000D02*
X118491000Y-62992000D01*
D30*
X122388000Y-55920000D02*
X122555000Y-55753000D01*
D29*
X107315000Y-46990000D02*
X114681000Y-46990000D01*
X115316000Y-62992000D02*
X103759000Y-62992000D01*
X122555000Y-52025000D02*
X120370000Y-49840000D01*
X118491000Y-62992000D02*
X115316000Y-62992000D01*
X103759000Y-62992000D02*
X101854000Y-64897000D01*
X122555000Y-52070000D02*
X122555000Y-55753000D01*
X114681000Y-46990000D02*
X117531000Y-49840000D01*
D30*
X122555000Y-52070000D02*
X122555000Y-52025000D01*
X115301000Y-63007000D02*
X115316000Y-62992000D01*
D29*
X106045000Y-45720000D02*
X107315000Y-46990000D01*
X122555000Y-55753000D02*
X122555000Y-58928000D01*
X117531000Y-49840000D02*
X120370000Y-49840000D01*
X119380000Y-55920000D02*
X122388000Y-55920000D01*
D28*
X88535000Y-54340000D02*
X90297000Y-52578000D01*
X90297000Y-52578000D02*
X116458999Y-52577999D01*
X71400000Y-54340000D02*
X88535000Y-54340000D01*
X116945001Y-51540001D02*
X118935500Y-53530500D01*
X71400000Y-52340000D02*
X72199999Y-51540001D01*
X72199999Y-51540001D02*
X116945001Y-51540001D01*
X94488000Y-42037000D02*
X96012000Y-42037000D01*
X96012000Y-42037000D02*
X97917000Y-43942000D01*
X92837000Y-44323000D02*
X92837000Y-43688000D01*
X114427000Y-43942000D02*
X116205000Y-45720000D01*
D29*
X90170000Y-44323000D02*
X92710000Y-44323000D01*
D28*
X92837000Y-43688000D02*
X94488000Y-42037000D01*
X97917000Y-43942000D02*
X114427000Y-43942000D01*
X114310000Y-56525000D02*
X112522000Y-54737000D01*
X112522000Y-54737000D02*
X99568000Y-54737000D01*
D30*
X114310000Y-56525000D02*
X114310000Y-57165000D01*
D28*
X99568000Y-54737000D02*
X98552000Y-55753000D01*
D31*
X96139000Y-64897000D02*
X96266000Y-64770000D01*
X96266000Y-64643000D02*
X96266000Y-64770000D01*
D28*
X115697000Y-55753000D02*
X113411000Y-53467000D01*
X115697000Y-61468000D02*
X115697000Y-55753000D01*
X113411000Y-53467000D02*
X111887000Y-53467000D01*
X116840000Y-55245000D02*
X116840000Y-60579000D01*
X115189000Y-53594000D02*
X116840000Y-55245000D01*
G04 #@! TA.AperFunction,Conductor*
G36*
X127689500Y-40159113D02*
G01*
X127734887Y-40204500D01*
X127751500Y-40266500D01*
X127751500Y-66413500D01*
X127734887Y-66475500D01*
X127689500Y-66520887D01*
X127627500Y-66537500D01*
X64650500Y-66537500D01*
X64588500Y-66520887D01*
X64543113Y-66475500D01*
X64526500Y-66413500D01*
X64526500Y-64135000D01*
X65623532Y-64135000D01*
X65624004Y-64140395D01*
X65633091Y-64244266D01*
X65643365Y-64361692D01*
X65644762Y-64366907D01*
X65644764Y-64366916D01*
X65700858Y-64576263D01*
X65700861Y-64576271D01*
X65702261Y-64581496D01*
X65704549Y-64586403D01*
X65704550Y-64586405D01*
X65741275Y-64665162D01*
X65798432Y-64787734D01*
X65928953Y-64974139D01*
X66089861Y-65135047D01*
X66276266Y-65265568D01*
X66482504Y-65361739D01*
X66702308Y-65420635D01*
X66872216Y-65435500D01*
X66983075Y-65435500D01*
X66985784Y-65435500D01*
X67155692Y-65420635D01*
X67375496Y-65361739D01*
X67581734Y-65265568D01*
X67768139Y-65135047D01*
X67929047Y-64974139D01*
X68059568Y-64787734D01*
X68155739Y-64581496D01*
X68214635Y-64361692D01*
X68234468Y-64135000D01*
X68214635Y-63908308D01*
X68212618Y-63900782D01*
X68157141Y-63693736D01*
X68157140Y-63693734D01*
X68155739Y-63688504D01*
X68059568Y-63482266D01*
X67929047Y-63295861D01*
X67768139Y-63134953D01*
X67581734Y-63004432D01*
X67375496Y-62908261D01*
X67370271Y-62906861D01*
X67370263Y-62906858D01*
X67160916Y-62850764D01*
X67160907Y-62850762D01*
X67155692Y-62849365D01*
X67150304Y-62848893D01*
X67150301Y-62848893D01*
X66988484Y-62834736D01*
X66988479Y-62834735D01*
X66985784Y-62834500D01*
X66872216Y-62834500D01*
X66869521Y-62834735D01*
X66869515Y-62834736D01*
X66707698Y-62848893D01*
X66707693Y-62848893D01*
X66702308Y-62849365D01*
X66697094Y-62850762D01*
X66697083Y-62850764D01*
X66487736Y-62906858D01*
X66487724Y-62906862D01*
X66482504Y-62908261D01*
X66477599Y-62910547D01*
X66477594Y-62910550D01*
X66281176Y-63002142D01*
X66281172Y-63002144D01*
X66276266Y-63004432D01*
X66271833Y-63007535D01*
X66271826Y-63007540D01*
X66094296Y-63131847D01*
X66094291Y-63131850D01*
X66089861Y-63134953D01*
X66086037Y-63138776D01*
X66086031Y-63138782D01*
X65932782Y-63292031D01*
X65932776Y-63292037D01*
X65928953Y-63295861D01*
X65925850Y-63300291D01*
X65925847Y-63300296D01*
X65801540Y-63477826D01*
X65801535Y-63477833D01*
X65798432Y-63482266D01*
X65796144Y-63487172D01*
X65796142Y-63487176D01*
X65704550Y-63683594D01*
X65704547Y-63683599D01*
X65702261Y-63688504D01*
X65700862Y-63693724D01*
X65700858Y-63693736D01*
X65644764Y-63903083D01*
X65644762Y-63903094D01*
X65643365Y-63908308D01*
X65642893Y-63913693D01*
X65642893Y-63913698D01*
X65624542Y-64123461D01*
X65623532Y-64135000D01*
X64526500Y-64135000D01*
X64526500Y-61489689D01*
X67469392Y-61489689D01*
X67477710Y-61500800D01*
X67602406Y-61594147D01*
X67609849Y-61598931D01*
X67853158Y-61731787D01*
X67861196Y-61735458D01*
X68120952Y-61832342D01*
X68129421Y-61834828D01*
X68400309Y-61893757D01*
X68409065Y-61895016D01*
X68685582Y-61914793D01*
X68694418Y-61914793D01*
X68970934Y-61895016D01*
X68979690Y-61893757D01*
X69250578Y-61834828D01*
X69259047Y-61832342D01*
X69518803Y-61735458D01*
X69526841Y-61731787D01*
X69770150Y-61598931D01*
X69777593Y-61594147D01*
X69902288Y-61500800D01*
X69910606Y-61489689D01*
X69903954Y-61477508D01*
X68701542Y-60275095D01*
X68690000Y-60268431D01*
X68678457Y-60275095D01*
X67476044Y-61477508D01*
X67469392Y-61489689D01*
X64526500Y-61489689D01*
X64526500Y-59914418D01*
X66685207Y-59914418D01*
X66704983Y-60190934D01*
X66706242Y-60199690D01*
X66765171Y-60470578D01*
X66767657Y-60479047D01*
X66864541Y-60738803D01*
X66868212Y-60746841D01*
X67001068Y-60990150D01*
X67005852Y-60997593D01*
X67099198Y-61122288D01*
X67110309Y-61130606D01*
X67122490Y-61123954D01*
X68324903Y-59921542D01*
X68331567Y-59910000D01*
X69048431Y-59910000D01*
X69055095Y-59921542D01*
X70257508Y-61123954D01*
X70269689Y-61130606D01*
X70280800Y-61122288D01*
X70307217Y-61087000D01*
X74894532Y-61087000D01*
X74895004Y-61092395D01*
X74895644Y-61099716D01*
X74914365Y-61313692D01*
X74915762Y-61318907D01*
X74915764Y-61318916D01*
X74971858Y-61528263D01*
X74971861Y-61528271D01*
X74973261Y-61533496D01*
X74975549Y-61538403D01*
X74975550Y-61538405D01*
X75017501Y-61628368D01*
X75069432Y-61739734D01*
X75199953Y-61926139D01*
X75360861Y-62087047D01*
X75547266Y-62217568D01*
X75753504Y-62313739D01*
X75758734Y-62315140D01*
X75758736Y-62315141D01*
X75816042Y-62330496D01*
X75973308Y-62372635D01*
X76200000Y-62392468D01*
X76426692Y-62372635D01*
X76646496Y-62313739D01*
X76852734Y-62217568D01*
X76926806Y-62165703D01*
X85638217Y-62165703D01*
X85645650Y-62173814D01*
X85703077Y-62214025D01*
X85712427Y-62219423D01*
X85908768Y-62310979D01*
X85918902Y-62314667D01*
X86128162Y-62370739D01*
X86138793Y-62372613D01*
X86354605Y-62391494D01*
X86365395Y-62391494D01*
X86581206Y-62372613D01*
X86591837Y-62370739D01*
X86801097Y-62314667D01*
X86811231Y-62310979D01*
X87007575Y-62219422D01*
X87016920Y-62214026D01*
X87074348Y-62173814D01*
X87081780Y-62165703D01*
X88178217Y-62165703D01*
X88185650Y-62173814D01*
X88243077Y-62214025D01*
X88252427Y-62219423D01*
X88448768Y-62310979D01*
X88458902Y-62314667D01*
X88668162Y-62370739D01*
X88678793Y-62372613D01*
X88894605Y-62391494D01*
X88905395Y-62391494D01*
X89121206Y-62372613D01*
X89131837Y-62370739D01*
X89341097Y-62314667D01*
X89351231Y-62310979D01*
X89547575Y-62219422D01*
X89556920Y-62214026D01*
X89614348Y-62173814D01*
X89621780Y-62165703D01*
X89615867Y-62156421D01*
X88911542Y-61452095D01*
X88899999Y-61445431D01*
X88888457Y-61452095D01*
X88184128Y-62156424D01*
X88178217Y-62165703D01*
X87081780Y-62165703D01*
X87075867Y-62156421D01*
X86371542Y-61452095D01*
X86359999Y-61445431D01*
X86348457Y-61452095D01*
X85644128Y-62156424D01*
X85638217Y-62165703D01*
X76926806Y-62165703D01*
X77039139Y-62087047D01*
X77200047Y-61926139D01*
X77330568Y-61739734D01*
X77426739Y-61533496D01*
X77485635Y-61313692D01*
X77504996Y-61092395D01*
X85055506Y-61092395D01*
X85074386Y-61308206D01*
X85076260Y-61318837D01*
X85132332Y-61528097D01*
X85136020Y-61538231D01*
X85227576Y-61734572D01*
X85232974Y-61743922D01*
X85273184Y-61801348D01*
X85281295Y-61808781D01*
X85290574Y-61802870D01*
X85994903Y-61098542D01*
X86001567Y-61087000D01*
X86718431Y-61087000D01*
X86725095Y-61098542D01*
X87429421Y-61802867D01*
X87438703Y-61808780D01*
X87446814Y-61801348D01*
X87487026Y-61743920D01*
X87492424Y-61734571D01*
X87517618Y-61680544D01*
X87563375Y-61628368D01*
X87630000Y-61608948D01*
X87696625Y-61628368D01*
X87742382Y-61680544D01*
X87767573Y-61734568D01*
X87772974Y-61743922D01*
X87813184Y-61801348D01*
X87821295Y-61808781D01*
X87830574Y-61802870D01*
X88534903Y-61098542D01*
X88541567Y-61087000D01*
X89258431Y-61087000D01*
X89265095Y-61098542D01*
X89969421Y-61802867D01*
X89978703Y-61808780D01*
X89986814Y-61801348D01*
X90027026Y-61743920D01*
X90032422Y-61734575D01*
X90123979Y-61538231D01*
X90127667Y-61528097D01*
X90183739Y-61318837D01*
X90185613Y-61308206D01*
X90204494Y-61092395D01*
X90204494Y-61081605D01*
X90185613Y-60865793D01*
X90183739Y-60855162D01*
X90127667Y-60645902D01*
X90123979Y-60635768D01*
X90032423Y-60439427D01*
X90027025Y-60430077D01*
X89986814Y-60372650D01*
X89978703Y-60365217D01*
X89969424Y-60371128D01*
X89265095Y-61075457D01*
X89258431Y-61087000D01*
X88541567Y-61087000D01*
X88534903Y-61075457D01*
X87830574Y-60371128D01*
X87821296Y-60365217D01*
X87813183Y-60372651D01*
X87772971Y-60430081D01*
X87767577Y-60439425D01*
X87742382Y-60493456D01*
X87696625Y-60545632D01*
X87630000Y-60565051D01*
X87563375Y-60545632D01*
X87517618Y-60493456D01*
X87492424Y-60439427D01*
X87487025Y-60430077D01*
X87446814Y-60372650D01*
X87438703Y-60365217D01*
X87429424Y-60371128D01*
X86725095Y-61075457D01*
X86718431Y-61087000D01*
X86001567Y-61087000D01*
X85994903Y-61075457D01*
X85290574Y-60371128D01*
X85281296Y-60365217D01*
X85273183Y-60372651D01*
X85232971Y-60430081D01*
X85227577Y-60439425D01*
X85136020Y-60635768D01*
X85132332Y-60645902D01*
X85076260Y-60855162D01*
X85074386Y-60865793D01*
X85055506Y-61081605D01*
X85055506Y-61092395D01*
X77504996Y-61092395D01*
X77505468Y-61087000D01*
X77485635Y-60860308D01*
X77426739Y-60640504D01*
X77330568Y-60434266D01*
X77200047Y-60247861D01*
X77039139Y-60086953D01*
X76926804Y-60008296D01*
X85638217Y-60008296D01*
X85644128Y-60017574D01*
X86348457Y-60721903D01*
X86360000Y-60728567D01*
X86371542Y-60721903D01*
X87075870Y-60017574D01*
X87081780Y-60008296D01*
X88178217Y-60008296D01*
X88184128Y-60017574D01*
X88888457Y-60721903D01*
X88900000Y-60728567D01*
X88911542Y-60721903D01*
X89615870Y-60017574D01*
X89621781Y-60008295D01*
X89614348Y-60000184D01*
X89556922Y-59959974D01*
X89547572Y-59954576D01*
X89351231Y-59863020D01*
X89341097Y-59859332D01*
X89131837Y-59803260D01*
X89121206Y-59801386D01*
X88905395Y-59782506D01*
X88894605Y-59782506D01*
X88678793Y-59801386D01*
X88668162Y-59803260D01*
X88458902Y-59859332D01*
X88448768Y-59863020D01*
X88252425Y-59954577D01*
X88243081Y-59959971D01*
X88185651Y-60000183D01*
X88178217Y-60008296D01*
X87081780Y-60008296D01*
X87081781Y-60008295D01*
X87074348Y-60000184D01*
X87016922Y-59959974D01*
X87007572Y-59954576D01*
X86811231Y-59863020D01*
X86801097Y-59859332D01*
X86591837Y-59803260D01*
X86581206Y-59801386D01*
X86365395Y-59782506D01*
X86354605Y-59782506D01*
X86138793Y-59801386D01*
X86128162Y-59803260D01*
X85918902Y-59859332D01*
X85908768Y-59863020D01*
X85712425Y-59954577D01*
X85703081Y-59959971D01*
X85645651Y-60000183D01*
X85638217Y-60008296D01*
X76926804Y-60008296D01*
X76915219Y-60000184D01*
X76857173Y-59959540D01*
X76857171Y-59959539D01*
X76852734Y-59956432D01*
X76646496Y-59860261D01*
X76641271Y-59858861D01*
X76641263Y-59858858D01*
X76431916Y-59802764D01*
X76431907Y-59802762D01*
X76426692Y-59801365D01*
X76421304Y-59800893D01*
X76421301Y-59800893D01*
X76205395Y-59782004D01*
X76200000Y-59781532D01*
X76194605Y-59782004D01*
X75978698Y-59800893D01*
X75978693Y-59800893D01*
X75973308Y-59801365D01*
X75968094Y-59802762D01*
X75968083Y-59802764D01*
X75758736Y-59858858D01*
X75758724Y-59858862D01*
X75753504Y-59860261D01*
X75748599Y-59862547D01*
X75748594Y-59862550D01*
X75552176Y-59954142D01*
X75552172Y-59954144D01*
X75547266Y-59956432D01*
X75542833Y-59959535D01*
X75542826Y-59959540D01*
X75365296Y-60083847D01*
X75365291Y-60083850D01*
X75360861Y-60086953D01*
X75357037Y-60090776D01*
X75357031Y-60090782D01*
X75203782Y-60244031D01*
X75203776Y-60244037D01*
X75199953Y-60247861D01*
X75196850Y-60252291D01*
X75196847Y-60252296D01*
X75072540Y-60429826D01*
X75072535Y-60429833D01*
X75069432Y-60434266D01*
X75067144Y-60439172D01*
X75067142Y-60439176D01*
X74975550Y-60635594D01*
X74975547Y-60635599D01*
X74973261Y-60640504D01*
X74971862Y-60645724D01*
X74971858Y-60645736D01*
X74915764Y-60855083D01*
X74915762Y-60855094D01*
X74914365Y-60860308D01*
X74913893Y-60865693D01*
X74913893Y-60865698D01*
X74902354Y-60997593D01*
X74894532Y-61087000D01*
X70307217Y-61087000D01*
X70374147Y-60997593D01*
X70378931Y-60990150D01*
X70511787Y-60746841D01*
X70515458Y-60738803D01*
X70612342Y-60479047D01*
X70614828Y-60470578D01*
X70673757Y-60199690D01*
X70675016Y-60190934D01*
X70694793Y-59914418D01*
X70694793Y-59905582D01*
X70675016Y-59629065D01*
X70673757Y-59620309D01*
X70614828Y-59349421D01*
X70612342Y-59340952D01*
X70515458Y-59081196D01*
X70511787Y-59073158D01*
X70378931Y-58829849D01*
X70374147Y-58822406D01*
X70280800Y-58697710D01*
X70269689Y-58689392D01*
X70257508Y-58696044D01*
X69055095Y-59898457D01*
X69048431Y-59910000D01*
X68331567Y-59910000D01*
X68324903Y-59898457D01*
X67119308Y-58692862D01*
X67110135Y-58686967D01*
X67101894Y-58694108D01*
X67005855Y-58822402D01*
X67001068Y-58829850D01*
X66868212Y-59073158D01*
X66864541Y-59081196D01*
X66767657Y-59340952D01*
X66765171Y-59349421D01*
X66706242Y-59620309D01*
X66704983Y-59629065D01*
X66685207Y-59905582D01*
X66685207Y-59914418D01*
X64526500Y-59914418D01*
X64526500Y-58330135D01*
X67466967Y-58330135D01*
X67472862Y-58339308D01*
X68678457Y-59544903D01*
X68689999Y-59551567D01*
X68701542Y-59544903D01*
X69903954Y-58342490D01*
X69910606Y-58330309D01*
X69902288Y-58319198D01*
X69777593Y-58225852D01*
X69770150Y-58221068D01*
X69526841Y-58088212D01*
X69518803Y-58084541D01*
X69259047Y-57987657D01*
X69250578Y-57985171D01*
X68979690Y-57926242D01*
X68970934Y-57924983D01*
X68883125Y-57918703D01*
X70678217Y-57918703D01*
X70685650Y-57926814D01*
X70743077Y-57967025D01*
X70752427Y-57972423D01*
X70948768Y-58063979D01*
X70958902Y-58067667D01*
X71168162Y-58123739D01*
X71178793Y-58125613D01*
X71394605Y-58144494D01*
X71405395Y-58144494D01*
X71621206Y-58125613D01*
X71631837Y-58123739D01*
X71841097Y-58067667D01*
X71851231Y-58063979D01*
X72047575Y-57972422D01*
X72056920Y-57967026D01*
X72114348Y-57926814D01*
X72121780Y-57918703D01*
X72115867Y-57909421D01*
X71411542Y-57205095D01*
X71399999Y-57198431D01*
X71388457Y-57205095D01*
X70684128Y-57909424D01*
X70678217Y-57918703D01*
X68883125Y-57918703D01*
X68694418Y-57905207D01*
X68685582Y-57905207D01*
X68409065Y-57924983D01*
X68400309Y-57926242D01*
X68129421Y-57985171D01*
X68120952Y-57987657D01*
X67861196Y-58084541D01*
X67853158Y-58088212D01*
X67609850Y-58221068D01*
X67602402Y-58225855D01*
X67474108Y-58321894D01*
X67466967Y-58330135D01*
X64526500Y-58330135D01*
X64526500Y-56845395D01*
X70095506Y-56845395D01*
X70114386Y-57061206D01*
X70116260Y-57071837D01*
X70172332Y-57281097D01*
X70176020Y-57291231D01*
X70267576Y-57487572D01*
X70272974Y-57496922D01*
X70313184Y-57554348D01*
X70321295Y-57561781D01*
X70330574Y-57555870D01*
X71034903Y-56851542D01*
X71041567Y-56839999D01*
X71758431Y-56839999D01*
X71765095Y-56851542D01*
X72469421Y-57555867D01*
X72478703Y-57561780D01*
X72486814Y-57554348D01*
X72527026Y-57496920D01*
X72532422Y-57487575D01*
X72623979Y-57291231D01*
X72627667Y-57281097D01*
X72683739Y-57071837D01*
X72685613Y-57061206D01*
X72704494Y-56845395D01*
X72704494Y-56834605D01*
X72685613Y-56618793D01*
X72683739Y-56608162D01*
X72627667Y-56398902D01*
X72623979Y-56388768D01*
X72532423Y-56192427D01*
X72527025Y-56183077D01*
X72486814Y-56125650D01*
X72478703Y-56118217D01*
X72469424Y-56124128D01*
X71765095Y-56828457D01*
X71758431Y-56839999D01*
X71041567Y-56839999D01*
X71034903Y-56828457D01*
X70330574Y-56124128D01*
X70321296Y-56118217D01*
X70313183Y-56125651D01*
X70272971Y-56183081D01*
X70267577Y-56192425D01*
X70176020Y-56388768D01*
X70172332Y-56398902D01*
X70116260Y-56608162D01*
X70114386Y-56618793D01*
X70095506Y-56834605D01*
X70095506Y-56845395D01*
X64526500Y-56845395D01*
X64526500Y-54340000D01*
X70094532Y-54340000D01*
X70095004Y-54345395D01*
X70112942Y-54550435D01*
X70114365Y-54566692D01*
X70115762Y-54571907D01*
X70115764Y-54571916D01*
X70171858Y-54781263D01*
X70171861Y-54781271D01*
X70173261Y-54786496D01*
X70175549Y-54791403D01*
X70175550Y-54791405D01*
X70226116Y-54899844D01*
X70269432Y-54992734D01*
X70272539Y-54997171D01*
X70272540Y-54997173D01*
X70337594Y-55090081D01*
X70399953Y-55179139D01*
X70560861Y-55340047D01*
X70747266Y-55470568D01*
X70762973Y-55477892D01*
X70815149Y-55523648D01*
X70834570Y-55590272D01*
X70815153Y-55656896D01*
X70762980Y-55702655D01*
X70752424Y-55707577D01*
X70743081Y-55712971D01*
X70685651Y-55753183D01*
X70678217Y-55761296D01*
X70684128Y-55770574D01*
X71388457Y-56474903D01*
X71400000Y-56481567D01*
X71411542Y-56474903D01*
X72115870Y-55770574D01*
X72121781Y-55761295D01*
X72114348Y-55753184D01*
X72056922Y-55712974D01*
X72047570Y-55707575D01*
X72037022Y-55702656D01*
X71984847Y-55656898D01*
X71965429Y-55590272D01*
X71984851Y-55523647D01*
X72037025Y-55477892D01*
X72052734Y-55470568D01*
X72239139Y-55340047D01*
X72400047Y-55179139D01*
X72425088Y-55143375D01*
X72469406Y-55104511D01*
X72526663Y-55090500D01*
X88471293Y-55090500D01*
X88489264Y-55091809D01*
X88491955Y-55092203D01*
X88513023Y-55095289D01*
X88562368Y-55090972D01*
X88573176Y-55090500D01*
X88575100Y-55090500D01*
X88578709Y-55090500D01*
X88609550Y-55086894D01*
X88613031Y-55086539D01*
X88687797Y-55079999D01*
X88694653Y-55077726D01*
X88698043Y-55077027D01*
X88698375Y-55076973D01*
X88698728Y-55076873D01*
X88702071Y-55076080D01*
X88709255Y-55075241D01*
X88779760Y-55049579D01*
X88783118Y-55048412D01*
X88854334Y-55024814D01*
X88860486Y-55021018D01*
X88863607Y-55019564D01*
X88863929Y-55019430D01*
X88864238Y-55019258D01*
X88867315Y-55017712D01*
X88874117Y-55015237D01*
X88936837Y-54973984D01*
X88939732Y-54972140D01*
X89003656Y-54932712D01*
X89008763Y-54927603D01*
X89011476Y-54925459D01*
X89011758Y-54925254D01*
X89012029Y-54925007D01*
X89014658Y-54922800D01*
X89020696Y-54918830D01*
X89072186Y-54864252D01*
X89074631Y-54861735D01*
X90571548Y-53364817D01*
X90611776Y-53337938D01*
X90659229Y-53328499D01*
X96919470Y-53328499D01*
X96983706Y-53346434D01*
X97029359Y-53395051D01*
X97043225Y-53460286D01*
X97021292Y-53523268D01*
X96969904Y-53565778D01*
X96956270Y-53571849D01*
X96951016Y-53575665D01*
X96951011Y-53575669D01*
X96808388Y-53679290D01*
X96808381Y-53679295D01*
X96803129Y-53683112D01*
X96798784Y-53687937D01*
X96798779Y-53687942D01*
X96680813Y-53818956D01*
X96680808Y-53818962D01*
X96676467Y-53823784D01*
X96673222Y-53829404D01*
X96673218Y-53829410D01*
X96585069Y-53982089D01*
X96585066Y-53982094D01*
X96581821Y-53987716D01*
X96579815Y-53993888D01*
X96579813Y-53993894D01*
X96525333Y-54161564D01*
X96525331Y-54161573D01*
X96523326Y-54167744D01*
X96522648Y-54174194D01*
X96522646Y-54174204D01*
X96515209Y-54244972D01*
X96503540Y-54356000D01*
X96504219Y-54362460D01*
X96522646Y-54537795D01*
X96522647Y-54537803D01*
X96523326Y-54544256D01*
X96525331Y-54550428D01*
X96525333Y-54550435D01*
X96579813Y-54718105D01*
X96581821Y-54724284D01*
X96621477Y-54792971D01*
X96641887Y-54828321D01*
X96658500Y-54890321D01*
X96658500Y-55919541D01*
X96642953Y-55979658D01*
X96600210Y-56024699D01*
X96540989Y-56043371D01*
X96480141Y-56030991D01*
X96432925Y-55990664D01*
X96377047Y-55910861D01*
X96216139Y-55749953D01*
X96096038Y-55665858D01*
X96034173Y-55622540D01*
X96034171Y-55622539D01*
X96029734Y-55619432D01*
X95871809Y-55545790D01*
X95828405Y-55525550D01*
X95828403Y-55525549D01*
X95823496Y-55523261D01*
X95818271Y-55521861D01*
X95818263Y-55521858D01*
X95608916Y-55465764D01*
X95608907Y-55465762D01*
X95603692Y-55464365D01*
X95598304Y-55463893D01*
X95598301Y-55463893D01*
X95382395Y-55445004D01*
X95377000Y-55444532D01*
X95371605Y-55445004D01*
X95155698Y-55463893D01*
X95155693Y-55463893D01*
X95150308Y-55464365D01*
X95145094Y-55465762D01*
X95145083Y-55465764D01*
X94935736Y-55521858D01*
X94935724Y-55521862D01*
X94930504Y-55523261D01*
X94925599Y-55525547D01*
X94925594Y-55525550D01*
X94729176Y-55617142D01*
X94729172Y-55617144D01*
X94724266Y-55619432D01*
X94719833Y-55622535D01*
X94719826Y-55622540D01*
X94542296Y-55746847D01*
X94542291Y-55746850D01*
X94537861Y-55749953D01*
X94534037Y-55753776D01*
X94534031Y-55753782D01*
X94380782Y-55907031D01*
X94380776Y-55907037D01*
X94376953Y-55910861D01*
X94373850Y-55915291D01*
X94373847Y-55915296D01*
X94249540Y-56092826D01*
X94249535Y-56092833D01*
X94246432Y-56097266D01*
X94244148Y-56102163D01*
X94244141Y-56102176D01*
X94219382Y-56155274D01*
X94173625Y-56207450D01*
X94107000Y-56226869D01*
X94040375Y-56207450D01*
X93994618Y-56155274D01*
X93969858Y-56102176D01*
X93969855Y-56102172D01*
X93967568Y-56097266D01*
X93837047Y-55910861D01*
X93676139Y-55749953D01*
X93556038Y-55665858D01*
X93494173Y-55622540D01*
X93494171Y-55622539D01*
X93489734Y-55619432D01*
X93331809Y-55545790D01*
X93288405Y-55525550D01*
X93288403Y-55525549D01*
X93283496Y-55523261D01*
X93278271Y-55521861D01*
X93278263Y-55521858D01*
X93068916Y-55465764D01*
X93068907Y-55465762D01*
X93063692Y-55464365D01*
X93058304Y-55463893D01*
X93058301Y-55463893D01*
X92842395Y-55445004D01*
X92837000Y-55444532D01*
X92831605Y-55445004D01*
X92615698Y-55463893D01*
X92615693Y-55463893D01*
X92610308Y-55464365D01*
X92605094Y-55465762D01*
X92605083Y-55465764D01*
X92395736Y-55521858D01*
X92395724Y-55521862D01*
X92390504Y-55523261D01*
X92385599Y-55525547D01*
X92385594Y-55525550D01*
X92189176Y-55617142D01*
X92189172Y-55617144D01*
X92184266Y-55619432D01*
X92179833Y-55622535D01*
X92179826Y-55622540D01*
X92002296Y-55746847D01*
X92002291Y-55746850D01*
X91997861Y-55749953D01*
X91994037Y-55753776D01*
X91994031Y-55753782D01*
X91840782Y-55907031D01*
X91840776Y-55907037D01*
X91836953Y-55910861D01*
X91833850Y-55915291D01*
X91833847Y-55915296D01*
X91709540Y-56092826D01*
X91709535Y-56092833D01*
X91706432Y-56097266D01*
X91704148Y-56102163D01*
X91704141Y-56102176D01*
X91679382Y-56155274D01*
X91633625Y-56207450D01*
X91567000Y-56226869D01*
X91500375Y-56207450D01*
X91454618Y-56155274D01*
X91429858Y-56102176D01*
X91429855Y-56102172D01*
X91427568Y-56097266D01*
X91297047Y-55910861D01*
X91136139Y-55749953D01*
X91016038Y-55665858D01*
X90954173Y-55622540D01*
X90954171Y-55622539D01*
X90949734Y-55619432D01*
X90791809Y-55545790D01*
X90748405Y-55525550D01*
X90748403Y-55525549D01*
X90743496Y-55523261D01*
X90738271Y-55521861D01*
X90738263Y-55521858D01*
X90528916Y-55465764D01*
X90528907Y-55465762D01*
X90523692Y-55464365D01*
X90518304Y-55463893D01*
X90518301Y-55463893D01*
X90302395Y-55445004D01*
X90297000Y-55444532D01*
X90291605Y-55445004D01*
X90075698Y-55463893D01*
X90075693Y-55463893D01*
X90070308Y-55464365D01*
X90065094Y-55465762D01*
X90065083Y-55465764D01*
X89855736Y-55521858D01*
X89855724Y-55521862D01*
X89850504Y-55523261D01*
X89845599Y-55525547D01*
X89845594Y-55525550D01*
X89649176Y-55617142D01*
X89649172Y-55617144D01*
X89644266Y-55619432D01*
X89639833Y-55622535D01*
X89639826Y-55622540D01*
X89462296Y-55746847D01*
X89462291Y-55746850D01*
X89457861Y-55749953D01*
X89454037Y-55753776D01*
X89454031Y-55753782D01*
X89300782Y-55907031D01*
X89300776Y-55907037D01*
X89296953Y-55910861D01*
X89293850Y-55915291D01*
X89293847Y-55915296D01*
X89169540Y-56092826D01*
X89169535Y-56092833D01*
X89166432Y-56097266D01*
X89164148Y-56102163D01*
X89164141Y-56102176D01*
X89139382Y-56155274D01*
X89093625Y-56207450D01*
X89027000Y-56226869D01*
X88960375Y-56207450D01*
X88914618Y-56155274D01*
X88889858Y-56102176D01*
X88889855Y-56102172D01*
X88887568Y-56097266D01*
X88757047Y-55910861D01*
X88596139Y-55749953D01*
X88476038Y-55665858D01*
X88414173Y-55622540D01*
X88414171Y-55622539D01*
X88409734Y-55619432D01*
X88251809Y-55545790D01*
X88208405Y-55525550D01*
X88208403Y-55525549D01*
X88203496Y-55523261D01*
X88198271Y-55521861D01*
X88198263Y-55521858D01*
X87988916Y-55465764D01*
X87988907Y-55465762D01*
X87983692Y-55464365D01*
X87978304Y-55463893D01*
X87978301Y-55463893D01*
X87762395Y-55445004D01*
X87757000Y-55444532D01*
X87751605Y-55445004D01*
X87535698Y-55463893D01*
X87535693Y-55463893D01*
X87530308Y-55464365D01*
X87525094Y-55465762D01*
X87525083Y-55465764D01*
X87315736Y-55521858D01*
X87315724Y-55521862D01*
X87310504Y-55523261D01*
X87305599Y-55525547D01*
X87305594Y-55525550D01*
X87109176Y-55617142D01*
X87109172Y-55617144D01*
X87104266Y-55619432D01*
X87099833Y-55622535D01*
X87099826Y-55622540D01*
X86922296Y-55746847D01*
X86922291Y-55746850D01*
X86917861Y-55749953D01*
X86914037Y-55753776D01*
X86914031Y-55753782D01*
X86760782Y-55907031D01*
X86760776Y-55907037D01*
X86756953Y-55910861D01*
X86753850Y-55915291D01*
X86753847Y-55915296D01*
X86629540Y-56092826D01*
X86629535Y-56092833D01*
X86626432Y-56097266D01*
X86624148Y-56102163D01*
X86624141Y-56102176D01*
X86599382Y-56155274D01*
X86553625Y-56207450D01*
X86487000Y-56226869D01*
X86420375Y-56207450D01*
X86374618Y-56155274D01*
X86349858Y-56102176D01*
X86349855Y-56102172D01*
X86347568Y-56097266D01*
X86217047Y-55910861D01*
X86056139Y-55749953D01*
X85936038Y-55665858D01*
X85874173Y-55622540D01*
X85874171Y-55622539D01*
X85869734Y-55619432D01*
X85711809Y-55545790D01*
X85668405Y-55525550D01*
X85668403Y-55525549D01*
X85663496Y-55523261D01*
X85658271Y-55521861D01*
X85658263Y-55521858D01*
X85448916Y-55465764D01*
X85448907Y-55465762D01*
X85443692Y-55464365D01*
X85438304Y-55463893D01*
X85438301Y-55463893D01*
X85222395Y-55445004D01*
X85217000Y-55444532D01*
X85211605Y-55445004D01*
X84995698Y-55463893D01*
X84995693Y-55463893D01*
X84990308Y-55464365D01*
X84985094Y-55465762D01*
X84985083Y-55465764D01*
X84775736Y-55521858D01*
X84775724Y-55521862D01*
X84770504Y-55523261D01*
X84765599Y-55525547D01*
X84765594Y-55525550D01*
X84569176Y-55617142D01*
X84569172Y-55617144D01*
X84564266Y-55619432D01*
X84559833Y-55622535D01*
X84559826Y-55622540D01*
X84382296Y-55746847D01*
X84382291Y-55746850D01*
X84377861Y-55749953D01*
X84374037Y-55753776D01*
X84374031Y-55753782D01*
X84220782Y-55907031D01*
X84220776Y-55907037D01*
X84216953Y-55910861D01*
X84213850Y-55915291D01*
X84213847Y-55915296D01*
X84089540Y-56092826D01*
X84089535Y-56092833D01*
X84086432Y-56097266D01*
X84084148Y-56102163D01*
X84084141Y-56102176D01*
X84059382Y-56155274D01*
X84013625Y-56207450D01*
X83947000Y-56226869D01*
X83880375Y-56207450D01*
X83834618Y-56155274D01*
X83809858Y-56102176D01*
X83809855Y-56102172D01*
X83807568Y-56097266D01*
X83677047Y-55910861D01*
X83516139Y-55749953D01*
X83396038Y-55665858D01*
X83334173Y-55622540D01*
X83334171Y-55622539D01*
X83329734Y-55619432D01*
X83171809Y-55545790D01*
X83128405Y-55525550D01*
X83128403Y-55525549D01*
X83123496Y-55523261D01*
X83118271Y-55521861D01*
X83118263Y-55521858D01*
X82908916Y-55465764D01*
X82908907Y-55465762D01*
X82903692Y-55464365D01*
X82898304Y-55463893D01*
X82898301Y-55463893D01*
X82682395Y-55445004D01*
X82677000Y-55444532D01*
X82671605Y-55445004D01*
X82455698Y-55463893D01*
X82455693Y-55463893D01*
X82450308Y-55464365D01*
X82445094Y-55465762D01*
X82445083Y-55465764D01*
X82235736Y-55521858D01*
X82235724Y-55521862D01*
X82230504Y-55523261D01*
X82225599Y-55525547D01*
X82225594Y-55525550D01*
X82029176Y-55617142D01*
X82029172Y-55617144D01*
X82024266Y-55619432D01*
X82019833Y-55622535D01*
X82019826Y-55622540D01*
X81842296Y-55746847D01*
X81842291Y-55746850D01*
X81837861Y-55749953D01*
X81834037Y-55753776D01*
X81834031Y-55753782D01*
X81680782Y-55907031D01*
X81680776Y-55907037D01*
X81676953Y-55910861D01*
X81673850Y-55915291D01*
X81673847Y-55915296D01*
X81549540Y-56092826D01*
X81549535Y-56092833D01*
X81546432Y-56097266D01*
X81544148Y-56102163D01*
X81544141Y-56102176D01*
X81519382Y-56155274D01*
X81473625Y-56207450D01*
X81407000Y-56226869D01*
X81340375Y-56207450D01*
X81294618Y-56155274D01*
X81269858Y-56102176D01*
X81269855Y-56102172D01*
X81267568Y-56097266D01*
X81137047Y-55910861D01*
X80976139Y-55749953D01*
X80856038Y-55665858D01*
X80794173Y-55622540D01*
X80794171Y-55622539D01*
X80789734Y-55619432D01*
X80631809Y-55545790D01*
X80588405Y-55525550D01*
X80588403Y-55525549D01*
X80583496Y-55523261D01*
X80578271Y-55521861D01*
X80578263Y-55521858D01*
X80368916Y-55465764D01*
X80368907Y-55465762D01*
X80363692Y-55464365D01*
X80358304Y-55463893D01*
X80358301Y-55463893D01*
X80142395Y-55445004D01*
X80137000Y-55444532D01*
X80131605Y-55445004D01*
X79915698Y-55463893D01*
X79915693Y-55463893D01*
X79910308Y-55464365D01*
X79905094Y-55465762D01*
X79905083Y-55465764D01*
X79695736Y-55521858D01*
X79695724Y-55521862D01*
X79690504Y-55523261D01*
X79685599Y-55525547D01*
X79685594Y-55525550D01*
X79489176Y-55617142D01*
X79489172Y-55617144D01*
X79484266Y-55619432D01*
X79479833Y-55622535D01*
X79479826Y-55622540D01*
X79302296Y-55746847D01*
X79302291Y-55746850D01*
X79297861Y-55749953D01*
X79294037Y-55753776D01*
X79294031Y-55753782D01*
X79140782Y-55907031D01*
X79140776Y-55907037D01*
X79136953Y-55910861D01*
X79133850Y-55915291D01*
X79133847Y-55915296D01*
X79009540Y-56092826D01*
X79009535Y-56092833D01*
X79006432Y-56097266D01*
X79004148Y-56102163D01*
X79004141Y-56102176D01*
X78979382Y-56155274D01*
X78933625Y-56207450D01*
X78867000Y-56226869D01*
X78800375Y-56207450D01*
X78754618Y-56155274D01*
X78729858Y-56102176D01*
X78729855Y-56102172D01*
X78727568Y-56097266D01*
X78597047Y-55910861D01*
X78436139Y-55749953D01*
X78316038Y-55665858D01*
X78254173Y-55622540D01*
X78254171Y-55622539D01*
X78249734Y-55619432D01*
X78091809Y-55545790D01*
X78048405Y-55525550D01*
X78048403Y-55525549D01*
X78043496Y-55523261D01*
X78038271Y-55521861D01*
X78038263Y-55521858D01*
X77828916Y-55465764D01*
X77828907Y-55465762D01*
X77823692Y-55464365D01*
X77818304Y-55463893D01*
X77818301Y-55463893D01*
X77602395Y-55445004D01*
X77597000Y-55444532D01*
X77591605Y-55445004D01*
X77375698Y-55463893D01*
X77375693Y-55463893D01*
X77370308Y-55464365D01*
X77365094Y-55465762D01*
X77365083Y-55465764D01*
X77155736Y-55521858D01*
X77155724Y-55521862D01*
X77150504Y-55523261D01*
X77145599Y-55525547D01*
X77145594Y-55525550D01*
X76949176Y-55617142D01*
X76949172Y-55617144D01*
X76944266Y-55619432D01*
X76939833Y-55622535D01*
X76939826Y-55622540D01*
X76762296Y-55746847D01*
X76762291Y-55746850D01*
X76757861Y-55749953D01*
X76754037Y-55753776D01*
X76754031Y-55753782D01*
X76600782Y-55907031D01*
X76600776Y-55907037D01*
X76596953Y-55910861D01*
X76593850Y-55915291D01*
X76593847Y-55915296D01*
X76469540Y-56092826D01*
X76469535Y-56092833D01*
X76466432Y-56097266D01*
X76464144Y-56102172D01*
X76464142Y-56102176D01*
X76372550Y-56298594D01*
X76372547Y-56298599D01*
X76370261Y-56303504D01*
X76368862Y-56308724D01*
X76368858Y-56308736D01*
X76312764Y-56518083D01*
X76312762Y-56518094D01*
X76311365Y-56523308D01*
X76310893Y-56528693D01*
X76310893Y-56528698D01*
X76299250Y-56661782D01*
X76296500Y-56693216D01*
X76296500Y-57606784D01*
X76311365Y-57776692D01*
X76312762Y-57781907D01*
X76312764Y-57781916D01*
X76368858Y-57991263D01*
X76368861Y-57991271D01*
X76370261Y-57996496D01*
X76466432Y-58202734D01*
X76596953Y-58389139D01*
X76757861Y-58550047D01*
X76944266Y-58680568D01*
X77150504Y-58776739D01*
X77155734Y-58778140D01*
X77155736Y-58778141D01*
X77320936Y-58822406D01*
X77370308Y-58835635D01*
X77597000Y-58855468D01*
X77823692Y-58835635D01*
X78043496Y-58776739D01*
X78249734Y-58680568D01*
X78436139Y-58550047D01*
X78597047Y-58389139D01*
X78727568Y-58202734D01*
X78754618Y-58144724D01*
X78800375Y-58092549D01*
X78867000Y-58073130D01*
X78933625Y-58092549D01*
X78979381Y-58144724D01*
X79006432Y-58202734D01*
X79136953Y-58389139D01*
X79297861Y-58550047D01*
X79484266Y-58680568D01*
X79690504Y-58776739D01*
X79695734Y-58778140D01*
X79695736Y-58778141D01*
X79860936Y-58822406D01*
X79910308Y-58835635D01*
X80137000Y-58855468D01*
X80363692Y-58835635D01*
X80583496Y-58776739D01*
X80789734Y-58680568D01*
X80976139Y-58550047D01*
X81137047Y-58389139D01*
X81267568Y-58202734D01*
X81294618Y-58144724D01*
X81340375Y-58092549D01*
X81407000Y-58073130D01*
X81473625Y-58092549D01*
X81519381Y-58144724D01*
X81546432Y-58202734D01*
X81676953Y-58389139D01*
X81837861Y-58550047D01*
X82024266Y-58680568D01*
X82230504Y-58776739D01*
X82235734Y-58778140D01*
X82235736Y-58778141D01*
X82400936Y-58822406D01*
X82450308Y-58835635D01*
X82677000Y-58855468D01*
X82903692Y-58835635D01*
X83123496Y-58776739D01*
X83329734Y-58680568D01*
X83516139Y-58550047D01*
X83677047Y-58389139D01*
X83807568Y-58202734D01*
X83834618Y-58144724D01*
X83880375Y-58092549D01*
X83947000Y-58073130D01*
X84013625Y-58092549D01*
X84059381Y-58144724D01*
X84086432Y-58202734D01*
X84216953Y-58389139D01*
X84377861Y-58550047D01*
X84564266Y-58680568D01*
X84770504Y-58776739D01*
X84775734Y-58778140D01*
X84775736Y-58778141D01*
X84940936Y-58822406D01*
X84990308Y-58835635D01*
X85217000Y-58855468D01*
X85443692Y-58835635D01*
X85663496Y-58776739D01*
X85869734Y-58680568D01*
X86056139Y-58550047D01*
X86217047Y-58389139D01*
X86347568Y-58202734D01*
X86374618Y-58144724D01*
X86420375Y-58092549D01*
X86487000Y-58073130D01*
X86553625Y-58092549D01*
X86599381Y-58144724D01*
X86626432Y-58202734D01*
X86756953Y-58389139D01*
X86917861Y-58550047D01*
X87104266Y-58680568D01*
X87310504Y-58776739D01*
X87315734Y-58778140D01*
X87315736Y-58778141D01*
X87480936Y-58822406D01*
X87530308Y-58835635D01*
X87757000Y-58855468D01*
X87983692Y-58835635D01*
X88203496Y-58776739D01*
X88409734Y-58680568D01*
X88596139Y-58550047D01*
X88757047Y-58389139D01*
X88887568Y-58202734D01*
X88914618Y-58144724D01*
X88960375Y-58092549D01*
X89027000Y-58073130D01*
X89093625Y-58092549D01*
X89139381Y-58144724D01*
X89166432Y-58202734D01*
X89296953Y-58389139D01*
X89457861Y-58550047D01*
X89644266Y-58680568D01*
X89850504Y-58776739D01*
X89855734Y-58778140D01*
X89855736Y-58778141D01*
X90020936Y-58822406D01*
X90070308Y-58835635D01*
X90297000Y-58855468D01*
X90523692Y-58835635D01*
X90743496Y-58776739D01*
X90949734Y-58680568D01*
X91136139Y-58550047D01*
X91297047Y-58389139D01*
X91427568Y-58202734D01*
X91454618Y-58144724D01*
X91500375Y-58092549D01*
X91567000Y-58073130D01*
X91633625Y-58092549D01*
X91679381Y-58144724D01*
X91706432Y-58202734D01*
X91836953Y-58389139D01*
X91997861Y-58550047D01*
X92184266Y-58680568D01*
X92390504Y-58776739D01*
X92395734Y-58778140D01*
X92395736Y-58778141D01*
X92560936Y-58822406D01*
X92610308Y-58835635D01*
X92837000Y-58855468D01*
X93063692Y-58835635D01*
X93283496Y-58776739D01*
X93489734Y-58680568D01*
X93676139Y-58550047D01*
X93837047Y-58389139D01*
X93967568Y-58202734D01*
X93994618Y-58144724D01*
X94040375Y-58092549D01*
X94107000Y-58073130D01*
X94173625Y-58092549D01*
X94219381Y-58144724D01*
X94246432Y-58202734D01*
X94376953Y-58389139D01*
X94537861Y-58550047D01*
X94724266Y-58680568D01*
X94930504Y-58776739D01*
X94935734Y-58778140D01*
X94935736Y-58778141D01*
X95100936Y-58822406D01*
X95150308Y-58835635D01*
X95377000Y-58855468D01*
X95484907Y-58846027D01*
X95544164Y-58855412D01*
X95592080Y-58891519D01*
X95617436Y-58945895D01*
X95614296Y-59005809D01*
X95583395Y-59057236D01*
X93113358Y-61527272D01*
X93099730Y-61539050D01*
X93086263Y-61549076D01*
X93086257Y-61549081D01*
X93080470Y-61553390D01*
X93075832Y-61558916D01*
X93075830Y-61558919D01*
X93048633Y-61591330D01*
X93041350Y-61599280D01*
X93039969Y-61600661D01*
X93039955Y-61600676D01*
X93037409Y-61603223D01*
X93035173Y-61606050D01*
X93035171Y-61606053D01*
X93018176Y-61627546D01*
X93015902Y-61630337D01*
X92972339Y-61682254D01*
X92972335Y-61682258D01*
X92967698Y-61687786D01*
X92964460Y-61694230D01*
X92962537Y-61697155D01*
X92962352Y-61697411D01*
X92962192Y-61697698D01*
X92960363Y-61700663D01*
X92955889Y-61706323D01*
X92952839Y-61712862D01*
X92952838Y-61712865D01*
X92924192Y-61774294D01*
X92922623Y-61777536D01*
X92892196Y-61838122D01*
X92892194Y-61838127D01*
X92888960Y-61844567D01*
X92887296Y-61851584D01*
X92886109Y-61854847D01*
X92885977Y-61855163D01*
X92885888Y-61855480D01*
X92884791Y-61858787D01*
X92881743Y-61865327D01*
X92880284Y-61872390D01*
X92880283Y-61872395D01*
X92866574Y-61938787D01*
X92865794Y-61942306D01*
X92850164Y-62008255D01*
X92850163Y-62008260D01*
X92848500Y-62015279D01*
X92848500Y-62022491D01*
X92848097Y-62025939D01*
X92848043Y-62026273D01*
X92848028Y-62026626D01*
X92847726Y-62030070D01*
X92846266Y-62037144D01*
X92846476Y-62044360D01*
X92846476Y-62044361D01*
X92848448Y-62112130D01*
X92848500Y-62115737D01*
X92848500Y-63709300D01*
X92834489Y-63766557D01*
X92795624Y-63810873D01*
X92778763Y-63822679D01*
X92732033Y-63855399D01*
X92732023Y-63855406D01*
X92727599Y-63858505D01*
X92723775Y-63862328D01*
X92723769Y-63862334D01*
X92564334Y-64021769D01*
X92564328Y-64021775D01*
X92560505Y-64025599D01*
X92557402Y-64030029D01*
X92557399Y-64030034D01*
X92430575Y-64211159D01*
X92386257Y-64250025D01*
X92329000Y-64264036D01*
X92271743Y-64250025D01*
X92227425Y-64211159D01*
X92216327Y-64195310D01*
X92097495Y-64025599D01*
X91930401Y-63858505D01*
X91925970Y-63855402D01*
X91925966Y-63855399D01*
X91741259Y-63726066D01*
X91741257Y-63726064D01*
X91736830Y-63722965D01*
X91731933Y-63720681D01*
X91731927Y-63720678D01*
X91527572Y-63625386D01*
X91527570Y-63625385D01*
X91522663Y-63623097D01*
X91517438Y-63621697D01*
X91517430Y-63621694D01*
X91299634Y-63563337D01*
X91299630Y-63563336D01*
X91294408Y-63561937D01*
X91289020Y-63561465D01*
X91289017Y-63561465D01*
X91064395Y-63541813D01*
X91059000Y-63541341D01*
X91053605Y-63541813D01*
X90828982Y-63561465D01*
X90828977Y-63561465D01*
X90823592Y-63561937D01*
X90818371Y-63563335D01*
X90818365Y-63563337D01*
X90600569Y-63621694D01*
X90600557Y-63621698D01*
X90595337Y-63623097D01*
X90590432Y-63625383D01*
X90590427Y-63625386D01*
X90386081Y-63720675D01*
X90386077Y-63720677D01*
X90381171Y-63722965D01*
X90376738Y-63726068D01*
X90376731Y-63726073D01*
X90192034Y-63855399D01*
X90192029Y-63855402D01*
X90187599Y-63858505D01*
X90183775Y-63862328D01*
X90183769Y-63862334D01*
X90024334Y-64021769D01*
X90024328Y-64021775D01*
X90020505Y-64025599D01*
X90017402Y-64030029D01*
X90017399Y-64030034D01*
X89888073Y-64214731D01*
X89888068Y-64214738D01*
X89884965Y-64219171D01*
X89882677Y-64224077D01*
X89882675Y-64224081D01*
X89787386Y-64428427D01*
X89787383Y-64428432D01*
X89785097Y-64433337D01*
X89783698Y-64438557D01*
X89783694Y-64438569D01*
X89725337Y-64656365D01*
X89725335Y-64656371D01*
X89723937Y-64661592D01*
X89723465Y-64666977D01*
X89723465Y-64666982D01*
X89714452Y-64770000D01*
X89703341Y-64897000D01*
X89703813Y-64902395D01*
X89722702Y-65118301D01*
X89723937Y-65132408D01*
X89725336Y-65137630D01*
X89725337Y-65137634D01*
X89783694Y-65355430D01*
X89783697Y-65355438D01*
X89785097Y-65360663D01*
X89787385Y-65365570D01*
X89787386Y-65365572D01*
X89882678Y-65569927D01*
X89882681Y-65569933D01*
X89884965Y-65574830D01*
X89888064Y-65579257D01*
X89888066Y-65579259D01*
X90017399Y-65763966D01*
X90017402Y-65763970D01*
X90020505Y-65768401D01*
X90187599Y-65935495D01*
X90192031Y-65938598D01*
X90192033Y-65938600D01*
X90321742Y-66029423D01*
X90381170Y-66071035D01*
X90595337Y-66170903D01*
X90823592Y-66232063D01*
X91059000Y-66252659D01*
X91294408Y-66232063D01*
X91522663Y-66170903D01*
X91736830Y-66071035D01*
X91930401Y-65935495D01*
X92097495Y-65768401D01*
X92154795Y-65686569D01*
X92227425Y-65582842D01*
X92271743Y-65543976D01*
X92329000Y-65529965D01*
X92386257Y-65543976D01*
X92430575Y-65582842D01*
X92557395Y-65763961D01*
X92557401Y-65763968D01*
X92560505Y-65768401D01*
X92727599Y-65935495D01*
X92732031Y-65938598D01*
X92732033Y-65938600D01*
X92861742Y-66029423D01*
X92921170Y-66071035D01*
X93135337Y-66170903D01*
X93363592Y-66232063D01*
X93599000Y-66252659D01*
X93834408Y-66232063D01*
X94062663Y-66170903D01*
X94276830Y-66071035D01*
X94470401Y-65935495D01*
X94637495Y-65768401D01*
X94694795Y-65686569D01*
X94767425Y-65582842D01*
X94811743Y-65543976D01*
X94869000Y-65529965D01*
X94926257Y-65543976D01*
X94970575Y-65582842D01*
X95097395Y-65763961D01*
X95097401Y-65763968D01*
X95100505Y-65768401D01*
X95267599Y-65935495D01*
X95272031Y-65938598D01*
X95272033Y-65938600D01*
X95401742Y-66029423D01*
X95461170Y-66071035D01*
X95675337Y-66170903D01*
X95903592Y-66232063D01*
X96139000Y-66252659D01*
X96374408Y-66232063D01*
X96602663Y-66170903D01*
X96816830Y-66071035D01*
X97010401Y-65935495D01*
X97132717Y-65813178D01*
X97185460Y-65781885D01*
X97246753Y-65779696D01*
X97301597Y-65807149D01*
X97336577Y-65857528D01*
X97382548Y-65980779D01*
X97390962Y-65996189D01*
X97466498Y-66097092D01*
X97478907Y-66109501D01*
X97579810Y-66185037D01*
X97595222Y-66193452D01*
X97714358Y-66237888D01*
X97729332Y-66241426D01*
X97777885Y-66246646D01*
X97784482Y-66247000D01*
X98412674Y-66247000D01*
X98425549Y-66243549D01*
X98429000Y-66230674D01*
X98929000Y-66230674D01*
X98932450Y-66243549D01*
X98945326Y-66247000D01*
X99573518Y-66247000D01*
X99580114Y-66246646D01*
X99628667Y-66241426D01*
X99643641Y-66237888D01*
X99762777Y-66193452D01*
X99778189Y-66185037D01*
X99879092Y-66109501D01*
X99891501Y-66097092D01*
X99967037Y-65996189D01*
X99975452Y-65980777D01*
X99977345Y-65975703D01*
X101132217Y-65975703D01*
X101139650Y-65983814D01*
X101197077Y-66024025D01*
X101206427Y-66029423D01*
X101402768Y-66120979D01*
X101412902Y-66124667D01*
X101622162Y-66180739D01*
X101632793Y-66182613D01*
X101848605Y-66201494D01*
X101859395Y-66201494D01*
X102075206Y-66182613D01*
X102085837Y-66180739D01*
X102295097Y-66124667D01*
X102305231Y-66120979D01*
X102501575Y-66029422D01*
X102510920Y-66024026D01*
X102568348Y-65983814D01*
X102575780Y-65975703D01*
X102569867Y-65966421D01*
X101865542Y-65262095D01*
X101854000Y-65255431D01*
X101842457Y-65262095D01*
X101138128Y-65966424D01*
X101132217Y-65975703D01*
X99977345Y-65975703D01*
X100019888Y-65861641D01*
X100023426Y-65846667D01*
X100028646Y-65798114D01*
X100029000Y-65791518D01*
X100029000Y-65163326D01*
X100025549Y-65150450D01*
X100012674Y-65147000D01*
X98945326Y-65147000D01*
X98932450Y-65150450D01*
X98929000Y-65163326D01*
X98929000Y-66230674D01*
X98429000Y-66230674D01*
X98429000Y-64902395D01*
X100549506Y-64902395D01*
X100568386Y-65118206D01*
X100570260Y-65128837D01*
X100626332Y-65338097D01*
X100630020Y-65348231D01*
X100721576Y-65544572D01*
X100726974Y-65553922D01*
X100767184Y-65611348D01*
X100775295Y-65618781D01*
X100784574Y-65612870D01*
X101488903Y-64908541D01*
X101495566Y-64896999D01*
X102212431Y-64896999D01*
X102219095Y-64908542D01*
X102923421Y-65612867D01*
X102932703Y-65618780D01*
X102940814Y-65611348D01*
X102981026Y-65553920D01*
X102986422Y-65544575D01*
X103077979Y-65348231D01*
X103081667Y-65338097D01*
X103137739Y-65128837D01*
X103139613Y-65118206D01*
X103158494Y-64902395D01*
X103158494Y-64897000D01*
X110708532Y-64897000D01*
X110709004Y-64902395D01*
X110720498Y-65033780D01*
X110728365Y-65123692D01*
X110729762Y-65128907D01*
X110729764Y-65128916D01*
X110785858Y-65338263D01*
X110785861Y-65338271D01*
X110787261Y-65343496D01*
X110883432Y-65549734D01*
X111013953Y-65736139D01*
X111174861Y-65897047D01*
X111361266Y-66027568D01*
X111567504Y-66123739D01*
X111572734Y-66125140D01*
X111572736Y-66125141D01*
X111734977Y-66168613D01*
X111787308Y-66182635D01*
X112014000Y-66202468D01*
X112240692Y-66182635D01*
X112460496Y-66123739D01*
X112666734Y-66027568D01*
X112853139Y-65897047D01*
X113014047Y-65736139D01*
X113144568Y-65549734D01*
X113240739Y-65343496D01*
X113299635Y-65123692D01*
X113308484Y-65022551D01*
X113973688Y-65022551D01*
X113974056Y-65033780D01*
X114026168Y-65228263D01*
X114029856Y-65238397D01*
X114125113Y-65442676D01*
X114130501Y-65452008D01*
X114259784Y-65636643D01*
X114266721Y-65644909D01*
X114426090Y-65804278D01*
X114434356Y-65811215D01*
X114618991Y-65940498D01*
X114628323Y-65945886D01*
X114832602Y-66041143D01*
X114842736Y-66044831D01*
X115037219Y-66096943D01*
X115048448Y-66097311D01*
X115051000Y-66086369D01*
X115551000Y-66086369D01*
X115553551Y-66097311D01*
X115564780Y-66096943D01*
X115759263Y-66044831D01*
X115769397Y-66041143D01*
X115973676Y-65945886D01*
X115983008Y-65940498D01*
X116167643Y-65811215D01*
X116175909Y-65804278D01*
X116335278Y-65644909D01*
X116342219Y-65636638D01*
X116469119Y-65455406D01*
X116513437Y-65416540D01*
X116570694Y-65402529D01*
X116627951Y-65416540D01*
X116672269Y-65455405D01*
X116799399Y-65636966D01*
X116799402Y-65636970D01*
X116802505Y-65641401D01*
X116969599Y-65808495D01*
X116974031Y-65811598D01*
X116974033Y-65811600D01*
X117090594Y-65893217D01*
X117163170Y-65944035D01*
X117377337Y-66043903D01*
X117605592Y-66105063D01*
X117841000Y-66125659D01*
X118076408Y-66105063D01*
X118304663Y-66043903D01*
X118518830Y-65944035D01*
X118712401Y-65808495D01*
X118834329Y-65686566D01*
X118887072Y-65655273D01*
X118948365Y-65653084D01*
X119003210Y-65680537D01*
X119038189Y-65730916D01*
X119050514Y-65763961D01*
X119087204Y-65862331D01*
X119092518Y-65869430D01*
X119092519Y-65869431D01*
X119148367Y-65944035D01*
X119173454Y-65977546D01*
X119288669Y-66063796D01*
X119423517Y-66114091D01*
X119483127Y-66120500D01*
X121278872Y-66120499D01*
X121338483Y-66114091D01*
X121473331Y-66063796D01*
X121588546Y-65977546D01*
X121674796Y-65862331D01*
X121725091Y-65727483D01*
X121731500Y-65667873D01*
X121731499Y-64135000D01*
X124043532Y-64135000D01*
X124044004Y-64140395D01*
X124053091Y-64244266D01*
X124063365Y-64361692D01*
X124064762Y-64366907D01*
X124064764Y-64366916D01*
X124120858Y-64576263D01*
X124120861Y-64576271D01*
X124122261Y-64581496D01*
X124124549Y-64586403D01*
X124124550Y-64586405D01*
X124161275Y-64665162D01*
X124218432Y-64787734D01*
X124348953Y-64974139D01*
X124509861Y-65135047D01*
X124696266Y-65265568D01*
X124902504Y-65361739D01*
X125122308Y-65420635D01*
X125292216Y-65435500D01*
X125403075Y-65435500D01*
X125405784Y-65435500D01*
X125575692Y-65420635D01*
X125795496Y-65361739D01*
X126001734Y-65265568D01*
X126188139Y-65135047D01*
X126349047Y-64974139D01*
X126479568Y-64787734D01*
X126575739Y-64581496D01*
X126634635Y-64361692D01*
X126654468Y-64135000D01*
X126634635Y-63908308D01*
X126632618Y-63900782D01*
X126577141Y-63693736D01*
X126577140Y-63693734D01*
X126575739Y-63688504D01*
X126479568Y-63482266D01*
X126349047Y-63295861D01*
X126188139Y-63134953D01*
X126001734Y-63004432D01*
X125795496Y-62908261D01*
X125790271Y-62906861D01*
X125790263Y-62906858D01*
X125580916Y-62850764D01*
X125580907Y-62850762D01*
X125575692Y-62849365D01*
X125570304Y-62848893D01*
X125570301Y-62848893D01*
X125408484Y-62834736D01*
X125408479Y-62834735D01*
X125405784Y-62834500D01*
X125292216Y-62834500D01*
X125289521Y-62834735D01*
X125289515Y-62834736D01*
X125127698Y-62848893D01*
X125127693Y-62848893D01*
X125122308Y-62849365D01*
X125117094Y-62850762D01*
X125117083Y-62850764D01*
X124907736Y-62906858D01*
X124907724Y-62906862D01*
X124902504Y-62908261D01*
X124897599Y-62910547D01*
X124897594Y-62910550D01*
X124701176Y-63002142D01*
X124701172Y-63002144D01*
X124696266Y-63004432D01*
X124691833Y-63007535D01*
X124691826Y-63007540D01*
X124514296Y-63131847D01*
X124514291Y-63131850D01*
X124509861Y-63134953D01*
X124506037Y-63138776D01*
X124506031Y-63138782D01*
X124352782Y-63292031D01*
X124352776Y-63292037D01*
X124348953Y-63295861D01*
X124345850Y-63300291D01*
X124345847Y-63300296D01*
X124221540Y-63477826D01*
X124221535Y-63477833D01*
X124218432Y-63482266D01*
X124216144Y-63487172D01*
X124216142Y-63487176D01*
X124124550Y-63683594D01*
X124124547Y-63683599D01*
X124122261Y-63688504D01*
X124120862Y-63693724D01*
X124120858Y-63693736D01*
X124064764Y-63903083D01*
X124064762Y-63903094D01*
X124063365Y-63908308D01*
X124062893Y-63913693D01*
X124062893Y-63913698D01*
X124044542Y-64123461D01*
X124043532Y-64135000D01*
X121731499Y-64135000D01*
X121731499Y-63872128D01*
X121725091Y-63812517D01*
X121674796Y-63677669D01*
X121588546Y-63562454D01*
X121498030Y-63494694D01*
X121480431Y-63481519D01*
X121480430Y-63481518D01*
X121473331Y-63476204D01*
X121366442Y-63436337D01*
X121345752Y-63428620D01*
X121345750Y-63428619D01*
X121338483Y-63425909D01*
X121330770Y-63425079D01*
X121330767Y-63425079D01*
X121282180Y-63419855D01*
X121282169Y-63419854D01*
X121278873Y-63419500D01*
X121275550Y-63419500D01*
X119486439Y-63419500D01*
X119486420Y-63419500D01*
X119483128Y-63419501D01*
X119479850Y-63419853D01*
X119479838Y-63419854D01*
X119431231Y-63425079D01*
X119431225Y-63425080D01*
X119423517Y-63425909D01*
X119416252Y-63428618D01*
X119416246Y-63428620D01*
X119296980Y-63473104D01*
X119296978Y-63473104D01*
X119288669Y-63476204D01*
X119281572Y-63481516D01*
X119281568Y-63481519D01*
X119180550Y-63557141D01*
X119180546Y-63557144D01*
X119173454Y-63562454D01*
X119168144Y-63569546D01*
X119168141Y-63569550D01*
X119092519Y-63670568D01*
X119092516Y-63670572D01*
X119087204Y-63677669D01*
X119084104Y-63685978D01*
X119084105Y-63685978D01*
X119038189Y-63809083D01*
X119003210Y-63859462D01*
X118948365Y-63886915D01*
X118887072Y-63884726D01*
X118834326Y-63853430D01*
X118716232Y-63735336D01*
X118716230Y-63735334D01*
X118712401Y-63731505D01*
X118707970Y-63728402D01*
X118707966Y-63728399D01*
X118523259Y-63599066D01*
X118523257Y-63599064D01*
X118518830Y-63595965D01*
X118513933Y-63593681D01*
X118513927Y-63593678D01*
X118309572Y-63498386D01*
X118309570Y-63498385D01*
X118304663Y-63496097D01*
X118299438Y-63494697D01*
X118299430Y-63494694D01*
X118081634Y-63436337D01*
X118081630Y-63436336D01*
X118076408Y-63434937D01*
X118071020Y-63434465D01*
X118071017Y-63434465D01*
X117846395Y-63414813D01*
X117841000Y-63414341D01*
X117835605Y-63414813D01*
X117610982Y-63434465D01*
X117610977Y-63434465D01*
X117605592Y-63434937D01*
X117600371Y-63436335D01*
X117600365Y-63436337D01*
X117382569Y-63494694D01*
X117382557Y-63494698D01*
X117377337Y-63496097D01*
X117372432Y-63498383D01*
X117372427Y-63498386D01*
X117168081Y-63593675D01*
X117168077Y-63593677D01*
X117163171Y-63595965D01*
X117158738Y-63599068D01*
X117158731Y-63599073D01*
X116974034Y-63728399D01*
X116974029Y-63728402D01*
X116969599Y-63731505D01*
X116965775Y-63735328D01*
X116965769Y-63735334D01*
X116806334Y-63894769D01*
X116806328Y-63894775D01*
X116802505Y-63898599D01*
X116799403Y-63903028D01*
X116799403Y-63903029D01*
X116672269Y-64084596D01*
X116627951Y-64123461D01*
X116570694Y-64137472D01*
X116513437Y-64123461D01*
X116469119Y-64084595D01*
X116342215Y-63903357D01*
X116335280Y-63895092D01*
X116175909Y-63735721D01*
X116167643Y-63728784D01*
X115983008Y-63599501D01*
X115973676Y-63594113D01*
X115769397Y-63498856D01*
X115759263Y-63495168D01*
X115564780Y-63443056D01*
X115553551Y-63442688D01*
X115551000Y-63453631D01*
X115551000Y-66086369D01*
X115051000Y-66086369D01*
X115051000Y-65036326D01*
X115047549Y-65023450D01*
X115034674Y-65020000D01*
X113984631Y-65020000D01*
X113973688Y-65022551D01*
X113308484Y-65022551D01*
X113319468Y-64897000D01*
X113299635Y-64670308D01*
X113259360Y-64520000D01*
X113258676Y-64517448D01*
X113973688Y-64517448D01*
X113984631Y-64520000D01*
X115034674Y-64520000D01*
X115047549Y-64516549D01*
X115051000Y-64503674D01*
X115051000Y-63453631D01*
X115048448Y-63442688D01*
X115037219Y-63443056D01*
X114842736Y-63495168D01*
X114832602Y-63498856D01*
X114628332Y-63594110D01*
X114618982Y-63599508D01*
X114434357Y-63728784D01*
X114426092Y-63735719D01*
X114266719Y-63895092D01*
X114259784Y-63903357D01*
X114130508Y-64087982D01*
X114125110Y-64097332D01*
X114029856Y-64301602D01*
X114026168Y-64311736D01*
X113974056Y-64506219D01*
X113973688Y-64517448D01*
X113258676Y-64517448D01*
X113242141Y-64455736D01*
X113242140Y-64455734D01*
X113240739Y-64450504D01*
X113144568Y-64244266D01*
X113014047Y-64057861D01*
X112853139Y-63896953D01*
X112729219Y-63810184D01*
X112671173Y-63769540D01*
X112671171Y-63769539D01*
X112666734Y-63766432D01*
X112568615Y-63720678D01*
X112465405Y-63672550D01*
X112465403Y-63672549D01*
X112460496Y-63670261D01*
X112455271Y-63668861D01*
X112455263Y-63668858D01*
X112245916Y-63612764D01*
X112245907Y-63612762D01*
X112240692Y-63611365D01*
X112235304Y-63610893D01*
X112235301Y-63610893D01*
X112019395Y-63592004D01*
X112014000Y-63591532D01*
X112008605Y-63592004D01*
X111792698Y-63610893D01*
X111792693Y-63610893D01*
X111787308Y-63611365D01*
X111782094Y-63612762D01*
X111782083Y-63612764D01*
X111572736Y-63668858D01*
X111572724Y-63668862D01*
X111567504Y-63670261D01*
X111562599Y-63672547D01*
X111562594Y-63672550D01*
X111366176Y-63764142D01*
X111366172Y-63764144D01*
X111361266Y-63766432D01*
X111356833Y-63769535D01*
X111356826Y-63769540D01*
X111179296Y-63893847D01*
X111179291Y-63893850D01*
X111174861Y-63896953D01*
X111171037Y-63900776D01*
X111171031Y-63900782D01*
X111017782Y-64054031D01*
X111017776Y-64054037D01*
X111013953Y-64057861D01*
X111010850Y-64062291D01*
X111010847Y-64062296D01*
X110886540Y-64239826D01*
X110886535Y-64239833D01*
X110883432Y-64244266D01*
X110881144Y-64249172D01*
X110881142Y-64249176D01*
X110789550Y-64445594D01*
X110789547Y-64445599D01*
X110787261Y-64450504D01*
X110785862Y-64455724D01*
X110785858Y-64455736D01*
X110729764Y-64665083D01*
X110729762Y-64665094D01*
X110728365Y-64670308D01*
X110727893Y-64675693D01*
X110727893Y-64675698D01*
X110717703Y-64792173D01*
X110708532Y-64897000D01*
X103158494Y-64897000D01*
X103158494Y-64891605D01*
X103139613Y-64675793D01*
X103137739Y-64665162D01*
X103081667Y-64455902D01*
X103077979Y-64445768D01*
X102986423Y-64249427D01*
X102981025Y-64240077D01*
X102940814Y-64182650D01*
X102932703Y-64175217D01*
X102923424Y-64181128D01*
X102219095Y-64885457D01*
X102212431Y-64896999D01*
X101495566Y-64896999D01*
X101495567Y-64896998D01*
X101488903Y-64885456D01*
X100784574Y-64181128D01*
X100775296Y-64175217D01*
X100767183Y-64182651D01*
X100726971Y-64240081D01*
X100721577Y-64249425D01*
X100630020Y-64445768D01*
X100626332Y-64455902D01*
X100570260Y-64665162D01*
X100568386Y-64675793D01*
X100549506Y-64891605D01*
X100549506Y-64902395D01*
X98429000Y-64902395D01*
X98429000Y-64630674D01*
X98929000Y-64630674D01*
X98932450Y-64643549D01*
X98945326Y-64647000D01*
X100012674Y-64647000D01*
X100025549Y-64643549D01*
X100029000Y-64630674D01*
X100029000Y-64002482D01*
X100028646Y-63995885D01*
X100023426Y-63947332D01*
X100019888Y-63932358D01*
X99977345Y-63818296D01*
X101132217Y-63818296D01*
X101138128Y-63827574D01*
X101842457Y-64531903D01*
X101854000Y-64538567D01*
X101865542Y-64531903D01*
X102569870Y-63827574D01*
X102575781Y-63818295D01*
X102568348Y-63810184D01*
X102510922Y-63769974D01*
X102501572Y-63764576D01*
X102305231Y-63673020D01*
X102295097Y-63669332D01*
X102085837Y-63613260D01*
X102075206Y-63611386D01*
X101859395Y-63592506D01*
X101848605Y-63592506D01*
X101632793Y-63611386D01*
X101622162Y-63613260D01*
X101412902Y-63669332D01*
X101402768Y-63673020D01*
X101206425Y-63764577D01*
X101197081Y-63769971D01*
X101139651Y-63810183D01*
X101132217Y-63818296D01*
X99977345Y-63818296D01*
X99975452Y-63813222D01*
X99967037Y-63797810D01*
X99891501Y-63696907D01*
X99879092Y-63684498D01*
X99778189Y-63608962D01*
X99762777Y-63600547D01*
X99643641Y-63556111D01*
X99628667Y-63552573D01*
X99580114Y-63547353D01*
X99573518Y-63547000D01*
X98945326Y-63547000D01*
X98932450Y-63550450D01*
X98929000Y-63563326D01*
X98929000Y-64630674D01*
X98429000Y-64630674D01*
X98429000Y-63563326D01*
X98425549Y-63550450D01*
X98412674Y-63547000D01*
X97784482Y-63547000D01*
X97777885Y-63547353D01*
X97729332Y-63552573D01*
X97714358Y-63556111D01*
X97595222Y-63600547D01*
X97579810Y-63608962D01*
X97478907Y-63684498D01*
X97466498Y-63696907D01*
X97390962Y-63797810D01*
X97382544Y-63813226D01*
X97336576Y-63936471D01*
X97301597Y-63986850D01*
X97246753Y-64014303D01*
X97185460Y-64012114D01*
X97132714Y-63980818D01*
X97014232Y-63862336D01*
X97014230Y-63862334D01*
X97010401Y-63858505D01*
X97005970Y-63855402D01*
X97005966Y-63855399D01*
X96821259Y-63726066D01*
X96821257Y-63726064D01*
X96816830Y-63722965D01*
X96811933Y-63720681D01*
X96811927Y-63720678D01*
X96607572Y-63625386D01*
X96607570Y-63625385D01*
X96602663Y-63623097D01*
X96597438Y-63621697D01*
X96597430Y-63621694D01*
X96379634Y-63563337D01*
X96379630Y-63563336D01*
X96374408Y-63561937D01*
X96369020Y-63561465D01*
X96369017Y-63561465D01*
X96144395Y-63541813D01*
X96139000Y-63541341D01*
X96133605Y-63541813D01*
X95908982Y-63561465D01*
X95908977Y-63561465D01*
X95903592Y-63561937D01*
X95898371Y-63563335D01*
X95898365Y-63563337D01*
X95680569Y-63621694D01*
X95680557Y-63621698D01*
X95675337Y-63623097D01*
X95670432Y-63625383D01*
X95670427Y-63625386D01*
X95466081Y-63720675D01*
X95466077Y-63720677D01*
X95461171Y-63722965D01*
X95456738Y-63726068D01*
X95456731Y-63726073D01*
X95272034Y-63855399D01*
X95272029Y-63855402D01*
X95267599Y-63858505D01*
X95263775Y-63862328D01*
X95263769Y-63862334D01*
X95104334Y-64021769D01*
X95104328Y-64021775D01*
X95100505Y-64025599D01*
X95097402Y-64030029D01*
X95097399Y-64030034D01*
X94970575Y-64211159D01*
X94926257Y-64250025D01*
X94869000Y-64264036D01*
X94811743Y-64250025D01*
X94767425Y-64211159D01*
X94756327Y-64195310D01*
X94637495Y-64025599D01*
X94470401Y-63858505D01*
X94465970Y-63855402D01*
X94465966Y-63855399D01*
X94402376Y-63810873D01*
X94363511Y-63766555D01*
X94349500Y-63709298D01*
X94349500Y-62465230D01*
X94358939Y-62417777D01*
X94385819Y-62377549D01*
X94933263Y-61830105D01*
X95676367Y-61087000D01*
X97754532Y-61087000D01*
X97755004Y-61092395D01*
X97755644Y-61099716D01*
X97774365Y-61313692D01*
X97775762Y-61318907D01*
X97775764Y-61318916D01*
X97831858Y-61528263D01*
X97831861Y-61528271D01*
X97833261Y-61533496D01*
X97835549Y-61538403D01*
X97835550Y-61538405D01*
X97877501Y-61628368D01*
X97929432Y-61739734D01*
X98059953Y-61926139D01*
X98220861Y-62087047D01*
X98407266Y-62217568D01*
X98613504Y-62313739D01*
X98618734Y-62315140D01*
X98618736Y-62315141D01*
X98676042Y-62330496D01*
X98833308Y-62372635D01*
X99060000Y-62392468D01*
X99286692Y-62372635D01*
X99506496Y-62313739D01*
X99712734Y-62217568D01*
X99899139Y-62087047D01*
X100060047Y-61926139D01*
X100164925Y-61776355D01*
X100209243Y-61737490D01*
X100266500Y-61723479D01*
X100323757Y-61737490D01*
X100368074Y-61776355D01*
X100472953Y-61926139D01*
X100633861Y-62087047D01*
X100820266Y-62217568D01*
X101026504Y-62313739D01*
X101031734Y-62315140D01*
X101031736Y-62315141D01*
X101089042Y-62330496D01*
X101246308Y-62372635D01*
X101473000Y-62392468D01*
X101699692Y-62372635D01*
X101919496Y-62313739D01*
X102125734Y-62217568D01*
X102312139Y-62087047D01*
X102473047Y-61926139D01*
X102603568Y-61739734D01*
X102699739Y-61533496D01*
X102758635Y-61313692D01*
X102778468Y-61087000D01*
X102758635Y-60860308D01*
X102699739Y-60640504D01*
X102603568Y-60434266D01*
X102473047Y-60247861D01*
X102312139Y-60086953D01*
X102188219Y-60000184D01*
X102130173Y-59959540D01*
X102130171Y-59959539D01*
X102125734Y-59956432D01*
X101919496Y-59860261D01*
X101914271Y-59858861D01*
X101914263Y-59858858D01*
X101704916Y-59802764D01*
X101704907Y-59802762D01*
X101699692Y-59801365D01*
X101694304Y-59800893D01*
X101694301Y-59800893D01*
X101478395Y-59782004D01*
X101473000Y-59781532D01*
X101467605Y-59782004D01*
X101251698Y-59800893D01*
X101251693Y-59800893D01*
X101246308Y-59801365D01*
X101241094Y-59802762D01*
X101241083Y-59802764D01*
X101031736Y-59858858D01*
X101031724Y-59858862D01*
X101026504Y-59860261D01*
X101021599Y-59862547D01*
X101021594Y-59862550D01*
X100825176Y-59954142D01*
X100825172Y-59954144D01*
X100820266Y-59956432D01*
X100815833Y-59959535D01*
X100815826Y-59959540D01*
X100638296Y-60083847D01*
X100638291Y-60083850D01*
X100633861Y-60086953D01*
X100630037Y-60090776D01*
X100630031Y-60090782D01*
X100476782Y-60244031D01*
X100476776Y-60244037D01*
X100472953Y-60247861D01*
X100469850Y-60252291D01*
X100469847Y-60252296D01*
X100368075Y-60397643D01*
X100323757Y-60436509D01*
X100266500Y-60450520D01*
X100209243Y-60436509D01*
X100164925Y-60397643D01*
X100063152Y-60252296D01*
X100060047Y-60247861D01*
X99899139Y-60086953D01*
X99775219Y-60000184D01*
X99717173Y-59959540D01*
X99717171Y-59959539D01*
X99712734Y-59956432D01*
X99506496Y-59860261D01*
X99501271Y-59858861D01*
X99501263Y-59858858D01*
X99291916Y-59802764D01*
X99291907Y-59802762D01*
X99286692Y-59801365D01*
X99281304Y-59800893D01*
X99281301Y-59800893D01*
X99065395Y-59782004D01*
X99060000Y-59781532D01*
X99054605Y-59782004D01*
X98838698Y-59800893D01*
X98838693Y-59800893D01*
X98833308Y-59801365D01*
X98828094Y-59802762D01*
X98828083Y-59802764D01*
X98618736Y-59858858D01*
X98618724Y-59858862D01*
X98613504Y-59860261D01*
X98608599Y-59862547D01*
X98608594Y-59862550D01*
X98412176Y-59954142D01*
X98412172Y-59954144D01*
X98407266Y-59956432D01*
X98402833Y-59959535D01*
X98402826Y-59959540D01*
X98225296Y-60083847D01*
X98225291Y-60083850D01*
X98220861Y-60086953D01*
X98217037Y-60090776D01*
X98217031Y-60090782D01*
X98063782Y-60244031D01*
X98063776Y-60244037D01*
X98059953Y-60247861D01*
X98056850Y-60252291D01*
X98056847Y-60252296D01*
X97932540Y-60429826D01*
X97932535Y-60429833D01*
X97929432Y-60434266D01*
X97927144Y-60439172D01*
X97927142Y-60439176D01*
X97835550Y-60635594D01*
X97835547Y-60635599D01*
X97833261Y-60640504D01*
X97831862Y-60645724D01*
X97831858Y-60645736D01*
X97775764Y-60855083D01*
X97775762Y-60855094D01*
X97774365Y-60860308D01*
X97773893Y-60865693D01*
X97773893Y-60865698D01*
X97762354Y-60997593D01*
X97754532Y-61087000D01*
X95676367Y-61087000D01*
X97713127Y-59050238D01*
X97774448Y-59016755D01*
X97844139Y-59021739D01*
X97925517Y-59052091D01*
X97985127Y-59058500D01*
X99880872Y-59058499D01*
X99940483Y-59052091D01*
X100075331Y-59001796D01*
X100190546Y-58915546D01*
X100276796Y-58800331D01*
X100327091Y-58665483D01*
X100333500Y-58605873D01*
X100333499Y-57658000D01*
X101564532Y-57658000D01*
X101565004Y-57663395D01*
X101581333Y-57850042D01*
X101584365Y-57884692D01*
X101585762Y-57889907D01*
X101585764Y-57889916D01*
X101641858Y-58099263D01*
X101641861Y-58099271D01*
X101643261Y-58104496D01*
X101739432Y-58310734D01*
X101742539Y-58315171D01*
X101742540Y-58315173D01*
X101791225Y-58384703D01*
X101869953Y-58497139D01*
X102030861Y-58658047D01*
X102217266Y-58788568D01*
X102423504Y-58884739D01*
X102428734Y-58886140D01*
X102428736Y-58886141D01*
X102638083Y-58942235D01*
X102643308Y-58943635D01*
X102870000Y-58963468D01*
X103096692Y-58943635D01*
X103316496Y-58884739D01*
X103522734Y-58788568D01*
X103709139Y-58658047D01*
X103870047Y-58497139D01*
X104000568Y-58310734D01*
X104096739Y-58104496D01*
X104155635Y-57884692D01*
X104175468Y-57658000D01*
X104155635Y-57431308D01*
X104154235Y-57426083D01*
X104098141Y-57216736D01*
X104098140Y-57216734D01*
X104096739Y-57211504D01*
X104000568Y-57005266D01*
X103870047Y-56818861D01*
X103709139Y-56657953D01*
X103580065Y-56567575D01*
X103527173Y-56530540D01*
X103527171Y-56530539D01*
X103522734Y-56527432D01*
X103316496Y-56431261D01*
X103311271Y-56429861D01*
X103311263Y-56429858D01*
X103101916Y-56373764D01*
X103101907Y-56373762D01*
X103096692Y-56372365D01*
X103091304Y-56371893D01*
X103091301Y-56371893D01*
X102875395Y-56353004D01*
X102870000Y-56352532D01*
X102864605Y-56353004D01*
X102648698Y-56371893D01*
X102648693Y-56371893D01*
X102643308Y-56372365D01*
X102638094Y-56373762D01*
X102638083Y-56373764D01*
X102428736Y-56429858D01*
X102428724Y-56429862D01*
X102423504Y-56431261D01*
X102418599Y-56433547D01*
X102418594Y-56433550D01*
X102222176Y-56525142D01*
X102222172Y-56525144D01*
X102217266Y-56527432D01*
X102212833Y-56530535D01*
X102212826Y-56530540D01*
X102035296Y-56654847D01*
X102035291Y-56654850D01*
X102030861Y-56657953D01*
X102027037Y-56661776D01*
X102027031Y-56661782D01*
X101873782Y-56815031D01*
X101873776Y-56815037D01*
X101869953Y-56818861D01*
X101866850Y-56823291D01*
X101866847Y-56823296D01*
X101742540Y-57000826D01*
X101742535Y-57000833D01*
X101739432Y-57005266D01*
X101737144Y-57010172D01*
X101737142Y-57010176D01*
X101645550Y-57206594D01*
X101645547Y-57206599D01*
X101643261Y-57211504D01*
X101641862Y-57216724D01*
X101641858Y-57216736D01*
X101585764Y-57426083D01*
X101585762Y-57426094D01*
X101584365Y-57431308D01*
X101583893Y-57436693D01*
X101583893Y-57436698D01*
X101577896Y-57505246D01*
X101564532Y-57658000D01*
X100333499Y-57658000D01*
X100333499Y-56710128D01*
X100327091Y-56650517D01*
X100276796Y-56515669D01*
X100190546Y-56400454D01*
X100152393Y-56371893D01*
X100082431Y-56319519D01*
X100082430Y-56319518D01*
X100075331Y-56314204D01*
X99940483Y-56263909D01*
X99932770Y-56263079D01*
X99932767Y-56263079D01*
X99884180Y-56257855D01*
X99884169Y-56257854D01*
X99880873Y-56257500D01*
X99877551Y-56257500D01*
X99505591Y-56257500D01*
X99449296Y-56243985D01*
X99405273Y-56206385D01*
X99383118Y-56152898D01*
X99387660Y-56095182D01*
X99388426Y-56092826D01*
X99434522Y-55950955D01*
X99464769Y-55901597D01*
X99842548Y-55523819D01*
X99882777Y-55496939D01*
X99930230Y-55487500D01*
X105374529Y-55487500D01*
X105439696Y-55506005D01*
X105485413Y-55555996D01*
X105498035Y-55622553D01*
X105473796Y-55685811D01*
X105451519Y-55715568D01*
X105451516Y-55715572D01*
X105446204Y-55722669D01*
X105443104Y-55730978D01*
X105443104Y-55730980D01*
X105398620Y-55850247D01*
X105398619Y-55850250D01*
X105395909Y-55857517D01*
X105395079Y-55865227D01*
X105395079Y-55865232D01*
X105389855Y-55913819D01*
X105389854Y-55913831D01*
X105389500Y-55917127D01*
X105389500Y-55920448D01*
X105389500Y-55920449D01*
X105389500Y-58409560D01*
X105389500Y-58409578D01*
X105389501Y-58412872D01*
X105389853Y-58416150D01*
X105389854Y-58416161D01*
X105395079Y-58464768D01*
X105395080Y-58464773D01*
X105395909Y-58472483D01*
X105398619Y-58479749D01*
X105398620Y-58479753D01*
X105429005Y-58561217D01*
X105446204Y-58607331D01*
X105451518Y-58614430D01*
X105451519Y-58614431D01*
X105512614Y-58696044D01*
X105532454Y-58722546D01*
X105647669Y-58808796D01*
X105782517Y-58859091D01*
X105842127Y-58865500D01*
X107537872Y-58865499D01*
X107597483Y-58859091D01*
X107732331Y-58808796D01*
X107847546Y-58722546D01*
X107933796Y-58607331D01*
X107984091Y-58472483D01*
X107987862Y-58437400D01*
X108008240Y-58381483D01*
X108052329Y-58341499D01*
X108109970Y-58326665D01*
X108167884Y-58340398D01*
X108212725Y-58379535D01*
X108229953Y-58404139D01*
X108233782Y-58407968D01*
X108318181Y-58492367D01*
X108345061Y-58532595D01*
X108354500Y-58580048D01*
X108354500Y-58643379D01*
X108354091Y-58653443D01*
X108350206Y-58701143D01*
X108350206Y-58701151D01*
X108349661Y-58707848D01*
X108350568Y-58714511D01*
X108350569Y-58714514D01*
X108360688Y-58788790D01*
X108361096Y-58792121D01*
X108367980Y-58855412D01*
X108369927Y-58873316D01*
X108372071Y-58879681D01*
X108373198Y-58884801D01*
X108374461Y-58889882D01*
X108375369Y-58896537D01*
X108377685Y-58902841D01*
X108377687Y-58902849D01*
X108403540Y-58973220D01*
X108404655Y-58976385D01*
X108419937Y-59021739D01*
X108430733Y-59053780D01*
X108434197Y-59059538D01*
X108436406Y-59064312D01*
X108438721Y-59068980D01*
X108441039Y-59075288D01*
X108444657Y-59080949D01*
X108444660Y-59080954D01*
X108485046Y-59144139D01*
X108486815Y-59146991D01*
X108525444Y-59211193D01*
X108525447Y-59211197D01*
X108528911Y-59216954D01*
X108533531Y-59221831D01*
X108536696Y-59225995D01*
X108539977Y-59230077D01*
X108543600Y-59235744D01*
X108548357Y-59240501D01*
X108601359Y-59293503D01*
X108603701Y-59295909D01*
X108655245Y-59350324D01*
X108655247Y-59350326D01*
X108659871Y-59355207D01*
X108665437Y-59358980D01*
X108670560Y-59363332D01*
X108670216Y-59363735D01*
X108678121Y-59370265D01*
X110292061Y-60984205D01*
X110320898Y-61029465D01*
X110327056Y-61076193D01*
X110328004Y-61076193D01*
X110328004Y-61081605D01*
X110327532Y-61087000D01*
X110328004Y-61092395D01*
X110328644Y-61099716D01*
X110347365Y-61313692D01*
X110348762Y-61318907D01*
X110348764Y-61318916D01*
X110404858Y-61528263D01*
X110404861Y-61528271D01*
X110406261Y-61533496D01*
X110408549Y-61538403D01*
X110408550Y-61538405D01*
X110450501Y-61628368D01*
X110502432Y-61739734D01*
X110632953Y-61926139D01*
X110793861Y-62087047D01*
X110980266Y-62217568D01*
X111186504Y-62313739D01*
X111191734Y-62315140D01*
X111191736Y-62315141D01*
X111249042Y-62330496D01*
X111406308Y-62372635D01*
X111633000Y-62392468D01*
X111859692Y-62372635D01*
X112079496Y-62313739D01*
X112285734Y-62217568D01*
X112472139Y-62087047D01*
X112633047Y-61926139D01*
X112763568Y-61739734D01*
X112859739Y-61533496D01*
X112918635Y-61313692D01*
X112938468Y-61087000D01*
X112918635Y-60860308D01*
X112859739Y-60640504D01*
X112763568Y-60434266D01*
X112633047Y-60247861D01*
X112472139Y-60086953D01*
X112348219Y-60000184D01*
X112290173Y-59959540D01*
X112290171Y-59959539D01*
X112285734Y-59956432D01*
X112079496Y-59860261D01*
X112074271Y-59858861D01*
X112074263Y-59858858D01*
X111864916Y-59802764D01*
X111864907Y-59802762D01*
X111859692Y-59801365D01*
X111854304Y-59800893D01*
X111854301Y-59800893D01*
X111638395Y-59782004D01*
X111633000Y-59781532D01*
X111627605Y-59782004D01*
X111622193Y-59782004D01*
X111622193Y-59781056D01*
X111575465Y-59774898D01*
X111530205Y-59746061D01*
X110286420Y-58502276D01*
X110256395Y-58453599D01*
X110251410Y-58396624D01*
X110272526Y-58343472D01*
X110273214Y-58342490D01*
X110360568Y-58217734D01*
X110387618Y-58159724D01*
X110433375Y-58107549D01*
X110500000Y-58088130D01*
X110566625Y-58107549D01*
X110612381Y-58159724D01*
X110639432Y-58217734D01*
X110769953Y-58404139D01*
X110930861Y-58565047D01*
X111117266Y-58695568D01*
X111323504Y-58791739D01*
X111328734Y-58793140D01*
X111328736Y-58793141D01*
X111437940Y-58822402D01*
X111543308Y-58850635D01*
X111770000Y-58870468D01*
X111996692Y-58850635D01*
X112216496Y-58791739D01*
X112422734Y-58695568D01*
X112609139Y-58565047D01*
X112770047Y-58404139D01*
X112900568Y-58217734D01*
X112927618Y-58159724D01*
X112973375Y-58107549D01*
X113040000Y-58088130D01*
X113106625Y-58107549D01*
X113152381Y-58159724D01*
X113179432Y-58217734D01*
X113309953Y-58404139D01*
X113470861Y-58565047D01*
X113657266Y-58695568D01*
X113863504Y-58791739D01*
X113868734Y-58793140D01*
X113868736Y-58793141D01*
X113977940Y-58822402D01*
X114083308Y-58850635D01*
X114310000Y-58870468D01*
X114536692Y-58850635D01*
X114756496Y-58791739D01*
X114766440Y-58787101D01*
X114770097Y-58785397D01*
X114830612Y-58774046D01*
X114889126Y-58793200D01*
X114931214Y-58838138D01*
X114946500Y-58897780D01*
X114946500Y-60933679D01*
X114929887Y-60995679D01*
X114873069Y-61094089D01*
X114873066Y-61094094D01*
X114869821Y-61099716D01*
X114867815Y-61105888D01*
X114867813Y-61105894D01*
X114813333Y-61273564D01*
X114813331Y-61273573D01*
X114811326Y-61279744D01*
X114810648Y-61286194D01*
X114810646Y-61286204D01*
X114794746Y-61437498D01*
X114791540Y-61468000D01*
X114792219Y-61474460D01*
X114810646Y-61649795D01*
X114810647Y-61649803D01*
X114811326Y-61656256D01*
X114813331Y-61662428D01*
X114813333Y-61662435D01*
X114867813Y-61830105D01*
X114869821Y-61836284D01*
X114873068Y-61841908D01*
X114873069Y-61841910D01*
X114931032Y-61942306D01*
X114964467Y-62000216D01*
X114968811Y-62005041D01*
X114968813Y-62005043D01*
X115042650Y-62087047D01*
X115091129Y-62140888D01*
X115096387Y-62144708D01*
X115096388Y-62144709D01*
X115125284Y-62165703D01*
X115244270Y-62252151D01*
X115417197Y-62329144D01*
X115602354Y-62368500D01*
X115785143Y-62368500D01*
X115791646Y-62368500D01*
X115976803Y-62329144D01*
X116149730Y-62252151D01*
X116302871Y-62140888D01*
X116429533Y-62000216D01*
X116524179Y-61836284D01*
X116582674Y-61656256D01*
X116590005Y-61586499D01*
X116615614Y-61523119D01*
X116670920Y-61482939D01*
X116732410Y-61478641D01*
X116732534Y-61477469D01*
X116738993Y-61478147D01*
X116745354Y-61479500D01*
X116928143Y-61479500D01*
X116934646Y-61479500D01*
X117119803Y-61440144D01*
X117292730Y-61363151D01*
X117445871Y-61251888D01*
X117572533Y-61111216D01*
X117667179Y-60947284D01*
X117725674Y-60767256D01*
X117745460Y-60579000D01*
X117725674Y-60390744D01*
X117667179Y-60210716D01*
X117607112Y-60106678D01*
X117590500Y-60044679D01*
X117590500Y-59264578D01*
X118079500Y-59264578D01*
X118079501Y-59267872D01*
X118079853Y-59271150D01*
X118079854Y-59271161D01*
X118085079Y-59319768D01*
X118085080Y-59319773D01*
X118085909Y-59327483D01*
X118088619Y-59334749D01*
X118088620Y-59334753D01*
X118122217Y-59424831D01*
X118136204Y-59462331D01*
X118222454Y-59577546D01*
X118337669Y-59663796D01*
X118472517Y-59714091D01*
X118532127Y-59720500D01*
X120227872Y-59720499D01*
X120287483Y-59714091D01*
X120422331Y-59663796D01*
X120537546Y-59577546D01*
X120623796Y-59462331D01*
X120674091Y-59327483D01*
X120680500Y-59267873D01*
X120680499Y-57572128D01*
X120674091Y-57512517D01*
X120623796Y-57377669D01*
X120537546Y-57262454D01*
X120452022Y-57198431D01*
X120429431Y-57181519D01*
X120429430Y-57181518D01*
X120422331Y-57176204D01*
X120287483Y-57125909D01*
X120279770Y-57125079D01*
X120279767Y-57125079D01*
X120231180Y-57119855D01*
X120231169Y-57119854D01*
X120227873Y-57119500D01*
X120224554Y-57119500D01*
X120221232Y-57119322D01*
X120221298Y-57118077D01*
X120169856Y-57105489D01*
X120125538Y-57066623D01*
X120104174Y-57011684D01*
X120102643Y-57000057D01*
X120095867Y-56989421D01*
X119391542Y-56285095D01*
X119380000Y-56278431D01*
X119368457Y-56285095D01*
X118664128Y-56989424D01*
X118657355Y-57000055D01*
X118655824Y-57011688D01*
X118634490Y-57066580D01*
X118590238Y-57105439D01*
X118538697Y-57118111D01*
X118538762Y-57119323D01*
X118535435Y-57119500D01*
X118532128Y-57119501D01*
X118528850Y-57119853D01*
X118528838Y-57119854D01*
X118480231Y-57125079D01*
X118480225Y-57125080D01*
X118472517Y-57125909D01*
X118465252Y-57128618D01*
X118465246Y-57128620D01*
X118345980Y-57173104D01*
X118345978Y-57173104D01*
X118337669Y-57176204D01*
X118330572Y-57181516D01*
X118330568Y-57181519D01*
X118229550Y-57257141D01*
X118229546Y-57257144D01*
X118222454Y-57262454D01*
X118217144Y-57269546D01*
X118217141Y-57269550D01*
X118141519Y-57370568D01*
X118141516Y-57370572D01*
X118136204Y-57377669D01*
X118133104Y-57385978D01*
X118133104Y-57385980D01*
X118088620Y-57505247D01*
X118088619Y-57505250D01*
X118085909Y-57512517D01*
X118085079Y-57520227D01*
X118085079Y-57520232D01*
X118079855Y-57568819D01*
X118079854Y-57568831D01*
X118079500Y-57572127D01*
X118079500Y-57575448D01*
X118079500Y-57575449D01*
X118079500Y-59264560D01*
X118079500Y-59264578D01*
X117590500Y-59264578D01*
X117590500Y-55925395D01*
X118075506Y-55925395D01*
X118094386Y-56141206D01*
X118096260Y-56151837D01*
X118152332Y-56361097D01*
X118156020Y-56371231D01*
X118247576Y-56567572D01*
X118252974Y-56576922D01*
X118293184Y-56634348D01*
X118301295Y-56641781D01*
X118310574Y-56635870D01*
X119014903Y-55931541D01*
X119021567Y-55919999D01*
X119738431Y-55919999D01*
X119745095Y-55931541D01*
X120449421Y-56635867D01*
X120458703Y-56641780D01*
X120466814Y-56634348D01*
X120507026Y-56576920D01*
X120512422Y-56567575D01*
X120603979Y-56371231D01*
X120607667Y-56361097D01*
X120663739Y-56151837D01*
X120665613Y-56141206D01*
X120684494Y-55925395D01*
X120684494Y-55914605D01*
X120665613Y-55698793D01*
X120663739Y-55688162D01*
X120607667Y-55478902D01*
X120603979Y-55468768D01*
X120512423Y-55272427D01*
X120507025Y-55263077D01*
X120466814Y-55205650D01*
X120458703Y-55198217D01*
X120449424Y-55204128D01*
X119745095Y-55908456D01*
X119738431Y-55919999D01*
X119021567Y-55919999D01*
X119014903Y-55908456D01*
X118310574Y-55204128D01*
X118301296Y-55198217D01*
X118293183Y-55205651D01*
X118252971Y-55263081D01*
X118247577Y-55272425D01*
X118156020Y-55468768D01*
X118152332Y-55478902D01*
X118096260Y-55688162D01*
X118094386Y-55698793D01*
X118075506Y-55914605D01*
X118075506Y-55925395D01*
X117590500Y-55925395D01*
X117590500Y-55308707D01*
X117591809Y-55290736D01*
X117592297Y-55287396D01*
X117595289Y-55266977D01*
X117590972Y-55217631D01*
X117590500Y-55206824D01*
X117590500Y-55204901D01*
X117590500Y-55201291D01*
X117586903Y-55170520D01*
X117586536Y-55166929D01*
X117586195Y-55163038D01*
X117579999Y-55092203D01*
X117577726Y-55085345D01*
X117577027Y-55081957D01*
X117576972Y-55081619D01*
X117576878Y-55081286D01*
X117576079Y-55077915D01*
X117575241Y-55070745D01*
X117556413Y-55019016D01*
X117549592Y-55000274D01*
X117548408Y-54996868D01*
X117545411Y-54987823D01*
X117524814Y-54925666D01*
X117521019Y-54919513D01*
X117519564Y-54916393D01*
X117519430Y-54916069D01*
X117519259Y-54915763D01*
X117517710Y-54912680D01*
X117515237Y-54905883D01*
X117474001Y-54843188D01*
X117472086Y-54840181D01*
X117436504Y-54782492D01*
X117436501Y-54782489D01*
X117432712Y-54776345D01*
X117427605Y-54771238D01*
X117425463Y-54768529D01*
X117425257Y-54768244D01*
X117425027Y-54767993D01*
X117422796Y-54765335D01*
X117418830Y-54759304D01*
X117364273Y-54707832D01*
X117361686Y-54705319D01*
X116346548Y-53690180D01*
X116316298Y-53640817D01*
X116311756Y-53583101D01*
X116333911Y-53529614D01*
X116377934Y-53492014D01*
X116434229Y-53478499D01*
X116547142Y-53478499D01*
X116553645Y-53478499D01*
X116738802Y-53439143D01*
X116911729Y-53362150D01*
X117064870Y-53250887D01*
X117191532Y-53110215D01*
X117206746Y-53083861D01*
X117245242Y-53042761D01*
X117297947Y-53022924D01*
X117353991Y-53028444D01*
X117401814Y-53058182D01*
X118022728Y-53679095D01*
X118052978Y-53728457D01*
X118108321Y-53898784D01*
X118111568Y-53904408D01*
X118111569Y-53904410D01*
X118196887Y-54052186D01*
X118202967Y-54062716D01*
X118207311Y-54067541D01*
X118207313Y-54067543D01*
X118325279Y-54198557D01*
X118329629Y-54203388D01*
X118334887Y-54207208D01*
X118334888Y-54207209D01*
X118350388Y-54218470D01*
X118482770Y-54314651D01*
X118655697Y-54391644D01*
X118840854Y-54431000D01*
X118847357Y-54431000D01*
X118972333Y-54431000D01*
X119029590Y-54445011D01*
X119073908Y-54483876D01*
X119095272Y-54538815D01*
X119088855Y-54597410D01*
X119056106Y-54646422D01*
X119004427Y-54674775D01*
X118938902Y-54692332D01*
X118928768Y-54696020D01*
X118732425Y-54787577D01*
X118723081Y-54792971D01*
X118665651Y-54833183D01*
X118658217Y-54841296D01*
X118664128Y-54850574D01*
X119368457Y-55554903D01*
X119379999Y-55561567D01*
X119391542Y-55554903D01*
X120095870Y-54850574D01*
X120101781Y-54841295D01*
X120094348Y-54833184D01*
X120036922Y-54792974D01*
X120027572Y-54787576D01*
X119831231Y-54696020D01*
X119821097Y-54692332D01*
X119611837Y-54636260D01*
X119601206Y-54634386D01*
X119385395Y-54615506D01*
X119374605Y-54615506D01*
X119288750Y-54623017D01*
X119221263Y-54609776D01*
X119171211Y-54562610D01*
X119153991Y-54496027D01*
X119174901Y-54430508D01*
X119227503Y-54386211D01*
X119388230Y-54314651D01*
X119541371Y-54203388D01*
X119668033Y-54062716D01*
X119762679Y-53898784D01*
X119821174Y-53718756D01*
X119840960Y-53530500D01*
X119821174Y-53342244D01*
X119762679Y-53162216D01*
X119668033Y-52998284D01*
X119541371Y-52857612D01*
X119536113Y-52853792D01*
X119536111Y-52853790D01*
X119393488Y-52750169D01*
X119393487Y-52750168D01*
X119388230Y-52746349D01*
X119382292Y-52743705D01*
X119221245Y-52672001D01*
X119221240Y-52671999D01*
X119215303Y-52669356D01*
X119197161Y-52665500D01*
X119150168Y-52655511D01*
X119116782Y-52643194D01*
X119088269Y-52621902D01*
X117520730Y-51054362D01*
X117508948Y-51040728D01*
X117498926Y-51027266D01*
X117498922Y-51027262D01*
X117494611Y-51021471D01*
X117466098Y-50997546D01*
X117456667Y-50989632D01*
X117448692Y-50982324D01*
X117447330Y-50980962D01*
X117444778Y-50978410D01*
X117441954Y-50976177D01*
X117441945Y-50976169D01*
X117420446Y-50959171D01*
X117417675Y-50956914D01*
X117360215Y-50908699D01*
X117353761Y-50905457D01*
X117350860Y-50903549D01*
X117350589Y-50903353D01*
X117350293Y-50903188D01*
X117347340Y-50901367D01*
X117341678Y-50896890D01*
X117335135Y-50893839D01*
X117335132Y-50893837D01*
X117273693Y-50865187D01*
X117270447Y-50863616D01*
X117209885Y-50833201D01*
X117209886Y-50833201D01*
X117203434Y-50829961D01*
X117196410Y-50828296D01*
X117193152Y-50827110D01*
X117192833Y-50826978D01*
X117192505Y-50826885D01*
X117189219Y-50825796D01*
X117182674Y-50822744D01*
X117175605Y-50821284D01*
X117175601Y-50821283D01*
X117109213Y-50807575D01*
X117105692Y-50806795D01*
X117039742Y-50791164D01*
X117039735Y-50791163D01*
X117032722Y-50789501D01*
X117025511Y-50789501D01*
X117022062Y-50789098D01*
X117021728Y-50789044D01*
X117021375Y-50789029D01*
X117017930Y-50788727D01*
X117010857Y-50787267D01*
X117003639Y-50787477D01*
X116935871Y-50789449D01*
X116932264Y-50789501D01*
X115544081Y-50789501D01*
X115482081Y-50772888D01*
X115436694Y-50727502D01*
X115420081Y-50665502D01*
X115436693Y-50603502D01*
X115437461Y-50602170D01*
X115440568Y-50597734D01*
X115536739Y-50391496D01*
X115595635Y-50171692D01*
X115610500Y-50001784D01*
X115610500Y-49088216D01*
X115595635Y-48918308D01*
X115591616Y-48903308D01*
X115538141Y-48703736D01*
X115538140Y-48703734D01*
X115536739Y-48698504D01*
X115440568Y-48492266D01*
X115310047Y-48305861D01*
X115149139Y-48144953D01*
X114962734Y-48014432D01*
X114887930Y-47979550D01*
X114761405Y-47920550D01*
X114761403Y-47920549D01*
X114756496Y-47918261D01*
X114751271Y-47916861D01*
X114751263Y-47916858D01*
X114541916Y-47860764D01*
X114541907Y-47860762D01*
X114536692Y-47859365D01*
X114531304Y-47858893D01*
X114531301Y-47858893D01*
X114315395Y-47840004D01*
X114310000Y-47839532D01*
X114304605Y-47840004D01*
X114088698Y-47858893D01*
X114088693Y-47858893D01*
X114083308Y-47859365D01*
X114078094Y-47860762D01*
X114078083Y-47860764D01*
X113868736Y-47916858D01*
X113868724Y-47916862D01*
X113863504Y-47918261D01*
X113858599Y-47920547D01*
X113858594Y-47920550D01*
X113662176Y-48012142D01*
X113662172Y-48012144D01*
X113657266Y-48014432D01*
X113652833Y-48017535D01*
X113652826Y-48017540D01*
X113475296Y-48141847D01*
X113475291Y-48141850D01*
X113470861Y-48144953D01*
X113467037Y-48148776D01*
X113467031Y-48148782D01*
X113313782Y-48302031D01*
X113313776Y-48302037D01*
X113309953Y-48305861D01*
X113306850Y-48310291D01*
X113306847Y-48310296D01*
X113182540Y-48487826D01*
X113182535Y-48487833D01*
X113179432Y-48492266D01*
X113177148Y-48497163D01*
X113177141Y-48497176D01*
X113152382Y-48550274D01*
X113106625Y-48602450D01*
X113040000Y-48621869D01*
X112973375Y-48602450D01*
X112927618Y-48550274D01*
X112902858Y-48497176D01*
X112902855Y-48497172D01*
X112900568Y-48492266D01*
X112770047Y-48305861D01*
X112609139Y-48144953D01*
X112422734Y-48014432D01*
X112347930Y-47979550D01*
X112221405Y-47920550D01*
X112221403Y-47920549D01*
X112216496Y-47918261D01*
X112211271Y-47916861D01*
X112211263Y-47916858D01*
X112001916Y-47860764D01*
X112001907Y-47860762D01*
X111996692Y-47859365D01*
X111991304Y-47858893D01*
X111991301Y-47858893D01*
X111775395Y-47840004D01*
X111770000Y-47839532D01*
X111764605Y-47840004D01*
X111548698Y-47858893D01*
X111548693Y-47858893D01*
X111543308Y-47859365D01*
X111538094Y-47860762D01*
X111538083Y-47860764D01*
X111328736Y-47916858D01*
X111328724Y-47916862D01*
X111323504Y-47918261D01*
X111318599Y-47920547D01*
X111318594Y-47920550D01*
X111122176Y-48012142D01*
X111122172Y-48012144D01*
X111117266Y-48014432D01*
X111112833Y-48017535D01*
X111112826Y-48017540D01*
X110935296Y-48141847D01*
X110935291Y-48141850D01*
X110930861Y-48144953D01*
X110927037Y-48148776D01*
X110927031Y-48148782D01*
X110773782Y-48302031D01*
X110773776Y-48302037D01*
X110769953Y-48305861D01*
X110766850Y-48310291D01*
X110766847Y-48310296D01*
X110642540Y-48487826D01*
X110642535Y-48487833D01*
X110639432Y-48492266D01*
X110637148Y-48497163D01*
X110637141Y-48497176D01*
X110612382Y-48550274D01*
X110566625Y-48602450D01*
X110500000Y-48621869D01*
X110433375Y-48602450D01*
X110387618Y-48550274D01*
X110362858Y-48497176D01*
X110362855Y-48497172D01*
X110360568Y-48492266D01*
X110230047Y-48305861D01*
X110069139Y-48144953D01*
X109882734Y-48014432D01*
X109807930Y-47979550D01*
X109681405Y-47920550D01*
X109681403Y-47920549D01*
X109676496Y-47918261D01*
X109671271Y-47916861D01*
X109671263Y-47916858D01*
X109461916Y-47860764D01*
X109461907Y-47860762D01*
X109456692Y-47859365D01*
X109451304Y-47858893D01*
X109451301Y-47858893D01*
X109235395Y-47840004D01*
X109230000Y-47839532D01*
X109224605Y-47840004D01*
X109008698Y-47858893D01*
X109008693Y-47858893D01*
X109003308Y-47859365D01*
X108998094Y-47860762D01*
X108998083Y-47860764D01*
X108788736Y-47916858D01*
X108788724Y-47916862D01*
X108783504Y-47918261D01*
X108778599Y-47920547D01*
X108778594Y-47920550D01*
X108582176Y-48012142D01*
X108582172Y-48012144D01*
X108577266Y-48014432D01*
X108572833Y-48017535D01*
X108572826Y-48017540D01*
X108395296Y-48141847D01*
X108395291Y-48141850D01*
X108390861Y-48144953D01*
X108387037Y-48148776D01*
X108387031Y-48148782D01*
X108233782Y-48302031D01*
X108233776Y-48302037D01*
X108229953Y-48305861D01*
X108226850Y-48310291D01*
X108226847Y-48310296D01*
X108102540Y-48487826D01*
X108102535Y-48487833D01*
X108099432Y-48492266D01*
X108084695Y-48523868D01*
X108072106Y-48550866D01*
X108026348Y-48603041D01*
X107959723Y-48622460D01*
X107893098Y-48603040D01*
X107847342Y-48550864D01*
X107822422Y-48497423D01*
X107817032Y-48488087D01*
X107692767Y-48310618D01*
X107685830Y-48302352D01*
X107532647Y-48149169D01*
X107524381Y-48142232D01*
X107346912Y-48017967D01*
X107337580Y-48012579D01*
X107141234Y-47921022D01*
X107131092Y-47917330D01*
X106953780Y-47869820D01*
X106942551Y-47869452D01*
X106940000Y-47880395D01*
X106940000Y-49671000D01*
X106923387Y-49733000D01*
X106878000Y-49778387D01*
X106816000Y-49795000D01*
X105406326Y-49795000D01*
X105393450Y-49798450D01*
X105390000Y-49811326D01*
X105390000Y-49999054D01*
X105390236Y-50004463D01*
X105404386Y-50166206D01*
X105406260Y-50176837D01*
X105462332Y-50386097D01*
X105466020Y-50396231D01*
X105557577Y-50592574D01*
X105563886Y-50603502D01*
X105580498Y-50665502D01*
X105563885Y-50727501D01*
X105518498Y-50772888D01*
X105456498Y-50789501D01*
X96801500Y-50789501D01*
X96739500Y-50772888D01*
X96694113Y-50727501D01*
X96677500Y-50665501D01*
X96677499Y-49278674D01*
X105390000Y-49278674D01*
X105393450Y-49291549D01*
X105406326Y-49295000D01*
X106423674Y-49295000D01*
X106436549Y-49291549D01*
X106440000Y-49278674D01*
X106440000Y-47880395D01*
X106437448Y-47869452D01*
X106426219Y-47869820D01*
X106248907Y-47917330D01*
X106238765Y-47921022D01*
X106042419Y-48012579D01*
X106033087Y-48017967D01*
X105855618Y-48142232D01*
X105847352Y-48149169D01*
X105694169Y-48302352D01*
X105687232Y-48310618D01*
X105562967Y-48488087D01*
X105557579Y-48497419D01*
X105466020Y-48693768D01*
X105462332Y-48703902D01*
X105406260Y-48913162D01*
X105404386Y-48923793D01*
X105390236Y-49085536D01*
X105390000Y-49090946D01*
X105390000Y-49278674D01*
X96677499Y-49278674D01*
X96677499Y-48285439D01*
X96677499Y-48282128D01*
X96671091Y-48222517D01*
X96620796Y-48087669D01*
X96534546Y-47972454D01*
X96516568Y-47958996D01*
X96426431Y-47891519D01*
X96426430Y-47891518D01*
X96419331Y-47886204D01*
X96307155Y-47844365D01*
X96291752Y-47838620D01*
X96291750Y-47838619D01*
X96284483Y-47835909D01*
X96276770Y-47835079D01*
X96276767Y-47835079D01*
X96228180Y-47829855D01*
X96228169Y-47829854D01*
X96224873Y-47829500D01*
X96221550Y-47829500D01*
X94532439Y-47829500D01*
X94532420Y-47829500D01*
X94529128Y-47829501D01*
X94525850Y-47829853D01*
X94525838Y-47829854D01*
X94477231Y-47835079D01*
X94477225Y-47835080D01*
X94469517Y-47835909D01*
X94462252Y-47838618D01*
X94462246Y-47838620D01*
X94342980Y-47883104D01*
X94342978Y-47883104D01*
X94334669Y-47886204D01*
X94327572Y-47891516D01*
X94327568Y-47891519D01*
X94226550Y-47967141D01*
X94226546Y-47967144D01*
X94219454Y-47972454D01*
X94214144Y-47979546D01*
X94214141Y-47979550D01*
X94138519Y-48080568D01*
X94138516Y-48080572D01*
X94133204Y-48087669D01*
X94130104Y-48095978D01*
X94130104Y-48095980D01*
X94085620Y-48215247D01*
X94085619Y-48215250D01*
X94082909Y-48222517D01*
X94082079Y-48230227D01*
X94082079Y-48230232D01*
X94079137Y-48257597D01*
X94058757Y-48313518D01*
X94014668Y-48353501D01*
X93957027Y-48368334D01*
X93899114Y-48354600D01*
X93854273Y-48315463D01*
X93837047Y-48290861D01*
X93676139Y-48129953D01*
X93515595Y-48017540D01*
X93494173Y-48002540D01*
X93494171Y-48002539D01*
X93489734Y-47999432D01*
X93392949Y-47954300D01*
X93288405Y-47905550D01*
X93288403Y-47905549D01*
X93283496Y-47903261D01*
X93278271Y-47901861D01*
X93278263Y-47901858D01*
X93068916Y-47845764D01*
X93068907Y-47845762D01*
X93063692Y-47844365D01*
X93058304Y-47843893D01*
X93058301Y-47843893D01*
X92842395Y-47825004D01*
X92837000Y-47824532D01*
X92831605Y-47825004D01*
X92615698Y-47843893D01*
X92615693Y-47843893D01*
X92610308Y-47844365D01*
X92605094Y-47845762D01*
X92605083Y-47845764D01*
X92395736Y-47901858D01*
X92395724Y-47901862D01*
X92390504Y-47903261D01*
X92385599Y-47905547D01*
X92385594Y-47905550D01*
X92189176Y-47997142D01*
X92189172Y-47997144D01*
X92184266Y-47999432D01*
X92179833Y-48002535D01*
X92179826Y-48002540D01*
X92002296Y-48126847D01*
X92002291Y-48126850D01*
X91997861Y-48129953D01*
X91994037Y-48133776D01*
X91994031Y-48133782D01*
X91840782Y-48287031D01*
X91840776Y-48287037D01*
X91836953Y-48290861D01*
X91833850Y-48295291D01*
X91833847Y-48295296D01*
X91709540Y-48472826D01*
X91709535Y-48472833D01*
X91706432Y-48477266D01*
X91704148Y-48482163D01*
X91704141Y-48482176D01*
X91679382Y-48535274D01*
X91633625Y-48587450D01*
X91567000Y-48606869D01*
X91500375Y-48587450D01*
X91454618Y-48535274D01*
X91429858Y-48482176D01*
X91429855Y-48482172D01*
X91427568Y-48477266D01*
X91297047Y-48290861D01*
X91136139Y-48129953D01*
X90975595Y-48017540D01*
X90954173Y-48002540D01*
X90954171Y-48002539D01*
X90949734Y-47999432D01*
X90852949Y-47954300D01*
X90748405Y-47905550D01*
X90748403Y-47905549D01*
X90743496Y-47903261D01*
X90738271Y-47901861D01*
X90738263Y-47901858D01*
X90528916Y-47845764D01*
X90528907Y-47845762D01*
X90523692Y-47844365D01*
X90518304Y-47843893D01*
X90518301Y-47843893D01*
X90302395Y-47825004D01*
X90297000Y-47824532D01*
X90291605Y-47825004D01*
X90075698Y-47843893D01*
X90075693Y-47843893D01*
X90070308Y-47844365D01*
X90065094Y-47845762D01*
X90065083Y-47845764D01*
X89855736Y-47901858D01*
X89855724Y-47901862D01*
X89850504Y-47903261D01*
X89845599Y-47905547D01*
X89845594Y-47905550D01*
X89649176Y-47997142D01*
X89649172Y-47997144D01*
X89644266Y-47999432D01*
X89639833Y-48002535D01*
X89639826Y-48002540D01*
X89462296Y-48126847D01*
X89462291Y-48126850D01*
X89457861Y-48129953D01*
X89454037Y-48133776D01*
X89454031Y-48133782D01*
X89300782Y-48287031D01*
X89300776Y-48287037D01*
X89296953Y-48290861D01*
X89293850Y-48295291D01*
X89293847Y-48295296D01*
X89169540Y-48472826D01*
X89169535Y-48472833D01*
X89166432Y-48477266D01*
X89164148Y-48482163D01*
X89164141Y-48482176D01*
X89139382Y-48535274D01*
X89093625Y-48587450D01*
X89027000Y-48606869D01*
X88960375Y-48587450D01*
X88914618Y-48535274D01*
X88889858Y-48482176D01*
X88889855Y-48482172D01*
X88887568Y-48477266D01*
X88757047Y-48290861D01*
X88596139Y-48129953D01*
X88435595Y-48017540D01*
X88414173Y-48002540D01*
X88414171Y-48002539D01*
X88409734Y-47999432D01*
X88312949Y-47954300D01*
X88208405Y-47905550D01*
X88208403Y-47905549D01*
X88203496Y-47903261D01*
X88198271Y-47901861D01*
X88198263Y-47901858D01*
X87988916Y-47845764D01*
X87988907Y-47845762D01*
X87983692Y-47844365D01*
X87978304Y-47843893D01*
X87978301Y-47843893D01*
X87762395Y-47825004D01*
X87757000Y-47824532D01*
X87751605Y-47825004D01*
X87535698Y-47843893D01*
X87535693Y-47843893D01*
X87530308Y-47844365D01*
X87525094Y-47845762D01*
X87525083Y-47845764D01*
X87315736Y-47901858D01*
X87315724Y-47901862D01*
X87310504Y-47903261D01*
X87305599Y-47905547D01*
X87305594Y-47905550D01*
X87109176Y-47997142D01*
X87109172Y-47997144D01*
X87104266Y-47999432D01*
X87099833Y-48002535D01*
X87099826Y-48002540D01*
X86922296Y-48126847D01*
X86922291Y-48126850D01*
X86917861Y-48129953D01*
X86914037Y-48133776D01*
X86914031Y-48133782D01*
X86760782Y-48287031D01*
X86760776Y-48287037D01*
X86756953Y-48290861D01*
X86753850Y-48295291D01*
X86753847Y-48295296D01*
X86629540Y-48472826D01*
X86629535Y-48472833D01*
X86626432Y-48477266D01*
X86624148Y-48482163D01*
X86624141Y-48482176D01*
X86599382Y-48535274D01*
X86553625Y-48587450D01*
X86487000Y-48606869D01*
X86420375Y-48587450D01*
X86374618Y-48535274D01*
X86349858Y-48482176D01*
X86349855Y-48482172D01*
X86347568Y-48477266D01*
X86217047Y-48290861D01*
X86056139Y-48129953D01*
X85895595Y-48017540D01*
X85874173Y-48002540D01*
X85874171Y-48002539D01*
X85869734Y-47999432D01*
X85772949Y-47954300D01*
X85668405Y-47905550D01*
X85668403Y-47905549D01*
X85663496Y-47903261D01*
X85658271Y-47901861D01*
X85658263Y-47901858D01*
X85448916Y-47845764D01*
X85448907Y-47845762D01*
X85443692Y-47844365D01*
X85438304Y-47843893D01*
X85438301Y-47843893D01*
X85222395Y-47825004D01*
X85217000Y-47824532D01*
X85211605Y-47825004D01*
X84995698Y-47843893D01*
X84995693Y-47843893D01*
X84990308Y-47844365D01*
X84985094Y-47845762D01*
X84985083Y-47845764D01*
X84775736Y-47901858D01*
X84775724Y-47901862D01*
X84770504Y-47903261D01*
X84765599Y-47905547D01*
X84765594Y-47905550D01*
X84569176Y-47997142D01*
X84569172Y-47997144D01*
X84564266Y-47999432D01*
X84559833Y-48002535D01*
X84559826Y-48002540D01*
X84382296Y-48126847D01*
X84382291Y-48126850D01*
X84377861Y-48129953D01*
X84374037Y-48133776D01*
X84374031Y-48133782D01*
X84220782Y-48287031D01*
X84220776Y-48287037D01*
X84216953Y-48290861D01*
X84213850Y-48295291D01*
X84213847Y-48295296D01*
X84089540Y-48472826D01*
X84089535Y-48472833D01*
X84086432Y-48477266D01*
X84084148Y-48482163D01*
X84084141Y-48482176D01*
X84059382Y-48535274D01*
X84013625Y-48587450D01*
X83947000Y-48606869D01*
X83880375Y-48587450D01*
X83834618Y-48535274D01*
X83809858Y-48482176D01*
X83809855Y-48482172D01*
X83807568Y-48477266D01*
X83677047Y-48290861D01*
X83516139Y-48129953D01*
X83355595Y-48017540D01*
X83334173Y-48002540D01*
X83334171Y-48002539D01*
X83329734Y-47999432D01*
X83232949Y-47954300D01*
X83128405Y-47905550D01*
X83128403Y-47905549D01*
X83123496Y-47903261D01*
X83118271Y-47901861D01*
X83118263Y-47901858D01*
X82908916Y-47845764D01*
X82908907Y-47845762D01*
X82903692Y-47844365D01*
X82898304Y-47843893D01*
X82898301Y-47843893D01*
X82682395Y-47825004D01*
X82677000Y-47824532D01*
X82671605Y-47825004D01*
X82455698Y-47843893D01*
X82455693Y-47843893D01*
X82450308Y-47844365D01*
X82445094Y-47845762D01*
X82445083Y-47845764D01*
X82235736Y-47901858D01*
X82235724Y-47901862D01*
X82230504Y-47903261D01*
X82225599Y-47905547D01*
X82225594Y-47905550D01*
X82029176Y-47997142D01*
X82029172Y-47997144D01*
X82024266Y-47999432D01*
X82019833Y-48002535D01*
X82019826Y-48002540D01*
X81842296Y-48126847D01*
X81842291Y-48126850D01*
X81837861Y-48129953D01*
X81834037Y-48133776D01*
X81834031Y-48133782D01*
X81680782Y-48287031D01*
X81680776Y-48287037D01*
X81676953Y-48290861D01*
X81673850Y-48295291D01*
X81673847Y-48295296D01*
X81549540Y-48472826D01*
X81549535Y-48472833D01*
X81546432Y-48477266D01*
X81544148Y-48482163D01*
X81544141Y-48482176D01*
X81519382Y-48535274D01*
X81473625Y-48587450D01*
X81407000Y-48606869D01*
X81340375Y-48587450D01*
X81294618Y-48535274D01*
X81269858Y-48482176D01*
X81269855Y-48482172D01*
X81267568Y-48477266D01*
X81137047Y-48290861D01*
X80976139Y-48129953D01*
X80815595Y-48017540D01*
X80794173Y-48002540D01*
X80794171Y-48002539D01*
X80789734Y-47999432D01*
X80692949Y-47954300D01*
X80588405Y-47905550D01*
X80588403Y-47905549D01*
X80583496Y-47903261D01*
X80578271Y-47901861D01*
X80578263Y-47901858D01*
X80368916Y-47845764D01*
X80368907Y-47845762D01*
X80363692Y-47844365D01*
X80358304Y-47843893D01*
X80358301Y-47843893D01*
X80142395Y-47825004D01*
X80137000Y-47824532D01*
X80131605Y-47825004D01*
X79915698Y-47843893D01*
X79915693Y-47843893D01*
X79910308Y-47844365D01*
X79905094Y-47845762D01*
X79905083Y-47845764D01*
X79695736Y-47901858D01*
X79695724Y-47901862D01*
X79690504Y-47903261D01*
X79685599Y-47905547D01*
X79685594Y-47905550D01*
X79489176Y-47997142D01*
X79489172Y-47997144D01*
X79484266Y-47999432D01*
X79479833Y-48002535D01*
X79479826Y-48002540D01*
X79302296Y-48126847D01*
X79302291Y-48126850D01*
X79297861Y-48129953D01*
X79294037Y-48133776D01*
X79294031Y-48133782D01*
X79140782Y-48287031D01*
X79140776Y-48287037D01*
X79136953Y-48290861D01*
X79133850Y-48295291D01*
X79133847Y-48295296D01*
X79009540Y-48472826D01*
X79009535Y-48472833D01*
X79006432Y-48477266D01*
X79004148Y-48482163D01*
X79004141Y-48482176D01*
X78979382Y-48535274D01*
X78933625Y-48587450D01*
X78867000Y-48606869D01*
X78800375Y-48587450D01*
X78754618Y-48535274D01*
X78729858Y-48482176D01*
X78729855Y-48482172D01*
X78727568Y-48477266D01*
X78597047Y-48290861D01*
X78436139Y-48129953D01*
X78275595Y-48017540D01*
X78254173Y-48002540D01*
X78254171Y-48002539D01*
X78249734Y-47999432D01*
X78152949Y-47954300D01*
X78048405Y-47905550D01*
X78048403Y-47905549D01*
X78043496Y-47903261D01*
X78038271Y-47901861D01*
X78038263Y-47901858D01*
X77828916Y-47845764D01*
X77828907Y-47845762D01*
X77823692Y-47844365D01*
X77818304Y-47843893D01*
X77818301Y-47843893D01*
X77602395Y-47825004D01*
X77597000Y-47824532D01*
X77591605Y-47825004D01*
X77375698Y-47843893D01*
X77375693Y-47843893D01*
X77370308Y-47844365D01*
X77365094Y-47845762D01*
X77365083Y-47845764D01*
X77155736Y-47901858D01*
X77155724Y-47901862D01*
X77150504Y-47903261D01*
X77145599Y-47905547D01*
X77145594Y-47905550D01*
X76949176Y-47997142D01*
X76949172Y-47997144D01*
X76944266Y-47999432D01*
X76939833Y-48002535D01*
X76939826Y-48002540D01*
X76762296Y-48126847D01*
X76762291Y-48126850D01*
X76757861Y-48129953D01*
X76754037Y-48133776D01*
X76754031Y-48133782D01*
X76600782Y-48287031D01*
X76600776Y-48287037D01*
X76596953Y-48290861D01*
X76593850Y-48295291D01*
X76593847Y-48295296D01*
X76469540Y-48472826D01*
X76469535Y-48472833D01*
X76466432Y-48477266D01*
X76464144Y-48482172D01*
X76464142Y-48482176D01*
X76372550Y-48678594D01*
X76372547Y-48678599D01*
X76370261Y-48683504D01*
X76368862Y-48688724D01*
X76368858Y-48688736D01*
X76312764Y-48898083D01*
X76312762Y-48898094D01*
X76311365Y-48903308D01*
X76310893Y-48908693D01*
X76310893Y-48908698D01*
X76296736Y-49070515D01*
X76296500Y-49073216D01*
X76296500Y-49986784D01*
X76296735Y-49989479D01*
X76296736Y-49989484D01*
X76298048Y-50004484D01*
X76311365Y-50156692D01*
X76312762Y-50161907D01*
X76312764Y-50161916D01*
X76368858Y-50371263D01*
X76368861Y-50371271D01*
X76370261Y-50376496D01*
X76466432Y-50582734D01*
X76469539Y-50587171D01*
X76474586Y-50594379D01*
X76496745Y-50657392D01*
X76482999Y-50722759D01*
X76437338Y-50771510D01*
X76373010Y-50789501D01*
X72774500Y-50789501D01*
X72712500Y-50772888D01*
X72667113Y-50727501D01*
X72650500Y-50665501D01*
X72650499Y-48995439D01*
X72650499Y-48992128D01*
X72644091Y-48932517D01*
X72593796Y-48797669D01*
X72507546Y-48682454D01*
X72438621Y-48630857D01*
X72399431Y-48601519D01*
X72399430Y-48601518D01*
X72392331Y-48596204D01*
X72321965Y-48569959D01*
X72264752Y-48548620D01*
X72264750Y-48548619D01*
X72257483Y-48545909D01*
X72249770Y-48545079D01*
X72249767Y-48545079D01*
X72201180Y-48539855D01*
X72201169Y-48539854D01*
X72197873Y-48539500D01*
X72194550Y-48539500D01*
X70605439Y-48539500D01*
X70605420Y-48539500D01*
X70602128Y-48539501D01*
X70598850Y-48539853D01*
X70598838Y-48539854D01*
X70550231Y-48545079D01*
X70550225Y-48545080D01*
X70542517Y-48545909D01*
X70535252Y-48548618D01*
X70535246Y-48548620D01*
X70415980Y-48593104D01*
X70415978Y-48593104D01*
X70407669Y-48596204D01*
X70400572Y-48601516D01*
X70400568Y-48601519D01*
X70299550Y-48677141D01*
X70299546Y-48677144D01*
X70292454Y-48682454D01*
X70287144Y-48689546D01*
X70287141Y-48689550D01*
X70211519Y-48790568D01*
X70211516Y-48790572D01*
X70206204Y-48797669D01*
X70203104Y-48805978D01*
X70203104Y-48805980D01*
X70158620Y-48925247D01*
X70158619Y-48925250D01*
X70155909Y-48932517D01*
X70155079Y-48940227D01*
X70155079Y-48940232D01*
X70149855Y-48988819D01*
X70149854Y-48988831D01*
X70149500Y-48992127D01*
X70149500Y-48995448D01*
X70149500Y-48995449D01*
X70149500Y-50684560D01*
X70149500Y-50684578D01*
X70149501Y-50687872D01*
X70149853Y-50691150D01*
X70149854Y-50691161D01*
X70155079Y-50739768D01*
X70155080Y-50739773D01*
X70155909Y-50747483D01*
X70158619Y-50754749D01*
X70158620Y-50754753D01*
X70185524Y-50826885D01*
X70206204Y-50882331D01*
X70211518Y-50889430D01*
X70211519Y-50889431D01*
X70286529Y-50989632D01*
X70292454Y-50997546D01*
X70407669Y-51083796D01*
X70526164Y-51127991D01*
X70578291Y-51165032D01*
X70605031Y-51223121D01*
X70599270Y-51286810D01*
X70563068Y-51338407D01*
X70560861Y-51339953D01*
X70557038Y-51343775D01*
X70557032Y-51343781D01*
X70403782Y-51497031D01*
X70403776Y-51497037D01*
X70399953Y-51500861D01*
X70396850Y-51505291D01*
X70396847Y-51505296D01*
X70272540Y-51682826D01*
X70272535Y-51682833D01*
X70269432Y-51687266D01*
X70267144Y-51692172D01*
X70267142Y-51692176D01*
X70175550Y-51888594D01*
X70175547Y-51888599D01*
X70173261Y-51893504D01*
X70171862Y-51898724D01*
X70171858Y-51898736D01*
X70115764Y-52108083D01*
X70115762Y-52108094D01*
X70114365Y-52113308D01*
X70094532Y-52340000D01*
X70095004Y-52345395D01*
X70100104Y-52403694D01*
X70114365Y-52566692D01*
X70115762Y-52571907D01*
X70115764Y-52571916D01*
X70171858Y-52781263D01*
X70171861Y-52781271D01*
X70173261Y-52786496D01*
X70269432Y-52992734D01*
X70399953Y-53179139D01*
X70403782Y-53182968D01*
X70473133Y-53252319D01*
X70505227Y-53307906D01*
X70505227Y-53372094D01*
X70473133Y-53427681D01*
X70403782Y-53497031D01*
X70403776Y-53497037D01*
X70399953Y-53500861D01*
X70396850Y-53505291D01*
X70396847Y-53505296D01*
X70272540Y-53682826D01*
X70272535Y-53682833D01*
X70269432Y-53687266D01*
X70267144Y-53692172D01*
X70267142Y-53692176D01*
X70175550Y-53888594D01*
X70175547Y-53888599D01*
X70173261Y-53893504D01*
X70171862Y-53898724D01*
X70171858Y-53898736D01*
X70115764Y-54108083D01*
X70115762Y-54108094D01*
X70114365Y-54113308D01*
X70113893Y-54118693D01*
X70113893Y-54118698D01*
X70095004Y-54334605D01*
X70094532Y-54340000D01*
X64526500Y-54340000D01*
X64526500Y-48349689D01*
X67469392Y-48349689D01*
X67477710Y-48360800D01*
X67602406Y-48454147D01*
X67609849Y-48458931D01*
X67853158Y-48591787D01*
X67861196Y-48595458D01*
X68120952Y-48692342D01*
X68129421Y-48694828D01*
X68400309Y-48753757D01*
X68409065Y-48755016D01*
X68685582Y-48774793D01*
X68694418Y-48774793D01*
X68970934Y-48755016D01*
X68979690Y-48753757D01*
X69250578Y-48694828D01*
X69259047Y-48692342D01*
X69518803Y-48595458D01*
X69526841Y-48591787D01*
X69770150Y-48458931D01*
X69777593Y-48454147D01*
X69902288Y-48360800D01*
X69910606Y-48349689D01*
X69903954Y-48337508D01*
X68701542Y-47135095D01*
X68689999Y-47128431D01*
X68678457Y-47135095D01*
X67476044Y-48337508D01*
X67469392Y-48349689D01*
X64526500Y-48349689D01*
X64526500Y-46774418D01*
X66685207Y-46774418D01*
X66704983Y-47050934D01*
X66706242Y-47059690D01*
X66765171Y-47330578D01*
X66767657Y-47339047D01*
X66864541Y-47598803D01*
X66868212Y-47606841D01*
X67001068Y-47850150D01*
X67005852Y-47857593D01*
X67099198Y-47982288D01*
X67110309Y-47990606D01*
X67122490Y-47983954D01*
X68324903Y-46781542D01*
X68331567Y-46769999D01*
X69048431Y-46769999D01*
X69055095Y-46781542D01*
X70257508Y-47983954D01*
X70269689Y-47990606D01*
X70280800Y-47982288D01*
X70374147Y-47857593D01*
X70378931Y-47850150D01*
X70511787Y-47606841D01*
X70515458Y-47598803D01*
X70553056Y-47498000D01*
X97527700Y-47498000D01*
X97528124Y-47503117D01*
X97546441Y-47724186D01*
X97546442Y-47724195D01*
X97546866Y-47729305D01*
X97548123Y-47734272D01*
X97548125Y-47734279D01*
X97595296Y-47920550D01*
X97603843Y-47954300D01*
X97605903Y-47958996D01*
X97695016Y-48162154D01*
X97695019Y-48162159D01*
X97697076Y-48166849D01*
X97738486Y-48230232D01*
X97821219Y-48356865D01*
X97821222Y-48356869D01*
X97824021Y-48361153D01*
X97981216Y-48531913D01*
X98164374Y-48674470D01*
X98368497Y-48784936D01*
X98588019Y-48860298D01*
X98816951Y-48898500D01*
X99043916Y-48898500D01*
X99049049Y-48898500D01*
X99277981Y-48860298D01*
X99497503Y-48784936D01*
X99701626Y-48674470D01*
X99884784Y-48531913D01*
X100041979Y-48361153D01*
X100168924Y-48166849D01*
X100262157Y-47954300D01*
X100319134Y-47729305D01*
X100338300Y-47498000D01*
X101564532Y-47498000D01*
X101584365Y-47724692D01*
X101585762Y-47729907D01*
X101585764Y-47729916D01*
X101641858Y-47939263D01*
X101641861Y-47939271D01*
X101643261Y-47944496D01*
X101645549Y-47949403D01*
X101645550Y-47949405D01*
X101674805Y-48012142D01*
X101739432Y-48150734D01*
X101742539Y-48155171D01*
X101742540Y-48155173D01*
X101795096Y-48230231D01*
X101869953Y-48337139D01*
X102030861Y-48498047D01*
X102217266Y-48628568D01*
X102423504Y-48724739D01*
X102643308Y-48783635D01*
X102870000Y-48803468D01*
X103096692Y-48783635D01*
X103316496Y-48724739D01*
X103522734Y-48628568D01*
X103709139Y-48498047D01*
X103870047Y-48337139D01*
X104000568Y-48150734D01*
X104096739Y-47944496D01*
X104155635Y-47724692D01*
X104175468Y-47498000D01*
X104155635Y-47271308D01*
X104117351Y-47128431D01*
X104098141Y-47056736D01*
X104098140Y-47056734D01*
X104096739Y-47051504D01*
X104000568Y-46845266D01*
X103967965Y-46798703D01*
X105323217Y-46798703D01*
X105330650Y-46806814D01*
X105388077Y-46847025D01*
X105397427Y-46852423D01*
X105593768Y-46943979D01*
X105603902Y-46947667D01*
X105813162Y-47003739D01*
X105823793Y-47005613D01*
X106039605Y-47024494D01*
X106050395Y-47024494D01*
X106266206Y-47005613D01*
X106276837Y-47003739D01*
X106486097Y-46947667D01*
X106496231Y-46943979D01*
X106692575Y-46852422D01*
X106701920Y-46847026D01*
X106759348Y-46806814D01*
X106766780Y-46798703D01*
X106760867Y-46789421D01*
X106056542Y-46085095D01*
X106045000Y-46078431D01*
X106033457Y-46085095D01*
X105329128Y-46789424D01*
X105323217Y-46798703D01*
X103967965Y-46798703D01*
X103870047Y-46658861D01*
X103709139Y-46497953D01*
X103628915Y-46441780D01*
X103527173Y-46370540D01*
X103527171Y-46370539D01*
X103522734Y-46367432D01*
X103431051Y-46324679D01*
X103321405Y-46273550D01*
X103321403Y-46273549D01*
X103316496Y-46271261D01*
X103311271Y-46269861D01*
X103311263Y-46269858D01*
X103101916Y-46213764D01*
X103101907Y-46213762D01*
X103096692Y-46212365D01*
X103091304Y-46211893D01*
X103091301Y-46211893D01*
X102875395Y-46193004D01*
X102870000Y-46192532D01*
X102864605Y-46193004D01*
X102648698Y-46211893D01*
X102648693Y-46211893D01*
X102643308Y-46212365D01*
X102638094Y-46213762D01*
X102638083Y-46213764D01*
X102428736Y-46269858D01*
X102428724Y-46269862D01*
X102423504Y-46271261D01*
X102418599Y-46273547D01*
X102418594Y-46273550D01*
X102222176Y-46365142D01*
X102222172Y-46365144D01*
X102217266Y-46367432D01*
X102212833Y-46370535D01*
X102212826Y-46370540D01*
X102035296Y-46494847D01*
X102035291Y-46494850D01*
X102030861Y-46497953D01*
X102027037Y-46501776D01*
X102027031Y-46501782D01*
X101873782Y-46655031D01*
X101873776Y-46655037D01*
X101869953Y-46658861D01*
X101866850Y-46663291D01*
X101866847Y-46663296D01*
X101742540Y-46840826D01*
X101742535Y-46840833D01*
X101739432Y-46845266D01*
X101737144Y-46850172D01*
X101737142Y-46850176D01*
X101645550Y-47046594D01*
X101645547Y-47046599D01*
X101643261Y-47051504D01*
X101641862Y-47056724D01*
X101641858Y-47056736D01*
X101585764Y-47266083D01*
X101585762Y-47266094D01*
X101584365Y-47271308D01*
X101583893Y-47276693D01*
X101583893Y-47276698D01*
X101565004Y-47492605D01*
X101564532Y-47498000D01*
X100338300Y-47498000D01*
X100319134Y-47266695D01*
X100262157Y-47041700D01*
X100168924Y-46829151D01*
X100041979Y-46634847D01*
X99884784Y-46464087D01*
X99856125Y-46441781D01*
X99705672Y-46324679D01*
X99705671Y-46324678D01*
X99701626Y-46321530D01*
X99606145Y-46269858D01*
X99502007Y-46213501D01*
X99502002Y-46213499D01*
X99497503Y-46211064D01*
X99492657Y-46209400D01*
X99492654Y-46209399D01*
X99282834Y-46137368D01*
X99282833Y-46137367D01*
X99277981Y-46135702D01*
X99272931Y-46134859D01*
X99272922Y-46134857D01*
X99054111Y-46098344D01*
X99054102Y-46098343D01*
X99049049Y-46097500D01*
X98816951Y-46097500D01*
X98811898Y-46098343D01*
X98811888Y-46098344D01*
X98593077Y-46134857D01*
X98593065Y-46134859D01*
X98588019Y-46135702D01*
X98583169Y-46137366D01*
X98583165Y-46137368D01*
X98373345Y-46209399D01*
X98373337Y-46209402D01*
X98368497Y-46211064D01*
X98364001Y-46213496D01*
X98363992Y-46213501D01*
X98168882Y-46319090D01*
X98168878Y-46319092D01*
X98164374Y-46321530D01*
X98160334Y-46324674D01*
X98160327Y-46324679D01*
X97985263Y-46460936D01*
X97985255Y-46460943D01*
X97981216Y-46464087D01*
X97977746Y-46467855D01*
X97977742Y-46467860D01*
X97827491Y-46631077D01*
X97827488Y-46631080D01*
X97824021Y-46634847D01*
X97821226Y-46639124D01*
X97821219Y-46639134D01*
X97711669Y-46806814D01*
X97697076Y-46829151D01*
X97695021Y-46833835D01*
X97695016Y-46833845D01*
X97619456Y-47006106D01*
X97603843Y-47041700D01*
X97602585Y-47046665D01*
X97602584Y-47046670D01*
X97548125Y-47261720D01*
X97548123Y-47261729D01*
X97546866Y-47266695D01*
X97546442Y-47271802D01*
X97546441Y-47271813D01*
X97528200Y-47491955D01*
X97527700Y-47498000D01*
X70553056Y-47498000D01*
X70612342Y-47339047D01*
X70614828Y-47330578D01*
X70673757Y-47059690D01*
X70675016Y-47050934D01*
X70694793Y-46774418D01*
X70694793Y-46765582D01*
X70675016Y-46489065D01*
X70673757Y-46480309D01*
X70614828Y-46209421D01*
X70612342Y-46200952D01*
X70515458Y-45941196D01*
X70511787Y-45933158D01*
X70378931Y-45689849D01*
X70374147Y-45682406D01*
X70280800Y-45557710D01*
X70269689Y-45549392D01*
X70257508Y-45556044D01*
X69055095Y-46758457D01*
X69048431Y-46769999D01*
X68331567Y-46769999D01*
X68324903Y-46758457D01*
X67119308Y-45552862D01*
X67110135Y-45546967D01*
X67101894Y-45554108D01*
X67005855Y-45682402D01*
X67001068Y-45689850D01*
X66868212Y-45933158D01*
X66864541Y-45941196D01*
X66767657Y-46200952D01*
X66765171Y-46209421D01*
X66706242Y-46480309D01*
X66704983Y-46489065D01*
X66685207Y-46765582D01*
X66685207Y-46774418D01*
X64526500Y-46774418D01*
X64526500Y-45190135D01*
X67466967Y-45190135D01*
X67472862Y-45199308D01*
X68678457Y-46404903D01*
X68690000Y-46411567D01*
X68701542Y-46404903D01*
X69903954Y-45202490D01*
X69910606Y-45190309D01*
X69902288Y-45179198D01*
X69777593Y-45085852D01*
X69770150Y-45081068D01*
X69526841Y-44948212D01*
X69518803Y-44944541D01*
X69259047Y-44847657D01*
X69250578Y-44845171D01*
X68979690Y-44786242D01*
X68970934Y-44784983D01*
X68694418Y-44765207D01*
X68685582Y-44765207D01*
X68409065Y-44784983D01*
X68400309Y-44786242D01*
X68129421Y-44845171D01*
X68120952Y-44847657D01*
X67861196Y-44944541D01*
X67853158Y-44948212D01*
X67609850Y-45081068D01*
X67602402Y-45085855D01*
X67474108Y-45181894D01*
X67466967Y-45190135D01*
X64526500Y-45190135D01*
X64526500Y-44560425D01*
X72067500Y-44560425D01*
X72067779Y-44563354D01*
X72067780Y-44563360D01*
X72081829Y-44710491D01*
X72082472Y-44717218D01*
X72141684Y-44918875D01*
X72237989Y-45105682D01*
X72241642Y-45110327D01*
X72344340Y-45240918D01*
X72367908Y-45270886D01*
X72526744Y-45408519D01*
X72708756Y-45513604D01*
X72907367Y-45582344D01*
X73115398Y-45612254D01*
X73325330Y-45602254D01*
X73529576Y-45552704D01*
X73720753Y-45465396D01*
X73891952Y-45343486D01*
X73989751Y-45240916D01*
X74036697Y-45210106D01*
X74092422Y-45203163D01*
X74145495Y-45221512D01*
X74185031Y-45261389D01*
X74225288Y-45326656D01*
X74349344Y-45450712D01*
X74355485Y-45454500D01*
X74355488Y-45454502D01*
X74377129Y-45467850D01*
X74498666Y-45542814D01*
X74665203Y-45597999D01*
X74767991Y-45608500D01*
X75568008Y-45608499D01*
X75670797Y-45597999D01*
X75837334Y-45542814D01*
X75986656Y-45450712D01*
X76110712Y-45326656D01*
X76202814Y-45177334D01*
X76257999Y-45010797D01*
X76268500Y-44908009D01*
X76268500Y-44560425D01*
X79703500Y-44560425D01*
X79703779Y-44563354D01*
X79703780Y-44563360D01*
X79717829Y-44710491D01*
X79718472Y-44717218D01*
X79777684Y-44918875D01*
X79873989Y-45105682D01*
X79877642Y-45110327D01*
X79980340Y-45240918D01*
X80003908Y-45270886D01*
X80162744Y-45408519D01*
X80344756Y-45513604D01*
X80543367Y-45582344D01*
X80751398Y-45612254D01*
X80961330Y-45602254D01*
X81165576Y-45552704D01*
X81356753Y-45465396D01*
X81527952Y-45343486D01*
X81625751Y-45240916D01*
X81672697Y-45210106D01*
X81728422Y-45203163D01*
X81781495Y-45221512D01*
X81821031Y-45261389D01*
X81861288Y-45326656D01*
X81985344Y-45450712D01*
X81991485Y-45454500D01*
X81991488Y-45454502D01*
X82013129Y-45467850D01*
X82134666Y-45542814D01*
X82301203Y-45597999D01*
X82403991Y-45608500D01*
X83204008Y-45608499D01*
X83306797Y-45597999D01*
X83473334Y-45542814D01*
X83622656Y-45450712D01*
X83746712Y-45326656D01*
X83813991Y-45217578D01*
X86279500Y-45217578D01*
X86279501Y-45220872D01*
X86279853Y-45224150D01*
X86279854Y-45224161D01*
X86285079Y-45272768D01*
X86285080Y-45272773D01*
X86285909Y-45280483D01*
X86288619Y-45287749D01*
X86288620Y-45287753D01*
X86313739Y-45355100D01*
X86336204Y-45415331D01*
X86341518Y-45422430D01*
X86341519Y-45422431D01*
X86407557Y-45510647D01*
X86422454Y-45530546D01*
X86537669Y-45616796D01*
X86672517Y-45667091D01*
X86732127Y-45673500D01*
X88527872Y-45673499D01*
X88587483Y-45667091D01*
X88722331Y-45616796D01*
X88837546Y-45530546D01*
X88923796Y-45415331D01*
X88972810Y-45283916D01*
X89007789Y-45233537D01*
X89062634Y-45206084D01*
X89123927Y-45208273D01*
X89176673Y-45239569D01*
X89298599Y-45361495D01*
X89492170Y-45497035D01*
X89706337Y-45596903D01*
X89934592Y-45658063D01*
X90170000Y-45678659D01*
X90405408Y-45658063D01*
X90633663Y-45596903D01*
X90847830Y-45497035D01*
X91041401Y-45361495D01*
X91045233Y-45357663D01*
X91049373Y-45354189D01*
X91050138Y-45355100D01*
X91083305Y-45332939D01*
X91130758Y-45323500D01*
X91749242Y-45323500D01*
X91796695Y-45332939D01*
X91829861Y-45355100D01*
X91830627Y-45354189D01*
X91834767Y-45357663D01*
X91838599Y-45361495D01*
X92032170Y-45497035D01*
X92246337Y-45596903D01*
X92474592Y-45658063D01*
X92710000Y-45678659D01*
X92945408Y-45658063D01*
X93173663Y-45596903D01*
X93387830Y-45497035D01*
X93581401Y-45361495D01*
X93748495Y-45194401D01*
X93760446Y-45177334D01*
X93878425Y-45008842D01*
X93922743Y-44969976D01*
X93980000Y-44955965D01*
X94037257Y-44969976D01*
X94081575Y-45008842D01*
X94208395Y-45189961D01*
X94208401Y-45189968D01*
X94211505Y-45194401D01*
X94378599Y-45361495D01*
X94572170Y-45497035D01*
X94786337Y-45596903D01*
X95014592Y-45658063D01*
X95250000Y-45678659D01*
X95485408Y-45658063D01*
X95713663Y-45596903D01*
X95927830Y-45497035D01*
X96121401Y-45361495D01*
X96288495Y-45194401D01*
X96424035Y-45000830D01*
X96523903Y-44786663D01*
X96585063Y-44558408D01*
X96605659Y-44323000D01*
X96585063Y-44087592D01*
X96552512Y-43966109D01*
X96552512Y-43901923D01*
X96584606Y-43846336D01*
X96640193Y-43814242D01*
X96704381Y-43814242D01*
X96759968Y-43846336D01*
X97341270Y-44427638D01*
X97353052Y-44441271D01*
X97367390Y-44460530D01*
X97372917Y-44465167D01*
X97372922Y-44465173D01*
X97405337Y-44492372D01*
X97413312Y-44499680D01*
X97417223Y-44503591D01*
X97441556Y-44522831D01*
X97444310Y-44525073D01*
X97501786Y-44573302D01*
X97508245Y-44576546D01*
X97511134Y-44578446D01*
X97511413Y-44578648D01*
X97511713Y-44578815D01*
X97514654Y-44580629D01*
X97520323Y-44585111D01*
X97588321Y-44616819D01*
X97591534Y-44618374D01*
X97658567Y-44652040D01*
X97665594Y-44653705D01*
X97668835Y-44654885D01*
X97669164Y-44655021D01*
X97669498Y-44655116D01*
X97672778Y-44656202D01*
X97679327Y-44659257D01*
X97752894Y-44674447D01*
X97756257Y-44675193D01*
X97829279Y-44692500D01*
X97836510Y-44692500D01*
X97839933Y-44692900D01*
X97840285Y-44692957D01*
X97840626Y-44692972D01*
X97844069Y-44693273D01*
X97851144Y-44694734D01*
X97926129Y-44692552D01*
X97929737Y-44692500D01*
X104939254Y-44692500D01*
X105003582Y-44710491D01*
X105049243Y-44759243D01*
X105062988Y-44824610D01*
X105040829Y-44887624D01*
X104917967Y-45063087D01*
X104912579Y-45072419D01*
X104821020Y-45268768D01*
X104817332Y-45278902D01*
X104761260Y-45488162D01*
X104759386Y-45498793D01*
X104740506Y-45714605D01*
X104740506Y-45725395D01*
X104759386Y-45941206D01*
X104761260Y-45951837D01*
X104817332Y-46161097D01*
X104821020Y-46171231D01*
X104912576Y-46367572D01*
X104917974Y-46376922D01*
X104958184Y-46434348D01*
X104966295Y-46441781D01*
X104975574Y-46435870D01*
X105957318Y-45454127D01*
X106012905Y-45422033D01*
X106077093Y-45422033D01*
X106132680Y-45454127D01*
X107114421Y-46435867D01*
X107123703Y-46441780D01*
X107131814Y-46434348D01*
X107172026Y-46376920D01*
X107177422Y-46367575D01*
X107268979Y-46171231D01*
X107272667Y-46161097D01*
X107328739Y-45951837D01*
X107330613Y-45941206D01*
X107349494Y-45725395D01*
X107349494Y-45714605D01*
X107330613Y-45498793D01*
X107328739Y-45488162D01*
X107272667Y-45278902D01*
X107268979Y-45268768D01*
X107177420Y-45072419D01*
X107172032Y-45063087D01*
X107049171Y-44887624D01*
X107027012Y-44824610D01*
X107040757Y-44759243D01*
X107086418Y-44710491D01*
X107150746Y-44692500D01*
X114064770Y-44692500D01*
X114112223Y-44701939D01*
X114152451Y-44728819D01*
X114878282Y-45454650D01*
X114907123Y-45499920D01*
X114914129Y-45553137D01*
X114900004Y-45714603D01*
X114899532Y-45720000D01*
X114919365Y-45946692D01*
X114920762Y-45951907D01*
X114920764Y-45951916D01*
X114976858Y-46161263D01*
X114976861Y-46161271D01*
X114978261Y-46166496D01*
X114980549Y-46171403D01*
X114980550Y-46171405D01*
X115026460Y-46269858D01*
X115074432Y-46372734D01*
X115204953Y-46559139D01*
X115365861Y-46720047D01*
X115552266Y-46850568D01*
X115758504Y-46946739D01*
X115978308Y-47005635D01*
X116205000Y-47025468D01*
X116431692Y-47005635D01*
X116651496Y-46946739D01*
X116857734Y-46850568D01*
X117044139Y-46720047D01*
X117205047Y-46559139D01*
X117335568Y-46372734D01*
X117431739Y-46166496D01*
X117490635Y-45946692D01*
X117510468Y-45720000D01*
X117490635Y-45493308D01*
X117480137Y-45454127D01*
X117433141Y-45278736D01*
X117433140Y-45278734D01*
X117431739Y-45273504D01*
X117335568Y-45067266D01*
X117205047Y-44880861D01*
X117044139Y-44719953D01*
X116857734Y-44589432D01*
X116717287Y-44523940D01*
X116656405Y-44495550D01*
X116656403Y-44495549D01*
X116651496Y-44493261D01*
X116646271Y-44491861D01*
X116646263Y-44491858D01*
X116436916Y-44435764D01*
X116436907Y-44435762D01*
X116431692Y-44434365D01*
X116426304Y-44433893D01*
X116426301Y-44433893D01*
X116210395Y-44415004D01*
X116205000Y-44414532D01*
X116199605Y-44415004D01*
X116199603Y-44415004D01*
X116038137Y-44429129D01*
X115984920Y-44422123D01*
X115939650Y-44393282D01*
X115002729Y-43456361D01*
X114990947Y-43442727D01*
X114980925Y-43429265D01*
X114980921Y-43429261D01*
X114976610Y-43423470D01*
X114938667Y-43391631D01*
X114930691Y-43384323D01*
X114929329Y-43382961D01*
X114929328Y-43382960D01*
X114926777Y-43380409D01*
X114923953Y-43378176D01*
X114923944Y-43378168D01*
X114904075Y-43362459D01*
X114902441Y-43361167D01*
X114899674Y-43358913D01*
X114842214Y-43310698D01*
X114835760Y-43307456D01*
X114832859Y-43305548D01*
X114832588Y-43305352D01*
X114832292Y-43305187D01*
X114829339Y-43303366D01*
X114823677Y-43298889D01*
X114817134Y-43295838D01*
X114817131Y-43295836D01*
X114755692Y-43267186D01*
X114752446Y-43265615D01*
X114691884Y-43235200D01*
X114691885Y-43235200D01*
X114685433Y-43231960D01*
X114678409Y-43230295D01*
X114675151Y-43229109D01*
X114674832Y-43228977D01*
X114674504Y-43228884D01*
X114671218Y-43227795D01*
X114664673Y-43224743D01*
X114657604Y-43223283D01*
X114657600Y-43223282D01*
X114591212Y-43209574D01*
X114587691Y-43208794D01*
X114521741Y-43193163D01*
X114521734Y-43193162D01*
X114514721Y-43191500D01*
X114507510Y-43191500D01*
X114504061Y-43191097D01*
X114503727Y-43191043D01*
X114503374Y-43191028D01*
X114499929Y-43190726D01*
X114492856Y-43189266D01*
X114485638Y-43189476D01*
X114417870Y-43191448D01*
X114414263Y-43191500D01*
X107537048Y-43191500D01*
X107480753Y-43177985D01*
X107436730Y-43140385D01*
X107414575Y-43086898D01*
X107419117Y-43029182D01*
X107449367Y-42979819D01*
X107478725Y-42950461D01*
X107553047Y-42876139D01*
X107683568Y-42689734D01*
X107779739Y-42483496D01*
X107838635Y-42263692D01*
X107858468Y-42037000D01*
X115407532Y-42037000D01*
X115408004Y-42042395D01*
X115426602Y-42254977D01*
X115427365Y-42263692D01*
X115428762Y-42268907D01*
X115428764Y-42268916D01*
X115484858Y-42478263D01*
X115484861Y-42478271D01*
X115486261Y-42483496D01*
X115582432Y-42689734D01*
X115712953Y-42876139D01*
X115873861Y-43037047D01*
X116060266Y-43167568D01*
X116266504Y-43263739D01*
X116271734Y-43265140D01*
X116271736Y-43265141D01*
X116481083Y-43321235D01*
X116486308Y-43322635D01*
X116713000Y-43342468D01*
X116939692Y-43322635D01*
X117159496Y-43263739D01*
X117365734Y-43167568D01*
X117462209Y-43100016D01*
X117517566Y-43078599D01*
X117576540Y-43085366D01*
X117625611Y-43118769D01*
X117653533Y-43171152D01*
X117659022Y-43192823D01*
X117668605Y-43230669D01*
X117674843Y-43255300D01*
X117685498Y-43279590D01*
X117766016Y-43463154D01*
X117766019Y-43463159D01*
X117768076Y-43467849D01*
X117816010Y-43541217D01*
X117892219Y-43657865D01*
X117892222Y-43657869D01*
X117895021Y-43662153D01*
X118052216Y-43832913D01*
X118056262Y-43836062D01*
X118056263Y-43836063D01*
X118140880Y-43901923D01*
X118235374Y-43975470D01*
X118439497Y-44085936D01*
X118659019Y-44161298D01*
X118887951Y-44199500D01*
X119114916Y-44199500D01*
X119120049Y-44199500D01*
X119348981Y-44161298D01*
X119568503Y-44085936D01*
X119772626Y-43975470D01*
X119955784Y-43832913D01*
X119964510Y-43823433D01*
X120017132Y-43789578D01*
X120079587Y-43785728D01*
X120135970Y-43812866D01*
X120171924Y-43864080D01*
X120197548Y-43932779D01*
X120205962Y-43948189D01*
X120281498Y-44049092D01*
X120293907Y-44061501D01*
X120394810Y-44137037D01*
X120410222Y-44145452D01*
X120529358Y-44189888D01*
X120544332Y-44193426D01*
X120592885Y-44198646D01*
X120599482Y-44199000D01*
X121277674Y-44199000D01*
X121290549Y-44195549D01*
X121294000Y-44182674D01*
X121794000Y-44182674D01*
X121797450Y-44195549D01*
X121810326Y-44199000D01*
X122488518Y-44199000D01*
X122495114Y-44198646D01*
X122543667Y-44193426D01*
X122558641Y-44189888D01*
X122677777Y-44145452D01*
X122693189Y-44137037D01*
X122794092Y-44061501D01*
X122806501Y-44049092D01*
X122882037Y-43948189D01*
X122890452Y-43932777D01*
X122934888Y-43813641D01*
X122938426Y-43798667D01*
X122943646Y-43750114D01*
X122944000Y-43743518D01*
X122944000Y-43065326D01*
X122940549Y-43052450D01*
X122927674Y-43049000D01*
X121810326Y-43049000D01*
X121797450Y-43052450D01*
X121794000Y-43065326D01*
X121794000Y-44182674D01*
X121294000Y-44182674D01*
X121294000Y-42532674D01*
X121794000Y-42532674D01*
X121797450Y-42545549D01*
X121810326Y-42549000D01*
X122927674Y-42549000D01*
X122940549Y-42545549D01*
X122940696Y-42545000D01*
X124043532Y-42545000D01*
X124044004Y-42550395D01*
X124060873Y-42743217D01*
X124063365Y-42771692D01*
X124064762Y-42776907D01*
X124064764Y-42776916D01*
X124120858Y-42986263D01*
X124120861Y-42986271D01*
X124122261Y-42991496D01*
X124124549Y-42996403D01*
X124124550Y-42996405D01*
X124154833Y-43061347D01*
X124218432Y-43197734D01*
X124221539Y-43202171D01*
X124221540Y-43202173D01*
X124279189Y-43284505D01*
X124348953Y-43384139D01*
X124509861Y-43545047D01*
X124696266Y-43675568D01*
X124902504Y-43771739D01*
X125122308Y-43830635D01*
X125292216Y-43845500D01*
X125403075Y-43845500D01*
X125405784Y-43845500D01*
X125575692Y-43830635D01*
X125795496Y-43771739D01*
X126001734Y-43675568D01*
X126188139Y-43545047D01*
X126349047Y-43384139D01*
X126479568Y-43197734D01*
X126575739Y-42991496D01*
X126634635Y-42771692D01*
X126654468Y-42545000D01*
X126634635Y-42318308D01*
X126575739Y-42098504D01*
X126479568Y-41892266D01*
X126349047Y-41705861D01*
X126188139Y-41544953D01*
X126088819Y-41475409D01*
X126006173Y-41417540D01*
X126006171Y-41417539D01*
X126001734Y-41414432D01*
X125921410Y-41376976D01*
X125800405Y-41320550D01*
X125800403Y-41320549D01*
X125795496Y-41318261D01*
X125790271Y-41316861D01*
X125790263Y-41316858D01*
X125580916Y-41260764D01*
X125580907Y-41260762D01*
X125575692Y-41259365D01*
X125570304Y-41258893D01*
X125570301Y-41258893D01*
X125408484Y-41244736D01*
X125408479Y-41244735D01*
X125405784Y-41244500D01*
X125292216Y-41244500D01*
X125289521Y-41244735D01*
X125289515Y-41244736D01*
X125127698Y-41258893D01*
X125127693Y-41258893D01*
X125122308Y-41259365D01*
X125117094Y-41260762D01*
X125117083Y-41260764D01*
X124907736Y-41316858D01*
X124907724Y-41316862D01*
X124902504Y-41318261D01*
X124897599Y-41320547D01*
X124897594Y-41320550D01*
X124701176Y-41412142D01*
X124701172Y-41412144D01*
X124696266Y-41414432D01*
X124691833Y-41417535D01*
X124691826Y-41417540D01*
X124514296Y-41541847D01*
X124514291Y-41541850D01*
X124509861Y-41544953D01*
X124506037Y-41548776D01*
X124506031Y-41548782D01*
X124352782Y-41702031D01*
X124352776Y-41702037D01*
X124348953Y-41705861D01*
X124345850Y-41710291D01*
X124345847Y-41710296D01*
X124221540Y-41887826D01*
X124221535Y-41887833D01*
X124218432Y-41892266D01*
X124216144Y-41897172D01*
X124216142Y-41897176D01*
X124124550Y-42093594D01*
X124124547Y-42093599D01*
X124122261Y-42098504D01*
X124120862Y-42103724D01*
X124120858Y-42103736D01*
X124064764Y-42313083D01*
X124064762Y-42313094D01*
X124063365Y-42318308D01*
X124062893Y-42323693D01*
X124062893Y-42323698D01*
X124053942Y-42426012D01*
X124043532Y-42545000D01*
X122940696Y-42545000D01*
X122944000Y-42532674D01*
X122944000Y-41854482D01*
X122943646Y-41847885D01*
X122938426Y-41799332D01*
X122934888Y-41784358D01*
X122890452Y-41665222D01*
X122882037Y-41649810D01*
X122806501Y-41548907D01*
X122794092Y-41536498D01*
X122693189Y-41460962D01*
X122677777Y-41452547D01*
X122558641Y-41408111D01*
X122543667Y-41404573D01*
X122495114Y-41399353D01*
X122488518Y-41399000D01*
X121810326Y-41399000D01*
X121797450Y-41402450D01*
X121794000Y-41415326D01*
X121794000Y-42532674D01*
X121294000Y-42532674D01*
X121294000Y-41415326D01*
X121290549Y-41402450D01*
X121277674Y-41399000D01*
X120599482Y-41399000D01*
X120592885Y-41399353D01*
X120544332Y-41404573D01*
X120529358Y-41408111D01*
X120410222Y-41452547D01*
X120394810Y-41460962D01*
X120293907Y-41536498D01*
X120281498Y-41548907D01*
X120205962Y-41649810D01*
X120197545Y-41665224D01*
X120171923Y-41733920D01*
X120135971Y-41785133D01*
X120079590Y-41812270D01*
X120017136Y-41808422D01*
X119964513Y-41774569D01*
X119959258Y-41768861D01*
X119955784Y-41765087D01*
X119915740Y-41733920D01*
X119776672Y-41625679D01*
X119776671Y-41625678D01*
X119772626Y-41622530D01*
X119658158Y-41560583D01*
X119573007Y-41514501D01*
X119573002Y-41514499D01*
X119568503Y-41512064D01*
X119563657Y-41510400D01*
X119563654Y-41510399D01*
X119353834Y-41438368D01*
X119353833Y-41438367D01*
X119348981Y-41436702D01*
X119343931Y-41435859D01*
X119343922Y-41435857D01*
X119125111Y-41399344D01*
X119125102Y-41399343D01*
X119120049Y-41398500D01*
X118887951Y-41398500D01*
X118882898Y-41399343D01*
X118882888Y-41399344D01*
X118664077Y-41435857D01*
X118664065Y-41435859D01*
X118659019Y-41436702D01*
X118654169Y-41438366D01*
X118654165Y-41438368D01*
X118444345Y-41510399D01*
X118444337Y-41510402D01*
X118439497Y-41512064D01*
X118435001Y-41514496D01*
X118434992Y-41514501D01*
X118239882Y-41620090D01*
X118239878Y-41620092D01*
X118235374Y-41622530D01*
X118231338Y-41625670D01*
X118231320Y-41625683D01*
X118145399Y-41692558D01*
X118090067Y-41716942D01*
X118029783Y-41712259D01*
X117978880Y-41679624D01*
X117949463Y-41626795D01*
X117948320Y-41622530D01*
X117939739Y-41590504D01*
X117843568Y-41384266D01*
X117713047Y-41197861D01*
X117552139Y-41036953D01*
X117432239Y-40952999D01*
X117370173Y-40909540D01*
X117370171Y-40909539D01*
X117365734Y-40906432D01*
X117159496Y-40810261D01*
X117154271Y-40808861D01*
X117154263Y-40808858D01*
X116944916Y-40752764D01*
X116944907Y-40752762D01*
X116939692Y-40751365D01*
X116934304Y-40750893D01*
X116934301Y-40750893D01*
X116718395Y-40732004D01*
X116713000Y-40731532D01*
X116707605Y-40732004D01*
X116491698Y-40750893D01*
X116491693Y-40750893D01*
X116486308Y-40751365D01*
X116481094Y-40752762D01*
X116481083Y-40752764D01*
X116271736Y-40808858D01*
X116271724Y-40808862D01*
X116266504Y-40810261D01*
X116261599Y-40812547D01*
X116261594Y-40812550D01*
X116065176Y-40904142D01*
X116065172Y-40904144D01*
X116060266Y-40906432D01*
X116055833Y-40909535D01*
X116055826Y-40909540D01*
X115878296Y-41033847D01*
X115878291Y-41033850D01*
X115873861Y-41036953D01*
X115870037Y-41040776D01*
X115870031Y-41040782D01*
X115716782Y-41194031D01*
X115716776Y-41194037D01*
X115712953Y-41197861D01*
X115709850Y-41202291D01*
X115709847Y-41202296D01*
X115585540Y-41379826D01*
X115585535Y-41379833D01*
X115582432Y-41384266D01*
X115580144Y-41389172D01*
X115580142Y-41389176D01*
X115488550Y-41585594D01*
X115488547Y-41585599D01*
X115486261Y-41590504D01*
X115484862Y-41595724D01*
X115484858Y-41595736D01*
X115428764Y-41805083D01*
X115428762Y-41805094D01*
X115427365Y-41810308D01*
X115426893Y-41815693D01*
X115426893Y-41815698D01*
X115419765Y-41897176D01*
X115407532Y-42037000D01*
X107858468Y-42037000D01*
X107838635Y-41810308D01*
X107795630Y-41649810D01*
X107781141Y-41595736D01*
X107781140Y-41595734D01*
X107779739Y-41590504D01*
X107683568Y-41384266D01*
X107553047Y-41197861D01*
X107392139Y-41036953D01*
X107272239Y-40952999D01*
X107210173Y-40909540D01*
X107210171Y-40909539D01*
X107205734Y-40906432D01*
X106999496Y-40810261D01*
X106994271Y-40808861D01*
X106994263Y-40808858D01*
X106784916Y-40752764D01*
X106784907Y-40752762D01*
X106779692Y-40751365D01*
X106774304Y-40750893D01*
X106774301Y-40750893D01*
X106558395Y-40732004D01*
X106553000Y-40731532D01*
X106547605Y-40732004D01*
X106331698Y-40750893D01*
X106331693Y-40750893D01*
X106326308Y-40751365D01*
X106321094Y-40752762D01*
X106321083Y-40752764D01*
X106111736Y-40808858D01*
X106111724Y-40808862D01*
X106106504Y-40810261D01*
X106101599Y-40812547D01*
X106101594Y-40812550D01*
X105905176Y-40904142D01*
X105905172Y-40904144D01*
X105900266Y-40906432D01*
X105895833Y-40909535D01*
X105895826Y-40909540D01*
X105718296Y-41033847D01*
X105718291Y-41033850D01*
X105713861Y-41036953D01*
X105710037Y-41040776D01*
X105710031Y-41040782D01*
X105556782Y-41194031D01*
X105556776Y-41194037D01*
X105552953Y-41197861D01*
X105549850Y-41202291D01*
X105549847Y-41202296D01*
X105487285Y-41291645D01*
X105442443Y-41330783D01*
X105384530Y-41344516D01*
X105326888Y-41329683D01*
X105282799Y-41289699D01*
X105262420Y-41233777D01*
X105257426Y-41187332D01*
X105253888Y-41172358D01*
X105209452Y-41053222D01*
X105201037Y-41037810D01*
X105125501Y-40936907D01*
X105113092Y-40924498D01*
X105012189Y-40848962D01*
X104996777Y-40840547D01*
X104877641Y-40796111D01*
X104862667Y-40792573D01*
X104814114Y-40787353D01*
X104807518Y-40787000D01*
X104279326Y-40787000D01*
X104266450Y-40790450D01*
X104263000Y-40803326D01*
X104263000Y-42163000D01*
X104246387Y-42225000D01*
X104201000Y-42270387D01*
X104139000Y-42287000D01*
X103887000Y-42287000D01*
X103825000Y-42270387D01*
X103779613Y-42225000D01*
X103763000Y-42163000D01*
X103763000Y-40803326D01*
X103759549Y-40790450D01*
X103746674Y-40787000D01*
X103218482Y-40787000D01*
X103211885Y-40787353D01*
X103163332Y-40792573D01*
X103148358Y-40796111D01*
X103029222Y-40840547D01*
X103013810Y-40848962D01*
X102912907Y-40924498D01*
X102900498Y-40936907D01*
X102824962Y-41037810D01*
X102816547Y-41053222D01*
X102772111Y-41172358D01*
X102768573Y-41187332D01*
X102763353Y-41235885D01*
X102763000Y-41242482D01*
X102763000Y-41305853D01*
X102747453Y-41365969D01*
X102704710Y-41411011D01*
X102645489Y-41429683D01*
X102584642Y-41417303D01*
X102537425Y-41376976D01*
X102526773Y-41361763D01*
X102434598Y-41230123D01*
X102279877Y-41075402D01*
X102275446Y-41072299D01*
X102275442Y-41072296D01*
X102105068Y-40952999D01*
X102105066Y-40952997D01*
X102100639Y-40949898D01*
X102095742Y-40947614D01*
X102095736Y-40947611D01*
X101907236Y-40859712D01*
X101907229Y-40859709D01*
X101902330Y-40857425D01*
X101897103Y-40856024D01*
X101897102Y-40856024D01*
X101696209Y-40802194D01*
X101696199Y-40802192D01*
X101690977Y-40800793D01*
X101685585Y-40800321D01*
X101685578Y-40800320D01*
X101478395Y-40782195D01*
X101473000Y-40781723D01*
X101467605Y-40782195D01*
X101260421Y-40800320D01*
X101260412Y-40800321D01*
X101255023Y-40800793D01*
X101249802Y-40802191D01*
X101249790Y-40802194D01*
X101048897Y-40856024D01*
X101048892Y-40856025D01*
X101043670Y-40857425D01*
X101038774Y-40859707D01*
X101038763Y-40859712D01*
X100850272Y-40947608D01*
X100850268Y-40947610D01*
X100845362Y-40949898D01*
X100840929Y-40953001D01*
X100840922Y-40953006D01*
X100670558Y-41072296D01*
X100670553Y-41072299D01*
X100666123Y-41075402D01*
X100662299Y-41079225D01*
X100662293Y-41079231D01*
X100515231Y-41226293D01*
X100515225Y-41226299D01*
X100511402Y-41230123D01*
X100508299Y-41234553D01*
X100508296Y-41234558D01*
X100389006Y-41404922D01*
X100389001Y-41404929D01*
X100385898Y-41409362D01*
X100383610Y-41414268D01*
X100383608Y-41414272D01*
X100315382Y-41560583D01*
X100269625Y-41612759D01*
X100203000Y-41632178D01*
X100136375Y-41612759D01*
X100090618Y-41560583D01*
X100068912Y-41514034D01*
X100020102Y-41409362D01*
X99894598Y-41230123D01*
X99739877Y-41075402D01*
X99735446Y-41072299D01*
X99735442Y-41072296D01*
X99565068Y-40952999D01*
X99565066Y-40952997D01*
X99560639Y-40949898D01*
X99555742Y-40947614D01*
X99555736Y-40947611D01*
X99367236Y-40859712D01*
X99367229Y-40859709D01*
X99362330Y-40857425D01*
X99357103Y-40856024D01*
X99357102Y-40856024D01*
X99156209Y-40802194D01*
X99156199Y-40802192D01*
X99150977Y-40800793D01*
X99145585Y-40800321D01*
X99145578Y-40800320D01*
X98938395Y-40782195D01*
X98933000Y-40781723D01*
X98927605Y-40782195D01*
X98720421Y-40800320D01*
X98720412Y-40800321D01*
X98715023Y-40800793D01*
X98709802Y-40802191D01*
X98709790Y-40802194D01*
X98508897Y-40856024D01*
X98508892Y-40856025D01*
X98503670Y-40857425D01*
X98498774Y-40859707D01*
X98498763Y-40859712D01*
X98310272Y-40947608D01*
X98310268Y-40947610D01*
X98305362Y-40949898D01*
X98300929Y-40953001D01*
X98300922Y-40953006D01*
X98130558Y-41072296D01*
X98130553Y-41072299D01*
X98126123Y-41075402D01*
X98122299Y-41079225D01*
X98122293Y-41079231D01*
X97975231Y-41226293D01*
X97975225Y-41226299D01*
X97971402Y-41230123D01*
X97968299Y-41234553D01*
X97968296Y-41234558D01*
X97849006Y-41404922D01*
X97849001Y-41404929D01*
X97845898Y-41409362D01*
X97843610Y-41414268D01*
X97843608Y-41414272D01*
X97755712Y-41602763D01*
X97755707Y-41602774D01*
X97753425Y-41607670D01*
X97752025Y-41612892D01*
X97752024Y-41612897D01*
X97698194Y-41813790D01*
X97698191Y-41813802D01*
X97696793Y-41819023D01*
X97696321Y-41824412D01*
X97696320Y-41824421D01*
X97678467Y-42028487D01*
X97677723Y-42037000D01*
X97678195Y-42042395D01*
X97696320Y-42249578D01*
X97696321Y-42249585D01*
X97696793Y-42254977D01*
X97698193Y-42260204D01*
X97698195Y-42260212D01*
X97725422Y-42361825D01*
X97725422Y-42426012D01*
X97693328Y-42481600D01*
X97637740Y-42513693D01*
X97573553Y-42513693D01*
X97517966Y-42481599D01*
X97398192Y-42361825D01*
X96587729Y-41551361D01*
X96575947Y-41537727D01*
X96565925Y-41524265D01*
X96565921Y-41524261D01*
X96561610Y-41518470D01*
X96554763Y-41512725D01*
X96523666Y-41486631D01*
X96515691Y-41479323D01*
X96514329Y-41477961D01*
X96511777Y-41475409D01*
X96508953Y-41473176D01*
X96508944Y-41473168D01*
X96487445Y-41456170D01*
X96484674Y-41453913D01*
X96427214Y-41405698D01*
X96420760Y-41402456D01*
X96417859Y-41400548D01*
X96417588Y-41400352D01*
X96417292Y-41400187D01*
X96414339Y-41398366D01*
X96408677Y-41393889D01*
X96402134Y-41390838D01*
X96402131Y-41390836D01*
X96340692Y-41362186D01*
X96337446Y-41360615D01*
X96332205Y-41357983D01*
X96270433Y-41326960D01*
X96263409Y-41325295D01*
X96260151Y-41324109D01*
X96259832Y-41323977D01*
X96259504Y-41323884D01*
X96256218Y-41322795D01*
X96249673Y-41319743D01*
X96242604Y-41318283D01*
X96242600Y-41318282D01*
X96176212Y-41304574D01*
X96172691Y-41303794D01*
X96106741Y-41288163D01*
X96106734Y-41288162D01*
X96099721Y-41286500D01*
X96092510Y-41286500D01*
X96089061Y-41286097D01*
X96088727Y-41286043D01*
X96088374Y-41286028D01*
X96084929Y-41285726D01*
X96077856Y-41284266D01*
X96070638Y-41284476D01*
X96002870Y-41286448D01*
X95999263Y-41286500D01*
X94551707Y-41286500D01*
X94533736Y-41285191D01*
X94517126Y-41282758D01*
X94517124Y-41282757D01*
X94509977Y-41281711D01*
X94502784Y-41282340D01*
X94502778Y-41282340D01*
X94460631Y-41286028D01*
X94449824Y-41286500D01*
X94444291Y-41286500D01*
X94440730Y-41286916D01*
X94440715Y-41286917D01*
X94413501Y-41290098D01*
X94409916Y-41290464D01*
X94342393Y-41296371D01*
X94342385Y-41296372D01*
X94335203Y-41297001D01*
X94328352Y-41299270D01*
X94324935Y-41299976D01*
X94324619Y-41300027D01*
X94324295Y-41300119D01*
X94320913Y-41300920D01*
X94313745Y-41301759D01*
X94306968Y-41304225D01*
X94306957Y-41304228D01*
X94243231Y-41327421D01*
X94239831Y-41328603D01*
X94233253Y-41330783D01*
X94168666Y-41352186D01*
X94162528Y-41355971D01*
X94159367Y-41357445D01*
X94159061Y-41357571D01*
X94158781Y-41357728D01*
X94155659Y-41359296D01*
X94148883Y-41361763D01*
X94142855Y-41365727D01*
X94142854Y-41365728D01*
X94086220Y-41402976D01*
X94083182Y-41404911D01*
X94025492Y-41440495D01*
X94025483Y-41440501D01*
X94019345Y-41444288D01*
X94014243Y-41449389D01*
X94011504Y-41451555D01*
X94011239Y-41451745D01*
X94010995Y-41451970D01*
X94008331Y-41454205D01*
X94002304Y-41458170D01*
X93997355Y-41463414D01*
X93997353Y-41463417D01*
X93950833Y-41512725D01*
X93948321Y-41515310D01*
X92499592Y-42964038D01*
X92444005Y-42996132D01*
X92251567Y-43047695D01*
X92251560Y-43047697D01*
X92246337Y-43049097D01*
X92241432Y-43051383D01*
X92241427Y-43051386D01*
X92037081Y-43146675D01*
X92037077Y-43146677D01*
X92032171Y-43148965D01*
X92027738Y-43152068D01*
X92027731Y-43152073D01*
X91843034Y-43281399D01*
X91843029Y-43281402D01*
X91838599Y-43284505D01*
X91834771Y-43288332D01*
X91830624Y-43291813D01*
X91829858Y-43290901D01*
X91796695Y-43313061D01*
X91749242Y-43322500D01*
X91130758Y-43322500D01*
X91083305Y-43313061D01*
X91050138Y-43290899D01*
X91049373Y-43291811D01*
X91045231Y-43288335D01*
X91041401Y-43284505D01*
X91036970Y-43281402D01*
X91036966Y-43281399D01*
X90852259Y-43152066D01*
X90852257Y-43152064D01*
X90847830Y-43148965D01*
X90842933Y-43146681D01*
X90842927Y-43146678D01*
X90638572Y-43051386D01*
X90638570Y-43051385D01*
X90633663Y-43049097D01*
X90628438Y-43047697D01*
X90628430Y-43047694D01*
X90410634Y-42989337D01*
X90410630Y-42989336D01*
X90405408Y-42987937D01*
X90400020Y-42987465D01*
X90400017Y-42987465D01*
X90175395Y-42967813D01*
X90170000Y-42967341D01*
X90164605Y-42967813D01*
X89939982Y-42987465D01*
X89939977Y-42987465D01*
X89934592Y-42987937D01*
X89929371Y-42989335D01*
X89929365Y-42989337D01*
X89711569Y-43047694D01*
X89711557Y-43047698D01*
X89706337Y-43049097D01*
X89701432Y-43051383D01*
X89701427Y-43051386D01*
X89497081Y-43146675D01*
X89497077Y-43146677D01*
X89492171Y-43148965D01*
X89487738Y-43152068D01*
X89487731Y-43152073D01*
X89303034Y-43281399D01*
X89303029Y-43281402D01*
X89298599Y-43284505D01*
X89294774Y-43288329D01*
X89294775Y-43288329D01*
X89176673Y-43406431D01*
X89123926Y-43437726D01*
X89062633Y-43439915D01*
X89007789Y-43412462D01*
X88972810Y-43362082D01*
X88949240Y-43298889D01*
X88923796Y-43230669D01*
X88837546Y-43115454D01*
X88765268Y-43061347D01*
X88729431Y-43034519D01*
X88729430Y-43034518D01*
X88722331Y-43029204D01*
X88615442Y-42989337D01*
X88594752Y-42981620D01*
X88594750Y-42981619D01*
X88587483Y-42978909D01*
X88579770Y-42978079D01*
X88579767Y-42978079D01*
X88531180Y-42972855D01*
X88531169Y-42972854D01*
X88527873Y-42972500D01*
X88524550Y-42972500D01*
X86735439Y-42972500D01*
X86735420Y-42972500D01*
X86732128Y-42972501D01*
X86728850Y-42972853D01*
X86728838Y-42972854D01*
X86680231Y-42978079D01*
X86680225Y-42978080D01*
X86672517Y-42978909D01*
X86665252Y-42981618D01*
X86665246Y-42981620D01*
X86545980Y-43026104D01*
X86545978Y-43026104D01*
X86537669Y-43029204D01*
X86530572Y-43034516D01*
X86530568Y-43034519D01*
X86429550Y-43110141D01*
X86429546Y-43110144D01*
X86422454Y-43115454D01*
X86417144Y-43122546D01*
X86417141Y-43122550D01*
X86341519Y-43223568D01*
X86341516Y-43223572D01*
X86336204Y-43230669D01*
X86333104Y-43238978D01*
X86333104Y-43238980D01*
X86288620Y-43358247D01*
X86288619Y-43358250D01*
X86285909Y-43365517D01*
X86285079Y-43373227D01*
X86285079Y-43373232D01*
X86279855Y-43421819D01*
X86279854Y-43421831D01*
X86279500Y-43425127D01*
X86279500Y-43428448D01*
X86279500Y-43428449D01*
X86279500Y-45217560D01*
X86279500Y-45217578D01*
X83813991Y-45217578D01*
X83838814Y-45177334D01*
X83893999Y-45010797D01*
X83904500Y-44908009D01*
X83904499Y-43557992D01*
X83893999Y-43455203D01*
X83838814Y-43288666D01*
X83778591Y-43191028D01*
X83750502Y-43145488D01*
X83750500Y-43145485D01*
X83746712Y-43139344D01*
X83622656Y-43015288D01*
X83616515Y-43011500D01*
X83616511Y-43011497D01*
X83479480Y-42926977D01*
X83473334Y-42923186D01*
X83439287Y-42911904D01*
X83313225Y-42870131D01*
X83313224Y-42870130D01*
X83306797Y-42868001D01*
X83300064Y-42867313D01*
X83300059Y-42867312D01*
X83207140Y-42857819D01*
X83207123Y-42857818D01*
X83204009Y-42857500D01*
X83200860Y-42857500D01*
X82407141Y-42857500D01*
X82407121Y-42857500D01*
X82403992Y-42857501D01*
X82400860Y-42857820D01*
X82400858Y-42857821D01*
X82307938Y-42867312D01*
X82307928Y-42867313D01*
X82301203Y-42868001D01*
X82294781Y-42870128D01*
X82294776Y-42870130D01*
X82141521Y-42920914D01*
X82141517Y-42920915D01*
X82134666Y-42923186D01*
X82128522Y-42926975D01*
X82128519Y-42926977D01*
X81991488Y-43011497D01*
X81991480Y-43011503D01*
X81985344Y-43015288D01*
X81980242Y-43020389D01*
X81980238Y-43020393D01*
X81866393Y-43134238D01*
X81866389Y-43134242D01*
X81861288Y-43139344D01*
X81857502Y-43145481D01*
X81857498Y-43145487D01*
X81822184Y-43202741D01*
X81780130Y-43244159D01*
X81723692Y-43261443D01*
X81665657Y-43250674D01*
X81619175Y-43214294D01*
X81604092Y-43195114D01*
X81445256Y-43057481D01*
X81289129Y-42967341D01*
X81268364Y-42955352D01*
X81268363Y-42955351D01*
X81263244Y-42952396D01*
X81257660Y-42950463D01*
X81257655Y-42950461D01*
X81070214Y-42885587D01*
X81070208Y-42885585D01*
X81064633Y-42883656D01*
X81058794Y-42882816D01*
X81058788Y-42882815D01*
X80862441Y-42854585D01*
X80862435Y-42854584D01*
X80856602Y-42853746D01*
X80850716Y-42854026D01*
X80850710Y-42854026D01*
X80652567Y-42863465D01*
X80652565Y-42863465D01*
X80646670Y-42863746D01*
X80640942Y-42865135D01*
X80640932Y-42865137D01*
X80448160Y-42911904D01*
X80448155Y-42911905D01*
X80442424Y-42913296D01*
X80437054Y-42915747D01*
X80437052Y-42915749D01*
X80256621Y-42998149D01*
X80256614Y-42998152D01*
X80251247Y-43000604D01*
X80246437Y-43004028D01*
X80246432Y-43004032D01*
X80084865Y-43119083D01*
X80084859Y-43119087D01*
X80080048Y-43122514D01*
X80075974Y-43126786D01*
X80075969Y-43126791D01*
X79939088Y-43270348D01*
X79939082Y-43270355D01*
X79935014Y-43274622D01*
X79931822Y-43279588D01*
X79931821Y-43279590D01*
X79824582Y-43446455D01*
X79824578Y-43446462D01*
X79821387Y-43451428D01*
X79819195Y-43456903D01*
X79819190Y-43456913D01*
X79745469Y-43641060D01*
X79745466Y-43641069D01*
X79743275Y-43646543D01*
X79742158Y-43652334D01*
X79742156Y-43652344D01*
X79704929Y-43845500D01*
X79703500Y-43852915D01*
X79703500Y-44560425D01*
X76268500Y-44560425D01*
X76268499Y-43557992D01*
X76257999Y-43455203D01*
X76202814Y-43288666D01*
X76142591Y-43191028D01*
X76114502Y-43145488D01*
X76114500Y-43145485D01*
X76110712Y-43139344D01*
X75986656Y-43015288D01*
X75980515Y-43011500D01*
X75980511Y-43011497D01*
X75843480Y-42926977D01*
X75837334Y-42923186D01*
X75803287Y-42911904D01*
X75677225Y-42870131D01*
X75677224Y-42870130D01*
X75670797Y-42868001D01*
X75664064Y-42867313D01*
X75664059Y-42867312D01*
X75571140Y-42857819D01*
X75571123Y-42857818D01*
X75568009Y-42857500D01*
X75564860Y-42857500D01*
X74771141Y-42857500D01*
X74771121Y-42857500D01*
X74767992Y-42857501D01*
X74764860Y-42857820D01*
X74764858Y-42857821D01*
X74671938Y-42867312D01*
X74671928Y-42867313D01*
X74665203Y-42868001D01*
X74658781Y-42870128D01*
X74658776Y-42870130D01*
X74505521Y-42920914D01*
X74505517Y-42920915D01*
X74498666Y-42923186D01*
X74492522Y-42926975D01*
X74492519Y-42926977D01*
X74355488Y-43011497D01*
X74355480Y-43011503D01*
X74349344Y-43015288D01*
X74344242Y-43020389D01*
X74344238Y-43020393D01*
X74230393Y-43134238D01*
X74230389Y-43134242D01*
X74225288Y-43139344D01*
X74221502Y-43145481D01*
X74221498Y-43145487D01*
X74186184Y-43202741D01*
X74144130Y-43244159D01*
X74087692Y-43261443D01*
X74029657Y-43250674D01*
X73983175Y-43214294D01*
X73968092Y-43195114D01*
X73809256Y-43057481D01*
X73653129Y-42967341D01*
X73632364Y-42955352D01*
X73632363Y-42955351D01*
X73627244Y-42952396D01*
X73621660Y-42950463D01*
X73621655Y-42950461D01*
X73434214Y-42885587D01*
X73434208Y-42885585D01*
X73428633Y-42883656D01*
X73422794Y-42882816D01*
X73422788Y-42882815D01*
X73226441Y-42854585D01*
X73226435Y-42854584D01*
X73220602Y-42853746D01*
X73214716Y-42854026D01*
X73214710Y-42854026D01*
X73016567Y-42863465D01*
X73016565Y-42863465D01*
X73010670Y-42863746D01*
X73004942Y-42865135D01*
X73004932Y-42865137D01*
X72812160Y-42911904D01*
X72812155Y-42911905D01*
X72806424Y-42913296D01*
X72801054Y-42915747D01*
X72801052Y-42915749D01*
X72620621Y-42998149D01*
X72620614Y-42998152D01*
X72615247Y-43000604D01*
X72610437Y-43004028D01*
X72610432Y-43004032D01*
X72448865Y-43119083D01*
X72448859Y-43119087D01*
X72444048Y-43122514D01*
X72439974Y-43126786D01*
X72439969Y-43126791D01*
X72303088Y-43270348D01*
X72303082Y-43270355D01*
X72299014Y-43274622D01*
X72295822Y-43279588D01*
X72295821Y-43279590D01*
X72188582Y-43446455D01*
X72188578Y-43446462D01*
X72185387Y-43451428D01*
X72183195Y-43456903D01*
X72183190Y-43456913D01*
X72109469Y-43641060D01*
X72109466Y-43641069D01*
X72107275Y-43646543D01*
X72106158Y-43652334D01*
X72106156Y-43652344D01*
X72068929Y-43845500D01*
X72067500Y-43852915D01*
X72067500Y-44560425D01*
X64526500Y-44560425D01*
X64526500Y-42545000D01*
X65623532Y-42545000D01*
X65624004Y-42550395D01*
X65640873Y-42743217D01*
X65643365Y-42771692D01*
X65644762Y-42776907D01*
X65644764Y-42776916D01*
X65700858Y-42986263D01*
X65700861Y-42986271D01*
X65702261Y-42991496D01*
X65704549Y-42996403D01*
X65704550Y-42996405D01*
X65734833Y-43061347D01*
X65798432Y-43197734D01*
X65801539Y-43202171D01*
X65801540Y-43202173D01*
X65859189Y-43284505D01*
X65928953Y-43384139D01*
X66089861Y-43545047D01*
X66276266Y-43675568D01*
X66482504Y-43771739D01*
X66702308Y-43830635D01*
X66872216Y-43845500D01*
X66983075Y-43845500D01*
X66985784Y-43845500D01*
X67155692Y-43830635D01*
X67375496Y-43771739D01*
X67581734Y-43675568D01*
X67768139Y-43545047D01*
X67929047Y-43384139D01*
X68059568Y-43197734D01*
X68155739Y-42991496D01*
X68214635Y-42771692D01*
X68234468Y-42545000D01*
X68214635Y-42318308D01*
X68155739Y-42098504D01*
X68059568Y-41892266D01*
X67929047Y-41705861D01*
X67768139Y-41544953D01*
X67668819Y-41475409D01*
X67586173Y-41417540D01*
X67586171Y-41417539D01*
X67581734Y-41414432D01*
X67501410Y-41376976D01*
X67380405Y-41320550D01*
X67380403Y-41320549D01*
X67375496Y-41318261D01*
X67370271Y-41316861D01*
X67370263Y-41316858D01*
X67160916Y-41260764D01*
X67160907Y-41260762D01*
X67155692Y-41259365D01*
X67150304Y-41258893D01*
X67150301Y-41258893D01*
X66988484Y-41244736D01*
X66988479Y-41244735D01*
X66985784Y-41244500D01*
X66872216Y-41244500D01*
X66869521Y-41244735D01*
X66869515Y-41244736D01*
X66707698Y-41258893D01*
X66707693Y-41258893D01*
X66702308Y-41259365D01*
X66697094Y-41260762D01*
X66697083Y-41260764D01*
X66487736Y-41316858D01*
X66487724Y-41316862D01*
X66482504Y-41318261D01*
X66477599Y-41320547D01*
X66477594Y-41320550D01*
X66281176Y-41412142D01*
X66281172Y-41412144D01*
X66276266Y-41414432D01*
X66271833Y-41417535D01*
X66271826Y-41417540D01*
X66094296Y-41541847D01*
X66094291Y-41541850D01*
X66089861Y-41544953D01*
X66086037Y-41548776D01*
X66086031Y-41548782D01*
X65932782Y-41702031D01*
X65932776Y-41702037D01*
X65928953Y-41705861D01*
X65925850Y-41710291D01*
X65925847Y-41710296D01*
X65801540Y-41887826D01*
X65801535Y-41887833D01*
X65798432Y-41892266D01*
X65796144Y-41897172D01*
X65796142Y-41897176D01*
X65704550Y-42093594D01*
X65704547Y-42093599D01*
X65702261Y-42098504D01*
X65700862Y-42103724D01*
X65700858Y-42103736D01*
X65644764Y-42313083D01*
X65644762Y-42313094D01*
X65643365Y-42318308D01*
X65642893Y-42323693D01*
X65642893Y-42323698D01*
X65633942Y-42426012D01*
X65623532Y-42545000D01*
X64526500Y-42545000D01*
X64526500Y-40266500D01*
X64543113Y-40204500D01*
X64588500Y-40159113D01*
X64650500Y-40142500D01*
X127627500Y-40142500D01*
X127689500Y-40159113D01*
G37*
G04 #@! TD.AperFunction*
M02*
