G04 #@! TF.GenerationSoftware,KiCad,Pcbnew,(7.0.0)*
G04 #@! TF.CreationDate,2023-06-02T20:53:43-06:00*
G04 #@! TF.ProjectId,WatchDogV4-CAP,57617463-6844-46f6-9756-342d4341502e,rev?*
G04 #@! TF.SameCoordinates,Original*
G04 #@! TF.FileFunction,Legend,Top*
G04 #@! TF.FilePolarity,Positive*
%FSLAX46Y46*%
G04 Gerber Fmt 4.6, Leading zero omitted, Abs format (unit mm)*
G04 Created by KiCad (PCBNEW (7.0.0)) date 2023-06-02 20:53:43*
%MOMM*%
%LPD*%
G01*
G04 APERTURE LIST*
G04 Aperture macros list*
%AMRoundRect*
0 Rectangle with rounded corners*
0 $1 Rounding radius*
0 $2 $3 $4 $5 $6 $7 $8 $9 X,Y pos of 4 corners*
0 Add a 4 corners polygon primitive as box body*
4,1,4,$2,$3,$4,$5,$6,$7,$8,$9,$2,$3,0*
0 Add four circle primitives for the rounded corners*
1,1,$1+$1,$2,$3*
1,1,$1+$1,$4,$5*
1,1,$1+$1,$6,$7*
1,1,$1+$1,$8,$9*
0 Add four rect primitives between the rounded corners*
20,1,$1+$1,$2,$3,$4,$5,0*
20,1,$1+$1,$4,$5,$6,$7,0*
20,1,$1+$1,$6,$7,$8,$9,0*
20,1,$1+$1,$8,$9,$2,$3,0*%
G04 Aperture macros list end*
%ADD10C,0.150000*%
%ADD11C,0.300000*%
%ADD12C,0.125000*%
%ADD13C,0.250000*%
%ADD14C,0.050000*%
%ADD15C,0.100000*%
%ADD16C,0.120000*%
%ADD17R,1.700000X1.700000*%
%ADD18O,1.700000X1.700000*%
%ADD19R,1.400000X0.400000*%
%ADD20R,1.900000X2.300000*%
%ADD21R,1.900000X1.800000*%
%ADD22C,2.100000*%
%ADD23R,1.500000X1.500000*%
%ADD24C,1.500000*%
%ADD25C,1.600000*%
%ADD26O,1.600000X1.600000*%
%ADD27R,1.600000X1.600000*%
%ADD28R,1.800000X1.800000*%
%ADD29C,1.800000*%
%ADD30O,1.800000X1.800000*%
%ADD31R,1.500000X1.600000*%
%ADD32C,3.000000*%
%ADD33R,1.600000X2.400000*%
%ADD34O,1.600000X2.400000*%
%ADD35RoundRect,0.250000X0.350000X0.625000X-0.350000X0.625000X-0.350000X-0.625000X0.350000X-0.625000X0*%
%ADD36O,1.200000X1.750000*%
G04 APERTURE END LIST*
D10*
X97663000Y-55372000D02*
X100203000Y-55372000D01*
X91924286Y-45976380D02*
X92495714Y-45976380D01*
X92210000Y-46976380D02*
X92210000Y-45976380D01*
X93400476Y-46976380D02*
X93067143Y-46500190D01*
X92829048Y-46976380D02*
X92829048Y-45976380D01*
X92829048Y-45976380D02*
X93210000Y-45976380D01*
X93210000Y-45976380D02*
X93305238Y-46024000D01*
X93305238Y-46024000D02*
X93352857Y-46071619D01*
X93352857Y-46071619D02*
X93400476Y-46166857D01*
X93400476Y-46166857D02*
X93400476Y-46309714D01*
X93400476Y-46309714D02*
X93352857Y-46404952D01*
X93352857Y-46404952D02*
X93305238Y-46452571D01*
X93305238Y-46452571D02*
X93210000Y-46500190D01*
X93210000Y-46500190D02*
X92829048Y-46500190D01*
X91924286Y-41023380D02*
X92495714Y-41023380D01*
X92210000Y-42023380D02*
X92210000Y-41023380D01*
X93400476Y-42023380D02*
X93067143Y-41547190D01*
X92829048Y-42023380D02*
X92829048Y-41023380D01*
X92829048Y-41023380D02*
X93210000Y-41023380D01*
X93210000Y-41023380D02*
X93305238Y-41071000D01*
X93305238Y-41071000D02*
X93352857Y-41118619D01*
X93352857Y-41118619D02*
X93400476Y-41213857D01*
X93400476Y-41213857D02*
X93400476Y-41356714D01*
X93400476Y-41356714D02*
X93352857Y-41451952D01*
X93352857Y-41451952D02*
X93305238Y-41499571D01*
X93305238Y-41499571D02*
X93210000Y-41547190D01*
X93210000Y-41547190D02*
X92829048Y-41547190D01*
D11*
X70234666Y-64358595D02*
X70234666Y-63058595D01*
X71596571Y-64234785D02*
X71534667Y-64296690D01*
X71534667Y-64296690D02*
X71348952Y-64358595D01*
X71348952Y-64358595D02*
X71225143Y-64358595D01*
X71225143Y-64358595D02*
X71039429Y-64296690D01*
X71039429Y-64296690D02*
X70915619Y-64172880D01*
X70915619Y-64172880D02*
X70853714Y-64049071D01*
X70853714Y-64049071D02*
X70791810Y-63801452D01*
X70791810Y-63801452D02*
X70791810Y-63615738D01*
X70791810Y-63615738D02*
X70853714Y-63368119D01*
X70853714Y-63368119D02*
X70915619Y-63244309D01*
X70915619Y-63244309D02*
X71039429Y-63120500D01*
X71039429Y-63120500D02*
X71225143Y-63058595D01*
X71225143Y-63058595D02*
X71348952Y-63058595D01*
X71348952Y-63058595D02*
X71534667Y-63120500D01*
X71534667Y-63120500D02*
X71596571Y-63182404D01*
X72153714Y-64358595D02*
X72153714Y-63058595D01*
X72153714Y-63058595D02*
X72463238Y-63058595D01*
X72463238Y-63058595D02*
X72648952Y-63120500D01*
X72648952Y-63120500D02*
X72772762Y-63244309D01*
X72772762Y-63244309D02*
X72834667Y-63368119D01*
X72834667Y-63368119D02*
X72896571Y-63615738D01*
X72896571Y-63615738D02*
X72896571Y-63801452D01*
X72896571Y-63801452D02*
X72834667Y-64049071D01*
X72834667Y-64049071D02*
X72772762Y-64172880D01*
X72772762Y-64172880D02*
X72648952Y-64296690D01*
X72648952Y-64296690D02*
X72463238Y-64358595D01*
X72463238Y-64358595D02*
X72153714Y-64358595D01*
X73453714Y-64358595D02*
X73453714Y-63058595D01*
X73453714Y-63058595D02*
X73948952Y-63058595D01*
X73948952Y-63058595D02*
X74072762Y-63120500D01*
X74072762Y-63120500D02*
X74134667Y-63182404D01*
X74134667Y-63182404D02*
X74196571Y-63306214D01*
X74196571Y-63306214D02*
X74196571Y-63491928D01*
X74196571Y-63491928D02*
X74134667Y-63615738D01*
X74134667Y-63615738D02*
X74072762Y-63677642D01*
X74072762Y-63677642D02*
X73948952Y-63739547D01*
X73948952Y-63739547D02*
X73453714Y-63739547D01*
X75409905Y-63058595D02*
X75719429Y-64358595D01*
X75719429Y-64358595D02*
X75967048Y-63430023D01*
X75967048Y-63430023D02*
X76214667Y-64358595D01*
X76214667Y-64358595D02*
X76524191Y-63058595D01*
X76957524Y-63987166D02*
X77576571Y-63987166D01*
X76833714Y-64358595D02*
X77267047Y-63058595D01*
X77267047Y-63058595D02*
X77700381Y-64358595D01*
X77948000Y-63058595D02*
X78690857Y-63058595D01*
X78319429Y-64358595D02*
X78319429Y-63058595D01*
X79867047Y-64234785D02*
X79805143Y-64296690D01*
X79805143Y-64296690D02*
X79619428Y-64358595D01*
X79619428Y-64358595D02*
X79495619Y-64358595D01*
X79495619Y-64358595D02*
X79309905Y-64296690D01*
X79309905Y-64296690D02*
X79186095Y-64172880D01*
X79186095Y-64172880D02*
X79124190Y-64049071D01*
X79124190Y-64049071D02*
X79062286Y-63801452D01*
X79062286Y-63801452D02*
X79062286Y-63615738D01*
X79062286Y-63615738D02*
X79124190Y-63368119D01*
X79124190Y-63368119D02*
X79186095Y-63244309D01*
X79186095Y-63244309D02*
X79309905Y-63120500D01*
X79309905Y-63120500D02*
X79495619Y-63058595D01*
X79495619Y-63058595D02*
X79619428Y-63058595D01*
X79619428Y-63058595D02*
X79805143Y-63120500D01*
X79805143Y-63120500D02*
X79867047Y-63182404D01*
X80424190Y-64358595D02*
X80424190Y-63058595D01*
X80424190Y-63677642D02*
X81167047Y-63677642D01*
X81167047Y-64358595D02*
X81167047Y-63058595D01*
X81786095Y-64358595D02*
X81786095Y-63058595D01*
X81786095Y-63058595D02*
X82095619Y-63058595D01*
X82095619Y-63058595D02*
X82281333Y-63120500D01*
X82281333Y-63120500D02*
X82405143Y-63244309D01*
X82405143Y-63244309D02*
X82467048Y-63368119D01*
X82467048Y-63368119D02*
X82528952Y-63615738D01*
X82528952Y-63615738D02*
X82528952Y-63801452D01*
X82528952Y-63801452D02*
X82467048Y-64049071D01*
X82467048Y-64049071D02*
X82405143Y-64172880D01*
X82405143Y-64172880D02*
X82281333Y-64296690D01*
X82281333Y-64296690D02*
X82095619Y-64358595D01*
X82095619Y-64358595D02*
X81786095Y-64358595D01*
X83333714Y-63058595D02*
X83581333Y-63058595D01*
X83581333Y-63058595D02*
X83705143Y-63120500D01*
X83705143Y-63120500D02*
X83828952Y-63244309D01*
X83828952Y-63244309D02*
X83890857Y-63491928D01*
X83890857Y-63491928D02*
X83890857Y-63925261D01*
X83890857Y-63925261D02*
X83828952Y-64172880D01*
X83828952Y-64172880D02*
X83705143Y-64296690D01*
X83705143Y-64296690D02*
X83581333Y-64358595D01*
X83581333Y-64358595D02*
X83333714Y-64358595D01*
X83333714Y-64358595D02*
X83209905Y-64296690D01*
X83209905Y-64296690D02*
X83086095Y-64172880D01*
X83086095Y-64172880D02*
X83024191Y-63925261D01*
X83024191Y-63925261D02*
X83024191Y-63491928D01*
X83024191Y-63491928D02*
X83086095Y-63244309D01*
X83086095Y-63244309D02*
X83209905Y-63120500D01*
X83209905Y-63120500D02*
X83333714Y-63058595D01*
X85128953Y-63120500D02*
X85005143Y-63058595D01*
X85005143Y-63058595D02*
X84819429Y-63058595D01*
X84819429Y-63058595D02*
X84633715Y-63120500D01*
X84633715Y-63120500D02*
X84509905Y-63244309D01*
X84509905Y-63244309D02*
X84448000Y-63368119D01*
X84448000Y-63368119D02*
X84386096Y-63615738D01*
X84386096Y-63615738D02*
X84386096Y-63801452D01*
X84386096Y-63801452D02*
X84448000Y-64049071D01*
X84448000Y-64049071D02*
X84509905Y-64172880D01*
X84509905Y-64172880D02*
X84633715Y-64296690D01*
X84633715Y-64296690D02*
X84819429Y-64358595D01*
X84819429Y-64358595D02*
X84943238Y-64358595D01*
X84943238Y-64358595D02*
X85128953Y-64296690D01*
X85128953Y-64296690D02*
X85190857Y-64234785D01*
X85190857Y-64234785D02*
X85190857Y-63801452D01*
X85190857Y-63801452D02*
X84943238Y-63801452D01*
X86342286Y-63058595D02*
X86775619Y-64358595D01*
X86775619Y-64358595D02*
X87208953Y-63058595D01*
X88199429Y-63491928D02*
X88199429Y-64358595D01*
X87889905Y-62996690D02*
X87580382Y-63925261D01*
X87580382Y-63925261D02*
X88385143Y-63925261D01*
D10*
X117983048Y-40880428D02*
X118744953Y-40880428D01*
X118364000Y-41261380D02*
X118364000Y-40499476D01*
D12*
X114451571Y-62688107D02*
X114415857Y-62723821D01*
X114415857Y-62723821D02*
X114308714Y-62759535D01*
X114308714Y-62759535D02*
X114237286Y-62759535D01*
X114237286Y-62759535D02*
X114130143Y-62723821D01*
X114130143Y-62723821D02*
X114058714Y-62652392D01*
X114058714Y-62652392D02*
X114023000Y-62580964D01*
X114023000Y-62580964D02*
X113987286Y-62438107D01*
X113987286Y-62438107D02*
X113987286Y-62330964D01*
X113987286Y-62330964D02*
X114023000Y-62188107D01*
X114023000Y-62188107D02*
X114058714Y-62116678D01*
X114058714Y-62116678D02*
X114130143Y-62045250D01*
X114130143Y-62045250D02*
X114237286Y-62009535D01*
X114237286Y-62009535D02*
X114308714Y-62009535D01*
X114308714Y-62009535D02*
X114415857Y-62045250D01*
X114415857Y-62045250D02*
X114451571Y-62080964D01*
X115165857Y-62759535D02*
X114737286Y-62759535D01*
X114951571Y-62759535D02*
X114951571Y-62009535D01*
X114951571Y-62009535D02*
X114880143Y-62116678D01*
X114880143Y-62116678D02*
X114808714Y-62188107D01*
X114808714Y-62188107D02*
X114737286Y-62223821D01*
X115487286Y-62366678D02*
X115737286Y-62366678D01*
X115844429Y-62759535D02*
X115487286Y-62759535D01*
X115487286Y-62759535D02*
X115487286Y-62009535D01*
X115487286Y-62009535D02*
X115844429Y-62009535D01*
X116165857Y-62759535D02*
X116165857Y-62009535D01*
X116165857Y-62009535D02*
X116594428Y-62759535D01*
X116594428Y-62759535D02*
X116594428Y-62009535D01*
X117508714Y-62759535D02*
X117437285Y-62723821D01*
X117437285Y-62723821D02*
X117401571Y-62688107D01*
X117401571Y-62688107D02*
X117365857Y-62616678D01*
X117365857Y-62616678D02*
X117365857Y-62402392D01*
X117365857Y-62402392D02*
X117401571Y-62330964D01*
X117401571Y-62330964D02*
X117437285Y-62295250D01*
X117437285Y-62295250D02*
X117508714Y-62259535D01*
X117508714Y-62259535D02*
X117615857Y-62259535D01*
X117615857Y-62259535D02*
X117687285Y-62295250D01*
X117687285Y-62295250D02*
X117723000Y-62330964D01*
X117723000Y-62330964D02*
X117758714Y-62402392D01*
X117758714Y-62402392D02*
X117758714Y-62616678D01*
X117758714Y-62616678D02*
X117723000Y-62688107D01*
X117723000Y-62688107D02*
X117687285Y-62723821D01*
X117687285Y-62723821D02*
X117615857Y-62759535D01*
X117615857Y-62759535D02*
X117508714Y-62759535D01*
X118080142Y-62759535D02*
X118080142Y-62259535D01*
X118080142Y-62402392D02*
X118115856Y-62330964D01*
X118115856Y-62330964D02*
X118151571Y-62295250D01*
X118151571Y-62295250D02*
X118222999Y-62259535D01*
X118222999Y-62259535D02*
X118294428Y-62259535D01*
X119351571Y-62759535D02*
X118994428Y-62759535D01*
X118994428Y-62759535D02*
X118994428Y-62009535D01*
X119601571Y-62366678D02*
X119851571Y-62366678D01*
X119958714Y-62759535D02*
X119601571Y-62759535D01*
X119601571Y-62759535D02*
X119601571Y-62009535D01*
X119601571Y-62009535D02*
X119958714Y-62009535D01*
X120280142Y-62759535D02*
X120280142Y-62009535D01*
X120280142Y-62009535D02*
X120458713Y-62009535D01*
X120458713Y-62009535D02*
X120565856Y-62045250D01*
X120565856Y-62045250D02*
X120637285Y-62116678D01*
X120637285Y-62116678D02*
X120672999Y-62188107D01*
X120672999Y-62188107D02*
X120708713Y-62330964D01*
X120708713Y-62330964D02*
X120708713Y-62438107D01*
X120708713Y-62438107D02*
X120672999Y-62580964D01*
X120672999Y-62580964D02*
X120637285Y-62652392D01*
X120637285Y-62652392D02*
X120565856Y-62723821D01*
X120565856Y-62723821D02*
X120458713Y-62759535D01*
X120458713Y-62759535D02*
X120280142Y-62759535D01*
D13*
X119317119Y-52695333D02*
X119317119Y-51895333D01*
X120417119Y-52295333D02*
X119317119Y-52295333D01*
X119317119Y-51162000D02*
X119317119Y-50895333D01*
X119317119Y-50895333D02*
X119369500Y-50762000D01*
X119369500Y-50762000D02*
X119474261Y-50628666D01*
X119474261Y-50628666D02*
X119683785Y-50562000D01*
X119683785Y-50562000D02*
X120050452Y-50562000D01*
X120050452Y-50562000D02*
X120259976Y-50628666D01*
X120259976Y-50628666D02*
X120364738Y-50762000D01*
X120364738Y-50762000D02*
X120417119Y-50895333D01*
X120417119Y-50895333D02*
X120417119Y-51162000D01*
X120417119Y-51162000D02*
X120364738Y-51295333D01*
X120364738Y-51295333D02*
X120259976Y-51428666D01*
X120259976Y-51428666D02*
X120050452Y-51495333D01*
X120050452Y-51495333D02*
X119683785Y-51495333D01*
X119683785Y-51495333D02*
X119474261Y-51428666D01*
X119474261Y-51428666D02*
X119369500Y-51295333D01*
X119369500Y-51295333D02*
X119317119Y-51162000D01*
X122199119Y-54795333D02*
X121099119Y-54795333D01*
X121099119Y-54795333D02*
X121099119Y-54262000D01*
X121099119Y-54262000D02*
X121151500Y-54128667D01*
X121151500Y-54128667D02*
X121203880Y-54062000D01*
X121203880Y-54062000D02*
X121308642Y-53995333D01*
X121308642Y-53995333D02*
X121465785Y-53995333D01*
X121465785Y-53995333D02*
X121570547Y-54062000D01*
X121570547Y-54062000D02*
X121622928Y-54128667D01*
X121622928Y-54128667D02*
X121675309Y-54262000D01*
X121675309Y-54262000D02*
X121675309Y-54795333D01*
X121099119Y-53128667D02*
X121099119Y-52862000D01*
X121099119Y-52862000D02*
X121151500Y-52728667D01*
X121151500Y-52728667D02*
X121256261Y-52595333D01*
X121256261Y-52595333D02*
X121465785Y-52528667D01*
X121465785Y-52528667D02*
X121832452Y-52528667D01*
X121832452Y-52528667D02*
X122041976Y-52595333D01*
X122041976Y-52595333D02*
X122146738Y-52728667D01*
X122146738Y-52728667D02*
X122199119Y-52862000D01*
X122199119Y-52862000D02*
X122199119Y-53128667D01*
X122199119Y-53128667D02*
X122146738Y-53262000D01*
X122146738Y-53262000D02*
X122041976Y-53395333D01*
X122041976Y-53395333D02*
X121832452Y-53462000D01*
X121832452Y-53462000D02*
X121465785Y-53462000D01*
X121465785Y-53462000D02*
X121256261Y-53395333D01*
X121256261Y-53395333D02*
X121151500Y-53262000D01*
X121151500Y-53262000D02*
X121099119Y-53128667D01*
X121099119Y-52062000D02*
X122199119Y-51728666D01*
X122199119Y-51728666D02*
X121413404Y-51462000D01*
X121413404Y-51462000D02*
X122199119Y-51195333D01*
X122199119Y-51195333D02*
X121099119Y-50862000D01*
X121622928Y-50328666D02*
X121622928Y-49862000D01*
X122199119Y-49662000D02*
X122199119Y-50328666D01*
X122199119Y-50328666D02*
X121099119Y-50328666D01*
X121099119Y-50328666D02*
X121099119Y-49662000D01*
X122199119Y-48261999D02*
X121675309Y-48728666D01*
X122199119Y-49061999D02*
X121099119Y-49061999D01*
X121099119Y-49061999D02*
X121099119Y-48528666D01*
X121099119Y-48528666D02*
X121151500Y-48395333D01*
X121151500Y-48395333D02*
X121203880Y-48328666D01*
X121203880Y-48328666D02*
X121308642Y-48261999D01*
X121308642Y-48261999D02*
X121465785Y-48261999D01*
X121465785Y-48261999D02*
X121570547Y-48328666D01*
X121570547Y-48328666D02*
X121622928Y-48395333D01*
X121622928Y-48395333D02*
X121675309Y-48528666D01*
X121675309Y-48528666D02*
X121675309Y-49061999D01*
D10*
X94591286Y-46976380D02*
X94591286Y-45976380D01*
X94591286Y-46452571D02*
X95162714Y-46452571D01*
X95162714Y-46976380D02*
X95162714Y-45976380D01*
X95972238Y-46452571D02*
X96115095Y-46500190D01*
X96115095Y-46500190D02*
X96162714Y-46547809D01*
X96162714Y-46547809D02*
X96210333Y-46643047D01*
X96210333Y-46643047D02*
X96210333Y-46785904D01*
X96210333Y-46785904D02*
X96162714Y-46881142D01*
X96162714Y-46881142D02*
X96115095Y-46928761D01*
X96115095Y-46928761D02*
X96019857Y-46976380D01*
X96019857Y-46976380D02*
X95638905Y-46976380D01*
X95638905Y-46976380D02*
X95638905Y-45976380D01*
X95638905Y-45976380D02*
X95972238Y-45976380D01*
X95972238Y-45976380D02*
X96067476Y-46024000D01*
X96067476Y-46024000D02*
X96115095Y-46071619D01*
X96115095Y-46071619D02*
X96162714Y-46166857D01*
X96162714Y-46166857D02*
X96162714Y-46262095D01*
X96162714Y-46262095D02*
X96115095Y-46357333D01*
X96115095Y-46357333D02*
X96067476Y-46404952D01*
X96067476Y-46404952D02*
X95972238Y-46452571D01*
X95972238Y-46452571D02*
X95638905Y-46452571D01*
X87066618Y-46976380D02*
X86733285Y-46500190D01*
X86495190Y-46976380D02*
X86495190Y-45976380D01*
X86495190Y-45976380D02*
X86876142Y-45976380D01*
X86876142Y-45976380D02*
X86971380Y-46024000D01*
X86971380Y-46024000D02*
X87018999Y-46071619D01*
X87018999Y-46071619D02*
X87066618Y-46166857D01*
X87066618Y-46166857D02*
X87066618Y-46309714D01*
X87066618Y-46309714D02*
X87018999Y-46404952D01*
X87018999Y-46404952D02*
X86971380Y-46452571D01*
X86971380Y-46452571D02*
X86876142Y-46500190D01*
X86876142Y-46500190D02*
X86495190Y-46500190D01*
X87495190Y-46452571D02*
X87828523Y-46452571D01*
X87971380Y-46976380D02*
X87495190Y-46976380D01*
X87495190Y-46976380D02*
X87495190Y-45976380D01*
X87495190Y-45976380D02*
X87971380Y-45976380D01*
X88352333Y-46928761D02*
X88495190Y-46976380D01*
X88495190Y-46976380D02*
X88733285Y-46976380D01*
X88733285Y-46976380D02*
X88828523Y-46928761D01*
X88828523Y-46928761D02*
X88876142Y-46881142D01*
X88876142Y-46881142D02*
X88923761Y-46785904D01*
X88923761Y-46785904D02*
X88923761Y-46690666D01*
X88923761Y-46690666D02*
X88876142Y-46595428D01*
X88876142Y-46595428D02*
X88828523Y-46547809D01*
X88828523Y-46547809D02*
X88733285Y-46500190D01*
X88733285Y-46500190D02*
X88542809Y-46452571D01*
X88542809Y-46452571D02*
X88447571Y-46404952D01*
X88447571Y-46404952D02*
X88399952Y-46357333D01*
X88399952Y-46357333D02*
X88352333Y-46262095D01*
X88352333Y-46262095D02*
X88352333Y-46166857D01*
X88352333Y-46166857D02*
X88399952Y-46071619D01*
X88399952Y-46071619D02*
X88447571Y-46024000D01*
X88447571Y-46024000D02*
X88542809Y-45976380D01*
X88542809Y-45976380D02*
X88780904Y-45976380D01*
X88780904Y-45976380D02*
X88923761Y-46024000D01*
X89352333Y-46452571D02*
X89685666Y-46452571D01*
X89828523Y-46976380D02*
X89352333Y-46976380D01*
X89352333Y-46976380D02*
X89352333Y-45976380D01*
X89352333Y-45976380D02*
X89828523Y-45976380D01*
X90114238Y-45976380D02*
X90685666Y-45976380D01*
X90399952Y-46976380D02*
X90399952Y-45976380D01*
X73654190Y-46976380D02*
X73178000Y-46976380D01*
X73178000Y-46976380D02*
X73178000Y-45976380D01*
X73987524Y-46976380D02*
X73987524Y-45976380D01*
X74463714Y-46976380D02*
X74463714Y-45976380D01*
X74463714Y-45976380D02*
X74844666Y-45976380D01*
X74844666Y-45976380D02*
X74939904Y-46024000D01*
X74939904Y-46024000D02*
X74987523Y-46071619D01*
X74987523Y-46071619D02*
X75035142Y-46166857D01*
X75035142Y-46166857D02*
X75035142Y-46309714D01*
X75035142Y-46309714D02*
X74987523Y-46404952D01*
X74987523Y-46404952D02*
X74939904Y-46452571D01*
X74939904Y-46452571D02*
X74844666Y-46500190D01*
X74844666Y-46500190D02*
X74463714Y-46500190D01*
X75654190Y-45976380D02*
X75844666Y-45976380D01*
X75844666Y-45976380D02*
X75939904Y-46024000D01*
X75939904Y-46024000D02*
X76035142Y-46119238D01*
X76035142Y-46119238D02*
X76082761Y-46309714D01*
X76082761Y-46309714D02*
X76082761Y-46643047D01*
X76082761Y-46643047D02*
X76035142Y-46833523D01*
X76035142Y-46833523D02*
X75939904Y-46928761D01*
X75939904Y-46928761D02*
X75844666Y-46976380D01*
X75844666Y-46976380D02*
X75654190Y-46976380D01*
X75654190Y-46976380D02*
X75558952Y-46928761D01*
X75558952Y-46928761D02*
X75463714Y-46833523D01*
X75463714Y-46833523D02*
X75416095Y-46643047D01*
X75416095Y-46643047D02*
X75416095Y-46309714D01*
X75416095Y-46309714D02*
X75463714Y-46119238D01*
X75463714Y-46119238D02*
X75558952Y-46024000D01*
X75558952Y-46024000D02*
X75654190Y-45976380D01*
X77444666Y-46452571D02*
X77587523Y-46500190D01*
X77587523Y-46500190D02*
X77635142Y-46547809D01*
X77635142Y-46547809D02*
X77682761Y-46643047D01*
X77682761Y-46643047D02*
X77682761Y-46785904D01*
X77682761Y-46785904D02*
X77635142Y-46881142D01*
X77635142Y-46881142D02*
X77587523Y-46928761D01*
X77587523Y-46928761D02*
X77492285Y-46976380D01*
X77492285Y-46976380D02*
X77111333Y-46976380D01*
X77111333Y-46976380D02*
X77111333Y-45976380D01*
X77111333Y-45976380D02*
X77444666Y-45976380D01*
X77444666Y-45976380D02*
X77539904Y-46024000D01*
X77539904Y-46024000D02*
X77587523Y-46071619D01*
X77587523Y-46071619D02*
X77635142Y-46166857D01*
X77635142Y-46166857D02*
X77635142Y-46262095D01*
X77635142Y-46262095D02*
X77587523Y-46357333D01*
X77587523Y-46357333D02*
X77539904Y-46404952D01*
X77539904Y-46404952D02*
X77444666Y-46452571D01*
X77444666Y-46452571D02*
X77111333Y-46452571D01*
X78063714Y-46690666D02*
X78539904Y-46690666D01*
X77968476Y-46976380D02*
X78301809Y-45976380D01*
X78301809Y-45976380D02*
X78635142Y-46976380D01*
X78825619Y-45976380D02*
X79397047Y-45976380D01*
X79111333Y-46976380D02*
X79111333Y-45976380D01*
X79587524Y-45976380D02*
X80158952Y-45976380D01*
X79873238Y-46976380D02*
X79873238Y-45976380D01*
X80492286Y-46452571D02*
X80825619Y-46452571D01*
X80968476Y-46976380D02*
X80492286Y-46976380D01*
X80492286Y-46976380D02*
X80492286Y-45976380D01*
X80492286Y-45976380D02*
X80968476Y-45976380D01*
X81968476Y-46976380D02*
X81635143Y-46500190D01*
X81397048Y-46976380D02*
X81397048Y-45976380D01*
X81397048Y-45976380D02*
X81778000Y-45976380D01*
X81778000Y-45976380D02*
X81873238Y-46024000D01*
X81873238Y-46024000D02*
X81920857Y-46071619D01*
X81920857Y-46071619D02*
X81968476Y-46166857D01*
X81968476Y-46166857D02*
X81968476Y-46309714D01*
X81968476Y-46309714D02*
X81920857Y-46404952D01*
X81920857Y-46404952D02*
X81873238Y-46452571D01*
X81873238Y-46452571D02*
X81778000Y-46500190D01*
X81778000Y-46500190D02*
X81397048Y-46500190D01*
X82587524Y-46500190D02*
X82587524Y-46976380D01*
X82254191Y-45976380D02*
X82587524Y-46500190D01*
X82587524Y-46500190D02*
X82920857Y-45976380D01*
D14*
X122374715Y-59866035D02*
X122374715Y-59116035D01*
X122374715Y-59116035D02*
X122553286Y-59116035D01*
X122553286Y-59116035D02*
X122660429Y-59151750D01*
X122660429Y-59151750D02*
X122731858Y-59223178D01*
X122731858Y-59223178D02*
X122767572Y-59294607D01*
X122767572Y-59294607D02*
X122803286Y-59437464D01*
X122803286Y-59437464D02*
X122803286Y-59544607D01*
X122803286Y-59544607D02*
X122767572Y-59687464D01*
X122767572Y-59687464D02*
X122731858Y-59758892D01*
X122731858Y-59758892D02*
X122660429Y-59830321D01*
X122660429Y-59830321D02*
X122553286Y-59866035D01*
X122553286Y-59866035D02*
X122374715Y-59866035D01*
X123410429Y-59830321D02*
X123339001Y-59866035D01*
X123339001Y-59866035D02*
X123196144Y-59866035D01*
X123196144Y-59866035D02*
X123124715Y-59830321D01*
X123124715Y-59830321D02*
X123089001Y-59758892D01*
X123089001Y-59758892D02*
X123089001Y-59473178D01*
X123089001Y-59473178D02*
X123124715Y-59401750D01*
X123124715Y-59401750D02*
X123196144Y-59366035D01*
X123196144Y-59366035D02*
X123339001Y-59366035D01*
X123339001Y-59366035D02*
X123410429Y-59401750D01*
X123410429Y-59401750D02*
X123446144Y-59473178D01*
X123446144Y-59473178D02*
X123446144Y-59544607D01*
X123446144Y-59544607D02*
X123089001Y-59616035D01*
X123731858Y-59830321D02*
X123803286Y-59866035D01*
X123803286Y-59866035D02*
X123946143Y-59866035D01*
X123946143Y-59866035D02*
X124017572Y-59830321D01*
X124017572Y-59830321D02*
X124053286Y-59758892D01*
X124053286Y-59758892D02*
X124053286Y-59723178D01*
X124053286Y-59723178D02*
X124017572Y-59651750D01*
X124017572Y-59651750D02*
X123946143Y-59616035D01*
X123946143Y-59616035D02*
X123839001Y-59616035D01*
X123839001Y-59616035D02*
X123767572Y-59580321D01*
X123767572Y-59580321D02*
X123731858Y-59508892D01*
X123731858Y-59508892D02*
X123731858Y-59473178D01*
X123731858Y-59473178D02*
X123767572Y-59401750D01*
X123767572Y-59401750D02*
X123839001Y-59366035D01*
X123839001Y-59366035D02*
X123946143Y-59366035D01*
X123946143Y-59366035D02*
X124017572Y-59401750D01*
X124374715Y-59866035D02*
X124374715Y-59366035D01*
X124374715Y-59116035D02*
X124339001Y-59151750D01*
X124339001Y-59151750D02*
X124374715Y-59187464D01*
X124374715Y-59187464D02*
X124410429Y-59151750D01*
X124410429Y-59151750D02*
X124374715Y-59116035D01*
X124374715Y-59116035D02*
X124374715Y-59187464D01*
X125053287Y-59366035D02*
X125053287Y-59973178D01*
X125053287Y-59973178D02*
X125017572Y-60044607D01*
X125017572Y-60044607D02*
X124981858Y-60080321D01*
X124981858Y-60080321D02*
X124910429Y-60116035D01*
X124910429Y-60116035D02*
X124803287Y-60116035D01*
X124803287Y-60116035D02*
X124731858Y-60080321D01*
X125053287Y-59830321D02*
X124981858Y-59866035D01*
X124981858Y-59866035D02*
X124839001Y-59866035D01*
X124839001Y-59866035D02*
X124767572Y-59830321D01*
X124767572Y-59830321D02*
X124731858Y-59794607D01*
X124731858Y-59794607D02*
X124696144Y-59723178D01*
X124696144Y-59723178D02*
X124696144Y-59508892D01*
X124696144Y-59508892D02*
X124731858Y-59437464D01*
X124731858Y-59437464D02*
X124767572Y-59401750D01*
X124767572Y-59401750D02*
X124839001Y-59366035D01*
X124839001Y-59366035D02*
X124981858Y-59366035D01*
X124981858Y-59366035D02*
X125053287Y-59401750D01*
X125410429Y-59366035D02*
X125410429Y-59866035D01*
X125410429Y-59437464D02*
X125446143Y-59401750D01*
X125446143Y-59401750D02*
X125517572Y-59366035D01*
X125517572Y-59366035D02*
X125624715Y-59366035D01*
X125624715Y-59366035D02*
X125696143Y-59401750D01*
X125696143Y-59401750D02*
X125731858Y-59473178D01*
X125731858Y-59473178D02*
X125731858Y-59866035D01*
X126374714Y-59830321D02*
X126303286Y-59866035D01*
X126303286Y-59866035D02*
X126160429Y-59866035D01*
X126160429Y-59866035D02*
X126089000Y-59830321D01*
X126089000Y-59830321D02*
X126053286Y-59758892D01*
X126053286Y-59758892D02*
X126053286Y-59473178D01*
X126053286Y-59473178D02*
X126089000Y-59401750D01*
X126089000Y-59401750D02*
X126160429Y-59366035D01*
X126160429Y-59366035D02*
X126303286Y-59366035D01*
X126303286Y-59366035D02*
X126374714Y-59401750D01*
X126374714Y-59401750D02*
X126410429Y-59473178D01*
X126410429Y-59473178D02*
X126410429Y-59544607D01*
X126410429Y-59544607D02*
X126053286Y-59616035D01*
X127053286Y-59866035D02*
X127053286Y-59116035D01*
X127053286Y-59830321D02*
X126981857Y-59866035D01*
X126981857Y-59866035D02*
X126839000Y-59866035D01*
X126839000Y-59866035D02*
X126767571Y-59830321D01*
X126767571Y-59830321D02*
X126731857Y-59794607D01*
X126731857Y-59794607D02*
X126696143Y-59723178D01*
X126696143Y-59723178D02*
X126696143Y-59508892D01*
X126696143Y-59508892D02*
X126731857Y-59437464D01*
X126731857Y-59437464D02*
X126767571Y-59401750D01*
X126767571Y-59401750D02*
X126839000Y-59366035D01*
X126839000Y-59366035D02*
X126981857Y-59366035D01*
X126981857Y-59366035D02*
X127053286Y-59401750D01*
X123006857Y-61081035D02*
X123006857Y-60331035D01*
X123006857Y-60616750D02*
X123078286Y-60581035D01*
X123078286Y-60581035D02*
X123221143Y-60581035D01*
X123221143Y-60581035D02*
X123292571Y-60616750D01*
X123292571Y-60616750D02*
X123328286Y-60652464D01*
X123328286Y-60652464D02*
X123364000Y-60723892D01*
X123364000Y-60723892D02*
X123364000Y-60938178D01*
X123364000Y-60938178D02*
X123328286Y-61009607D01*
X123328286Y-61009607D02*
X123292571Y-61045321D01*
X123292571Y-61045321D02*
X123221143Y-61081035D01*
X123221143Y-61081035D02*
X123078286Y-61081035D01*
X123078286Y-61081035D02*
X123006857Y-61045321D01*
X123613999Y-60581035D02*
X123792571Y-61081035D01*
X123971142Y-60581035D02*
X123792571Y-61081035D01*
X123792571Y-61081035D02*
X123721142Y-61259607D01*
X123721142Y-61259607D02*
X123685428Y-61295321D01*
X123685428Y-61295321D02*
X123613999Y-61331035D01*
X125135428Y-61081035D02*
X124885428Y-60723892D01*
X124706857Y-61081035D02*
X124706857Y-60331035D01*
X124706857Y-60331035D02*
X124992571Y-60331035D01*
X124992571Y-60331035D02*
X125064000Y-60366750D01*
X125064000Y-60366750D02*
X125099714Y-60402464D01*
X125099714Y-60402464D02*
X125135428Y-60473892D01*
X125135428Y-60473892D02*
X125135428Y-60581035D01*
X125135428Y-60581035D02*
X125099714Y-60652464D01*
X125099714Y-60652464D02*
X125064000Y-60688178D01*
X125064000Y-60688178D02*
X124992571Y-60723892D01*
X124992571Y-60723892D02*
X124706857Y-60723892D01*
X125671143Y-60331035D02*
X125671143Y-60866750D01*
X125671143Y-60866750D02*
X125635428Y-60973892D01*
X125635428Y-60973892D02*
X125564000Y-61045321D01*
X125564000Y-61045321D02*
X125456857Y-61081035D01*
X125456857Y-61081035D02*
X125385428Y-61081035D01*
X126278286Y-60688178D02*
X126385429Y-60723892D01*
X126385429Y-60723892D02*
X126421143Y-60759607D01*
X126421143Y-60759607D02*
X126456857Y-60831035D01*
X126456857Y-60831035D02*
X126456857Y-60938178D01*
X126456857Y-60938178D02*
X126421143Y-61009607D01*
X126421143Y-61009607D02*
X126385429Y-61045321D01*
X126385429Y-61045321D02*
X126314000Y-61081035D01*
X126314000Y-61081035D02*
X126028286Y-61081035D01*
X126028286Y-61081035D02*
X126028286Y-60331035D01*
X126028286Y-60331035D02*
X126278286Y-60331035D01*
X126278286Y-60331035D02*
X126349715Y-60366750D01*
X126349715Y-60366750D02*
X126385429Y-60402464D01*
X126385429Y-60402464D02*
X126421143Y-60473892D01*
X126421143Y-60473892D02*
X126421143Y-60545321D01*
X126421143Y-60545321D02*
X126385429Y-60616750D01*
X126385429Y-60616750D02*
X126349715Y-60652464D01*
X126349715Y-60652464D02*
X126278286Y-60688178D01*
X126278286Y-60688178D02*
X126028286Y-60688178D01*
D12*
X109243761Y-59365690D02*
X109077095Y-59127595D01*
X108958047Y-59365690D02*
X108958047Y-58865690D01*
X108958047Y-58865690D02*
X109148523Y-58865690D01*
X109148523Y-58865690D02*
X109196142Y-58889500D01*
X109196142Y-58889500D02*
X109219952Y-58913309D01*
X109219952Y-58913309D02*
X109243761Y-58960928D01*
X109243761Y-58960928D02*
X109243761Y-59032357D01*
X109243761Y-59032357D02*
X109219952Y-59079976D01*
X109219952Y-59079976D02*
X109196142Y-59103785D01*
X109196142Y-59103785D02*
X109148523Y-59127595D01*
X109148523Y-59127595D02*
X108958047Y-59127595D01*
X109410428Y-58865690D02*
X109743761Y-59365690D01*
X109743761Y-58865690D02*
X109410428Y-59365690D01*
X114196761Y-59318071D02*
X114172952Y-59341880D01*
X114172952Y-59341880D02*
X114101523Y-59365690D01*
X114101523Y-59365690D02*
X114053904Y-59365690D01*
X114053904Y-59365690D02*
X113982476Y-59341880D01*
X113982476Y-59341880D02*
X113934857Y-59294261D01*
X113934857Y-59294261D02*
X113911047Y-59246642D01*
X113911047Y-59246642D02*
X113887238Y-59151404D01*
X113887238Y-59151404D02*
X113887238Y-59079976D01*
X113887238Y-59079976D02*
X113911047Y-58984738D01*
X113911047Y-58984738D02*
X113934857Y-58937119D01*
X113934857Y-58937119D02*
X113982476Y-58889500D01*
X113982476Y-58889500D02*
X114053904Y-58865690D01*
X114053904Y-58865690D02*
X114101523Y-58865690D01*
X114101523Y-58865690D02*
X114172952Y-58889500D01*
X114172952Y-58889500D02*
X114196761Y-58913309D01*
X114363428Y-58865690D02*
X114672952Y-58865690D01*
X114672952Y-58865690D02*
X114506285Y-59056166D01*
X114506285Y-59056166D02*
X114577714Y-59056166D01*
X114577714Y-59056166D02*
X114625333Y-59079976D01*
X114625333Y-59079976D02*
X114649142Y-59103785D01*
X114649142Y-59103785D02*
X114672952Y-59151404D01*
X114672952Y-59151404D02*
X114672952Y-59270452D01*
X114672952Y-59270452D02*
X114649142Y-59318071D01*
X114649142Y-59318071D02*
X114625333Y-59341880D01*
X114625333Y-59341880D02*
X114577714Y-59365690D01*
X114577714Y-59365690D02*
X114434857Y-59365690D01*
X114434857Y-59365690D02*
X114387238Y-59341880D01*
X114387238Y-59341880D02*
X114363428Y-59318071D01*
X106529142Y-58865690D02*
X106291047Y-58865690D01*
X106291047Y-58865690D02*
X106267238Y-59103785D01*
X106267238Y-59103785D02*
X106291047Y-59079976D01*
X106291047Y-59079976D02*
X106338666Y-59056166D01*
X106338666Y-59056166D02*
X106457714Y-59056166D01*
X106457714Y-59056166D02*
X106505333Y-59079976D01*
X106505333Y-59079976D02*
X106529142Y-59103785D01*
X106529142Y-59103785D02*
X106552952Y-59151404D01*
X106552952Y-59151404D02*
X106552952Y-59270452D01*
X106552952Y-59270452D02*
X106529142Y-59318071D01*
X106529142Y-59318071D02*
X106505333Y-59341880D01*
X106505333Y-59341880D02*
X106457714Y-59365690D01*
X106457714Y-59365690D02*
X106338666Y-59365690D01*
X106338666Y-59365690D02*
X106291047Y-59341880D01*
X106291047Y-59341880D02*
X106267238Y-59318071D01*
X106695809Y-58865690D02*
X106862475Y-59365690D01*
X106862475Y-59365690D02*
X107029142Y-58865690D01*
X106298952Y-47459500D02*
X106251333Y-47435690D01*
X106251333Y-47435690D02*
X106179904Y-47435690D01*
X106179904Y-47435690D02*
X106108476Y-47459500D01*
X106108476Y-47459500D02*
X106060857Y-47507119D01*
X106060857Y-47507119D02*
X106037047Y-47554738D01*
X106037047Y-47554738D02*
X106013238Y-47649976D01*
X106013238Y-47649976D02*
X106013238Y-47721404D01*
X106013238Y-47721404D02*
X106037047Y-47816642D01*
X106037047Y-47816642D02*
X106060857Y-47864261D01*
X106060857Y-47864261D02*
X106108476Y-47911880D01*
X106108476Y-47911880D02*
X106179904Y-47935690D01*
X106179904Y-47935690D02*
X106227523Y-47935690D01*
X106227523Y-47935690D02*
X106298952Y-47911880D01*
X106298952Y-47911880D02*
X106322761Y-47888071D01*
X106322761Y-47888071D02*
X106322761Y-47721404D01*
X106322761Y-47721404D02*
X106227523Y-47721404D01*
X106537047Y-47935690D02*
X106537047Y-47435690D01*
X106537047Y-47435690D02*
X106822761Y-47935690D01*
X106822761Y-47935690D02*
X106822761Y-47435690D01*
X107060857Y-47935690D02*
X107060857Y-47435690D01*
X107060857Y-47435690D02*
X107179905Y-47435690D01*
X107179905Y-47435690D02*
X107251333Y-47459500D01*
X107251333Y-47459500D02*
X107298952Y-47507119D01*
X107298952Y-47507119D02*
X107322762Y-47554738D01*
X107322762Y-47554738D02*
X107346571Y-47649976D01*
X107346571Y-47649976D02*
X107346571Y-47721404D01*
X107346571Y-47721404D02*
X107322762Y-47816642D01*
X107322762Y-47816642D02*
X107298952Y-47864261D01*
X107298952Y-47864261D02*
X107251333Y-47911880D01*
X107251333Y-47911880D02*
X107179905Y-47935690D01*
X107179905Y-47935690D02*
X107060857Y-47935690D01*
D11*
X69371000Y-66136595D02*
X69371000Y-64836595D01*
X69371000Y-65455642D02*
X70113857Y-65455642D01*
X70113857Y-66136595D02*
X70113857Y-64836595D01*
X70732905Y-65455642D02*
X71166239Y-65455642D01*
X71351953Y-66136595D02*
X70732905Y-66136595D01*
X70732905Y-66136595D02*
X70732905Y-64836595D01*
X70732905Y-64836595D02*
X71351953Y-64836595D01*
X71847191Y-65765166D02*
X72466238Y-65765166D01*
X71723381Y-66136595D02*
X72156714Y-64836595D01*
X72156714Y-64836595D02*
X72590048Y-66136595D01*
X73766238Y-66136595D02*
X73332905Y-65517547D01*
X73023381Y-66136595D02*
X73023381Y-64836595D01*
X73023381Y-64836595D02*
X73518619Y-64836595D01*
X73518619Y-64836595D02*
X73642429Y-64898500D01*
X73642429Y-64898500D02*
X73704334Y-64960404D01*
X73704334Y-64960404D02*
X73766238Y-65084214D01*
X73766238Y-65084214D02*
X73766238Y-65269928D01*
X73766238Y-65269928D02*
X73704334Y-65393738D01*
X73704334Y-65393738D02*
X73642429Y-65455642D01*
X73642429Y-65455642D02*
X73518619Y-65517547D01*
X73518619Y-65517547D02*
X73023381Y-65517547D01*
X74137667Y-64836595D02*
X74880524Y-64836595D01*
X74509096Y-66136595D02*
X74509096Y-64836595D01*
X75747191Y-65455642D02*
X75932905Y-65517547D01*
X75932905Y-65517547D02*
X75994810Y-65579452D01*
X75994810Y-65579452D02*
X76056714Y-65703261D01*
X76056714Y-65703261D02*
X76056714Y-65888976D01*
X76056714Y-65888976D02*
X75994810Y-66012785D01*
X75994810Y-66012785D02*
X75932905Y-66074690D01*
X75932905Y-66074690D02*
X75809095Y-66136595D01*
X75809095Y-66136595D02*
X75313857Y-66136595D01*
X75313857Y-66136595D02*
X75313857Y-64836595D01*
X75313857Y-64836595D02*
X75747191Y-64836595D01*
X75747191Y-64836595D02*
X75871000Y-64898500D01*
X75871000Y-64898500D02*
X75932905Y-64960404D01*
X75932905Y-64960404D02*
X75994810Y-65084214D01*
X75994810Y-65084214D02*
X75994810Y-65208023D01*
X75994810Y-65208023D02*
X75932905Y-65331833D01*
X75932905Y-65331833D02*
X75871000Y-65393738D01*
X75871000Y-65393738D02*
X75747191Y-65455642D01*
X75747191Y-65455642D02*
X75313857Y-65455642D01*
X76613857Y-65455642D02*
X77047191Y-65455642D01*
X77232905Y-66136595D02*
X76613857Y-66136595D01*
X76613857Y-66136595D02*
X76613857Y-64836595D01*
X76613857Y-64836595D02*
X77232905Y-64836595D01*
X77728143Y-65765166D02*
X78347190Y-65765166D01*
X77604333Y-66136595D02*
X78037666Y-64836595D01*
X78037666Y-64836595D02*
X78471000Y-66136595D01*
X78718619Y-64836595D02*
X79461476Y-64836595D01*
X79090048Y-66136595D02*
X79090048Y-64836595D01*
X79894809Y-65641357D02*
X80885286Y-65641357D01*
X81318619Y-64836595D02*
X82061476Y-64836595D01*
X81690048Y-66136595D02*
X81690048Y-64836595D01*
X83237666Y-66136595D02*
X82804333Y-65517547D01*
X82494809Y-66136595D02*
X82494809Y-64836595D01*
X82494809Y-64836595D02*
X82990047Y-64836595D01*
X82990047Y-64836595D02*
X83113857Y-64898500D01*
X83113857Y-64898500D02*
X83175762Y-64960404D01*
X83175762Y-64960404D02*
X83237666Y-65084214D01*
X83237666Y-65084214D02*
X83237666Y-65269928D01*
X83237666Y-65269928D02*
X83175762Y-65393738D01*
X83175762Y-65393738D02*
X83113857Y-65455642D01*
X83113857Y-65455642D02*
X82990047Y-65517547D01*
X82990047Y-65517547D02*
X82494809Y-65517547D01*
X83794809Y-66136595D02*
X83794809Y-64836595D01*
X85094810Y-64898500D02*
X84971000Y-64836595D01*
X84971000Y-64836595D02*
X84785286Y-64836595D01*
X84785286Y-64836595D02*
X84599572Y-64898500D01*
X84599572Y-64898500D02*
X84475762Y-65022309D01*
X84475762Y-65022309D02*
X84413857Y-65146119D01*
X84413857Y-65146119D02*
X84351953Y-65393738D01*
X84351953Y-65393738D02*
X84351953Y-65579452D01*
X84351953Y-65579452D02*
X84413857Y-65827071D01*
X84413857Y-65827071D02*
X84475762Y-65950880D01*
X84475762Y-65950880D02*
X84599572Y-66074690D01*
X84599572Y-66074690D02*
X84785286Y-66136595D01*
X84785286Y-66136595D02*
X84909095Y-66136595D01*
X84909095Y-66136595D02*
X85094810Y-66074690D01*
X85094810Y-66074690D02*
X85156714Y-66012785D01*
X85156714Y-66012785D02*
X85156714Y-65579452D01*
X85156714Y-65579452D02*
X84909095Y-65579452D01*
X86394810Y-64898500D02*
X86271000Y-64836595D01*
X86271000Y-64836595D02*
X86085286Y-64836595D01*
X86085286Y-64836595D02*
X85899572Y-64898500D01*
X85899572Y-64898500D02*
X85775762Y-65022309D01*
X85775762Y-65022309D02*
X85713857Y-65146119D01*
X85713857Y-65146119D02*
X85651953Y-65393738D01*
X85651953Y-65393738D02*
X85651953Y-65579452D01*
X85651953Y-65579452D02*
X85713857Y-65827071D01*
X85713857Y-65827071D02*
X85775762Y-65950880D01*
X85775762Y-65950880D02*
X85899572Y-66074690D01*
X85899572Y-66074690D02*
X86085286Y-66136595D01*
X86085286Y-66136595D02*
X86209095Y-66136595D01*
X86209095Y-66136595D02*
X86394810Y-66074690D01*
X86394810Y-66074690D02*
X86456714Y-66012785D01*
X86456714Y-66012785D02*
X86456714Y-65579452D01*
X86456714Y-65579452D02*
X86209095Y-65579452D01*
X87013857Y-65455642D02*
X87447191Y-65455642D01*
X87632905Y-66136595D02*
X87013857Y-66136595D01*
X87013857Y-66136595D02*
X87013857Y-64836595D01*
X87013857Y-64836595D02*
X87632905Y-64836595D01*
X88932904Y-66136595D02*
X88499571Y-65517547D01*
X88190047Y-66136595D02*
X88190047Y-64836595D01*
X88190047Y-64836595D02*
X88685285Y-64836595D01*
X88685285Y-64836595D02*
X88809095Y-64898500D01*
X88809095Y-64898500D02*
X88871000Y-64960404D01*
X88871000Y-64960404D02*
X88932904Y-65084214D01*
X88932904Y-65084214D02*
X88932904Y-65269928D01*
X88932904Y-65269928D02*
X88871000Y-65393738D01*
X88871000Y-65393738D02*
X88809095Y-65455642D01*
X88809095Y-65455642D02*
X88685285Y-65517547D01*
X88685285Y-65517547D02*
X88190047Y-65517547D01*
D12*
X119151857Y-45868535D02*
X118794714Y-45868535D01*
X118794714Y-45868535D02*
X118794714Y-45118535D01*
X119401857Y-45475678D02*
X119651857Y-45475678D01*
X119759000Y-45868535D02*
X119401857Y-45868535D01*
X119401857Y-45868535D02*
X119401857Y-45118535D01*
X119401857Y-45118535D02*
X119759000Y-45118535D01*
X120080428Y-45868535D02*
X120080428Y-45118535D01*
X120080428Y-45118535D02*
X120258999Y-45118535D01*
X120258999Y-45118535D02*
X120366142Y-45154250D01*
X120366142Y-45154250D02*
X120437571Y-45225678D01*
X120437571Y-45225678D02*
X120473285Y-45297107D01*
X120473285Y-45297107D02*
X120508999Y-45439964D01*
X120508999Y-45439964D02*
X120508999Y-45547107D01*
X120508999Y-45547107D02*
X120473285Y-45689964D01*
X120473285Y-45689964D02*
X120437571Y-45761392D01*
X120437571Y-45761392D02*
X120366142Y-45832821D01*
X120366142Y-45832821D02*
X120258999Y-45868535D01*
X120258999Y-45868535D02*
X120080428Y-45868535D01*
D10*
X89511286Y-41023380D02*
X90082714Y-41023380D01*
X89797000Y-42023380D02*
X89797000Y-41023380D01*
X90987476Y-42023380D02*
X90654143Y-41547190D01*
X90416048Y-42023380D02*
X90416048Y-41023380D01*
X90416048Y-41023380D02*
X90797000Y-41023380D01*
X90797000Y-41023380D02*
X90892238Y-41071000D01*
X90892238Y-41071000D02*
X90939857Y-41118619D01*
X90939857Y-41118619D02*
X90987476Y-41213857D01*
X90987476Y-41213857D02*
X90987476Y-41356714D01*
X90987476Y-41356714D02*
X90939857Y-41451952D01*
X90939857Y-41451952D02*
X90892238Y-41499571D01*
X90892238Y-41499571D02*
X90797000Y-41547190D01*
X90797000Y-41547190D02*
X90416048Y-41547190D01*
D12*
X92930713Y-62644535D02*
X93359285Y-62644535D01*
X93144999Y-63394535D02*
X93144999Y-62644535D01*
X93537856Y-62644535D02*
X94037856Y-63394535D01*
X94037856Y-62644535D02*
X93537856Y-63394535D01*
X95652142Y-63394535D02*
X95402142Y-63037392D01*
X95223571Y-63394535D02*
X95223571Y-62644535D01*
X95223571Y-62644535D02*
X95509285Y-62644535D01*
X95509285Y-62644535D02*
X95580714Y-62680250D01*
X95580714Y-62680250D02*
X95616428Y-62715964D01*
X95616428Y-62715964D02*
X95652142Y-62787392D01*
X95652142Y-62787392D02*
X95652142Y-62894535D01*
X95652142Y-62894535D02*
X95616428Y-62965964D01*
X95616428Y-62965964D02*
X95580714Y-63001678D01*
X95580714Y-63001678D02*
X95509285Y-63037392D01*
X95509285Y-63037392D02*
X95223571Y-63037392D01*
X95902142Y-62644535D02*
X96402142Y-63394535D01*
X96402142Y-62644535D02*
X95902142Y-63394535D01*
X97980714Y-62680250D02*
X97909286Y-62644535D01*
X97909286Y-62644535D02*
X97802143Y-62644535D01*
X97802143Y-62644535D02*
X97695000Y-62680250D01*
X97695000Y-62680250D02*
X97623571Y-62751678D01*
X97623571Y-62751678D02*
X97587857Y-62823107D01*
X97587857Y-62823107D02*
X97552143Y-62965964D01*
X97552143Y-62965964D02*
X97552143Y-63073107D01*
X97552143Y-63073107D02*
X97587857Y-63215964D01*
X97587857Y-63215964D02*
X97623571Y-63287392D01*
X97623571Y-63287392D02*
X97695000Y-63358821D01*
X97695000Y-63358821D02*
X97802143Y-63394535D01*
X97802143Y-63394535D02*
X97873571Y-63394535D01*
X97873571Y-63394535D02*
X97980714Y-63358821D01*
X97980714Y-63358821D02*
X98016428Y-63323107D01*
X98016428Y-63323107D02*
X98016428Y-63073107D01*
X98016428Y-63073107D02*
X97873571Y-63073107D01*
X98337857Y-63394535D02*
X98337857Y-62644535D01*
X98337857Y-62644535D02*
X98766428Y-63394535D01*
X98766428Y-63394535D02*
X98766428Y-62644535D01*
X99123571Y-63394535D02*
X99123571Y-62644535D01*
X99123571Y-62644535D02*
X99302142Y-62644535D01*
X99302142Y-62644535D02*
X99409285Y-62680250D01*
X99409285Y-62680250D02*
X99480714Y-62751678D01*
X99480714Y-62751678D02*
X99516428Y-62823107D01*
X99516428Y-62823107D02*
X99552142Y-62965964D01*
X99552142Y-62965964D02*
X99552142Y-63073107D01*
X99552142Y-63073107D02*
X99516428Y-63215964D01*
X99516428Y-63215964D02*
X99480714Y-63287392D01*
X99480714Y-63287392D02*
X99409285Y-63358821D01*
X99409285Y-63358821D02*
X99302142Y-63394535D01*
X99302142Y-63394535D02*
X99123571Y-63394535D01*
X111656761Y-59318071D02*
X111632952Y-59341880D01*
X111632952Y-59341880D02*
X111561523Y-59365690D01*
X111561523Y-59365690D02*
X111513904Y-59365690D01*
X111513904Y-59365690D02*
X111442476Y-59341880D01*
X111442476Y-59341880D02*
X111394857Y-59294261D01*
X111394857Y-59294261D02*
X111371047Y-59246642D01*
X111371047Y-59246642D02*
X111347238Y-59151404D01*
X111347238Y-59151404D02*
X111347238Y-59079976D01*
X111347238Y-59079976D02*
X111371047Y-58984738D01*
X111371047Y-58984738D02*
X111394857Y-58937119D01*
X111394857Y-58937119D02*
X111442476Y-58889500D01*
X111442476Y-58889500D02*
X111513904Y-58865690D01*
X111513904Y-58865690D02*
X111561523Y-58865690D01*
X111561523Y-58865690D02*
X111632952Y-58889500D01*
X111632952Y-58889500D02*
X111656761Y-58913309D01*
X112085333Y-59032357D02*
X112085333Y-59365690D01*
X111966285Y-58841880D02*
X111847238Y-59199023D01*
X111847238Y-59199023D02*
X112156761Y-59199023D01*
X114323761Y-47888071D02*
X114299952Y-47911880D01*
X114299952Y-47911880D02*
X114228523Y-47935690D01*
X114228523Y-47935690D02*
X114180904Y-47935690D01*
X114180904Y-47935690D02*
X114109476Y-47911880D01*
X114109476Y-47911880D02*
X114061857Y-47864261D01*
X114061857Y-47864261D02*
X114038047Y-47816642D01*
X114038047Y-47816642D02*
X114014238Y-47721404D01*
X114014238Y-47721404D02*
X114014238Y-47649976D01*
X114014238Y-47649976D02*
X114038047Y-47554738D01*
X114038047Y-47554738D02*
X114061857Y-47507119D01*
X114061857Y-47507119D02*
X114109476Y-47459500D01*
X114109476Y-47459500D02*
X114180904Y-47435690D01*
X114180904Y-47435690D02*
X114228523Y-47435690D01*
X114228523Y-47435690D02*
X114299952Y-47459500D01*
X114299952Y-47459500D02*
X114323761Y-47483309D01*
X114514238Y-47483309D02*
X114538047Y-47459500D01*
X114538047Y-47459500D02*
X114585666Y-47435690D01*
X114585666Y-47435690D02*
X114704714Y-47435690D01*
X114704714Y-47435690D02*
X114752333Y-47459500D01*
X114752333Y-47459500D02*
X114776142Y-47483309D01*
X114776142Y-47483309D02*
X114799952Y-47530928D01*
X114799952Y-47530928D02*
X114799952Y-47578547D01*
X114799952Y-47578547D02*
X114776142Y-47649976D01*
X114776142Y-47649976D02*
X114490428Y-47935690D01*
X114490428Y-47935690D02*
X114799952Y-47935690D01*
X108886619Y-47435690D02*
X109172333Y-47435690D01*
X109029476Y-47935690D02*
X109029476Y-47435690D01*
X109291380Y-47435690D02*
X109624713Y-47935690D01*
X109624713Y-47435690D02*
X109291380Y-47935690D01*
X90916143Y-62644535D02*
X90559000Y-62644535D01*
X90559000Y-62644535D02*
X90523286Y-63001678D01*
X90523286Y-63001678D02*
X90559000Y-62965964D01*
X90559000Y-62965964D02*
X90630429Y-62930250D01*
X90630429Y-62930250D02*
X90809000Y-62930250D01*
X90809000Y-62930250D02*
X90880429Y-62965964D01*
X90880429Y-62965964D02*
X90916143Y-63001678D01*
X90916143Y-63001678D02*
X90951857Y-63073107D01*
X90951857Y-63073107D02*
X90951857Y-63251678D01*
X90951857Y-63251678D02*
X90916143Y-63323107D01*
X90916143Y-63323107D02*
X90880429Y-63358821D01*
X90880429Y-63358821D02*
X90809000Y-63394535D01*
X90809000Y-63394535D02*
X90630429Y-63394535D01*
X90630429Y-63394535D02*
X90559000Y-63358821D01*
X90559000Y-63358821D02*
X90523286Y-63323107D01*
X91166143Y-62644535D02*
X91416143Y-63394535D01*
X91416143Y-63394535D02*
X91666143Y-62644535D01*
X111656761Y-47888071D02*
X111632952Y-47911880D01*
X111632952Y-47911880D02*
X111561523Y-47935690D01*
X111561523Y-47935690D02*
X111513904Y-47935690D01*
X111513904Y-47935690D02*
X111442476Y-47911880D01*
X111442476Y-47911880D02*
X111394857Y-47864261D01*
X111394857Y-47864261D02*
X111371047Y-47816642D01*
X111371047Y-47816642D02*
X111347238Y-47721404D01*
X111347238Y-47721404D02*
X111347238Y-47649976D01*
X111347238Y-47649976D02*
X111371047Y-47554738D01*
X111371047Y-47554738D02*
X111394857Y-47507119D01*
X111394857Y-47507119D02*
X111442476Y-47459500D01*
X111442476Y-47459500D02*
X111513904Y-47435690D01*
X111513904Y-47435690D02*
X111561523Y-47435690D01*
X111561523Y-47435690D02*
X111632952Y-47459500D01*
X111632952Y-47459500D02*
X111656761Y-47483309D01*
X112132952Y-47935690D02*
X111847238Y-47935690D01*
X111990095Y-47935690D02*
X111990095Y-47435690D01*
X111990095Y-47435690D02*
X111942476Y-47507119D01*
X111942476Y-47507119D02*
X111894857Y-47554738D01*
X111894857Y-47554738D02*
X111847238Y-47578547D01*
D10*
X87439523Y-41023380D02*
X86963333Y-41023380D01*
X86963333Y-41023380D02*
X86915714Y-41499571D01*
X86915714Y-41499571D02*
X86963333Y-41451952D01*
X86963333Y-41451952D02*
X87058571Y-41404333D01*
X87058571Y-41404333D02*
X87296666Y-41404333D01*
X87296666Y-41404333D02*
X87391904Y-41451952D01*
X87391904Y-41451952D02*
X87439523Y-41499571D01*
X87439523Y-41499571D02*
X87487142Y-41594809D01*
X87487142Y-41594809D02*
X87487142Y-41832904D01*
X87487142Y-41832904D02*
X87439523Y-41928142D01*
X87439523Y-41928142D02*
X87391904Y-41975761D01*
X87391904Y-41975761D02*
X87296666Y-42023380D01*
X87296666Y-42023380D02*
X87058571Y-42023380D01*
X87058571Y-42023380D02*
X86963333Y-41975761D01*
X86963333Y-41975761D02*
X86915714Y-41928142D01*
X87772857Y-41023380D02*
X88106190Y-42023380D01*
X88106190Y-42023380D02*
X88439523Y-41023380D01*
X121920048Y-40880428D02*
X122681953Y-40880428D01*
X94591286Y-42023380D02*
X94591286Y-41023380D01*
X94591286Y-41499571D02*
X95162714Y-41499571D01*
X95162714Y-42023380D02*
X95162714Y-41023380D01*
X95972238Y-41499571D02*
X96115095Y-41547190D01*
X96115095Y-41547190D02*
X96162714Y-41594809D01*
X96162714Y-41594809D02*
X96210333Y-41690047D01*
X96210333Y-41690047D02*
X96210333Y-41832904D01*
X96210333Y-41832904D02*
X96162714Y-41928142D01*
X96162714Y-41928142D02*
X96115095Y-41975761D01*
X96115095Y-41975761D02*
X96019857Y-42023380D01*
X96019857Y-42023380D02*
X95638905Y-42023380D01*
X95638905Y-42023380D02*
X95638905Y-41023380D01*
X95638905Y-41023380D02*
X95972238Y-41023380D01*
X95972238Y-41023380D02*
X96067476Y-41071000D01*
X96067476Y-41071000D02*
X96115095Y-41118619D01*
X96115095Y-41118619D02*
X96162714Y-41213857D01*
X96162714Y-41213857D02*
X96162714Y-41309095D01*
X96162714Y-41309095D02*
X96115095Y-41404333D01*
X96115095Y-41404333D02*
X96067476Y-41451952D01*
X96067476Y-41451952D02*
X95972238Y-41499571D01*
X95972238Y-41499571D02*
X95638905Y-41499571D01*
D15*
X125383690Y-55030952D02*
X124883690Y-55030952D01*
X124883690Y-55030952D02*
X125240833Y-54864285D01*
X125240833Y-54864285D02*
X124883690Y-54697619D01*
X124883690Y-54697619D02*
X125383690Y-54697619D01*
X125383690Y-54459523D02*
X125050357Y-54459523D01*
X124883690Y-54459523D02*
X124907500Y-54483332D01*
X124907500Y-54483332D02*
X124931309Y-54459523D01*
X124931309Y-54459523D02*
X124907500Y-54435713D01*
X124907500Y-54435713D02*
X124883690Y-54459523D01*
X124883690Y-54459523D02*
X124931309Y-54459523D01*
X125359880Y-54007142D02*
X125383690Y-54054761D01*
X125383690Y-54054761D02*
X125383690Y-54149999D01*
X125383690Y-54149999D02*
X125359880Y-54197618D01*
X125359880Y-54197618D02*
X125336071Y-54221428D01*
X125336071Y-54221428D02*
X125288452Y-54245237D01*
X125288452Y-54245237D02*
X125145595Y-54245237D01*
X125145595Y-54245237D02*
X125097976Y-54221428D01*
X125097976Y-54221428D02*
X125074166Y-54197618D01*
X125074166Y-54197618D02*
X125050357Y-54149999D01*
X125050357Y-54149999D02*
X125050357Y-54054761D01*
X125050357Y-54054761D02*
X125074166Y-54007142D01*
X125383690Y-53792857D02*
X125050357Y-53792857D01*
X125145595Y-53792857D02*
X125097976Y-53769047D01*
X125097976Y-53769047D02*
X125074166Y-53745238D01*
X125074166Y-53745238D02*
X125050357Y-53697619D01*
X125050357Y-53697619D02*
X125050357Y-53650000D01*
X125383690Y-53411904D02*
X125359880Y-53459523D01*
X125359880Y-53459523D02*
X125336071Y-53483333D01*
X125336071Y-53483333D02*
X125288452Y-53507142D01*
X125288452Y-53507142D02*
X125145595Y-53507142D01*
X125145595Y-53507142D02*
X125097976Y-53483333D01*
X125097976Y-53483333D02*
X125074166Y-53459523D01*
X125074166Y-53459523D02*
X125050357Y-53411904D01*
X125050357Y-53411904D02*
X125050357Y-53340476D01*
X125050357Y-53340476D02*
X125074166Y-53292857D01*
X125074166Y-53292857D02*
X125097976Y-53269047D01*
X125097976Y-53269047D02*
X125145595Y-53245238D01*
X125145595Y-53245238D02*
X125288452Y-53245238D01*
X125288452Y-53245238D02*
X125336071Y-53269047D01*
X125336071Y-53269047D02*
X125359880Y-53292857D01*
X125359880Y-53292857D02*
X125383690Y-53340476D01*
X125383690Y-53340476D02*
X125383690Y-53411904D01*
X124883690Y-53030952D02*
X125288452Y-53030952D01*
X125288452Y-53030952D02*
X125336071Y-53007142D01*
X125336071Y-53007142D02*
X125359880Y-52983333D01*
X125359880Y-52983333D02*
X125383690Y-52935714D01*
X125383690Y-52935714D02*
X125383690Y-52840476D01*
X125383690Y-52840476D02*
X125359880Y-52792857D01*
X125359880Y-52792857D02*
X125336071Y-52769047D01*
X125336071Y-52769047D02*
X125288452Y-52745238D01*
X125288452Y-52745238D02*
X124883690Y-52745238D01*
X125359880Y-52530951D02*
X125383690Y-52459523D01*
X125383690Y-52459523D02*
X125383690Y-52340475D01*
X125383690Y-52340475D02*
X125359880Y-52292856D01*
X125359880Y-52292856D02*
X125336071Y-52269047D01*
X125336071Y-52269047D02*
X125288452Y-52245237D01*
X125288452Y-52245237D02*
X125240833Y-52245237D01*
X125240833Y-52245237D02*
X125193214Y-52269047D01*
X125193214Y-52269047D02*
X125169404Y-52292856D01*
X125169404Y-52292856D02*
X125145595Y-52340475D01*
X125145595Y-52340475D02*
X125121785Y-52435713D01*
X125121785Y-52435713D02*
X125097976Y-52483332D01*
X125097976Y-52483332D02*
X125074166Y-52507142D01*
X125074166Y-52507142D02*
X125026547Y-52530951D01*
X125026547Y-52530951D02*
X124978928Y-52530951D01*
X124978928Y-52530951D02*
X124931309Y-52507142D01*
X124931309Y-52507142D02*
X124907500Y-52483332D01*
X124907500Y-52483332D02*
X124883690Y-52435713D01*
X124883690Y-52435713D02*
X124883690Y-52316666D01*
X124883690Y-52316666D02*
X124907500Y-52245237D01*
X125121785Y-51864285D02*
X125145595Y-51792857D01*
X125145595Y-51792857D02*
X125169404Y-51769047D01*
X125169404Y-51769047D02*
X125217023Y-51745238D01*
X125217023Y-51745238D02*
X125288452Y-51745238D01*
X125288452Y-51745238D02*
X125336071Y-51769047D01*
X125336071Y-51769047D02*
X125359880Y-51792857D01*
X125359880Y-51792857D02*
X125383690Y-51840476D01*
X125383690Y-51840476D02*
X125383690Y-52030952D01*
X125383690Y-52030952D02*
X124883690Y-52030952D01*
X124883690Y-52030952D02*
X124883690Y-51864285D01*
X124883690Y-51864285D02*
X124907500Y-51816666D01*
X124907500Y-51816666D02*
X124931309Y-51792857D01*
X124931309Y-51792857D02*
X124978928Y-51769047D01*
X124978928Y-51769047D02*
X125026547Y-51769047D01*
X125026547Y-51769047D02*
X125074166Y-51792857D01*
X125074166Y-51792857D02*
X125097976Y-51816666D01*
X125097976Y-51816666D02*
X125121785Y-51864285D01*
X125121785Y-51864285D02*
X125121785Y-52030952D01*
D10*
X98330143Y-43150619D02*
X98377762Y-43103000D01*
X98377762Y-43103000D02*
X98473000Y-43055380D01*
X98473000Y-43055380D02*
X98711095Y-43055380D01*
X98711095Y-43055380D02*
X98806333Y-43103000D01*
X98806333Y-43103000D02*
X98853952Y-43150619D01*
X98853952Y-43150619D02*
X98901571Y-43245857D01*
X98901571Y-43245857D02*
X98901571Y-43341095D01*
X98901571Y-43341095D02*
X98853952Y-43483952D01*
X98853952Y-43483952D02*
X98282524Y-44055380D01*
X98282524Y-44055380D02*
X98901571Y-44055380D01*
X99330143Y-44055380D02*
X99330143Y-43055380D01*
X99330143Y-43055380D02*
X99901571Y-44055380D01*
X99901571Y-44055380D02*
X99901571Y-43055380D01*
X100330143Y-43150619D02*
X100377762Y-43103000D01*
X100377762Y-43103000D02*
X100473000Y-43055380D01*
X100473000Y-43055380D02*
X100711095Y-43055380D01*
X100711095Y-43055380D02*
X100806333Y-43103000D01*
X100806333Y-43103000D02*
X100853952Y-43150619D01*
X100853952Y-43150619D02*
X100901571Y-43245857D01*
X100901571Y-43245857D02*
X100901571Y-43341095D01*
X100901571Y-43341095D02*
X100853952Y-43483952D01*
X100853952Y-43483952D02*
X100282524Y-44055380D01*
X100282524Y-44055380D02*
X100901571Y-44055380D01*
X101282524Y-43150619D02*
X101330143Y-43103000D01*
X101330143Y-43103000D02*
X101425381Y-43055380D01*
X101425381Y-43055380D02*
X101663476Y-43055380D01*
X101663476Y-43055380D02*
X101758714Y-43103000D01*
X101758714Y-43103000D02*
X101806333Y-43150619D01*
X101806333Y-43150619D02*
X101853952Y-43245857D01*
X101853952Y-43245857D02*
X101853952Y-43341095D01*
X101853952Y-43341095D02*
X101806333Y-43483952D01*
X101806333Y-43483952D02*
X101234905Y-44055380D01*
X101234905Y-44055380D02*
X101853952Y-44055380D01*
X102234905Y-43150619D02*
X102282524Y-43103000D01*
X102282524Y-43103000D02*
X102377762Y-43055380D01*
X102377762Y-43055380D02*
X102615857Y-43055380D01*
X102615857Y-43055380D02*
X102711095Y-43103000D01*
X102711095Y-43103000D02*
X102758714Y-43150619D01*
X102758714Y-43150619D02*
X102806333Y-43245857D01*
X102806333Y-43245857D02*
X102806333Y-43341095D01*
X102806333Y-43341095D02*
X102758714Y-43483952D01*
X102758714Y-43483952D02*
X102187286Y-44055380D01*
X102187286Y-44055380D02*
X102806333Y-44055380D01*
X103187286Y-43150619D02*
X103234905Y-43103000D01*
X103234905Y-43103000D02*
X103330143Y-43055380D01*
X103330143Y-43055380D02*
X103568238Y-43055380D01*
X103568238Y-43055380D02*
X103663476Y-43103000D01*
X103663476Y-43103000D02*
X103711095Y-43150619D01*
X103711095Y-43150619D02*
X103758714Y-43245857D01*
X103758714Y-43245857D02*
X103758714Y-43341095D01*
X103758714Y-43341095D02*
X103711095Y-43483952D01*
X103711095Y-43483952D02*
X103139667Y-44055380D01*
X103139667Y-44055380D02*
X103758714Y-44055380D01*
X104139667Y-43769666D02*
X104615857Y-43769666D01*
X104044429Y-44055380D02*
X104377762Y-43055380D01*
X104377762Y-43055380D02*
X104711095Y-44055380D01*
X78320000Y-60673833D02*
X78353333Y-60640500D01*
X78353333Y-60640500D02*
X78420000Y-60607166D01*
X78420000Y-60607166D02*
X78586667Y-60607166D01*
X78586667Y-60607166D02*
X78653333Y-60640500D01*
X78653333Y-60640500D02*
X78686667Y-60673833D01*
X78686667Y-60673833D02*
X78720000Y-60740500D01*
X78720000Y-60740500D02*
X78720000Y-60807166D01*
X78720000Y-60807166D02*
X78686667Y-60907166D01*
X78686667Y-60907166D02*
X78286667Y-61307166D01*
X78286667Y-61307166D02*
X78720000Y-61307166D01*
X78986667Y-60673833D02*
X79020000Y-60640500D01*
X79020000Y-60640500D02*
X79086667Y-60607166D01*
X79086667Y-60607166D02*
X79253334Y-60607166D01*
X79253334Y-60607166D02*
X79320000Y-60640500D01*
X79320000Y-60640500D02*
X79353334Y-60673833D01*
X79353334Y-60673833D02*
X79386667Y-60740500D01*
X79386667Y-60740500D02*
X79386667Y-60807166D01*
X79386667Y-60807166D02*
X79353334Y-60907166D01*
X79353334Y-60907166D02*
X78953334Y-61307166D01*
X78953334Y-61307166D02*
X79386667Y-61307166D01*
X79820001Y-60607166D02*
X79886667Y-60607166D01*
X79886667Y-60607166D02*
X79953334Y-60640500D01*
X79953334Y-60640500D02*
X79986667Y-60673833D01*
X79986667Y-60673833D02*
X80020001Y-60740500D01*
X80020001Y-60740500D02*
X80053334Y-60873833D01*
X80053334Y-60873833D02*
X80053334Y-61040500D01*
X80053334Y-61040500D02*
X80020001Y-61173833D01*
X80020001Y-61173833D02*
X79986667Y-61240500D01*
X79986667Y-61240500D02*
X79953334Y-61273833D01*
X79953334Y-61273833D02*
X79886667Y-61307166D01*
X79886667Y-61307166D02*
X79820001Y-61307166D01*
X79820001Y-61307166D02*
X79753334Y-61273833D01*
X79753334Y-61273833D02*
X79720001Y-61240500D01*
X79720001Y-61240500D02*
X79686667Y-61173833D01*
X79686667Y-61173833D02*
X79653334Y-61040500D01*
X79653334Y-61040500D02*
X79653334Y-60873833D01*
X79653334Y-60873833D02*
X79686667Y-60740500D01*
X79686667Y-60740500D02*
X79720001Y-60673833D01*
X79720001Y-60673833D02*
X79753334Y-60640500D01*
X79753334Y-60640500D02*
X79820001Y-60607166D01*
X80753334Y-61307166D02*
X80520001Y-60973833D01*
X80353334Y-61307166D02*
X80353334Y-60607166D01*
X80353334Y-60607166D02*
X80620001Y-60607166D01*
X80620001Y-60607166D02*
X80686668Y-60640500D01*
X80686668Y-60640500D02*
X80720001Y-60673833D01*
X80720001Y-60673833D02*
X80753334Y-60740500D01*
X80753334Y-60740500D02*
X80753334Y-60840500D01*
X80753334Y-60840500D02*
X80720001Y-60907166D01*
X80720001Y-60907166D02*
X80686668Y-60940500D01*
X80686668Y-60940500D02*
X80620001Y-60973833D01*
X80620001Y-60973833D02*
X80353334Y-60973833D01*
X81473334Y-61307166D02*
X81473334Y-60607166D01*
X81473334Y-60607166D02*
X81640001Y-60607166D01*
X81640001Y-60607166D02*
X81740001Y-60640500D01*
X81740001Y-60640500D02*
X81806668Y-60707166D01*
X81806668Y-60707166D02*
X81840001Y-60773833D01*
X81840001Y-60773833D02*
X81873334Y-60907166D01*
X81873334Y-60907166D02*
X81873334Y-61007166D01*
X81873334Y-61007166D02*
X81840001Y-61140500D01*
X81840001Y-61140500D02*
X81806668Y-61207166D01*
X81806668Y-61207166D02*
X81740001Y-61273833D01*
X81740001Y-61273833D02*
X81640001Y-61307166D01*
X81640001Y-61307166D02*
X81473334Y-61307166D01*
X82573334Y-61307166D02*
X82340001Y-60973833D01*
X82173334Y-61307166D02*
X82173334Y-60607166D01*
X82173334Y-60607166D02*
X82440001Y-60607166D01*
X82440001Y-60607166D02*
X82506668Y-60640500D01*
X82506668Y-60640500D02*
X82540001Y-60673833D01*
X82540001Y-60673833D02*
X82573334Y-60740500D01*
X82573334Y-60740500D02*
X82573334Y-60840500D01*
X82573334Y-60840500D02*
X82540001Y-60907166D01*
X82540001Y-60907166D02*
X82506668Y-60940500D01*
X82506668Y-60940500D02*
X82440001Y-60973833D01*
X82440001Y-60973833D02*
X82173334Y-60973833D01*
X82840001Y-61107166D02*
X83173334Y-61107166D01*
X82773334Y-61307166D02*
X83006668Y-60607166D01*
X83006668Y-60607166D02*
X83240001Y-61307166D01*
X83473334Y-61307166D02*
X83473334Y-60607166D01*
X83806667Y-61307166D02*
X83806667Y-60607166D01*
X83806667Y-60607166D02*
X84206667Y-61307166D01*
X84206667Y-61307166D02*
X84206667Y-60607166D01*
D12*
X118368096Y-60008690D02*
X118677620Y-60008690D01*
X118677620Y-60008690D02*
X118510953Y-60199166D01*
X118510953Y-60199166D02*
X118582382Y-60199166D01*
X118582382Y-60199166D02*
X118630001Y-60222976D01*
X118630001Y-60222976D02*
X118653810Y-60246785D01*
X118653810Y-60246785D02*
X118677620Y-60294404D01*
X118677620Y-60294404D02*
X118677620Y-60413452D01*
X118677620Y-60413452D02*
X118653810Y-60461071D01*
X118653810Y-60461071D02*
X118630001Y-60484880D01*
X118630001Y-60484880D02*
X118582382Y-60508690D01*
X118582382Y-60508690D02*
X118439525Y-60508690D01*
X118439525Y-60508690D02*
X118391906Y-60484880D01*
X118391906Y-60484880D02*
X118368096Y-60461071D01*
X118844286Y-60008690D02*
X119153810Y-60008690D01*
X119153810Y-60008690D02*
X118987143Y-60199166D01*
X118987143Y-60199166D02*
X119058572Y-60199166D01*
X119058572Y-60199166D02*
X119106191Y-60222976D01*
X119106191Y-60222976D02*
X119130000Y-60246785D01*
X119130000Y-60246785D02*
X119153810Y-60294404D01*
X119153810Y-60294404D02*
X119153810Y-60413452D01*
X119153810Y-60413452D02*
X119130000Y-60461071D01*
X119130000Y-60461071D02*
X119106191Y-60484880D01*
X119106191Y-60484880D02*
X119058572Y-60508690D01*
X119058572Y-60508690D02*
X118915715Y-60508690D01*
X118915715Y-60508690D02*
X118868096Y-60484880D01*
X118868096Y-60484880D02*
X118844286Y-60461071D01*
X119463333Y-60008690D02*
X119510952Y-60008690D01*
X119510952Y-60008690D02*
X119558571Y-60032500D01*
X119558571Y-60032500D02*
X119582381Y-60056309D01*
X119582381Y-60056309D02*
X119606190Y-60103928D01*
X119606190Y-60103928D02*
X119630000Y-60199166D01*
X119630000Y-60199166D02*
X119630000Y-60318214D01*
X119630000Y-60318214D02*
X119606190Y-60413452D01*
X119606190Y-60413452D02*
X119582381Y-60461071D01*
X119582381Y-60461071D02*
X119558571Y-60484880D01*
X119558571Y-60484880D02*
X119510952Y-60508690D01*
X119510952Y-60508690D02*
X119463333Y-60508690D01*
X119463333Y-60508690D02*
X119415714Y-60484880D01*
X119415714Y-60484880D02*
X119391905Y-60461071D01*
X119391905Y-60461071D02*
X119368095Y-60413452D01*
X119368095Y-60413452D02*
X119344286Y-60318214D01*
X119344286Y-60318214D02*
X119344286Y-60199166D01*
X119344286Y-60199166D02*
X119368095Y-60103928D01*
X119368095Y-60103928D02*
X119391905Y-60056309D01*
X119391905Y-60056309D02*
X119415714Y-60032500D01*
X119415714Y-60032500D02*
X119463333Y-60008690D01*
X120058571Y-60175357D02*
X120058571Y-60508690D01*
X119844285Y-60175357D02*
X119844285Y-60437261D01*
X119844285Y-60437261D02*
X119868095Y-60484880D01*
X119868095Y-60484880D02*
X119915714Y-60508690D01*
X119915714Y-60508690D02*
X119987142Y-60508690D01*
X119987142Y-60508690D02*
X120034761Y-60484880D01*
X120034761Y-60484880D02*
X120058571Y-60461071D01*
X120225238Y-60175357D02*
X120415714Y-60175357D01*
X120296666Y-60508690D02*
X120296666Y-60080119D01*
X120296666Y-60080119D02*
X120320476Y-60032500D01*
X120320476Y-60032500D02*
X120368095Y-60008690D01*
X120368095Y-60008690D02*
X120415714Y-60008690D01*
D10*
X109489666Y-41557166D02*
X109922999Y-41557166D01*
X109922999Y-41557166D02*
X109689666Y-41823833D01*
X109689666Y-41823833D02*
X109789666Y-41823833D01*
X109789666Y-41823833D02*
X109856332Y-41857166D01*
X109856332Y-41857166D02*
X109889666Y-41890500D01*
X109889666Y-41890500D02*
X109922999Y-41957166D01*
X109922999Y-41957166D02*
X109922999Y-42123833D01*
X109922999Y-42123833D02*
X109889666Y-42190500D01*
X109889666Y-42190500D02*
X109856332Y-42223833D01*
X109856332Y-42223833D02*
X109789666Y-42257166D01*
X109789666Y-42257166D02*
X109589666Y-42257166D01*
X109589666Y-42257166D02*
X109522999Y-42223833D01*
X109522999Y-42223833D02*
X109489666Y-42190500D01*
X110156333Y-41557166D02*
X110589666Y-41557166D01*
X110589666Y-41557166D02*
X110356333Y-41823833D01*
X110356333Y-41823833D02*
X110456333Y-41823833D01*
X110456333Y-41823833D02*
X110522999Y-41857166D01*
X110522999Y-41857166D02*
X110556333Y-41890500D01*
X110556333Y-41890500D02*
X110589666Y-41957166D01*
X110589666Y-41957166D02*
X110589666Y-42123833D01*
X110589666Y-42123833D02*
X110556333Y-42190500D01*
X110556333Y-42190500D02*
X110522999Y-42223833D01*
X110522999Y-42223833D02*
X110456333Y-42257166D01*
X110456333Y-42257166D02*
X110256333Y-42257166D01*
X110256333Y-42257166D02*
X110189666Y-42223833D01*
X110189666Y-42223833D02*
X110156333Y-42190500D01*
X111023000Y-41557166D02*
X111089666Y-41557166D01*
X111089666Y-41557166D02*
X111156333Y-41590500D01*
X111156333Y-41590500D02*
X111189666Y-41623833D01*
X111189666Y-41623833D02*
X111223000Y-41690500D01*
X111223000Y-41690500D02*
X111256333Y-41823833D01*
X111256333Y-41823833D02*
X111256333Y-41990500D01*
X111256333Y-41990500D02*
X111223000Y-42123833D01*
X111223000Y-42123833D02*
X111189666Y-42190500D01*
X111189666Y-42190500D02*
X111156333Y-42223833D01*
X111156333Y-42223833D02*
X111089666Y-42257166D01*
X111089666Y-42257166D02*
X111023000Y-42257166D01*
X111023000Y-42257166D02*
X110956333Y-42223833D01*
X110956333Y-42223833D02*
X110923000Y-42190500D01*
X110923000Y-42190500D02*
X110889666Y-42123833D01*
X110889666Y-42123833D02*
X110856333Y-41990500D01*
X110856333Y-41990500D02*
X110856333Y-41823833D01*
X110856333Y-41823833D02*
X110889666Y-41690500D01*
X110889666Y-41690500D02*
X110923000Y-41623833D01*
X110923000Y-41623833D02*
X110956333Y-41590500D01*
X110956333Y-41590500D02*
X111023000Y-41557166D01*
X111956333Y-42257166D02*
X111723000Y-41923833D01*
X111556333Y-42257166D02*
X111556333Y-41557166D01*
X111556333Y-41557166D02*
X111823000Y-41557166D01*
X111823000Y-41557166D02*
X111889667Y-41590500D01*
X111889667Y-41590500D02*
X111923000Y-41623833D01*
X111923000Y-41623833D02*
X111956333Y-41690500D01*
X111956333Y-41690500D02*
X111956333Y-41790500D01*
X111956333Y-41790500D02*
X111923000Y-41857166D01*
X111923000Y-41857166D02*
X111889667Y-41890500D01*
X111889667Y-41890500D02*
X111823000Y-41923833D01*
X111823000Y-41923833D02*
X111556333Y-41923833D01*
X113076333Y-42190500D02*
X113043000Y-42223833D01*
X113043000Y-42223833D02*
X112943000Y-42257166D01*
X112943000Y-42257166D02*
X112876333Y-42257166D01*
X112876333Y-42257166D02*
X112776333Y-42223833D01*
X112776333Y-42223833D02*
X112709667Y-42157166D01*
X112709667Y-42157166D02*
X112676333Y-42090500D01*
X112676333Y-42090500D02*
X112643000Y-41957166D01*
X112643000Y-41957166D02*
X112643000Y-41857166D01*
X112643000Y-41857166D02*
X112676333Y-41723833D01*
X112676333Y-41723833D02*
X112709667Y-41657166D01*
X112709667Y-41657166D02*
X112776333Y-41590500D01*
X112776333Y-41590500D02*
X112876333Y-41557166D01*
X112876333Y-41557166D02*
X112943000Y-41557166D01*
X112943000Y-41557166D02*
X113043000Y-41590500D01*
X113043000Y-41590500D02*
X113076333Y-41623833D01*
X113743000Y-42257166D02*
X113343000Y-42257166D01*
X113543000Y-42257166D02*
X113543000Y-41557166D01*
X113543000Y-41557166D02*
X113476333Y-41657166D01*
X113476333Y-41657166D02*
X113409667Y-41723833D01*
X113409667Y-41723833D02*
X113343000Y-41757166D01*
X104967333Y-65244380D02*
X104395905Y-65244380D01*
X104681619Y-65244380D02*
X104681619Y-64244380D01*
X104681619Y-64244380D02*
X104586381Y-64387238D01*
X104586381Y-64387238D02*
X104491143Y-64482476D01*
X104491143Y-64482476D02*
X104395905Y-64530095D01*
X105586381Y-64244380D02*
X105681619Y-64244380D01*
X105681619Y-64244380D02*
X105776857Y-64292000D01*
X105776857Y-64292000D02*
X105824476Y-64339619D01*
X105824476Y-64339619D02*
X105872095Y-64434857D01*
X105872095Y-64434857D02*
X105919714Y-64625333D01*
X105919714Y-64625333D02*
X105919714Y-64863428D01*
X105919714Y-64863428D02*
X105872095Y-65053904D01*
X105872095Y-65053904D02*
X105824476Y-65149142D01*
X105824476Y-65149142D02*
X105776857Y-65196761D01*
X105776857Y-65196761D02*
X105681619Y-65244380D01*
X105681619Y-65244380D02*
X105586381Y-65244380D01*
X105586381Y-65244380D02*
X105491143Y-65196761D01*
X105491143Y-65196761D02*
X105443524Y-65149142D01*
X105443524Y-65149142D02*
X105395905Y-65053904D01*
X105395905Y-65053904D02*
X105348286Y-64863428D01*
X105348286Y-64863428D02*
X105348286Y-64625333D01*
X105348286Y-64625333D02*
X105395905Y-64434857D01*
X105395905Y-64434857D02*
X105443524Y-64339619D01*
X105443524Y-64339619D02*
X105491143Y-64292000D01*
X105491143Y-64292000D02*
X105586381Y-64244380D01*
X106348286Y-65244380D02*
X106348286Y-64244380D01*
X106919714Y-65244380D02*
X106491143Y-64672952D01*
X106919714Y-64244380D02*
X106348286Y-64815809D01*
X108519714Y-65149142D02*
X108472095Y-65196761D01*
X108472095Y-65196761D02*
X108329238Y-65244380D01*
X108329238Y-65244380D02*
X108234000Y-65244380D01*
X108234000Y-65244380D02*
X108091143Y-65196761D01*
X108091143Y-65196761D02*
X107995905Y-65101523D01*
X107995905Y-65101523D02*
X107948286Y-65006285D01*
X107948286Y-65006285D02*
X107900667Y-64815809D01*
X107900667Y-64815809D02*
X107900667Y-64672952D01*
X107900667Y-64672952D02*
X107948286Y-64482476D01*
X107948286Y-64482476D02*
X107995905Y-64387238D01*
X107995905Y-64387238D02*
X108091143Y-64292000D01*
X108091143Y-64292000D02*
X108234000Y-64244380D01*
X108234000Y-64244380D02*
X108329238Y-64244380D01*
X108329238Y-64244380D02*
X108472095Y-64292000D01*
X108472095Y-64292000D02*
X108519714Y-64339619D01*
X108853048Y-64244380D02*
X109472095Y-64244380D01*
X109472095Y-64244380D02*
X109138762Y-64625333D01*
X109138762Y-64625333D02*
X109281619Y-64625333D01*
X109281619Y-64625333D02*
X109376857Y-64672952D01*
X109376857Y-64672952D02*
X109424476Y-64720571D01*
X109424476Y-64720571D02*
X109472095Y-64815809D01*
X109472095Y-64815809D02*
X109472095Y-65053904D01*
X109472095Y-65053904D02*
X109424476Y-65149142D01*
X109424476Y-65149142D02*
X109376857Y-65196761D01*
X109376857Y-65196761D02*
X109281619Y-65244380D01*
X109281619Y-65244380D02*
X108995905Y-65244380D01*
X108995905Y-65244380D02*
X108900667Y-65196761D01*
X108900667Y-65196761D02*
X108853048Y-65149142D01*
X99275535Y-53500000D02*
X99275535Y-53900000D01*
X99275535Y-53700000D02*
X98525535Y-53700000D01*
X98525535Y-53700000D02*
X98632678Y-53766667D01*
X98632678Y-53766667D02*
X98704107Y-53833334D01*
X98704107Y-53833334D02*
X98739821Y-53900000D01*
X99275535Y-53200000D02*
X98525535Y-53200000D01*
X98525535Y-53200000D02*
X99275535Y-52800000D01*
X99275535Y-52800000D02*
X98525535Y-52800000D01*
X98775535Y-52166667D02*
X99275535Y-52166667D01*
X98489821Y-52333334D02*
X99025535Y-52500000D01*
X99025535Y-52500000D02*
X99025535Y-52066667D01*
X98525535Y-51666667D02*
X98525535Y-51600000D01*
X98525535Y-51600000D02*
X98561250Y-51533333D01*
X98561250Y-51533333D02*
X98596964Y-51500000D01*
X98596964Y-51500000D02*
X98668392Y-51466667D01*
X98668392Y-51466667D02*
X98811250Y-51433333D01*
X98811250Y-51433333D02*
X98989821Y-51433333D01*
X98989821Y-51433333D02*
X99132678Y-51466667D01*
X99132678Y-51466667D02*
X99204107Y-51500000D01*
X99204107Y-51500000D02*
X99239821Y-51533333D01*
X99239821Y-51533333D02*
X99275535Y-51600000D01*
X99275535Y-51600000D02*
X99275535Y-51666667D01*
X99275535Y-51666667D02*
X99239821Y-51733333D01*
X99239821Y-51733333D02*
X99204107Y-51766667D01*
X99204107Y-51766667D02*
X99132678Y-51800000D01*
X99132678Y-51800000D02*
X98989821Y-51833333D01*
X98989821Y-51833333D02*
X98811250Y-51833333D01*
X98811250Y-51833333D02*
X98668392Y-51800000D01*
X98668392Y-51800000D02*
X98596964Y-51766667D01*
X98596964Y-51766667D02*
X98561250Y-51733333D01*
X98561250Y-51733333D02*
X98525535Y-51666667D01*
X98525535Y-51000000D02*
X98525535Y-50933333D01*
X98525535Y-50933333D02*
X98561250Y-50866666D01*
X98561250Y-50866666D02*
X98596964Y-50833333D01*
X98596964Y-50833333D02*
X98668392Y-50800000D01*
X98668392Y-50800000D02*
X98811250Y-50766666D01*
X98811250Y-50766666D02*
X98989821Y-50766666D01*
X98989821Y-50766666D02*
X99132678Y-50800000D01*
X99132678Y-50800000D02*
X99204107Y-50833333D01*
X99204107Y-50833333D02*
X99239821Y-50866666D01*
X99239821Y-50866666D02*
X99275535Y-50933333D01*
X99275535Y-50933333D02*
X99275535Y-51000000D01*
X99275535Y-51000000D02*
X99239821Y-51066666D01*
X99239821Y-51066666D02*
X99204107Y-51100000D01*
X99204107Y-51100000D02*
X99132678Y-51133333D01*
X99132678Y-51133333D02*
X98989821Y-51166666D01*
X98989821Y-51166666D02*
X98811250Y-51166666D01*
X98811250Y-51166666D02*
X98668392Y-51133333D01*
X98668392Y-51133333D02*
X98596964Y-51100000D01*
X98596964Y-51100000D02*
X98561250Y-51066666D01*
X98561250Y-51066666D02*
X98525535Y-51000000D01*
X98775535Y-50166666D02*
X99275535Y-50166666D01*
X98489821Y-50333333D02*
X99025535Y-50499999D01*
X99025535Y-50499999D02*
X99025535Y-50066666D01*
X104014905Y-60512619D02*
X104062524Y-60465000D01*
X104062524Y-60465000D02*
X104157762Y-60417380D01*
X104157762Y-60417380D02*
X104395857Y-60417380D01*
X104395857Y-60417380D02*
X104491095Y-60465000D01*
X104491095Y-60465000D02*
X104538714Y-60512619D01*
X104538714Y-60512619D02*
X104586333Y-60607857D01*
X104586333Y-60607857D02*
X104586333Y-60703095D01*
X104586333Y-60703095D02*
X104538714Y-60845952D01*
X104538714Y-60845952D02*
X103967286Y-61417380D01*
X103967286Y-61417380D02*
X104586333Y-61417380D01*
X104967286Y-60512619D02*
X105014905Y-60465000D01*
X105014905Y-60465000D02*
X105110143Y-60417380D01*
X105110143Y-60417380D02*
X105348238Y-60417380D01*
X105348238Y-60417380D02*
X105443476Y-60465000D01*
X105443476Y-60465000D02*
X105491095Y-60512619D01*
X105491095Y-60512619D02*
X105538714Y-60607857D01*
X105538714Y-60607857D02*
X105538714Y-60703095D01*
X105538714Y-60703095D02*
X105491095Y-60845952D01*
X105491095Y-60845952D02*
X104919667Y-61417380D01*
X104919667Y-61417380D02*
X105538714Y-61417380D01*
X105967286Y-61417380D02*
X105967286Y-60417380D01*
X106538714Y-61417380D02*
X106110143Y-60845952D01*
X106538714Y-60417380D02*
X105967286Y-60988809D01*
X108138714Y-61417380D02*
X107805381Y-60941190D01*
X107567286Y-61417380D02*
X107567286Y-60417380D01*
X107567286Y-60417380D02*
X107948238Y-60417380D01*
X107948238Y-60417380D02*
X108043476Y-60465000D01*
X108043476Y-60465000D02*
X108091095Y-60512619D01*
X108091095Y-60512619D02*
X108138714Y-60607857D01*
X108138714Y-60607857D02*
X108138714Y-60750714D01*
X108138714Y-60750714D02*
X108091095Y-60845952D01*
X108091095Y-60845952D02*
X108043476Y-60893571D01*
X108043476Y-60893571D02*
X107948238Y-60941190D01*
X107948238Y-60941190D02*
X107567286Y-60941190D01*
X108472048Y-60417380D02*
X109138714Y-61417380D01*
X109138714Y-60417380D02*
X108472048Y-61417380D01*
X92013333Y-61417380D02*
X91441905Y-61417380D01*
X91727619Y-61417380D02*
X91727619Y-60417380D01*
X91727619Y-60417380D02*
X91632381Y-60560238D01*
X91632381Y-60560238D02*
X91537143Y-60655476D01*
X91537143Y-60655476D02*
X91441905Y-60703095D01*
X92632381Y-60417380D02*
X92727619Y-60417380D01*
X92727619Y-60417380D02*
X92822857Y-60465000D01*
X92822857Y-60465000D02*
X92870476Y-60512619D01*
X92870476Y-60512619D02*
X92918095Y-60607857D01*
X92918095Y-60607857D02*
X92965714Y-60798333D01*
X92965714Y-60798333D02*
X92965714Y-61036428D01*
X92965714Y-61036428D02*
X92918095Y-61226904D01*
X92918095Y-61226904D02*
X92870476Y-61322142D01*
X92870476Y-61322142D02*
X92822857Y-61369761D01*
X92822857Y-61369761D02*
X92727619Y-61417380D01*
X92727619Y-61417380D02*
X92632381Y-61417380D01*
X92632381Y-61417380D02*
X92537143Y-61369761D01*
X92537143Y-61369761D02*
X92489524Y-61322142D01*
X92489524Y-61322142D02*
X92441905Y-61226904D01*
X92441905Y-61226904D02*
X92394286Y-61036428D01*
X92394286Y-61036428D02*
X92394286Y-60798333D01*
X92394286Y-60798333D02*
X92441905Y-60607857D01*
X92441905Y-60607857D02*
X92489524Y-60512619D01*
X92489524Y-60512619D02*
X92537143Y-60465000D01*
X92537143Y-60465000D02*
X92632381Y-60417380D01*
X93394286Y-61417380D02*
X93394286Y-60417380D01*
X93965714Y-61417380D02*
X93537143Y-60845952D01*
X93965714Y-60417380D02*
X93394286Y-60988809D01*
X95565714Y-61417380D02*
X95232381Y-60941190D01*
X94994286Y-61417380D02*
X94994286Y-60417380D01*
X94994286Y-60417380D02*
X95375238Y-60417380D01*
X95375238Y-60417380D02*
X95470476Y-60465000D01*
X95470476Y-60465000D02*
X95518095Y-60512619D01*
X95518095Y-60512619D02*
X95565714Y-60607857D01*
X95565714Y-60607857D02*
X95565714Y-60750714D01*
X95565714Y-60750714D02*
X95518095Y-60845952D01*
X95518095Y-60845952D02*
X95470476Y-60893571D01*
X95470476Y-60893571D02*
X95375238Y-60941190D01*
X95375238Y-60941190D02*
X94994286Y-60941190D01*
X95899048Y-60417380D02*
X96565714Y-61417380D01*
X96565714Y-60417380D02*
X95899048Y-61417380D01*
D13*
X75625880Y-48646999D02*
X75625880Y-49446999D01*
X74525880Y-49046999D02*
X75625880Y-49046999D01*
X75625880Y-50180333D02*
X75625880Y-50446999D01*
X75625880Y-50446999D02*
X75573500Y-50580333D01*
X75573500Y-50580333D02*
X75468738Y-50713666D01*
X75468738Y-50713666D02*
X75259214Y-50780333D01*
X75259214Y-50780333D02*
X74892547Y-50780333D01*
X74892547Y-50780333D02*
X74683023Y-50713666D01*
X74683023Y-50713666D02*
X74578261Y-50580333D01*
X74578261Y-50580333D02*
X74525880Y-50446999D01*
X74525880Y-50446999D02*
X74525880Y-50180333D01*
X74525880Y-50180333D02*
X74578261Y-50046999D01*
X74578261Y-50046999D02*
X74683023Y-49913666D01*
X74683023Y-49913666D02*
X74892547Y-49846999D01*
X74892547Y-49846999D02*
X75259214Y-49846999D01*
X75259214Y-49846999D02*
X75468738Y-49913666D01*
X75468738Y-49913666D02*
X75573500Y-50046999D01*
X75573500Y-50046999D02*
X75625880Y-50180333D01*
X74525880Y-52220333D02*
X75625880Y-52220333D01*
X75625880Y-52220333D02*
X74840166Y-52687000D01*
X74840166Y-52687000D02*
X75625880Y-53153666D01*
X75625880Y-53153666D02*
X74525880Y-53153666D01*
X74525880Y-53820333D02*
X75625880Y-53820333D01*
X74630642Y-55287000D02*
X74578261Y-55220333D01*
X74578261Y-55220333D02*
X74525880Y-55020333D01*
X74525880Y-55020333D02*
X74525880Y-54887000D01*
X74525880Y-54887000D02*
X74578261Y-54687000D01*
X74578261Y-54687000D02*
X74683023Y-54553667D01*
X74683023Y-54553667D02*
X74787785Y-54487000D01*
X74787785Y-54487000D02*
X74997309Y-54420333D01*
X74997309Y-54420333D02*
X75154452Y-54420333D01*
X75154452Y-54420333D02*
X75363976Y-54487000D01*
X75363976Y-54487000D02*
X75468738Y-54553667D01*
X75468738Y-54553667D02*
X75573500Y-54687000D01*
X75573500Y-54687000D02*
X75625880Y-54887000D01*
X75625880Y-54887000D02*
X75625880Y-55020333D01*
X75625880Y-55020333D02*
X75573500Y-55220333D01*
X75573500Y-55220333D02*
X75521119Y-55287000D01*
X74525880Y-56687000D02*
X75049690Y-56220333D01*
X74525880Y-55887000D02*
X75625880Y-55887000D01*
X75625880Y-55887000D02*
X75625880Y-56420333D01*
X75625880Y-56420333D02*
X75573500Y-56553667D01*
X75573500Y-56553667D02*
X75521119Y-56620333D01*
X75521119Y-56620333D02*
X75416357Y-56687000D01*
X75416357Y-56687000D02*
X75259214Y-56687000D01*
X75259214Y-56687000D02*
X75154452Y-56620333D01*
X75154452Y-56620333D02*
X75102071Y-56553667D01*
X75102071Y-56553667D02*
X75049690Y-56420333D01*
X75049690Y-56420333D02*
X75049690Y-55887000D01*
X75625880Y-57553667D02*
X75625880Y-57820333D01*
X75625880Y-57820333D02*
X75573500Y-57953667D01*
X75573500Y-57953667D02*
X75468738Y-58087000D01*
X75468738Y-58087000D02*
X75259214Y-58153667D01*
X75259214Y-58153667D02*
X74892547Y-58153667D01*
X74892547Y-58153667D02*
X74683023Y-58087000D01*
X74683023Y-58087000D02*
X74578261Y-57953667D01*
X74578261Y-57953667D02*
X74525880Y-57820333D01*
X74525880Y-57820333D02*
X74525880Y-57553667D01*
X74525880Y-57553667D02*
X74578261Y-57420333D01*
X74578261Y-57420333D02*
X74683023Y-57287000D01*
X74683023Y-57287000D02*
X74892547Y-57220333D01*
X74892547Y-57220333D02*
X75259214Y-57220333D01*
X75259214Y-57220333D02*
X75468738Y-57287000D01*
X75468738Y-57287000D02*
X75573500Y-57420333D01*
X75573500Y-57420333D02*
X75625880Y-57553667D01*
D10*
X85209237Y-53707380D02*
X84875904Y-53231190D01*
X84637809Y-53707380D02*
X84637809Y-52707380D01*
X84637809Y-52707380D02*
X85018761Y-52707380D01*
X85018761Y-52707380D02*
X85113999Y-52755000D01*
X85113999Y-52755000D02*
X85161618Y-52802619D01*
X85161618Y-52802619D02*
X85209237Y-52897857D01*
X85209237Y-52897857D02*
X85209237Y-53040714D01*
X85209237Y-53040714D02*
X85161618Y-53135952D01*
X85161618Y-53135952D02*
X85113999Y-53183571D01*
X85113999Y-53183571D02*
X85018761Y-53231190D01*
X85018761Y-53231190D02*
X84637809Y-53231190D01*
X85637809Y-53183571D02*
X85971142Y-53183571D01*
X86113999Y-53707380D02*
X85637809Y-53707380D01*
X85637809Y-53707380D02*
X85637809Y-52707380D01*
X85637809Y-52707380D02*
X86113999Y-52707380D01*
X87018761Y-53707380D02*
X86542571Y-53707380D01*
X86542571Y-53707380D02*
X86542571Y-52707380D01*
X87304476Y-53421666D02*
X87780666Y-53421666D01*
X87209238Y-53707380D02*
X87542571Y-52707380D01*
X87542571Y-52707380D02*
X87875904Y-53707380D01*
X88399714Y-53231190D02*
X88399714Y-53707380D01*
X88066381Y-52707380D02*
X88399714Y-53231190D01*
X88399714Y-53231190D02*
X88733047Y-52707380D01*
X109158333Y-46117380D02*
X108586905Y-46117380D01*
X108872619Y-46117380D02*
X108872619Y-45117380D01*
X108872619Y-45117380D02*
X108777381Y-45260238D01*
X108777381Y-45260238D02*
X108682143Y-45355476D01*
X108682143Y-45355476D02*
X108586905Y-45403095D01*
X109777381Y-45117380D02*
X109872619Y-45117380D01*
X109872619Y-45117380D02*
X109967857Y-45165000D01*
X109967857Y-45165000D02*
X110015476Y-45212619D01*
X110015476Y-45212619D02*
X110063095Y-45307857D01*
X110063095Y-45307857D02*
X110110714Y-45498333D01*
X110110714Y-45498333D02*
X110110714Y-45736428D01*
X110110714Y-45736428D02*
X110063095Y-45926904D01*
X110063095Y-45926904D02*
X110015476Y-46022142D01*
X110015476Y-46022142D02*
X109967857Y-46069761D01*
X109967857Y-46069761D02*
X109872619Y-46117380D01*
X109872619Y-46117380D02*
X109777381Y-46117380D01*
X109777381Y-46117380D02*
X109682143Y-46069761D01*
X109682143Y-46069761D02*
X109634524Y-46022142D01*
X109634524Y-46022142D02*
X109586905Y-45926904D01*
X109586905Y-45926904D02*
X109539286Y-45736428D01*
X109539286Y-45736428D02*
X109539286Y-45498333D01*
X109539286Y-45498333D02*
X109586905Y-45307857D01*
X109586905Y-45307857D02*
X109634524Y-45212619D01*
X109634524Y-45212619D02*
X109682143Y-45165000D01*
X109682143Y-45165000D02*
X109777381Y-45117380D01*
X110539286Y-46117380D02*
X110539286Y-45117380D01*
X111110714Y-46117380D02*
X110682143Y-45545952D01*
X111110714Y-45117380D02*
X110539286Y-45688809D01*
X112710714Y-46022142D02*
X112663095Y-46069761D01*
X112663095Y-46069761D02*
X112520238Y-46117380D01*
X112520238Y-46117380D02*
X112425000Y-46117380D01*
X112425000Y-46117380D02*
X112282143Y-46069761D01*
X112282143Y-46069761D02*
X112186905Y-45974523D01*
X112186905Y-45974523D02*
X112139286Y-45879285D01*
X112139286Y-45879285D02*
X112091667Y-45688809D01*
X112091667Y-45688809D02*
X112091667Y-45545952D01*
X112091667Y-45545952D02*
X112139286Y-45355476D01*
X112139286Y-45355476D02*
X112186905Y-45260238D01*
X112186905Y-45260238D02*
X112282143Y-45165000D01*
X112282143Y-45165000D02*
X112425000Y-45117380D01*
X112425000Y-45117380D02*
X112520238Y-45117380D01*
X112520238Y-45117380D02*
X112663095Y-45165000D01*
X112663095Y-45165000D02*
X112710714Y-45212619D01*
X113091667Y-45212619D02*
X113139286Y-45165000D01*
X113139286Y-45165000D02*
X113234524Y-45117380D01*
X113234524Y-45117380D02*
X113472619Y-45117380D01*
X113472619Y-45117380D02*
X113567857Y-45165000D01*
X113567857Y-45165000D02*
X113615476Y-45212619D01*
X113615476Y-45212619D02*
X113663095Y-45307857D01*
X113663095Y-45307857D02*
X113663095Y-45403095D01*
X113663095Y-45403095D02*
X113615476Y-45545952D01*
X113615476Y-45545952D02*
X113044048Y-46117380D01*
X113044048Y-46117380D02*
X113663095Y-46117380D01*
X103367380Y-52792285D02*
X103367380Y-53363713D01*
X103367380Y-53077999D02*
X102367380Y-53077999D01*
X102367380Y-53077999D02*
X102510238Y-53173237D01*
X102510238Y-53173237D02*
X102605476Y-53268475D01*
X102605476Y-53268475D02*
X102653095Y-53363713D01*
X103367380Y-52363713D02*
X102367380Y-52363713D01*
X103367380Y-51792285D02*
X102795952Y-52220856D01*
X102367380Y-51792285D02*
X102938809Y-52363713D01*
X107642857Y-53722380D02*
X107642857Y-52722380D01*
X107642857Y-52722380D02*
X108023809Y-52722380D01*
X108023809Y-52722380D02*
X108119047Y-52770000D01*
X108119047Y-52770000D02*
X108166666Y-52817619D01*
X108166666Y-52817619D02*
X108214285Y-52912857D01*
X108214285Y-52912857D02*
X108214285Y-53055714D01*
X108214285Y-53055714D02*
X108166666Y-53150952D01*
X108166666Y-53150952D02*
X108119047Y-53198571D01*
X108119047Y-53198571D02*
X108023809Y-53246190D01*
X108023809Y-53246190D02*
X107642857Y-53246190D01*
X108642857Y-53722380D02*
X108642857Y-52722380D01*
X109690475Y-53627142D02*
X109642856Y-53674761D01*
X109642856Y-53674761D02*
X109499999Y-53722380D01*
X109499999Y-53722380D02*
X109404761Y-53722380D01*
X109404761Y-53722380D02*
X109261904Y-53674761D01*
X109261904Y-53674761D02*
X109166666Y-53579523D01*
X109166666Y-53579523D02*
X109119047Y-53484285D01*
X109119047Y-53484285D02*
X109071428Y-53293809D01*
X109071428Y-53293809D02*
X109071428Y-53150952D01*
X109071428Y-53150952D02*
X109119047Y-52960476D01*
X109119047Y-52960476D02*
X109166666Y-52865238D01*
X109166666Y-52865238D02*
X109261904Y-52770000D01*
X109261904Y-52770000D02*
X109404761Y-52722380D01*
X109404761Y-52722380D02*
X109499999Y-52722380D01*
X109499999Y-52722380D02*
X109642856Y-52770000D01*
X109642856Y-52770000D02*
X109690475Y-52817619D01*
X110071428Y-53436666D02*
X110547618Y-53436666D01*
X109976190Y-53722380D02*
X110309523Y-52722380D01*
X110309523Y-52722380D02*
X110642856Y-53722380D01*
X110880952Y-52722380D02*
X111547618Y-53722380D01*
X111547618Y-52722380D02*
X110880952Y-53722380D01*
X111928571Y-53198571D02*
X112261904Y-53198571D01*
X112404761Y-53722380D02*
X111928571Y-53722380D01*
X111928571Y-53722380D02*
X111928571Y-52722380D01*
X111928571Y-52722380D02*
X112404761Y-52722380D01*
D16*
X86360000Y-45593000D02*
X86360000Y-44323000D01*
X87630000Y-45593000D02*
X86360000Y-45593000D01*
X89790000Y-43280071D02*
X89790000Y-42883000D01*
X90550000Y-43280071D02*
X90550000Y-42883000D01*
X92330000Y-43280071D02*
X92330000Y-42883000D01*
X93090000Y-43280071D02*
X93090000Y-42883000D01*
X94870000Y-43280071D02*
X94870000Y-42883000D01*
X95630000Y-43280071D02*
X95630000Y-42883000D01*
X87250000Y-43213000D02*
X87250000Y-42883000D01*
X88010000Y-43213000D02*
X88010000Y-42883000D01*
X86300000Y-42883000D02*
X96580000Y-42883000D01*
X88900000Y-42883000D02*
X88900000Y-40223000D01*
X91440000Y-42883000D02*
X91440000Y-40223000D01*
X93980000Y-42883000D02*
X93980000Y-40223000D01*
X96580000Y-42883000D02*
X96580000Y-40223000D01*
X86300000Y-40223000D02*
X86300000Y-42883000D01*
X87250000Y-40223000D02*
X87250000Y-34223000D01*
X87310000Y-40223000D02*
X87310000Y-34223000D01*
X87430000Y-40223000D02*
X87430000Y-34223000D01*
X87550000Y-40223000D02*
X87550000Y-34223000D01*
X87670000Y-40223000D02*
X87670000Y-34223000D01*
X87790000Y-40223000D02*
X87790000Y-34223000D01*
X87910000Y-40223000D02*
X87910000Y-34223000D01*
X89790000Y-40223000D02*
X89790000Y-34223000D01*
X92330000Y-40223000D02*
X92330000Y-34223000D01*
X94870000Y-40223000D02*
X94870000Y-34223000D01*
X96580000Y-40223000D02*
X86300000Y-40223000D01*
X87250000Y-34223000D02*
X88010000Y-34223000D01*
X88010000Y-34223000D02*
X88010000Y-40223000D01*
X89790000Y-34223000D02*
X90550000Y-34223000D01*
X90550000Y-34223000D02*
X90550000Y-40223000D01*
X92330000Y-34223000D02*
X93090000Y-34223000D01*
X93090000Y-34223000D02*
X93090000Y-40223000D01*
X94870000Y-34223000D02*
X95630000Y-34223000D01*
X95630000Y-34223000D02*
X95630000Y-40223000D01*
X123715000Y-57185000D02*
X123715000Y-55125000D01*
X125425000Y-57185000D02*
X123715000Y-57185000D01*
X129535000Y-57185000D02*
X127925000Y-57185000D01*
X129535000Y-57185000D02*
X129535000Y-49465000D01*
X123715000Y-55125000D02*
X123125000Y-55125000D01*
X123715000Y-49465000D02*
X123715000Y-51525000D01*
X125425000Y-49465000D02*
X123715000Y-49465000D01*
X129535000Y-49465000D02*
X127925000Y-49465000D01*
X103413000Y-40337000D02*
X99563000Y-40337000D01*
X101473000Y-44636999D02*
G75*
G03*
X103829399Y-43135807I0J2599999D01*
G01*
X103795631Y-40914955D02*
G75*
G03*
X103413000Y-40337000I-2322631J-1122045D01*
G01*
X99116600Y-43135807D02*
G75*
G03*
X101473000Y-44637000I2356400J1098807D01*
G01*
X99563001Y-40337001D02*
G75*
G03*
X99170618Y-40924736I1909999J-1699999D01*
G01*
X85320000Y-61087000D02*
X84550000Y-61087000D01*
X84550000Y-62457000D02*
X84550000Y-59717000D01*
X84550000Y-59717000D02*
X78010000Y-59717000D01*
X78010000Y-62457000D02*
X84550000Y-62457000D01*
X78010000Y-59717000D02*
X78010000Y-62457000D01*
X77240000Y-61087000D02*
X78010000Y-61087000D01*
X121711000Y-63440000D02*
X121711000Y-64770000D01*
X120381000Y-63440000D02*
X121711000Y-63440000D01*
X119111000Y-63440000D02*
X113971000Y-63440000D01*
X119111000Y-63440000D02*
X119111000Y-66100000D01*
X113971000Y-63440000D02*
X113971000Y-66100000D01*
X119111000Y-66100000D02*
X113971000Y-66100000D01*
X117905000Y-59974775D02*
X117905000Y-59474775D01*
X117655000Y-59724775D02*
X118155000Y-59724775D01*
X116800000Y-57170000D02*
X121960000Y-57170000D01*
X116800000Y-57130000D02*
X121960000Y-57130000D01*
X116801000Y-57090000D02*
X121959000Y-57090000D01*
X116802000Y-57050000D02*
X121958000Y-57050000D01*
X116804000Y-57010000D02*
X121956000Y-57010000D01*
X116807000Y-56970000D02*
X121953000Y-56970000D01*
X116811000Y-56930000D02*
X118340000Y-56930000D01*
X120420000Y-56930000D02*
X121949000Y-56930000D01*
X116815000Y-56890000D02*
X118340000Y-56890000D01*
X120420000Y-56890000D02*
X121945000Y-56890000D01*
X116819000Y-56850000D02*
X118340000Y-56850000D01*
X120420000Y-56850000D02*
X121941000Y-56850000D01*
X116824000Y-56810000D02*
X118340000Y-56810000D01*
X120420000Y-56810000D02*
X121936000Y-56810000D01*
X116830000Y-56770000D02*
X118340000Y-56770000D01*
X120420000Y-56770000D02*
X121930000Y-56770000D01*
X116837000Y-56730000D02*
X118340000Y-56730000D01*
X120420000Y-56730000D02*
X121923000Y-56730000D01*
X116844000Y-56690000D02*
X118340000Y-56690000D01*
X120420000Y-56690000D02*
X121916000Y-56690000D01*
X116852000Y-56650000D02*
X118340000Y-56650000D01*
X120420000Y-56650000D02*
X121908000Y-56650000D01*
X116860000Y-56610000D02*
X118340000Y-56610000D01*
X120420000Y-56610000D02*
X121900000Y-56610000D01*
X116869000Y-56570000D02*
X118340000Y-56570000D01*
X120420000Y-56570000D02*
X121891000Y-56570000D01*
X116879000Y-56530000D02*
X118340000Y-56530000D01*
X120420000Y-56530000D02*
X121881000Y-56530000D01*
X116889000Y-56490000D02*
X118340000Y-56490000D01*
X120420000Y-56490000D02*
X121871000Y-56490000D01*
X116900000Y-56449000D02*
X118340000Y-56449000D01*
X120420000Y-56449000D02*
X121860000Y-56449000D01*
X116912000Y-56409000D02*
X118340000Y-56409000D01*
X120420000Y-56409000D02*
X121848000Y-56409000D01*
X116925000Y-56369000D02*
X118340000Y-56369000D01*
X120420000Y-56369000D02*
X121835000Y-56369000D01*
X116938000Y-56329000D02*
X118340000Y-56329000D01*
X120420000Y-56329000D02*
X121822000Y-56329000D01*
X116952000Y-56289000D02*
X118340000Y-56289000D01*
X120420000Y-56289000D02*
X121808000Y-56289000D01*
X116966000Y-56249000D02*
X118340000Y-56249000D01*
X120420000Y-56249000D02*
X121794000Y-56249000D01*
X116982000Y-56209000D02*
X118340000Y-56209000D01*
X120420000Y-56209000D02*
X121778000Y-56209000D01*
X116998000Y-56169000D02*
X118340000Y-56169000D01*
X120420000Y-56169000D02*
X121762000Y-56169000D01*
X117015000Y-56129000D02*
X118340000Y-56129000D01*
X120420000Y-56129000D02*
X121745000Y-56129000D01*
X117032000Y-56089000D02*
X118340000Y-56089000D01*
X120420000Y-56089000D02*
X121728000Y-56089000D01*
X117051000Y-56049000D02*
X118340000Y-56049000D01*
X120420000Y-56049000D02*
X121709000Y-56049000D01*
X117070000Y-56009000D02*
X118340000Y-56009000D01*
X120420000Y-56009000D02*
X121690000Y-56009000D01*
X117090000Y-55969000D02*
X118340000Y-55969000D01*
X120420000Y-55969000D02*
X121670000Y-55969000D01*
X117112000Y-55929000D02*
X118340000Y-55929000D01*
X120420000Y-55929000D02*
X121648000Y-55929000D01*
X117133000Y-55889000D02*
X118340000Y-55889000D01*
X120420000Y-55889000D02*
X121627000Y-55889000D01*
X117156000Y-55849000D02*
X118340000Y-55849000D01*
X120420000Y-55849000D02*
X121604000Y-55849000D01*
X117180000Y-55809000D02*
X118340000Y-55809000D01*
X120420000Y-55809000D02*
X121580000Y-55809000D01*
X117205000Y-55769000D02*
X118340000Y-55769000D01*
X120420000Y-55769000D02*
X121555000Y-55769000D01*
X117231000Y-55729000D02*
X118340000Y-55729000D01*
X120420000Y-55729000D02*
X121529000Y-55729000D01*
X117258000Y-55689000D02*
X118340000Y-55689000D01*
X120420000Y-55689000D02*
X121502000Y-55689000D01*
X117285000Y-55649000D02*
X118340000Y-55649000D01*
X120420000Y-55649000D02*
X121475000Y-55649000D01*
X117315000Y-55609000D02*
X118340000Y-55609000D01*
X120420000Y-55609000D02*
X121445000Y-55609000D01*
X117345000Y-55569000D02*
X118340000Y-55569000D01*
X120420000Y-55569000D02*
X121415000Y-55569000D01*
X117376000Y-55529000D02*
X118340000Y-55529000D01*
X120420000Y-55529000D02*
X121384000Y-55529000D01*
X117409000Y-55489000D02*
X118340000Y-55489000D01*
X120420000Y-55489000D02*
X121351000Y-55489000D01*
X117443000Y-55449000D02*
X118340000Y-55449000D01*
X120420000Y-55449000D02*
X121317000Y-55449000D01*
X117479000Y-55409000D02*
X118340000Y-55409000D01*
X120420000Y-55409000D02*
X121281000Y-55409000D01*
X117516000Y-55369000D02*
X118340000Y-55369000D01*
X120420000Y-55369000D02*
X121244000Y-55369000D01*
X117554000Y-55329000D02*
X118340000Y-55329000D01*
X120420000Y-55329000D02*
X121206000Y-55329000D01*
X117595000Y-55289000D02*
X118340000Y-55289000D01*
X120420000Y-55289000D02*
X121165000Y-55289000D01*
X117637000Y-55249000D02*
X118340000Y-55249000D01*
X120420000Y-55249000D02*
X121123000Y-55249000D01*
X117681000Y-55209000D02*
X118340000Y-55209000D01*
X120420000Y-55209000D02*
X121079000Y-55209000D01*
X117727000Y-55169000D02*
X118340000Y-55169000D01*
X120420000Y-55169000D02*
X121033000Y-55169000D01*
X117775000Y-55129000D02*
X118340000Y-55129000D01*
X120420000Y-55129000D02*
X120985000Y-55129000D01*
X117826000Y-55089000D02*
X118340000Y-55089000D01*
X120420000Y-55089000D02*
X120934000Y-55089000D01*
X117880000Y-55049000D02*
X118340000Y-55049000D01*
X120420000Y-55049000D02*
X120880000Y-55049000D01*
X117937000Y-55009000D02*
X118340000Y-55009000D01*
X120420000Y-55009000D02*
X120823000Y-55009000D01*
X117997000Y-54969000D02*
X118340000Y-54969000D01*
X120420000Y-54969000D02*
X120763000Y-54969000D01*
X118061000Y-54929000D02*
X118340000Y-54929000D01*
X120420000Y-54929000D02*
X120699000Y-54929000D01*
X118129000Y-54889000D02*
X118340000Y-54889000D01*
X120420000Y-54889000D02*
X120631000Y-54889000D01*
X118202000Y-54849000D02*
X120558000Y-54849000D01*
X118282000Y-54809000D02*
X120478000Y-54809000D01*
X118369000Y-54769000D02*
X120391000Y-54769000D01*
X118465000Y-54729000D02*
X120295000Y-54729000D01*
X118575000Y-54689000D02*
X120185000Y-54689000D01*
X118703000Y-54649000D02*
X120057000Y-54649000D01*
X118862000Y-54609000D02*
X119898000Y-54609000D01*
X119096000Y-54569000D02*
X119664000Y-54569000D01*
X122000000Y-57170000D02*
G75*
G03*
X122000000Y-57170000I-2620000J0D01*
G01*
X115673000Y-42037000D02*
X114903000Y-42037000D01*
X114903000Y-43407000D02*
X114903000Y-40667000D01*
X114903000Y-40667000D02*
X108363000Y-40667000D01*
X108363000Y-43407000D02*
X114903000Y-43407000D01*
X108363000Y-40667000D02*
X108363000Y-43407000D01*
X107593000Y-42037000D02*
X108363000Y-42037000D01*
X102894000Y-64897000D02*
X103664000Y-64897000D01*
X103664000Y-63527000D02*
X103664000Y-66267000D01*
X103664000Y-66267000D02*
X110204000Y-66267000D01*
X110204000Y-63527000D02*
X103664000Y-63527000D01*
X110204000Y-66267000D02*
X110204000Y-63527000D01*
X110974000Y-64897000D02*
X110204000Y-64897000D01*
X121834000Y-44035000D02*
X121834000Y-43879000D01*
X121834000Y-41719000D02*
X121834000Y-41563000D01*
X118601666Y-43877608D02*
G75*
G03*
X121833999Y-44034515I1672334J1078608D01*
G01*
X119232871Y-43878836D02*
G75*
G03*
X121314960Y-43878999I1041129J1079836D01*
G01*
X121314960Y-41719001D02*
G75*
G03*
X119232871Y-41719164I-1040960J-1079999D01*
G01*
X121833999Y-41563485D02*
G75*
G03*
X118601666Y-41720392I-1559999J-1235515D01*
G01*
X98933000Y-56518000D02*
X98933000Y-55298000D01*
X97463000Y-55298000D02*
X100403000Y-55298000D01*
X100403000Y-55298000D02*
X100403000Y-49858000D01*
X97463000Y-54518000D02*
X100403000Y-54518000D01*
X97463000Y-54398000D02*
X100403000Y-54398000D01*
X97463000Y-54278000D02*
X100403000Y-54278000D01*
X97463000Y-49858000D02*
X97463000Y-55298000D01*
X100403000Y-49858000D02*
X97463000Y-49858000D01*
X98933000Y-48638000D02*
X98933000Y-49858000D01*
X102513000Y-61087000D02*
X103283000Y-61087000D01*
X103283000Y-59717000D02*
X103283000Y-62457000D01*
X103283000Y-62457000D02*
X109823000Y-62457000D01*
X109823000Y-59717000D02*
X103283000Y-59717000D01*
X109823000Y-62457000D02*
X109823000Y-59717000D01*
X110593000Y-61087000D02*
X109823000Y-61087000D01*
X89940000Y-61087000D02*
X90710000Y-61087000D01*
X90710000Y-59717000D02*
X90710000Y-62457000D01*
X90710000Y-62457000D02*
X97250000Y-62457000D01*
X97250000Y-59717000D02*
X90710000Y-59717000D01*
X97250000Y-62457000D02*
X97250000Y-59717000D01*
X98020000Y-61087000D02*
X97250000Y-61087000D01*
X58820000Y-46030000D02*
X58300000Y-46030000D01*
X58300000Y-46030000D02*
X58300000Y-60650000D01*
X73780000Y-46680000D02*
X70450000Y-46680000D01*
X73780000Y-46680000D02*
X73780000Y-60000000D01*
X58820000Y-46680000D02*
X58820000Y-46030000D01*
X58820000Y-46680000D02*
X66930000Y-46680000D01*
X74000000Y-48940000D02*
X74000000Y-50740000D01*
X73780000Y-60000000D02*
X70450000Y-60000000D01*
X66930000Y-60000000D02*
X58820000Y-60000000D01*
X58820000Y-60650000D02*
X58820000Y-60000000D01*
X58300000Y-60650000D02*
X58820000Y-60650000D01*
X96707000Y-51090000D02*
X76267000Y-51090000D01*
X76267000Y-51090000D02*
X76267000Y-55590000D01*
X96707000Y-52340000D02*
X96707000Y-51090000D01*
X96707000Y-55590000D02*
X96707000Y-54340000D01*
X76267000Y-55590000D02*
X96707000Y-55590000D01*
X96707000Y-52340000D02*
G75*
G03*
X96707000Y-54340000I0J-1000000D01*
G01*
X107085000Y-45720000D02*
X107855000Y-45720000D01*
X107855000Y-44350000D02*
X107855000Y-47090000D01*
X107855000Y-47090000D02*
X114395000Y-47090000D01*
X114395000Y-44350000D02*
X107855000Y-44350000D01*
X114395000Y-47090000D02*
X114395000Y-44350000D01*
X115165000Y-45720000D02*
X114395000Y-45720000D01*
X102870000Y-56618000D02*
X102870000Y-55848000D01*
X101500000Y-55848000D02*
X104240000Y-55848000D01*
X104240000Y-55848000D02*
X104240000Y-49308000D01*
X101500000Y-49308000D02*
X101500000Y-55848000D01*
X104240000Y-49308000D02*
X101500000Y-49308000D01*
X102870000Y-48538000D02*
X102870000Y-49308000D01*
X77228000Y-45693000D02*
X77228000Y-37873000D01*
X77228000Y-44093000D02*
X76308000Y-44093000D01*
X77228000Y-37873000D02*
X71108000Y-37873000D01*
X76468000Y-41733000D02*
X76468000Y-40133000D01*
X76468000Y-40133000D02*
X75468000Y-40133000D01*
X76308000Y-45693000D02*
X77228000Y-45693000D01*
X76308000Y-44093000D02*
X76308000Y-45693000D01*
X76028000Y-44093000D02*
X76308000Y-44093000D01*
X76028000Y-44093000D02*
X76028000Y-45308000D01*
X75968000Y-40133000D02*
X75968000Y-37873000D01*
X75468000Y-41733000D02*
X76468000Y-41733000D01*
X75468000Y-40133000D02*
X75468000Y-41733000D01*
X75468000Y-40133000D02*
X75468000Y-37873000D01*
X74668000Y-42233000D02*
X73668000Y-42233000D01*
X74668000Y-37873000D02*
X74668000Y-42233000D01*
X73668000Y-42233000D02*
X73668000Y-37873000D01*
X72868000Y-41733000D02*
X71868000Y-41733000D01*
X72868000Y-40133000D02*
X72868000Y-41733000D01*
X72028000Y-45693000D02*
X72028000Y-44093000D01*
X72028000Y-44093000D02*
X72308000Y-44093000D01*
X71868000Y-41733000D02*
X71868000Y-40133000D01*
X71868000Y-40133000D02*
X72868000Y-40133000D01*
X71108000Y-45693000D02*
X72028000Y-45693000D01*
X71108000Y-44093000D02*
X72028000Y-44093000D01*
X71108000Y-37873000D02*
X71108000Y-45693000D01*
X100009000Y-63567000D02*
X100009000Y-64897000D01*
X98679000Y-63567000D02*
X100009000Y-63567000D01*
X97409000Y-63567000D02*
X89729000Y-63567000D01*
X97409000Y-63567000D02*
X97409000Y-66227000D01*
X89729000Y-63567000D02*
X89729000Y-66227000D01*
X97409000Y-66227000D02*
X89729000Y-66227000D01*
X105360000Y-55605000D02*
X115640000Y-55605000D01*
X115640000Y-55605000D02*
X115640000Y-51105000D01*
X105360000Y-54355000D02*
X105360000Y-55605000D01*
X105360000Y-51105000D02*
X105360000Y-52355000D01*
X115640000Y-51105000D02*
X105360000Y-51105000D01*
X105360000Y-54355000D02*
G75*
G03*
X105360000Y-52355000I0J1000000D01*
G01*
X84864000Y-45693000D02*
X84864000Y-37873000D01*
X84864000Y-44093000D02*
X83944000Y-44093000D01*
X84864000Y-37873000D02*
X78744000Y-37873000D01*
X84104000Y-41733000D02*
X84104000Y-40133000D01*
X84104000Y-40133000D02*
X83104000Y-40133000D01*
X83944000Y-45693000D02*
X84864000Y-45693000D01*
X83944000Y-44093000D02*
X83944000Y-45693000D01*
X83664000Y-44093000D02*
X83944000Y-44093000D01*
X83664000Y-44093000D02*
X83664000Y-45308000D01*
X83604000Y-40133000D02*
X83604000Y-37873000D01*
X83104000Y-41733000D02*
X84104000Y-41733000D01*
X83104000Y-40133000D02*
X83104000Y-41733000D01*
X83104000Y-40133000D02*
X83104000Y-37873000D01*
X82304000Y-42233000D02*
X81304000Y-42233000D01*
X82304000Y-37873000D02*
X82304000Y-42233000D01*
X81304000Y-42233000D02*
X81304000Y-37873000D01*
X80504000Y-41733000D02*
X79504000Y-41733000D01*
X80504000Y-40133000D02*
X80504000Y-41733000D01*
X79664000Y-45693000D02*
X79664000Y-44093000D01*
X79664000Y-44093000D02*
X79944000Y-44093000D01*
X79504000Y-41733000D02*
X79504000Y-40133000D01*
X79504000Y-40133000D02*
X80504000Y-40133000D01*
X78744000Y-45693000D02*
X79664000Y-45693000D01*
X78744000Y-44093000D02*
X79664000Y-44093000D01*
X78744000Y-37873000D02*
X78744000Y-45693000D01*
%LPC*%
D17*
X87629999Y-44322999D03*
D18*
X90169999Y-44322999D03*
X92709999Y-44322999D03*
X95249999Y-44322999D03*
D19*
X123824999Y-54624999D03*
X123824999Y-53974999D03*
X123824999Y-53324999D03*
X123824999Y-52674999D03*
X123824999Y-52024999D03*
D20*
X126674999Y-57074999D03*
D21*
X126674999Y-54474999D03*
X126674999Y-52174999D03*
D20*
X126674999Y-49574999D03*
D22*
X125349000Y-64135000D03*
D23*
X104012999Y-42036999D03*
D24*
X101473000Y-42037000D03*
X98933000Y-42037000D03*
D25*
X86360000Y-61087000D03*
D26*
X76199999Y-61086999D03*
D17*
X120380999Y-64769999D03*
D18*
X117840999Y-64769999D03*
X115300999Y-64769999D03*
D27*
X119379999Y-58419999D03*
D25*
X119380000Y-55920000D03*
D22*
X66929000Y-42545000D03*
X125349000Y-42545000D03*
D25*
X116713000Y-42037000D03*
D26*
X106552999Y-42036999D03*
D25*
X101854000Y-64897000D03*
D26*
X112013999Y-64896999D03*
D28*
X121543999Y-42798999D03*
D29*
X119004000Y-42799000D03*
D22*
X66929000Y-64135000D03*
D28*
X98932999Y-57657999D03*
D30*
X98932999Y-47497999D03*
D25*
X101473000Y-61087000D03*
D26*
X111632999Y-61086999D03*
D25*
X88900000Y-61087000D03*
D26*
X99059999Y-61086999D03*
D31*
X71399999Y-49839999D03*
D25*
X71400000Y-52340000D03*
X71400000Y-54340000D03*
X71400000Y-56840000D03*
D32*
X68690000Y-46770000D03*
X68690000Y-59910000D03*
D33*
X95376999Y-49529999D03*
D34*
X92836999Y-49529999D03*
X90296999Y-49529999D03*
X87756999Y-49529999D03*
X85216999Y-49529999D03*
X82676999Y-49529999D03*
X80136999Y-49529999D03*
X77596999Y-49529999D03*
X77596999Y-57149999D03*
X80136999Y-57149999D03*
X82676999Y-57149999D03*
X85216999Y-57149999D03*
X87756999Y-57149999D03*
X90296999Y-57149999D03*
X92836999Y-57149999D03*
X95376999Y-57149999D03*
D25*
X106045000Y-45720000D03*
D26*
X116204999Y-45719999D03*
D25*
X102870000Y-57658000D03*
D26*
X102869999Y-47497999D03*
D35*
X75168000Y-44233000D03*
D36*
X73167999Y-44232999D03*
D17*
X98678999Y-64896999D03*
D18*
X96138999Y-64896999D03*
X93598999Y-64896999D03*
X91058999Y-64896999D03*
D33*
X106689999Y-57164999D03*
D34*
X109229999Y-57164999D03*
X111769999Y-57164999D03*
X114309999Y-57164999D03*
X114309999Y-49544999D03*
X111769999Y-49544999D03*
X109229999Y-49544999D03*
X106689999Y-49544999D03*
D35*
X82804000Y-44233000D03*
D36*
X80803999Y-44232999D03*
M02*
