M48
; DRILL file {KiCad (7.0.0)} date Fri Jun  2 20:54:25 2023
; FORMAT={-:-/ absolute / metric / decimal}
; #@! TF.CreationDate,2023-06-02T20:54:25-06:00
; #@! TF.GenerationSoftware,Kicad,Pcbnew,(7.0.0)
; #@! TF.FileFunction,Plated,1,2,PTH
FMAT,2
METRIC
; #@! TA.AperFunction,Plated,PTH,ViaDrill
T1C0.400
; #@! TA.AperFunction,Plated,PTH,ComponentDrill
T2C0.750
; #@! TA.AperFunction,Plated,PTH,ComponentDrill
T3C0.800
; #@! TA.AperFunction,Plated,PTH,ComponentDrill
T4C0.900
; #@! TA.AperFunction,Plated,PTH,ComponentDrill
T5C0.950
; #@! TA.AperFunction,Plated,PTH,ComponentDrill
T6C1.000
; #@! TA.AperFunction,Plated,PTH,ComponentDrill
T7C2.300
%
G90
G05
T1
X97.409Y-54.356
X98.552Y-55.753
X111.887Y-53.467
X115.189Y-53.594
X115.697Y-61.468
X116.459Y-52.578
X116.84Y-60.579
X118.935Y-53.53
T2
X73.168Y-44.233
X75.168Y-44.233
X80.804Y-44.233
X82.804Y-44.233
T3
X76.2Y-61.087
X77.597Y-49.53
X77.597Y-57.15
X80.137Y-49.53
X80.137Y-57.15
X82.677Y-49.53
X82.677Y-57.15
X85.217Y-49.53
X85.217Y-57.15
X86.36Y-61.087
X87.757Y-49.53
X87.757Y-57.15
X88.9Y-61.087
X90.297Y-49.53
X90.297Y-57.15
X92.837Y-49.53
X92.837Y-57.15
X95.377Y-49.53
X95.377Y-57.15
X98.933Y-42.037
X99.06Y-61.087
X101.473Y-42.037
X101.473Y-61.087
X101.854Y-64.897
X102.87Y-47.498
X102.87Y-57.658
X104.013Y-42.037
X106.045Y-45.72
X106.553Y-42.037
X106.69Y-49.545
X106.69Y-57.165
X109.23Y-49.545
X109.23Y-57.165
X111.633Y-61.087
X111.77Y-49.545
X111.77Y-57.165
X112.014Y-64.897
X114.31Y-49.545
X114.31Y-57.165
X116.205Y-45.72
X116.713Y-42.037
X119.38Y-55.92
X119.38Y-58.42
T4
X98.933Y-47.498
X98.933Y-57.658
X119.004Y-42.799
X121.544Y-42.799
T5
X71.4Y-49.84
X71.4Y-52.34
X71.4Y-54.34
X71.4Y-56.84
T6
X87.63Y-44.323
X90.17Y-44.323
X91.059Y-64.897
X92.71Y-44.323
X93.599Y-64.897
X95.25Y-44.323
X96.139Y-64.897
X98.679Y-64.897
X115.301Y-64.77
X117.841Y-64.77
X120.381Y-64.77
T7
X68.69Y-46.77
X68.69Y-59.91
T0
M30
